<?xml version="1.0" encoding="utf-8"?>
<!-- Generator: Adobe Illustrator 24.3.0, SVG Export Plug-In . SVG Version: 6.00 Build 0)  -->
<svg version="1.1" id="Layer_1" xmlns="http://www.w3.org/2000/svg" xmlns:xlink="http://www.w3.org/1999/xlink" x="0px" y="0px"
	 viewBox="0 0 595.28 841.89" style="enable-background:new 0 0 595.28 841.89;" xml:space="preserve">
<style type="text/css">
	.st0{font-family:'Helvetica-Narrow-Bold';}
	.st1{font-size:0.093px;}
	.st2{font-size:0.462px;}
	.st3{font-size:0.5886px;}
	.st4{font-size:1.0805px;}
	.st5{font-size:1.4532px;}
	.st6{font-size:2.3243px;}
	.st7{font-size:3.7305px;}
	.st8{font-size:170.416px;}
	.st9{font-size:0.2584px;}
	.st10{font-size:0.442px;}
	.st11{font-size:10px;}
	.st12{font-size:0.0632px;}
	.st13{font-size:0.1023px;}
	.st14{font-size:0.1056px;}
	.st15{font-size:0.2425px;}
	.st16{font-size:0.2432px;}
	.st17{font-size:1.2374px;}
	.st18{font-size:2.5513px;}
	.st19{font-size:4.8514px;}
	.st20{font-size:6.4928px;}
	.st21{font-size:7.1515px;}
	.st22{font-size:12.4232px;}
	.st23{font-size:26.8628px;}
</style>
<g>
	<text transform="matrix(1 0 0 1 210.0781 467.6696)" class="st0 st1">M</text>
	<text transform="matrix(61.3535 0 0 1 211.4766 466.4977)" class="st0 st2">Y</text>
	<text transform="matrix(66.2032 0 0 1 209.6797 465.2712)" class="st0 st2">K</text>
	<text transform="matrix(48.306 0 0 1 211.5625 463.8102)" class="st0 st3">A</text>
	<text transform="matrix(36.9304 0 0 1 209 462.4118)" class="st0 st4">L</text>
	<text transform="matrix(21.4427 0 0 1 209.2891 460.5368)" class="st0 st5">R</text>
	<text transform="matrix(7.829 0 0 1 218.5 458.5993)" class="st0 st6">I</text>
	<text transform="matrix(8.7261 0 0 1 210.5 455.8415)" class="st0 st7">S</text>
	<text transform="matrix(0.2003 0 0 1 228.3203 471.529)" class="st0 st8">P</text>
	<text transform="matrix(1 0 0 1 247.3828 464.4196)" class="st0 st9">L</text>
	<text transform="matrix(70.5058 0 0 1 247.6562 463.2477)" class="st0 st10">R</text>
	<text transform="matrix(1 0 0 1 304.9844 464.8806)" class="st0 st11">L</text>
	<text transform="matrix(1 0 0 1 314.4688 463.8337)" class="st0 st12">I</text>
	<text transform="matrix(1 0 0 1 325.6406 466.6384)" class="st0 st13">S</text>
	<text transform="matrix(1 0 0 1 324.8438 465.4509)" class="st0 st14">K</text>
	<text transform="matrix(1 0 0 1 324.7266 464.4899)" class="st0 st15">N</text>
	<text transform="matrix(1 0 0 1 324.1406 463.3415)" class="st0 st15">L</text>
	<text transform="matrix(74.8145 0 0 1 333.6641 461.9587)" class="st0 st16">I</text>
	<text transform="matrix(22.9053 0 0 1 365.0156 470.8259)" class="st0 st17">Y</text>
	<text transform="matrix(11.1443 0 0 1 365.125 468.9821)" class="st0 st18">A</text>
	<text transform="matrix(7.5316 0 0 1 362.4688 466.2009)" class="st0 st19">F</text>
	<text transform="matrix(4.4768 0 0 1 364.8281 461.7946)" class="st0 st20">V</text>
	<text transform="matrix(3.6929 0 0 1 363.625 455.9821)" class="st0 st21">M</text>
	<text transform="matrix(1.4648 0 0 1 372.0469 449.9587)" class="st0 st22">I</text>
	<text transform="matrix(1.4855 0 0 1 362.5469 439.9821)" class="st0 st23">L</text>
</g>
</svg>
