<?xml version="1.0" encoding="utf-8"?>
<!-- Generator: Adobe Illustrator 24.3.0, SVG Export Plug-In . SVG Version: 6.00 Build 0)  -->
<svg version="1.1" id="Layer_1" xmlns="http://www.w3.org/2000/svg" xmlns:xlink="http://www.w3.org/1999/xlink" x="0px" y="0px"
	 viewBox="0 0 595.28 841.89" style="enable-background:new 0 0 595.28 841.89;" xml:space="preserve">
<style type="text/css">
	.st0{font-family:'Helvetica-Narrow-Bold';}
	.st1{font-size:1.8848px;}
	.st2{font-size:1.9817px;}
	.st3{font-size:1.9872px;}
	.st4{font-size:5.3609px;}
	.st5{font-size:8.7365px;}
	.st6{font-size:8.2978px;}
	.st7{font-size:35.7448px;}
	.st8{font-size:2.6246px;}
	.st9{font-size:2.3724px;}
	.st10{font-size:2.6283px;}
	.st11{font-size:6.6432px;}
	.st12{font-size:14.6803px;}
	.st13{font-size:50.8398px;}
	.st14{font-size:0.1757px;}
	.st15{font-size:0.1653px;}
	.st16{font-size:1.7452px;}
	.st17{font-size:1.7464px;}
	.st18{font-size:1.6578px;}
	.st19{font-size:8.0197px;}
	.st20{font-size:0.4471px;}
	.st21{font-size:2.1718px;}
	.st22{font-size:2.2882px;}
	.st23{font-size:2.2883px;}
	.st24{font-size:4.1257px;}
	.st25{font-size:4.1256px;}
	.st26{font-size:7.4149px;}
	.st27{font-size:0.1386px;}
	.st28{font-size:0.132px;}
	.st29{font-size:1.6711px;}
	.st30{font-size:3.2036px;}
	.st31{font-size:3.0428px;}
	.st32{font-size:1.798px;}
	.st33{font-size:1.893px;}
	.st34{font-size:8.4632px;}
	.st35{font-size:11.7683px;}
	.st36{font-size:15.0371px;}
	.st37{font-size:24.8943px;}
	.st38{font-size:0.5685px;}
	.st39{font-size:0.5404px;}
	.st40{font-size:0.5684px;}
	.st41{font-size:2.5308px;}
	.st42{font-size:4.4968px;}
	.st43{font-size:6.4592px;}
	.st44{font-size:0.1833px;}
	.st45{font-size:0.1722px;}
	.st46{font-size:0.1662px;}
	.st47{font-size:1.7606px;}
	.st48{font-size:4.9114px;}
	.st49{font-size:6.1624px;}
	.st50{font-size:7.3577px;}
	.st51{font-size:16.1323px;}
	.st52{font-size:29.2404px;}
	.st53{font-size:42.3678px;}
</style>
<g>
	<text transform="matrix(17.2707 0 0 1 211.5781 458.9611)" class="st0 st1">S</text>
	<text transform="matrix(20.1364 0 0 1 210.0781 456.7892)" class="st0 st2">L</text>
	<text transform="matrix(9.157 0 0 1 219.5781 454.3517)" class="st0 st3">I</text>
	<text transform="matrix(15.3482 0 0 1 211.8359 451.8596)" class="st0 st1">C</text>
	<text transform="matrix(6.0074 0 0 1 210.6562 449.4455)" class="st0 st4">N</text>
	<text transform="matrix(3.3271 0 0 1 212.3516 444.5549)" class="st0 st5">V</text>
	<text transform="matrix(3.3946 0 0 1 211.75 437.0549)" class="st0 st6">G</text>
	<text transform="matrix(1.0222 0 0 1 210 430.1174)" class="st0 st7">F</text>
	<text transform="matrix(11.9122 0 0 1 231.8359 459.008)" class="st0 st8">T</text>
	<text transform="matrix(10.9723 0 0 1 231.2812 456.2189)" class="st0 st9">Q</text>
	<text transform="matrix(6.9234 0 0 1 238.7656 453.4611)" class="st0 st10">I</text>
	<text transform="matrix(10.8328 0 0 1 231.8516 450.5705)" class="st0 st8">A</text>
	<text transform="matrix(4.3754 0 0 1 231.5391 447.6799)" class="st0 st11">V</text>
	<text transform="matrix(1.799 0 0 1 230.3438 441.9142)" class="st0 st12">M</text>
	<text transform="matrix(0.7849 0 0 1 229.2656 430.3517)" class="st0 st13">L</text>
	<text transform="matrix(1 0 0 1 250.9141 459.0002)" class="st0 st14">Y</text>
	<text transform="matrix(1 0 0 1 250.7344 457.9533)" class="st0 st14">V</text>
	<text transform="matrix(1 0 0 1 251.0391 456.8986)" class="st0 st14">T</text>
	<text transform="matrix(1 0 0 1 249.9688 455.8439)" class="st0 st15">S</text>
	<text transform="matrix(1 0 0 1 248.7344 454.5549)" class="st0 st14">R</text>
	<text transform="matrix(1 0 0 1 249.5469 453.5002)" class="st0 st14">M</text>
	<text transform="matrix(1 0 0 1 249.1406 452.4455)" class="st0 st14">K</text>
	<text transform="matrix(19.5615 0 0 1 248.5859 451.1564)" class="st0 st16">P</text>
	<text transform="matrix(10.4196 0 0 1 257.9609 449.0471)" class="st0 st17">I</text>
	<text transform="matrix(16.9915 0 0 1 250.1406 446.6799)" class="st0 st18">G</text>
	<text transform="matrix(20.9364 0 0 1 248.3828 444.6017)" class="st0 st16">F</text>
	<text transform="matrix(16.2917 0 0 1 251.0469 442.258)" class="st0 st16">A</text>
	<text transform="matrix(4.9758 0 0 1 248.4609 439.9142)" class="st0 st19">L</text>
	<text transform="matrix(69.9222 0 0 1 270.2188 459.008)" class="st0 st20">T</text>
	<text transform="matrix(89.2443 0 0 1 267.6562 457.8049)" class="st0 st20">L</text>
	<text transform="matrix(81.7172 0 0 1 267.5781 456.6096)" class="st0 st20">F</text>
	<text transform="matrix(77.0748 0 0 1 267.7344 455.1642)" class="st0 st20">E</text>
	<text transform="matrix(14.9883 0 0 1 269.1562 453.9142)" class="st0 st21">S</text>
	<text transform="matrix(13.6177 0 0 1 267.9453 451.3127)" class="st0 st22">R</text>
	<text transform="matrix(14.919 0 0 1 267.7891 448.6642)" class="st0 st23">P</text>
	<text transform="matrix(13.6177 0 0 1 268.1719 446.0314)" class="st0 st22">D</text>
	<text transform="matrix(7.0453 0 0 1 269.9375 443.383)" class="st0 st24">V</text>
	<text transform="matrix(6.8916 0 0 1 270.2266 439.3049)" class="st0 st25">A</text>
	<text transform="matrix(3.7988 0 0 1 269.3359 435.3049)" class="st0 st26">G</text>
	<text transform="matrix(1 0 0 1 289.4219 459.008)" class="st0 st27">T</text>
	<text transform="matrix(1 0 0 1 287.1328 458.008)" class="st0 st27">R</text>
	<text transform="matrix(1 0 0 1 288.5391 457.008)" class="st0 st28">G</text>
	<text transform="matrix(1 0 0 1 287.3672 455.7658)" class="st0 st27">D</text>
	<text transform="matrix(1 0 0 1 288.6172 454.7736)" class="st0 st28">C</text>
	<text transform="matrix(11.9278 0 0 1 289.5078 453.5314)" class="st0 st29">W</text>
	<text transform="matrix(17.3935 0 0 1 289.125 451.5314)" class="st0 st29">V</text>
	<text transform="matrix(23.8786 0 0 1 286.8516 449.2892)" class="st0 st29">L</text>
	<text transform="matrix(8.8473 0 0 1 289.3203 447.0471)" class="st0 st30">Y</text>
	<text transform="matrix(10.698 0 0 1 288.3516 443.7424)" class="st0 st31">S</text>
	<text transform="matrix(11.4056 0 0 1 286.7812 440.3361)" class="st0 st30">F</text>
	<text transform="matrix(8.8752 0 0 1 289.4219 437.0939)" class="st0 st30">A</text>
	<text transform="matrix(18.1046 0 0 1 307.5547 458.9689)" class="st0 st32">S</text>
	<text transform="matrix(18.0339 0 0 1 306.1719 456.6877)" class="st0 st33">P</text>
	<text transform="matrix(16.0898 0 0 1 307.8047 454.3361)" class="st0 st32">C</text>
	<text transform="matrix(4.3174 0 0 1 305.9688 452.0471)" class="st0 st34">F</text>
	<text transform="matrix(1.5463 0 0 1 315.5469 444.8517)" class="st0 st35">I</text>
	<text transform="matrix(2.6537 0 0 1 306.0391 435.5861)" class="st0 st36">L</text>
	<text transform="matrix(1.1676 0 0 1 308.3203 423.7424)" class="st0 st37">V</text>
	<text transform="matrix(49.8586 0 0 1 327.7109 459.0002)" class="st0 st38">Y</text>
	<text transform="matrix(60.2346 0 0 1 326.7188 457.6174)" class="st0 st39">S</text>
	<text transform="matrix(46.4577 0 0 1 326.3203 456.2424)" class="st0 st38">M</text>
	<text transform="matrix(53.8037 0 0 1 325.9219 454.8674)" class="st0 st40">K</text>
	<text transform="matrix(56.6567 0 0 1 325.7266 453.4924)" class="st0 st40">H</text>
	<text transform="matrix(50.0194 0 0 1 327.8125 452.1174)" class="st0 st40">A</text>
	<text transform="matrix(12.7251 0 0 1 325.8203 450.7424)" class="st0 st41">N</text>
	<text transform="matrix(7.5917 0 0 1 325.3672 447.7424)" class="st0 st42">P</text>
	<text transform="matrix(4.5 0 0 1 327.5156 443.6017)" class="st0 st43">V</text>
	<text transform="matrix(6.1779 0 0 1 325.2344 438.0939)" class="st0 st43">L</text>
	<text transform="matrix(5.6569 0 0 1 325.1562 432.3361)" class="st0 st43">F</text>
	<text transform="matrix(1 0 0 1 346.9062 459.008)" class="st0 st44">Y</text>
	<text transform="matrix(1 0 0 1 346.7188 457.9455)" class="st0 st44">V</text>
	<text transform="matrix(1 0 0 1 345.9375 456.883)" class="st0 st45">S</text>
	<text transform="matrix(1 0 0 1 346.4375 455.8049)" class="st0 st46">Q</text>
	<text transform="matrix(1 0 0 1 344.4375 454.5158)" class="st0 st44">L</text>
	<text transform="matrix(1 0 0 1 344.9062 453.4533)" class="st0 st44">H</text>
	<text transform="matrix(1 0 0 1 344.5312 452.3908)" class="st0 st44">E</text>
	<text transform="matrix(1 0 0 1 344.9453 451.3205)" class="st0 st44">D</text>
	<text transform="matrix(17.7583 0 0 1 346.9922 450.0236)" class="st0 st47">T</text>
	<text transform="matrix(17.6987 0 0 1 344.7188 447.8986)" class="st0 st47">R</text>
	<text transform="matrix(16.1491 0 0 1 347.0078 445.5314)" class="st0 st47">A</text>
	<text transform="matrix(7.4396 0 0 1 344.3516 443.4064)" class="st0 st48">F</text>
	<text transform="matrix(4.5709 0 0 1 346.1094 438.5549)" class="st0 st49">G</text>
	<text transform="matrix(3.8643 0 0 1 366.2031 459.0002)" class="st0 st50">A</text>
	<text transform="matrix(1.128 0 0 1 373.125 452.9142)" class="st0 st51">I</text>
	<text transform="matrix(1.3647 0 0 1 363.625 440.258)" class="st0 st52">L</text>
	<text transform="matrix(0.6861 0 0 1 365.8984 418.3517)" class="st0 st53">V</text>
</g>
</svg>
