<?xml version="1.0" encoding="utf-8"?>
<!-- Generator: Adobe Illustrator 24.3.0, SVG Export Plug-In . SVG Version: 6.00 Build 0)  -->
<svg version="1.1" id="Layer_1" xmlns="http://www.w3.org/2000/svg" xmlns:xlink="http://www.w3.org/1999/xlink" x="0px" y="0px"
	 viewBox="0 0 595.28 841.89" style="enable-background:new 0 0 595.28 841.89;" xml:space="preserve">
<style type="text/css">
	.st0{font-family:'Helvetica-Narrow-Bold';}
	.st1{font-size:0.2358px;}
	.st2{font-size:0.7019px;}
	.st3{font-size:0.1036px;}
	.st4{font-size:0.1147px;}
	.st5{font-size:0.1069px;}
	.st6{font-size:1.5409px;}
	.st7{font-size:4.6331px;}
	.st8{font-size:6.1417px;}
	.st9{font-size:15.1821px;}
	.st10{font-size:51.3475px;}
	.st11{font-size:0.0781px;}
	.st12{font-size:0.0739px;}
	.st13{font-size:0.4433px;}
	.st14{font-size:0.8122px;}
	.st15{font-size:1.9152px;}
	.st16{font-size:0.1679px;}
	.st17{font-size:0.8355px;}
	.st18{font-size:10px;}
	.st19{font-size:0.3799px;}
	.st20{font-size:0.36px;}
	.st21{font-size:1.7067px;}
	.st22{font-size:2.1537px;}
	.st23{font-size:0.7209px;}
	.st24{font-size:1.0204px;}
	.st25{font-size:1.5439px;}
	.st26{font-size:0.5698px;}
	.st27{font-size:0.8507px;}
	.st28{font-size:0.1525px;}
	.st29{font-size:0.4115px;}
	.st30{font-size:0.1027px;}
	.st31{font-size:0.0962px;}
	.st32{font-size:1.5994px;}
	.st33{font-size:3.0922px;}
	.st34{font-size:3.0923px;}
	.st35{font-size:4.5943px;}
	.st36{font-size:21.0367px;}
	.st37{font-size:46.4604px;}
</style>
<g>
	<text transform="matrix(1 0 0 1 210 449.4538)" class="st0 st1">L</text>
	<text transform="matrix(39.7099 0 0 1 210.2812 448.3132)" class="st0 st2">R</text>
	<text transform="matrix(1 0 0 1 229.0781 456.8054)" class="st0 st3">Q</text>
	<text transform="matrix(1 0 0 1 228.2656 455.8366)" class="st0 st4">M</text>
	<text transform="matrix(1 0 0 1 228.8125 454.8835)" class="st0 st5">G</text>
	<text transform="matrix(1 0 0 1 228.8594 453.6804)" class="st0 st5">C</text>
	<text transform="matrix(18.8968 0 0 1 228.6328 452.6882)" class="st0 st6">S</text>
	<text transform="matrix(7.7042 0 0 1 227.2891 450.5475)" class="st0 st7">L</text>
	<text transform="matrix(2.9028 0 0 1 229.6719 446.2116)" class="st0 st8">W</text>
	<text transform="matrix(2.1528 0 0 1 227.2266 440.6725)" class="st0 st9">F</text>
	<text transform="matrix(0.4938 0 0 1 229.5 428.8679)" class="st0 st10">Y</text>
	<text transform="matrix(1 0 0 1 246.5938 452.6882)" class="st0 st11">V</text>
	<text transform="matrix(1 0 0 1 245.9219 451.5319)" class="st0 st12">S</text>
	<text transform="matrix(57.1934 0 0 1 246.7578 450.6257)" class="st0 st13">Y</text>
	<text transform="matrix(57.3692 0 0 1 246.8672 449.1804)" class="st0 st13">A</text>
	<text transform="matrix(34.4324 0 0 1 246.8672 447.985)" class="st0 st14">T</text>
	<text transform="matrix(37.5982 0 0 1 244.6797 446.2585)" class="st0 st14">P</text>
	<text transform="matrix(29.085 0 0 1 245.5391 444.7741)" class="st0 st14">M</text>
	<text transform="matrix(18.6373 0 0 1 244.5625 443.2897)" class="st0 st15">L</text>
	<text transform="matrix(1 0 0 1 261.8359 449.9225)" class="st0 st16">L</text>
	<text transform="matrix(36.5485 0 0 1 261.9688 448.8757)" class="st0 st17">P</text>
	<text transform="matrix(1 0 0 1 281.4141 453.0085)" class="st0 st18">T</text>
	<text transform="matrix(1 0 0 1 279.125 452.1725)" class="st0 st18">L</text>
	<text transform="matrix(1 0 0 1 279.0469 451.1022)" class="st0 st18">F</text>
	<text transform="matrix(68.4394 0 0 1 281.1562 450.0319)" class="st0 st19">V</text>
	<text transform="matrix(80.8827 0 0 1 280.4609 448.6725)" class="st0 st20">S</text>
	<text transform="matrix(73.3613 0 0 1 279.375 447.5632)" class="st0 st19">R</text>
	<text transform="matrix(14.7632 0 0 1 280.6172 446.1882)" class="st0 st21">G</text>
	<text transform="matrix(11.8082 0 0 1 281.4219 444.0397)" class="st0 st22">A</text>
	<text transform="matrix(42.3606 0 0 1 313.7812 449.1257)" class="st0 st23">P</text>
	<text transform="matrix(34.9806 0 0 1 313.6641 447.5397)" class="st0 st24">L</text>
	<text transform="matrix(16.3201 0 0 1 315.1641 445.9694)" class="st0 st25">G</text>
	<text transform="matrix(1 0 0 1 333.1562 449.7663)" class="st0 st18">Y</text>
	<text transform="matrix(1 0 0 1 333.3125 448.7116)" class="st0 st18">W</text>
	<text transform="matrix(28.5657 0 0 1 339.2969 447.6569)" class="st0 st26">I</text>
	<text transform="matrix(41.9612 0 0 1 330.9375 446.2819)" class="st0 st27">L</text>
	<text transform="matrix(1 0 0 1 350.5078 447.9304)" class="st0 st28">T</text>
	<text transform="matrix(86.7505 0 0 1 348.2031 446.9147)" class="st0 st29">L</text>
	<text transform="matrix(1 0 0 1 366.4453 456.8054)" class="st0 st30">M</text>
	<text transform="matrix(1 0 0 1 366.9844 455.8679)" class="st0 st31">G</text>
	<text transform="matrix(17.1042 0 0 1 366.0859 454.6725)" class="st0 st32">K</text>
	<text transform="matrix(8.1991 0 0 1 367.6953 452.5397)" class="st0 st33">Y</text>
	<text transform="matrix(5.7655 0 0 1 367.8594 449.4616)" class="st0 st34">W</text>
	<text transform="matrix(3.5429 0 0 1 374.0781 446.1335)" class="st0 st35">I</text>
	<text transform="matrix(1.6968 0 0 1 365.4844 441.86)" class="st0 st36">L</text>
	<text transform="matrix(0.7035 0 0 1 365.4219 425.735)" class="st0 st37">F</text>
</g>
</svg>
