<?xml version="1.0" encoding="utf-8"?>
<!-- Generator: Adobe Illustrator 24.3.0, SVG Export Plug-In . SVG Version: 6.00 Build 0)  -->
<svg version="1.1" id="Layer_1" xmlns="http://www.w3.org/2000/svg" xmlns:xlink="http://www.w3.org/1999/xlink" x="0px" y="0px"
	 viewBox="0 0 595.28 841.89" style="enable-background:new 0 0 595.28 841.89;" xml:space="preserve">
<style type="text/css">
	.st0{font-family:'Helvetica-Narrow-Bold';}
	.st1{font-size:0.1886px;}
	.st2{font-size:0.7161px;}
	.st3{font-size:1.2436px;}
	.st4{font-size:1.1808px;}
	.st5{font-size:1.7711px;}
	.st6{font-size:3.8811px;}
	.st7{font-size:4.1888px;}
	.st8{font-size:0.7617px;}
	.st9{font-size:1.7462px;}
	.st10{font-size:2.9173px;}
	.st11{font-size:5.0693px;}
	.st12{font-size:12.6102px;}
	.st13{font-size:21.1183px;}
	.st14{font-size:0.5604px;}
	.st15{font-size:0.5335px;}
	.st16{font-size:0.8855px;}
	.st17{font-size:0.6494px;}
	.st18{font-size:0.6815px;}
	.st19{font-size:1.5145px;}
	.st20{font-size:1.4357px;}
	.st21{font-size:1.5146px;}
	.st22{font-size:1.9275px;}
	.st23{font-size:0.3187px;}
	.st24{font-size:0.6627px;}
	.st25{font-size:1.0031px;}
	.st26{font-size:1.6874px;}
	.st27{font-size:0.0593px;}
	.st28{font-size:0.0569px;}
	.st29{font-size:0.5449px;}
	.st30{font-size:0.5465px;}
	.st31{font-size:1.0305px;}
	.st32{font-size:2.8175px;}
	.st33{font-size:4.9046px;}
	.st34{font-size:0.0951px;}
	.st35{font-size:0.0893px;}
	.st36{font-size:0.5877px;}
	.st37{font-size:1.5803px;}
	.st38{font-size:2.439px;}
	.st39{font-size:3.5619px;}
	.st40{font-size:0.1554px;}
	.st41{font-size:6.3525px;}
	.st42{font-size:9.4511px;}
	.st43{font-size:29.5917px;}
	.st44{font-size:35.7888px;}
</style>
<g>
	<text transform="matrix(1 0 0 1 209.3594 452.3766)" class="st0 st1">R</text>
	<text transform="matrix(1 0 0 1 210.1562 451.0641)" class="st0 st1">M</text>
	<text transform="matrix(1 0 0 1 211.6406 449.9938)" class="st0 st1">A</text>
	<text transform="matrix(51.0268 0 0 1 209 448.9157)" class="st0 st2">F</text>
	<text transform="matrix(22.791 0 0 1 211.5469 447.3298)" class="st0 st3">Y</text>
	<text transform="matrix(23.8557 0 0 1 210.75 445.4391)" class="st0 st4">G</text>
	<text transform="matrix(17.268 0 0 1 209.75 443.5954)" class="st0 st5">K</text>
	<text transform="matrix(10.2818 0 0 1 209.0781 441.2126)" class="st0 st6">L</text>
	<text transform="matrix(7.7713 0 0 1 210.5781 437.3923)" class="st0 st7">S</text>
	<text transform="matrix(38.1596 0 0 1 230.5391 452.5329)" class="st0 st8">V</text>
	<text transform="matrix(45.2439 0 0 1 228.3594 451.111)" class="st0 st8">E</text>
	<text transform="matrix(40.9082 0 0 1 228.7891 449.4548)" class="st0 st8">D</text>
	<text transform="matrix(18.6416 0 0 1 229.7734 448.0095)" class="st0 st9">S</text>
	<text transform="matrix(9.746 0 0 1 230.8516 445.5563)" class="st0 st10">A</text>
	<text transform="matrix(5.2098 0 0 1 229.3438 442.4938)" class="st0 st11">M</text>
	<text transform="matrix(3.1644 0 0 1 228.2734 438.0095)" class="st0 st12">L</text>
	<text transform="matrix(1.2326 0 0 1 230.2812 426.7595)" class="st0 st13">Q</text>
	<text transform="matrix(55.6016 0 0 1 247.7344 449.4548)" class="st0 st14">R</text>
	<text transform="matrix(52.8013 0 0 1 249.1406 448.0798)" class="st0 st15">G</text>
	<text transform="matrix(65.1984 0 0 1 247.3828 446.486)" class="st0 st14">F</text>
	<text transform="matrix(29.8232 0 0 1 248.5469 445.1188)" class="st0 st16">M</text>
	<text transform="matrix(32.1073 0 0 1 250.0469 443.5251)" class="st0 st16">A</text>
	<text transform="matrix(50.1249 0 0 1 287.3594 449.6579)" class="st0 st17">S</text>
	<text transform="matrix(45.7215 0 0 1 286.1562 448.3688)" class="st0 st18">R</text>
	<text transform="matrix(20.6431 0 0 1 288.4141 446.8298)" class="st0 st19">T</text>
	<text transform="matrix(19.62 0 0 1 287.5312 444.5407)" class="st0 st20">G</text>
	<text transform="matrix(18.7722 0 0 1 288.4219 442.5641)" class="st0 st21">A</text>
	<text transform="matrix(20.7029 0 0 1 285.8516 440.5485)" class="st0 st22">L</text>
	<text transform="matrix(89.2198 0 0 1 307.6172 447.7829)" class="st0 st23">A</text>
	<text transform="matrix(47.1746 0 0 1 307.6172 446.5251)" class="st0 st24">T</text>
	<text transform="matrix(36.4273 0 0 1 304.9609 445.2516)" class="st0 st25">F</text>
	<text transform="matrix(23.6483 0 0 1 305.0391 443.5016)" class="st0 st26">L</text>
	<text transform="matrix(1 0 0 1 326.8125 451.7829)" class="st0 st27">T</text>
	<text transform="matrix(1 0 0 1 324.3594 450.8923)" class="st0 st27">P</text>
	<text transform="matrix(1 0 0 1 325.9297 449.7673)" class="st0 st28">G</text>
	<text transform="matrix(53.3408 0 0 1 326.5234 448.6345)" class="st0 st29">V</text>
	<text transform="matrix(48.4647 0 0 1 325.3203 447.2985)" class="st0 st29">M</text>
	<text transform="matrix(33.2985 0 0 1 333.7422 445.947)" class="st0 st30">I</text>
	<text transform="matrix(27.5899 0 0 1 326.8125 444.611)" class="st0 st31">A</text>
	<text transform="matrix(11.5534 0 0 1 325.7344 442.7516)" class="st0 st32">S</text>
	<text transform="matrix(8.1362 0 0 1 324.2344 439.6735)" class="st0 st33">L</text>
	<text transform="matrix(1 0 0 1 344.0234 450.4391)" class="st0 st34">N</text>
	<text transform="matrix(1 0 0 1 345.1094 449.2595)" class="st0 st35">G</text>
	<text transform="matrix(62.1761 0 0 1 343.3594 448.3298)" class="st0 st36">F</text>
	<text transform="matrix(18.3936 0 0 1 345.7109 446.9391)" class="st0 st37">V</text>
	<text transform="matrix(13.3464 0 0 1 344.9297 444.5329)" class="st0 st38">S</text>
	<text transform="matrix(8.7776 0 0 1 346 441.7673)" class="st0 st39">T</text>
	<text transform="matrix(7.9824 0 0 1 346.0078 438.2516)" class="st0 st39">A</text>
	<text transform="matrix(1 0 0 1 364.8906 455.5876)" class="st0 st40">V</text>
	<text transform="matrix(1 0 0 1 365.1719 454.572)" class="st0 st40">T</text>
	<text transform="matrix(1 0 0 1 363.1094 453.5329)" class="st0 st40">H</text>
	<text transform="matrix(4.1573 0 0 1 363.7031 452.2751)" class="st0 st41">M</text>
	<text transform="matrix(4.2222 0 0 1 362.625 446.9157)" class="st0 st42">L</text>
	<text transform="matrix(1.2348 0 0 1 362.5469 439.0251)" class="st0 st43">F</text>
	<text transform="matrix(0.792 0 0 1 365.0859 416.8454)" class="st0 st44">Y</text>
</g>
</svg>
