<?xml version="1.0" encoding="utf-8"?>
<!-- Generator: Adobe Illustrator 24.3.0, SVG Export Plug-In . SVG Version: 6.00 Build 0)  -->
<svg version="1.1" id="Layer_1" xmlns="http://www.w3.org/2000/svg" xmlns:xlink="http://www.w3.org/1999/xlink" x="0px" y="0px"
	 viewBox="0 0 595.28 841.89" style="enable-background:new 0 0 595.28 841.89;" xml:space="preserve">
<style type="text/css">
	.st0{font-family:'Helvetica-Narrow-Bold';}
	.st1{font-size:0.4621px;}
	.st2{font-size:0.4411px;}
	.st3{font-size:0.4199px;}
	.st4{font-size:4.1776px;}
	.st5{font-size:2.6103px;}
	.st6{font-size:2.6139px;}
	.st7{font-size:6.6144px;}
	.st8{font-size:10.6185px;}
	.st9{font-size:18.623px;}
	.st10{font-size:3.3551px;}
	.st11{font-size:3.0312px;}
	.st12{font-size:3.1863px;}
	.st13{font-size:8.1041px;}
	.st14{font-size:41.3357px;}
	.st15{font-size:1.0131px;}
	.st16{font-size:0.9157px;}
	.st17{font-size:1.0132px;}
	.st18{font-size:3.4202px;}
	.st19{font-size:5.5344px;}
	.st20{font-size:5.8272px;}
	.st21{font-size:2.1153px;}
	.st22{font-size:1.9109px;}
	.st23{font-size:5.6208px;}
	.st24{font-size:19.65px;}
	.st25{font-size:1.9413px;}
	.st26{font-size:1.9412px;}
	.st27{font-size:1.8448px;}
	.st28{font-size:8.1812px;}
	.st29{font-size:18.6203px;}
	.st30{font-size:0.531px;}
	.st31{font-size:0.5033px;}
	.st32{font-size:0.5311px;}
	.st33{font-size:2.4559px;}
	.st34{font-size:2.456px;}
	.st35{font-size:2.4591px;}
	.st36{font-size:2.33px;}
	.st37{font-size:0.7376px;}
	.st38{font-size:0.7px;}
	.st39{font-size:0.6678px;}
	.st40{font-size:2.8691px;}
	.st41{font-size:5.0006px;}
	.st42{font-size:0.9117px;}
	.st43{font-size:0.8233px;}
	.st44{font-size:0.9106px;}
	.st45{font-size:0.8641px;}
	.st46{font-size:3.2136px;}
	.st47{font-size:3.0517px;}
	.st48{font-size:5.5154px;}
	.st49{font-size:6.0489px;}
	.st50{font-size:13.4879px;}
	.st51{font-size:95.3318px;}
</style>
<g>
	<text transform="matrix(56.2653 0 0 1 211.0781 470.8161)" class="st0 st1">V</text>
	<text transform="matrix(60.5171 0 0 1 211.3672 469.5974)" class="st0 st1">T</text>
	<text transform="matrix(66.0108 0 0 1 210.3984 468.3552)" class="st0 st2">S</text>
	<text transform="matrix(55.4595 0 0 1 210.875 466.8708)" class="st0 st3">Q</text>
	<text transform="matrix(66.0817 0 0 1 209.1641 465.6833)" class="st0 st1">P</text>
	<text transform="matrix(51.1191 0 0 1 210.0391 464.2145)" class="st0 st1">M</text>
	<text transform="matrix(62.3497 0 0 1 209.4766 462.9958)" class="st0 st1">H</text>
	<text transform="matrix(70.7266 0 0 1 209 461.5192)" class="st0 st1">F</text>
	<text transform="matrix(66.7072 0 0 1 209.1562 460.2927)" class="st0 st1">E</text>
	<text transform="matrix(60.3167 0 0 1 209.5234 458.8239)" class="st0 st1">D</text>
	<text transform="matrix(58.6662 0 0 1 210.6172 457.5895)" class="st0 st2">C</text>
	<text transform="matrix(6.6721 0 0 1 209.3203 456.3864)" class="st0 st4">R</text>
	<text transform="matrix(8.5443 0 0 1 209.0547 452.2224)" class="st0 st4">L</text>
	<text transform="matrix(11.0374 0 0 1 226.8594 470.8161)" class="st0 st5">N</text>
	<text transform="matrix(6.2273 0 0 1 234.6953 467.9567)" class="st0 st6">I</text>
	<text transform="matrix(4.2141 0 0 1 226.6016 465.0817)" class="st0 st7">R</text>
	<text transform="matrix(3.5715 0 0 1 227.2969 459.3395)" class="st0 st7">M</text>
	<text transform="matrix(2.8759 0 0 1 226.4531 453.6052)" class="st0 st8">P</text>
	<text transform="matrix(2.395 0 0 1 228.6406 444.9958)" class="st0 st8">A</text>
	<text transform="matrix(1.9167 0 0 1 226.3359 436.3942)" class="st0 st9">L</text>
	<text transform="matrix(7.5567 0 0 1 245.8047 470.8161)" class="st0 st10">Y</text>
	<text transform="matrix(7.7498 0 0 1 245.6406 467.6052)" class="st0 st10">V</text>
	<text transform="matrix(7.6828 0 0 1 245.4141 463.9724)" class="st0 st11">Q</text>
	<text transform="matrix(10.6389 0 0 1 243.6016 460.6911)" class="st0 st10">L</text>
	<text transform="matrix(7.9078 0 0 1 245.1172 457.1755)" class="st0 st12">G</text>
	<text transform="matrix(7.5799 0 0 1 245.9141 454.0192)" class="st0 st10">A</text>
	<text transform="matrix(3.3755 0 0 1 244.2109 450.5505)" class="st0 st13">K</text>
	<text transform="matrix(0.6743 0 0 1 243.8672 443.6364)" class="st0 st14">R</text>
	<text transform="matrix(17.5971 0 0 1 263.2578 470.8161)" class="st0 st15">W</text>
	<text transform="matrix(27.6036 0 0 1 263.1719 469.2927)" class="st0 st15">T</text>
	<text transform="matrix(25.433 0 0 1 262.6953 467.4567)" class="st0 st16">Q</text>
	<text transform="matrix(35.2302 0 0 1 260.8828 465.738)" class="st0 st17">L</text>
	<text transform="matrix(27.001 0 0 1 261.4922 463.9645)" class="st0 st15">K</text>
	<text transform="matrix(27.5121 0 0 1 261.3359 462.1833)" class="st0 st15">D</text>
	<text transform="matrix(25.1005 0 0 1 263.1797 460.652)" class="st0 st17">A</text>
	<text transform="matrix(7.4128 0 0 1 263.0859 458.8708)" class="st0 st18">Y</text>
	<text transform="matrix(8.1497 0 0 1 261.1406 455.3161)" class="st0 st18">R</text>
	<text transform="matrix(5.2612 0 0 1 262.2266 451.8864)" class="st0 st19">S</text>
	<text transform="matrix(5.2901 0 0 1 260.9766 446.6755)" class="st0 st20">E</text>
	<text transform="matrix(11.9858 0 0 1 280.3594 470.8239)" class="st0 st21">Y</text>
	<text transform="matrix(12.1869 0 0 1 279.9609 468.3161)" class="st0 st22">Q</text>
	<text transform="matrix(13.6201 0 0 1 278.5859 465.7849)" class="st0 st21">H</text>
	<text transform="matrix(14.5732 0 0 1 278.2422 463.3942)" class="st0 st21">E</text>
	<text transform="matrix(13.1768 0 0 1 278.6094 460.7614)" class="st0 st21">D</text>
	<text transform="matrix(5.1257 0 0 1 278.6797 458.363)" class="st0 st23">N</text>
	<text transform="matrix(6.3504 0 0 1 278.1641 453.3239)" class="st0 st23">L</text>
	<text transform="matrix(4.8669 0 0 1 278.7656 448.2927)" class="st0 st23">K</text>
	<text transform="matrix(1.4185 0 0 1 278.4141 443.2692)" class="st0 st24">R</text>
	<text transform="matrix(13.0603 0 0 1 297.6328 470.8161)" class="st0 st25">Y</text>
	<text transform="matrix(9.1841 0 0 1 297.7969 468.4333)" class="st0 st26">W</text>
	<text transform="matrix(18.3873 0 0 1 295.4297 466.0427)" class="st0 st25">L</text>
	<text transform="matrix(14.0917 0 0 1 296.0391 463.652)" class="st0 st25">K</text>
	<text transform="matrix(14.8414 0 0 1 295.8516 461.2614)" class="st0 st26">H</text>
	<text transform="matrix(14.3587 0 0 1 295.8828 458.8708)" class="st0 st26">D</text>
	<text transform="matrix(14.0274 0 0 1 297 456.4411)" class="st0 st27">C</text>
	<text transform="matrix(13.1007 0 0 1 297.7266 454.0895)" class="st0 st26">A</text>
	<text transform="matrix(3.0799 0 0 1 296.9297 451.5427)" class="st0 st28">G</text>
	<text transform="matrix(1.4969 0 0 1 295.6875 444.527)" class="st0 st29">R</text>
	<text transform="matrix(47.7453 0 0 1 314.8984 470.8239)" class="st0 st30">Y</text>
	<text transform="matrix(57.8534 0 0 1 314.0469 469.488)" class="st0 st31">S</text>
	<text transform="matrix(52.4866 0 0 1 312.9609 468.1833)" class="st0 st32">R</text>
	<text transform="matrix(54.2557 0 0 1 313.1406 466.8552)" class="st0 st30">H</text>
	<text transform="matrix(61.55 0 0 1 312.6484 465.5349)" class="st0 st30">F</text>
	<text transform="matrix(58.0522 0 0 1 312.7891 463.9724)" class="st0 st30">E</text>
	<text transform="matrix(51.4202 0 0 1 314.2656 462.6364)" class="st0 st31">C</text>
	<text transform="matrix(10.5872 0 0 1 314.7422 461.3239)" class="st0 st33">V</text>
	<text transform="matrix(11.1385 0 0 1 313.3047 458.4333)" class="st0 st34">K</text>
	<text transform="matrix(6.6192 0 0 1 321.0625 455.7927)" class="st0 st35">I</text>
	<text transform="matrix(10.8142 0 0 1 314.2031 452.8708)" class="st0 st36">G</text>
	<text transform="matrix(10.3552 0 0 1 315.0078 450.2692)" class="st0 st33">A</text>
	<text transform="matrix(34.3715 0 0 1 332.1797 470.8161)" class="st0 st37">Y</text>
	<text transform="matrix(24.1697 0 0 1 332.3516 469.4411)" class="st0 st37">W</text>
	<text transform="matrix(35.2526 0 0 1 332.0078 467.8161)" class="st0 st37">V</text>
	<text transform="matrix(41.5957 0 0 1 331.3203 466.4177)" class="st0 st38">S</text>
	<text transform="matrix(37.7878 0 0 1 330.2422 464.8239)" class="st0 st37">R</text>
	<text transform="matrix(34.8743 0 0 1 331.7812 463.1599)" class="st0 st39">Q</text>
	<text transform="matrix(37.0858 0 0 1 330.5859 461.8083)" class="st0 st37">K</text>
	<text transform="matrix(35.9976 0 0 1 331.4766 460.1833)" class="st0 st38">G</text>
	<text transform="matrix(41.7913 0 0 1 330.0703 458.8161)" class="st0 st37">E</text>
	<text transform="matrix(9.7474 0 0 1 332.2734 457.1911)" class="st0 st40">T</text>
	<text transform="matrix(7.138 0 0 1 329.9766 454.1989)" class="st0 st41">L</text>
	<text transform="matrix(5.0857 0 0 1 332.2812 449.5739)" class="st0 st41">A</text>
	<text transform="matrix(28.5186 0 0 1 349.2734 470.8239)" class="st0 st42">V</text>
	<text transform="matrix(28.2849 0 0 1 349.0547 469.1442)" class="st0 st43">Q</text>
	<text transform="matrix(30.0041 0 0 1 347.8359 467.5661)" class="st0 st42">K</text>
	<text transform="matrix(17.8755 0 0 1 355.8516 465.9411)" class="st0 st44">I</text>
	<text transform="matrix(29.1589 0 0 1 348.7656 464.3005)" class="st0 st45">G</text>
	<text transform="matrix(27.8935 0 0 1 349.5469 462.6911)" class="st0 st42">A</text>
	<text transform="matrix(8.7026 0 0 1 349.5469 461.0583)" class="st0 st46">T</text>
	<text transform="matrix(9.5414 0 0 1 348.6016 457.738)" class="st0 st47">S</text>
	<text transform="matrix(8.6737 0 0 1 347.5156 454.3083)" class="st0 st46">R</text>
	<text transform="matrix(9.5927 0 0 1 347.3438 451.0583)" class="st0 st46">E</text>
	<text transform="matrix(5.5367 0 0 1 347.3672 447.8083)" class="st0 st48">P</text>
	<text transform="matrix(4.2985 0 0 1 366.5547 470.8239)" class="st0 st49">V</text>
	<text transform="matrix(5.4033 0 0 1 364.4609 465.6599)" class="st0 st49">F</text>
	<text transform="matrix(1.7514 0 0 1 365.4922 460.2458)" class="st0 st50">M</text>
	<text transform="matrix(0.3744 0 0 1 364.5234 449.6833)" class="st0 st51">L</text>
</g>
</svg>
