<?xml version="1.0" encoding="utf-8"?>
<!-- Generator: Adobe Illustrator 24.3.0, SVG Export Plug-In . SVG Version: 6.00 Build 0)  -->
<svg version="1.1" id="Layer_1" xmlns="http://www.w3.org/2000/svg" xmlns:xlink="http://www.w3.org/1999/xlink" x="0px" y="0px"
	 viewBox="0 0 595.28 841.89" style="enable-background:new 0 0 595.28 841.89;" xml:space="preserve">
<style type="text/css">
	.st0{font-family:'Helvetica-Narrow-Bold';}
	.st1{font-size:8.8325px;}
	.st2{font-size:8.8326px;}
	.st3{font-size:8.3879px;}
	.st4{font-size:19.0553px;}
	.st5{font-size:16.6487px;}
	.st6{font-size:16.628px;}
	.st7{font-size:88.7047px;}
	.st8{font-size:12.0744px;}
	.st9{font-size:24.2602px;}
	.st10{font-size:25.5464px;}
	.st11{font-size:25.5465px;}
	.st12{font-size:11.065px;}
	.st13{font-size:10.5091px;}
	.st14{font-size:11.0649px;}
	.st15{font-size:35.9825px;}
	.st16{font-size:12.0493px;}
	.st17{font-size:12.7048px;}
	.st18{font-size:26.7694px;}
	.st19{font-size:40.8508px;}
	.st20{font-size:10.4553px;}
	.st21{font-size:9.4411px;}
	.st22{font-size:22.3009px;}
	.st23{font-size:22.3008px;}
	.st24{font-size:7.9751px;}
	.st25{font-size:13.6972px;}
	.st26{font-size:13.7171px;}
	.st27{font-size:58.9743px;}
</style>
<g>
	<text transform="matrix(3.5279 0 0 1 210.3672 469.9641)" class="st0 st1">R</text>
	<text transform="matrix(3.6462 0 0 1 210.6562 462.7297)" class="st0 st1">N</text>
	<text transform="matrix(4.1368 0 0 1 210 455.4875)" class="st0 st2">F</text>
	<text transform="matrix(3.9018 0 0 1 210.1797 448.0031)" class="st0 st1">E</text>
	<text transform="matrix(3.4489 0 0 1 211.8281 440.6125)" class="st0 st3">C</text>
	<text transform="matrix(1.046 0 0 1 212.7266 433.2844)" class="st0 st4">W</text>
	<text transform="matrix(1.093 0 0 1 238.7734 469.9641)" class="st0 st5">I</text>
	<text transform="matrix(2.1974 0 0 1 229.1953 457.05)" class="st0 st6">F</text>
	<text transform="matrix(0.4499 0 0 1 229.2656 444.1359)" class="st0 st7">L</text>
	<text transform="matrix(3.0261 0 0 1 248.3906 469.9719)" class="st0 st8">F</text>
	<text transform="matrix(1.3418 0 0 1 249.9688 459.9562)" class="st0 st9">S</text>
	<text transform="matrix(1.562 0 0 1 248.4609 440.9875)" class="st0 st10">L</text>
	<text transform="matrix(1.1611 0 0 1 250.1406 421.2844)" class="st0 st9">G</text>
	<text transform="matrix(2.5893 0 0 1 270.2188 469.9719)" class="st0 st8">T</text>
	<text transform="matrix(1.562 0 0 1 267.6562 460.4719)" class="st0 st10">L</text>
	<text transform="matrix(1.1611 0 0 1 269.3359 440.5187)" class="st0 st9">G</text>
	<text transform="matrix(1.113 0 0 1 270.2344 421.7375)" class="st0 st11">A</text>
	<text transform="matrix(1.8014 0 0 1 289.5 469.9641)" class="st0 st12">W</text>
	<text transform="matrix(3.0975 0 0 1 288.3516 460.9797)" class="st0 st13">S</text>
	<text transform="matrix(2.8162 0 0 1 287.1406 452.1906)" class="st0 st14">R</text>
	<text transform="matrix(3.1146 0 0 1 286.9453 443.175)" class="st0 st14">E</text>
	<text transform="matrix(1.109 0 0 1 286.8438 434.4094)" class="st0 st15">L</text>
	<text transform="matrix(2.7016 0 0 1 307.5469 469.7219)" class="st0 st16">S</text>
	<text transform="matrix(1.4323 0 0 1 315.5469 460.0734)" class="st0 st17">I</text>
	<text transform="matrix(1.4907 0 0 1 306.0391 449.9328)" class="st0 st18">L</text>
	<text transform="matrix(0.7115 0 0 1 308.3203 429.6437)" class="st0 st19">V</text>
	<text transform="matrix(2.9903 0 0 1 327.7969 469.9719)" class="st0 st20">T</text>
	<text transform="matrix(2.7572 0 0 1 327.2578 461.05)" class="st0 st21">Q</text>
	<text transform="matrix(3.8166 0 0 1 325.2344 452.9875)" class="st0 st20">L</text>
	<text transform="matrix(1.5308 0 0 1 325.3672 444.6125)" class="st0 st22">P</text>
	<text transform="matrix(1.5454 0 0 1 325.3359 427.6281)" class="st0 st23">E</text>
	<text transform="matrix(3.5397 0 0 1 347 469.9641)" class="st0 st1">T</text>
	<text transform="matrix(3.264 0 0 1 346.4531 462.2609)" class="st0 st24">Q</text>
	<text transform="matrix(2.99 0 0 1 345.5156 455.4797)" class="st0 st1">M</text>
	<text transform="matrix(4.5179 0 0 1 344.4297 448.0031)" class="st0 st1">L</text>
	<text transform="matrix(3.3582 0 0 1 346.1094 440.6125)" class="st0 st3">G</text>
	<text transform="matrix(1.9175 0 0 1 344.3594 433.2844)" class="st0 st4">F</text>
	<text transform="matrix(2.9133 0 0 1 363.625 469.9641)" class="st0 st25">L</text>
	<text transform="matrix(1.3266 0 0 1 373.125 459.3391)" class="st0 st26">I</text>
	<text transform="matrix(2.0758 0 0 1 366.2031 448.4719)" class="st0 st25">A</text>
	<text transform="matrix(0.4929 0 0 1 365.8984 437.5891)" class="st0 st27">V</text>
</g>
</svg>
