<?xml version="1.0" encoding="utf-8"?>
<!-- Generator: Adobe Illustrator 24.3.0, SVG Export Plug-In . SVG Version: 6.00 Build 0)  -->
<svg version="1.1" id="Layer_1" xmlns="http://www.w3.org/2000/svg" xmlns:xlink="http://www.w3.org/1999/xlink" x="0px" y="0px"
	 viewBox="0 0 595.28 841.89" style="enable-background:new 0 0 595.28 841.89;" xml:space="preserve">
<style type="text/css">
	.st0{font-family:'Helvetica-Narrow-Bold';}
	.st1{font-size:6.0611px;}
	.st2{font-size:5.7592px;}
	.st3{font-size:13.5198px;}
	.st4{font-size:21.004px;}
	.st5{font-size:7.9909px;}
	.st6{font-size:7.991px;}
	.st7{font-size:7.219px;}
	.st8{font-size:17.3794px;}
	.st9{font-size:45.5338px;}
	.st10{font-size:5.2693px;}
	.st11{font-size:5.2694px;}
	.st12{font-size:5.0035px;}
	.st13{font-size:11.9288px;}
	.st14{font-size:17.6536px;}
	.st15{font-size:3.3786px;}
	.st16{font-size:3.2075px;}
	.st17{font-size:8.1475px;}
	.st18{font-size:8.9428px;}
	.st19{font-size:8.9569px;}
	.st20{font-size:39.9496px;}
	.st21{font-size:37.9403px;}
	.st22{font-size:4.1741px;}
	.st23{font-size:4.174px;}
	.st24{font-size:4.1784px;}
	.st25{font-size:3.9633px;}
	.st26{font-size:9.2501px;}
	.st27{font-size:9.7383px;}
	.st28{font-size:4.9694px;}
	.st29{font-size:4.9695px;}
	.st30{font-size:11.3291px;}
	.st31{font-size:11.3425px;}
	.st32{font-size:11.1912px;}
	.st33{font-size:23.7727px;}
	.st34{font-size:86.6837px;}
</style>
<g>
	<text transform="matrix(5.1583 0 0 1 211.6406 469.5305)" class="st0 st1">T</text>
	<text transform="matrix(5.6522 0 0 1 210.5781 464.218)" class="st0 st2">S</text>
	<text transform="matrix(5.3134 0 0 1 209.6562 458.9211)" class="st0 st1">N</text>
	<text transform="matrix(2.0964 0 0 1 211.5391 453.4836)" class="st0 st3">Y</text>
	<text transform="matrix(2.7026 0 0 1 209 442.8742)" class="st0 st3">F</text>
	<text transform="matrix(0.8664 0 0 1 218.5781 432.2648)" class="st0 st4">I</text>
	<text transform="matrix(3.6375 0 0 1 230.5469 469.5305)" class="st0 st5">V</text>
	<text transform="matrix(3.9125 0 0 1 230.8359 463.007)" class="st0 st6">T</text>
	<text transform="matrix(3.6059 0 0 1 230.2812 455.8273)" class="st0 st7">Q</text>
	<text transform="matrix(1.793 0 0 1 228.5547 449.4914)" class="st0 st8">R</text>
	<text transform="matrix(0.7073 0 0 1 228.7578 435.9758)" class="st0 st9">H</text>
	<text transform="matrix(5.5162 0 0 1 249.7344 469.5305)" class="st0 st10">V</text>
	<text transform="matrix(5.0119 0 0 1 248.5391 464.7648)" class="st0 st10">M</text>
	<text transform="matrix(6.1117 0 0 1 247.9531 459.9992)" class="st0 st11">H</text>
	<text transform="matrix(5.9135 0 0 1 247.9688 455.2336)" class="st0 st10">D</text>
	<text transform="matrix(5.7817 0 0 1 249.2188 450.3742)" class="st0 st12">C</text>
	<text transform="matrix(2.889 0 0 1 247.5625 445.7023)" class="st0 st13">E</text>
	<text transform="matrix(1.8439 0 0 1 248.9688 435.8039)" class="st0 st14">S</text>
	<text transform="matrix(8.6032 0 0 1 268.9375 469.5305)" class="st0 st15">V</text>
	<text transform="matrix(9.2229 0 0 1 266.9453 466.2805)" class="st0 st15">R</text>
	<text transform="matrix(9.5322 0 0 1 267.1406 462.7805)" class="st0 st15">H</text>
	<text transform="matrix(8.7818 0 0 1 268.3438 459.2414)" class="st0 st16">G</text>
	<text transform="matrix(10.8147 0 0 1 266.5859 456.0461)" class="st0 st15">F</text>
	<text transform="matrix(10.2004 0 0 1 266.75 452.5617)" class="st0 st15">E</text>
	<text transform="matrix(9.2229 0 0 1 267.1562 449.0617)" class="st0 st15">D</text>
	<text transform="matrix(8.4154 0 0 1 269.2344 445.5773)" class="st0 st15">A</text>
	<text transform="matrix(3.2414 0 0 1 267.7344 442.3273)" class="st0 st17">M</text>
	<text transform="matrix(4.4622 0 0 1 285.8516 469.5305)" class="st0 st18">L</text>
	<text transform="matrix(2.0316 0 0 1 295.3516 462.132)" class="st0 st19">I</text>
	<text transform="matrix(0.8061 0 0 1 286.4297 454.7258)" class="st0 st20">N</text>
	<text transform="matrix(0.7424 0 0 1 287.5312 424.3976)" class="st0 st21">G</text>
	<text transform="matrix(5.3789 0 0 1 307.5078 469.5305)" class="st0 st10">Y</text>
	<text transform="matrix(5.5162 0 0 1 307.3281 464.7648)" class="st0 st11">V</text>
	<text transform="matrix(5.9333 0 0 1 307.6094 459.9992)" class="st0 st11">T</text>
	<text transform="matrix(5.9135 0 0 1 305.3281 455.2336)" class="st0 st10">R</text>
	<text transform="matrix(6.5403 0 0 1 305.1484 450.468)" class="st0 st10">E</text>
	<text transform="matrix(2.6998 0 0 1 305.625 445.7023)" class="st0 st13">N</text>
	<text transform="matrix(1.8439 0 0 1 306.5469 435.8039)" class="st0 st14">S</text>
	<text transform="matrix(6.7903 0 0 1 326.7031 469.5305)" class="st0 st22">Y</text>
	<text transform="matrix(6.9637 0 0 1 326.5156 465.6164)" class="st0 st22">V</text>
	<text transform="matrix(7.4903 0 0 1 326.8047 461.7023)" class="st0 st23">T</text>
	<text transform="matrix(4.355 0 0 1 333.7422 457.5461)" class="st0 st24">I</text>
	<text transform="matrix(7.7155 0 0 1 324.7188 453.6398)" class="st0 st22">H</text>
	<text transform="matrix(7.1072 0 0 1 325.9219 449.6476)" class="st0 st25">G</text>
	<text transform="matrix(3.5191 0 0 1 325.7422 445.382)" class="st0 st26">S</text>
	<text transform="matrix(2.7119 0 0 1 325.3125 437.757)" class="st0 st27">M</text>
	<text transform="matrix(6.2914 0 0 1 346 469.5305)" class="st0 st28">T</text>
	<text transform="matrix(6.2704 0 0 1 343.7188 465.1945)" class="st0 st29">R</text>
	<text transform="matrix(6.1542 0 0 1 344.1094 460.6164)" class="st0 st29">K</text>
	<text transform="matrix(7.3527 0 0 1 343.3516 456.0461)" class="st0 st28">F</text>
	<text transform="matrix(2.5657 0 0 1 345.7031 451.4758)" class="st0 st30">V</text>
	<text transform="matrix(1.6043 0 0 1 352.9375 442.3273)" class="st0 st31">I</text>
	<text transform="matrix(2.5097 0 0 1 346.0078 433.1867)" class="st0 st30">A</text>
	<text transform="matrix(2.5973 0 0 1 364.9062 469.5305)" class="st0 st32">V</text>
	<text transform="matrix(1.1109 0 0 1 363.7031 460.5773)" class="st0 st33">M</text>
	<text transform="matrix(0.4603 0 0 1 362.625 442.4445)" class="st0 st34">L</text>
</g>
</svg>
