<?xml version="1.0" encoding="utf-8"?>
<!-- Generator: Adobe Illustrator 24.3.0, SVG Export Plug-In . SVG Version: 6.00 Build 0)  -->
<svg version="1.1" id="Layer_1" xmlns="http://www.w3.org/2000/svg" xmlns:xlink="http://www.w3.org/1999/xlink" x="0px" y="0px"
	 viewBox="0 0 595.28 841.89" style="enable-background:new 0 0 595.28 841.89;" xml:space="preserve">
<style type="text/css">
	.st0{font-family:'Helvetica-Narrow-Bold';}
	.st1{font-size:0.745px;}
	.st2{font-size:2.8802px;}
	.st3{font-size:2.737px;}
	.st4{font-size:2.8846px;}
	.st5{font-size:7.1543px;}
	.st6{font-size:2.1478px;}
	.st7{font-size:1.9403px;}
	.st8{font-size:5.6981px;}
	.st9{font-size:9.2312px;}
	.st10{font-size:26.9397px;}
	.st11{font-size:0.827px;}
	.st12{font-size:0.7473px;}
	.st13{font-size:0.8269px;}
	.st14{font-size:0.7841px;}
	.st15{font-size:2.8954px;}
	.st16{font-size:3.0479px;}
	.st17{font-size:3.0527px;}
	.st18{font-size:5.2688px;}
	.st19{font-size:7.486px;}
	.st20{font-size:0.1685px;}
	.st21{font-size:0.1684px;}
	.st22{font-size:0.1508px;}
	.st23{font-size:0.1653px;}
	.st24{font-size:0.159px;}
	.st25{font-size:1.7271px;}
	.st26{font-size:3.2858px;}
	.st27{font-size:1.6378px;}
	.st28{font-size:1.5575px;}
	.st29{font-size:3.2857px;}
	.st30{font-size:0.6919px;}
	.st31{font-size:0.6241px;}
	.st32{font-size:0.692px;}
	.st33{font-size:0.6902px;}
	.st34{font-size:0.6555px;}
	.st35{font-size:2.7741px;}
	.st36{font-size:4.8563px;}
	.st37{font-size:4.6134px;}
	.st38{font-size:0.6556px;}
	.st39{font-size:6.9385px;}
	.st40{font-size:2.5491px;}
	.st41{font-size:6.4958px;}
	.st42{font-size:10.4534px;}
	.st43{font-size:14.382px;}
	.st44{font-size:26.2112px;}
</style>
<g>
	<text transform="matrix(41.9678 0 0 1 213.625 448.7033)" class="st0 st1">T</text>
	<text transform="matrix(45.8257 0 0 1 211.2031 447.3205)" class="st0 st1">P</text>
	<text transform="matrix(41.0531 0 0 1 211.7578 445.6877)" class="st0 st1">K</text>
	<text transform="matrix(49.0474 0 0 1 211 444.2971)" class="st0 st1">F</text>
	<text transform="matrix(46.261 0 0 1 211.1562 442.6721)" class="st0 st1">E</text>
	<text transform="matrix(10.0921 0 0 1 213.3438 441.0392)" class="st0 st2">V</text>
	<text transform="matrix(11.8934 0 0 1 212.5703 437.9611)" class="st0 st3">S</text>
	<text transform="matrix(13.855 0 0 1 211.0703 435.0002)" class="st0 st2">L</text>
	<text transform="matrix(6.3083 0 0 1 220.5781 431.9846)" class="st0 st4">I</text>
	<text transform="matrix(9.8718 0 0 1 213.6484 428.9689)" class="st0 st2">A</text>
	<text transform="matrix(3.9617 0 0 1 213.5469 425.7033)" class="st0 st5">Y</text>
	<text transform="matrix(9.2803 0 0 1 232.9219 448.6955)" class="st0 st6">W</text>
	<text transform="matrix(13.5333 0 0 1 232.5469 446.2502)" class="st0 st6">V</text>
	<text transform="matrix(14.5081 0 0 1 230.5625 443.8127)" class="st0 st6">R</text>
	<text transform="matrix(13.416 0 0 1 232.2812 441.008)" class="st0 st7">Q</text>
	<text transform="matrix(15.8947 0 0 1 230.3984 438.6721)" class="st0 st6">P</text>
	<text transform="matrix(16.0457 0 0 1 230.3672 435.9924)" class="st0 st6">E</text>
	<text transform="matrix(3.1935 0 0 1 239.7656 433.5471)" class="st0 st8">I</text>
	<text transform="matrix(3.9582 0 0 1 230.1953 428.4142)" class="st0 st9">F</text>
	<text transform="matrix(1.0521 0 0 1 232.7344 420.8361)" class="st0 st10">Y</text>
	<text transform="matrix(34.2717 0 0 1 251.9141 448.7033)" class="st0 st11">Y</text>
	<text transform="matrix(34.8347 0 0 1 251.4688 447.1564)" class="st0 st12">Q</text>
	<text transform="matrix(41.2829 0 0 1 249.5781 445.6799)" class="st0 st13">P</text>
	<text transform="matrix(31.9364 0 0 1 250.5469 443.9299)" class="st0 st13">M</text>
	<text transform="matrix(35.9227 0 0 1 251.1406 442.4142)" class="st0 st14">G</text>
	<text transform="matrix(37.6785 0 0 1 249.9688 440.9221)" class="st0 st11">D</text>
	<text transform="matrix(11.2429 0 0 1 250.9688 439.1096)" class="st0 st15">S</text>
	<text transform="matrix(10.5663 0 0 1 250.0469 436.1564)" class="st0 st16">N</text>
	<text transform="matrix(5.9609 0 0 1 258.9609 432.9064)" class="st0 st17">I</text>
	<text transform="matrix(5.8046 0 0 1 250.1328 429.6408)" class="st0 st18">K</text>
	<text transform="matrix(5.3305 0 0 1 249.4609 424.8752)" class="st0 st19">L</text>
	<text transform="matrix(1 0 0 1 271.3125 448.7033)" class="st0 st20">W</text>
	<text transform="matrix(1 0 0 1 271.2188 447.6564)" class="st0 st21">T</text>
	<text transform="matrix(1 0 0 1 270.6797 446.6174)" class="st0 st22">Q</text>
	<text transform="matrix(1 0 0 1 269.25 445.3439)" class="st0 st21">N</text>
	<text transform="matrix(1 0 0 1 269.7344 444.3127)" class="st0 st21">M</text>
	<text transform="matrix(1 0 0 1 278.1562 443.2658)" class="st0 st23">I</text>
	<text transform="matrix(1 0 0 1 270.3438 441.9846)" class="st0 st24">G</text>
	<text transform="matrix(1 0 0 1 271.2344 440.9533)" class="st0 st21">A</text>
	<text transform="matrix(16.8298 0 0 1 270.9375 439.9064)" class="st0 st25">V</text>
	<text transform="matrix(21.1561 0 0 1 268.5781 437.5939)" class="st0 st25">F</text>
	<text transform="matrix(19.9542 0 0 1 268.75 435.2658)" class="st0 st25">E</text>
	<text transform="matrix(18.0421 0 0 1 269.1562 433.1877)" class="st0 st25">D</text>
	<text transform="matrix(12.1446 0 0 1 268.6562 430.8752)" class="st0 st26">L</text>
	<text transform="matrix(1 0 0 1 290.4219 448.7033)" class="st0 st20">T</text>
	<text transform="matrix(1 0 0 1 289.3594 447.6564)" class="st0 st24">S</text>
	<text transform="matrix(1 0 0 1 288.1562 446.6252)" class="st0 st20">R</text>
	<text transform="matrix(1 0 0 1 288.4219 445.3439)" class="st0 st21">N</text>
	<text transform="matrix(1 0 0 1 288.9219 444.3127)" class="st0 st21">M</text>
	<text transform="matrix(1 0 0 1 287.8594 443.2658)" class="st0 st20">L</text>
	<text transform="matrix(1 0 0 1 288.3438 441.9846)" class="st0 st21">H</text>
	<text transform="matrix(1 0 0 1 288.3672 440.9533)" class="st0 st21">D</text>
	<text transform="matrix(11.5409 0 0 1 290.5078 439.9064)" class="st0 st25">W</text>
	<text transform="matrix(16.8298 0 0 1 290.1328 437.5939)" class="st0 st25">V</text>
	<text transform="matrix(21.1561 0 0 1 287.7812 435.2658)" class="st0 st25">F</text>
	<text transform="matrix(17.6634 0 0 1 289.6172 433.1564)" class="st0 st27">C</text>
	<text transform="matrix(9.3078 0 0 1 288.5234 430.8752)" class="st0 st26">K</text>
	<text transform="matrix(1 0 0 1 309.5156 448.7033)" class="st0 st20">Y</text>
	<text transform="matrix(1 0 0 1 309.6172 447.6721)" class="st0 st20">T</text>
	<text transform="matrix(1 0 0 1 307.625 446.6252)" class="st0 st20">N</text>
	<text transform="matrix(1 0 0 1 316.5469 445.3439)" class="st0 st23">I</text>
	<text transform="matrix(1 0 0 1 307.1406 444.3127)" class="st0 st20">E</text>
	<text transform="matrix(1 0 0 1 307.5469 443.2658)" class="st0 st20">D</text>
	<text transform="matrix(1 0 0 1 308.8047 441.9846)" class="st0 st24">C</text>
	<text transform="matrix(1 0 0 1 309.625 440.9533)" class="st0 st21">A</text>
	<text transform="matrix(19.8752 0 0 1 308.5547 439.8752)" class="st0 st27">S</text>
	<text transform="matrix(16.7133 0 0 1 309.0625 437.4924)" class="st0 st28">Q</text>
	<text transform="matrix(18.6469 0 0 1 307.5312 435.2658)" class="st0 st25">H</text>
	<text transform="matrix(17.1988 0 0 1 308.7266 433.1564)" class="st0 st27">G</text>
	<text transform="matrix(12.1447 0 0 1 307.0391 430.8752)" class="st0 st29">L</text>
	<text transform="matrix(45.1859 0 0 1 328.8125 448.7033)" class="st0 st30">T</text>
	<text transform="matrix(41.7067 0 0 1 328.25 447.3439)" class="st0 st31">Q</text>
	<text transform="matrix(44.1977 0 0 1 326.9219 445.8361)" class="st0 st32">K</text>
	<text transform="matrix(26.3643 0 0 1 335.7422 444.2892)" class="st0 st33">I</text>
	<text transform="matrix(42.9702 0 0 1 327.9062 442.7189)" class="st0 st34">G</text>
	<text transform="matrix(10.4777 0 0 1 328.5156 441.4299)" class="st0 st35">V</text>
	<text transform="matrix(11.6092 0 0 1 326.8203 438.3283)" class="st0 st35">N</text>
	<text transform="matrix(13.1712 0 0 1 326.1562 435.4611)" class="st0 st35">F</text>
	<text transform="matrix(10.249 0 0 1 328.8125 432.3596)" class="st0 st35">A</text>
	<text transform="matrix(4.1044 0 0 1 328.8906 429.5002)" class="st0 st36">W</text>
	<text transform="matrix(7.0559 0 0 1 327.7422 424.7424)" class="st0 st37">S</text>
	<text transform="matrix(40.9601 0 0 1 347.9062 448.6955)" class="st0 st32">Y</text>
	<text transform="matrix(28.8053 0 0 1 348.0781 447.3908)" class="st0 st32">W</text>
	<text transform="matrix(42.0061 0 0 1 347.7188 445.8361)" class="st0 st32">V</text>
	<text transform="matrix(49.6588 0 0 1 346.9375 444.2736)" class="st0 st34">S</text>
	<text transform="matrix(41.7067 0 0 1 347.4375 442.7033)" class="st0 st31">Q</text>
	<text transform="matrix(46.5449 0 0 1 346.0234 441.4299)" class="st0 st30">N</text>
	<text transform="matrix(49.8045 0 0 1 345.5312 439.8674)" class="st0 st32">E</text>
	<text transform="matrix(44.1279 0 0 1 347.1719 438.3049)" class="st0 st38">C</text>
	<text transform="matrix(41.0891 0 0 1 348.0156 436.7736)" class="st0 st32">A</text>
	<text transform="matrix(6.4379 0 0 1 347.9922 435.4533)" class="st0 st36">T</text>
	<text transform="matrix(6.2977 0 0 1 346.1094 430.8049)" class="st0 st36">K</text>
	<text transform="matrix(5.7512 0 0 1 345.4297 426.3908)" class="st0 st39">L</text>
	<text transform="matrix(7.8192 0 0 1 367.2734 448.7033)" class="st0 st40">W</text>
	<text transform="matrix(12.2648 0 0 1 367.1875 445.9221)" class="st0 st40">T</text>
	<text transform="matrix(11.9977 0 0 1 365.2969 443.1408)" class="st0 st40">K</text>
	<text transform="matrix(4.3633 0 0 1 367.0859 440.3596)" class="st0 st41">Y</text>
	<text transform="matrix(1.7408 0 0 1 374.125 434.5471)" class="st0 st42">I</text>
	<text transform="matrix(2.7746 0 0 1 364.625 426.1955)" class="st0 st43">L</text>
	<text transform="matrix(1.394 0 0 1 364.5469 414.8283)" class="st0 st44">F</text>
</g>
</svg>
