<?xml version="1.0" encoding="utf-8"?>
<!-- Generator: Adobe Illustrator 24.3.0, SVG Export Plug-In . SVG Version: 6.00 Build 0)  -->
<svg version="1.1" id="Layer_1" xmlns="http://www.w3.org/2000/svg" xmlns:xlink="http://www.w3.org/1999/xlink" x="0px" y="0px"
	 viewBox="0 0 595.28 841.89" style="enable-background:new 0 0 595.28 841.89;" xml:space="preserve">
<style type="text/css">
	.st0{font-family:'Helvetica-Narrow-Bold';}
	.st1{font-size:0.078px;}
	.st2{font-size:0.0737px;}
	.st3{font-size:0.8139px;}
	.st4{font-size:0.8162px;}
	.st5{font-size:1.5498px;}
	.st6{font-size:1.4744px;}
	.st7{font-size:2.2857px;}
	.st8{font-size:7.4409px;}
	.st9{font-size:2.1551px;}
	.st10{font-size:151.1279px;}
	.st11{font-size:0.2736px;}
	.st12{font-size:0.2743px;}
	.st13{font-size:0.6895px;}
	.st14{font-size:1.1092px;}
	.st15{font-size:0.6911px;}
	.st16{font-size:0.691px;}
	.st17{font-size:1.2517px;}
	.st18{font-size:2.7801px;}
	.st19{font-size:2.7759px;}
	.st20{font-size:4.1672px;}
	.st21{font-size:10px;}
	.st22{font-size:0.473px;}
	.st23{font-size:0.9407px;}
	.st24{font-size:2.804px;}
	.st25{font-size:0.3642px;}
	.st26{font-size:0.4059px;}
	.st27{font-size:1.0033px;}
	.st28{font-size:1.0032px;}
	.st29{font-size:2.8035px;}
	.st30{font-size:3.4005px;}
	.st31{font-size:0.5661px;}
	.st32{font-size:1.2195px;}
	.st33{font-size:1.8692px;}
	.st34{font-size:2.5225px;}
	.st35{font-size:3.181px;}
	.st36{font-size:0.1014px;}
	.st37{font-size:0.0951px;}
	.st38{font-size:0.8473px;}
	.st39{font-size:1.4383px;}
	.st40{font-size:1.5931px;}
	.st41{font-size:3.0848px;}
	.st42{font-size:3.8343px;}
	.st43{font-size:4.58px;}
	.st44{font-size:1.2424px;}
	.st45{font-size:2.5586px;}
	.st46{font-size:6.5111px;}
	.st47{font-size:9.1474px;}
	.st48{font-size:21.0013px;}
</style>
<g>
	<text transform="matrix(1 0 0 1 211.3984 469.2209)" class="st0 st1">Y</text>
	<text transform="matrix(1 0 0 1 211.2031 468.3068)" class="st0 st1">V</text>
	<text transform="matrix(1 0 0 1 210.4297 467.1506)" class="st0 st2">S</text>
	<text transform="matrix(1 0 0 1 209.4922 466.2443)" class="st0 st1">N</text>
	<text transform="matrix(1 0 0 1 209 465.0803)" class="st0 st1">E</text>
	<text transform="matrix(37.5751 0 0 1 209.6016 463.9318)" class="st0 st3">K</text>
	<text transform="matrix(22.2951 0 0 1 218.4219 462.4318)" class="st0 st4">I</text>
	<text transform="matrix(20.7807 0 0 1 209.4062 460.9474)" class="st0 st5">H</text>
	<text transform="matrix(19.1045 0 0 1 210.5938 458.6193)" class="st0 st6">G</text>
	<text transform="matrix(12.439 0 0 1 211.4922 456.5724)" class="st0 st7">A</text>
	<text transform="matrix(4.1877 0 0 1 209.2109 453.9318)" class="st0 st8">R</text>
	<text transform="matrix(15.841 0 0 1 228.2422 471.2912)" class="st0 st9">P</text>
	<text transform="matrix(14.1912 0 0 1 228.7891 468.8303)" class="st0 st9">K</text>
	<text transform="matrix(0.2062 0 0 1 228.4062 466.3849)" class="st0 st10">R</text>
	<text transform="matrix(1 0 0 1 247.5781 466.0412)" class="st0 st11">R</text>
	<text transform="matrix(1 0 0 1 247.9844 464.8459)" class="st0 st11">K</text>
	<text transform="matrix(66.329 0 0 1 256.8047 463.6584)" class="st0 st12">I</text>
	<text transform="matrix(1 0 0 1 249.8906 462.4553)" class="st0 st11">A</text>
	<text transform="matrix(38.303 0 0 1 248.3906 461.2599)" class="st0 st13">M</text>
	<text transform="matrix(32.9426 0 0 1 247.2266 459.7131)" class="st0 st14">F</text>
	<text transform="matrix(41.0125 0 0 1 268.9766 466.8693)" class="st0 st15">Y</text>
	<text transform="matrix(28.8443 0 0 1 269.1562 465.3146)" class="st0 st16">W</text>
	<text transform="matrix(42.0629 0 0 1 268.7891 464.0099)" class="st0 st16">V</text>
	<text transform="matrix(44.2542 0 0 1 267.1875 462.4553)" class="st0 st15">K</text>
	<text transform="matrix(20.7959 0 0 1 268.5234 460.8224)" class="st0 st17">Q</text>
	<text transform="matrix(6.5454 0 0 1 276 458.8224)" class="st0 st18">I</text>
	<text transform="matrix(10.2424 0 0 1 269.0781 455.9631)" class="st0 st19">A</text>
	<text transform="matrix(9.5758 0 0 1 266.5 452.8537)" class="st0 st20">L</text>
	<text transform="matrix(1 0 0 1 285.8203 465.4709)" class="st0 st21">P</text>
	<text transform="matrix(1 0 0 1 295.1953 464.4318)" class="st0 st21">I</text>
	<text transform="matrix(1 0 0 1 288.2812 463.3693)" class="st0 st21">A</text>
	<text transform="matrix(65.8768 0 0 1 286.2109 462.3303)" class="st0 st22">D</text>
	<text transform="matrix(30.8998 0 0 1 287.9766 461.0881)" class="st0 st23">V</text>
	<text transform="matrix(14.231 0 0 1 285.6875 459.4162)" class="st0 st24">L</text>
	<text transform="matrix(71.4788 0 0 1 306.9062 466.2287)" class="st0 st25">Q</text>
	<text transform="matrix(70.0512 0 0 1 307.4688 464.8693)" class="st0 st26">A</text>
	<text transform="matrix(28.9717 0 0 1 307.1562 463.7287)" class="st0 st27">V</text>
	<text transform="matrix(31.1636 0 0 1 307.4531 461.9631)" class="st0 st28">T</text>
	<text transform="matrix(26.3232 0 0 1 305.9688 460.1974)" class="st0 st27">M</text>
	<text transform="matrix(6.4907 0 0 1 314.3828 458.4396)" class="st0 st29">I</text>
	<text transform="matrix(11.7348 0 0 1 304.8828 455.5412)" class="st0 st30">L</text>
	<text transform="matrix(51.3448 0 0 1 326.3672 465.8068)" class="st0 st31">V</text>
	<text transform="matrix(54.0237 0 0 1 324.7656 464.4396)" class="st0 st31">K</text>
	<text transform="matrix(26.4079 0 0 1 324.6719 463.0568)" class="st0 st32">N</text>
	<text transform="matrix(16.6707 0 0 1 324.375 460.9943)" class="st0 st33">R</text>
	<text transform="matrix(21.3487 0 0 1 324.0703 458.7053)" class="st0 st33">L</text>
	<text transform="matrix(12.3943 0 0 1 326.6484 456.4162)" class="st0 st34">T</text>
	<text transform="matrix(5.7204 0 0 1 333.5859 453.674)" class="st0 st35">I</text>
	<text transform="matrix(1 0 0 1 343.2812 469.1506)" class="st0 st36">L</text>
	<text transform="matrix(1 0 0 1 344.9531 468.2053)" class="st0 st37">G</text>
	<text transform="matrix(1 0 0 1 345.8594 467.0334)" class="st0 st36">A</text>
	<text transform="matrix(34.3066 0 0 1 345.5625 466.0881)" class="st0 st38">V</text>
	<text transform="matrix(36.7777 0 0 1 343.5781 464.5568)" class="st0 st38">R</text>
	<text transform="matrix(18.0986 0 0 1 345.2812 462.6974)" class="st0 st39">Q</text>
	<text transform="matrix(21.6325 0 0 1 343.3672 460.6506)" class="st0 st40">E</text>
	<text transform="matrix(10.1351 0 0 1 345.8438 458.5178)" class="st0 st41">T</text>
	<text transform="matrix(8.3993 0 0 1 343.7578 455.2131)" class="st0 st42">H</text>
	<text transform="matrix(6.6775 0 0 1 343.9531 451.549)" class="st0 st43">K</text>
	<text transform="matrix(22.8138 0 0 1 364.9375 466.6271)" class="st0 st44">Y</text>
	<text transform="matrix(23.3964 0 0 1 364.7422 464.7678)" class="st0 st44">V</text>
	<text transform="matrix(21.2576 0 0 1 363.5469 462.9006)" class="st0 st44">M</text>
	<text transform="matrix(11.9529 0 0 1 363.1406 461.0412)" class="st0 st45">K</text>
	<text transform="matrix(5.6118 0 0 1 362.3906 458.2443)" class="st0 st46">F</text>
	<text transform="matrix(3.4065 0 0 1 362.7578 452.4162)" class="st0 st47">R</text>
	<text transform="matrix(1.9001 0 0 1 362.4688 444.9631)" class="st0 st48">L</text>
</g>
</svg>
