<?xml version="1.0" encoding="utf-8"?>
<!-- Generator: Adobe Illustrator 24.3.0, SVG Export Plug-In . SVG Version: 6.00 Build 0)  -->
<svg version="1.1" id="Layer_1" xmlns="http://www.w3.org/2000/svg" xmlns:xlink="http://www.w3.org/1999/xlink" x="0px" y="0px"
	 viewBox="0 0 595.28 841.89" style="enable-background:new 0 0 595.28 841.89;" xml:space="preserve">
<style type="text/css">
	.st0{font-family:'Helvetica-Narrow-Bold';}
	.st1{font-size:0.116px;}
	.st2{font-size:0.4759px;}
	.st3{font-size:0.8764px;}
	.st4{font-size:2.0115px;}
	.st5{font-size:2.7706px;}
	.st6{font-size:3.5263px;}
	.st7{font-size:0.1272px;}
	.st8{font-size:0.1396px;}
	.st9{font-size:1.673px;}
	.st10{font-size:1.5892px;}
	.st11{font-size:1.674px;}
	.st12{font-size:5.5029px;}
	.st13{font-size:12.396px;}
	.st14{font-size:17.7593px;}
	.st15{font-size:0.0918px;}
	.st16{font-size:0.319px;}
	.st17{font-size:0.5345px;}
	.st18{font-size:0.5066px;}
	.st19{font-size:0.2102px;}
	.st20{font-size:0.4407px;}
	.st21{font-size:0.4184px;}
	.st22{font-size:0.6682px;}
	.st23{font-size:0.2547px;}
	.st24{font-size:0.2708px;}
	.st25{font-size:0.5464px;}
	.st26{font-size:0.822px;}
	.st27{font-size:0.7832px;}
	.st28{font-size:1.3771px;}
	.st29{font-size:0.1769px;}
	.st30{font-size:0.4665px;}
	.st31{font-size:1.063px;}
	.st32{font-size:1.4342px;}
	.st33{font-size:1.7476px;}
	.st34{font-size:0.0882px;}
	.st35{font-size:0.3174px;}
	.st36{font-size:0.3365px;}
	.st37{font-size:0.581px;}
	.st38{font-size:0.8292px;}
	.st39{font-size:2.4496px;}
	.st40{font-size:3.7363px;}
	.st41{font-size:3.7296px;}
	.st42{font-size:7.573px;}
	.st43{font-size:8.8529px;}
	.st44{font-size:60.0905px;}
</style>
<g>
	<text transform="matrix(1 0 0 1 210.3438 454.7248)" class="st0 st1">S</text>
	<text transform="matrix(52.9476 0 0 1 210.5 453.7404)" class="st0 st2">G</text>
	<text transform="matrix(31.2148 0 0 1 209.5938 452.2326)" class="st0 st3">K</text>
	<text transform="matrix(17.7456 0 0 1 209 450.6545)" class="st0 st4">L</text>
	<text transform="matrix(12.6432 0 0 1 211.3125 448.1623)" class="st0 st4">A</text>
	<text transform="matrix(10.0603 0 0 1 209.2656 445.6701)" class="st0 st5">R</text>
	<text transform="matrix(7.9308 0 0 1 211.2969 442.8185)" class="st0 st6">T</text>
	<text transform="matrix(1 0 0 1 228.0625 458.756)" class="st0 st7">Q</text>
	<text transform="matrix(1 0 0 1 227.25 457.7717)" class="st0 st8">M</text>
	<text transform="matrix(1 0 0 1 226.3672 456.5295)" class="st0 st8">E</text>
	<text transform="matrix(15.1547 0 0 1 228.4844 455.5217)" class="st0 st9">Y</text>
	<text transform="matrix(18.322 0 0 1 227.6172 453.2482)" class="st0 st10">S</text>
	<text transform="matrix(9.7238 0 0 1 234.6406 451.0529)" class="st0 st11">I</text>
	<text transform="matrix(19.536 0 0 1 226.2031 448.8029)" class="st0 st9">F</text>
	<text transform="matrix(5.0821 0 0 1 228.5703 446.8029)" class="st0 st12">T</text>
	<text transform="matrix(2.8795 0 0 1 226.2812 441.7092)" class="st0 st13">L</text>
	<text transform="matrix(1.4641 0 0 1 228.3125 431.7482)" class="st0 st14">V</text>
	<text transform="matrix(1 0 0 1 262.1797 452.006)" class="st0 st15">S</text>
	<text transform="matrix(1 0 0 1 278.0312 452.3185)" class="st0 st16">F</text>
	<text transform="matrix(66.7765 0 0 1 278.1094 451.0685)" class="st0 st17">L</text>
	<text transform="matrix(49.7381 0 0 1 279.6094 449.4904)" class="st0 st18">G</text>
	<text transform="matrix(77.448 0 0 1 303.7344 452.7326)" class="st0 st19">I</text>
	<text transform="matrix(80.9951 0 0 1 295.375 451.3967)" class="st0 st20">L</text>
	<text transform="matrix(60.2176 0 0 1 296.875 450.1935)" class="st0 st21">G</text>
	<text transform="matrix(41.8518 0 0 1 297.6719 448.7717)" class="st0 st22">T</text>
	<text transform="matrix(98.9241 0 0 1 314.1484 453.6701)" class="st0 st23">G</text>
	<text transform="matrix(1 0 0 1 312.5938 452.4982)" class="st0 st24">F</text>
	<text transform="matrix(52.73 0 0 1 313.1562 451.3029)" class="st0 st25">N</text>
	<text transform="matrix(31.6326 0 0 1 314.6719 449.9592)" class="st0 st26">V</text>
	<text transform="matrix(37.1771 0 0 1 313.9922 448.4435)" class="st0 st27">S</text>
	<text transform="matrix(11.8202 0 0 1 321.0078 446.717)" class="st0 st28">I</text>
	<text transform="matrix(1 0 0 1 329.8594 455.7248)" class="st0 st29">F</text>
	<text transform="matrix(1 0 0 1 330.3828 454.6623)" class="st0 st29">D</text>
	<text transform="matrix(54.0185 0 0 1 331.4375 453.5998)" class="st0 st30">G</text>
	<text transform="matrix(55.4781 0 0 1 331.4844 452.0998)" class="st0 st30">C</text>
	<text transform="matrix(27.3913 0 0 1 331.2656 450.8185)" class="st0 st31">S</text>
	<text transform="matrix(19.4997 0 0 1 332.2188 449.1467)" class="st0 st32">T</text>
	<text transform="matrix(24.8883 0 0 1 329.9219 447.006)" class="st0 st32">L</text>
	<text transform="matrix(14.878 0 0 1 331.9609 445.1154)" class="st0 st33">V</text>
	<text transform="matrix(1 0 0 1 347.1875 454.6545)" class="st0 st34">L</text>
	<text transform="matrix(79.3876 0 0 1 348.7109 453.4826)" class="st0 st35">G</text>
	<text transform="matrix(75.5823 0 0 1 349.4922 452.2092)" class="st0 st36">A</text>
	<text transform="matrix(56.2544 0 0 1 347.1484 450.9279)" class="st0 st37">F</text>
	<text transform="matrix(30.575 0 0 1 349.3906 449.5373)" class="st0 st38">Y</text>
	<text transform="matrix(32.9896 0 0 1 347.7812 448.0217)" class="st0 st38">K</text>
	<text transform="matrix(14.5716 0 0 1 364.4688 458.0139)" class="st0 st39">L</text>
	<text transform="matrix(4.3565 0 0 1 373.0625 455.3654)" class="st0 st40">I</text>
	<text transform="matrix(7.7249 0 0 1 364.9062 451.6076)" class="st0 st41">H</text>
	<text transform="matrix(3.3479 0 0 1 366.6797 447.8576)" class="st0 st42">Y</text>
	<text transform="matrix(3.1485 0 0 1 364.7344 441.4592)" class="st0 st43">R</text>
	<text transform="matrix(0.4552 0 0 1 365.0781 434.1857)" class="st0 st44">K</text>
</g>
</svg>
