<?xml version="1.0" encoding="utf-8"?>
<!-- Generator: Adobe Illustrator 24.3.0, SVG Export Plug-In . SVG Version: 6.00 Build 0)  -->
<svg version="1.1" id="Layer_1" xmlns="http://www.w3.org/2000/svg" xmlns:xlink="http://www.w3.org/1999/xlink" x="0px" y="0px"
	 viewBox="0 0 595.28 841.89" style="enable-background:new 0 0 595.28 841.89;" xml:space="preserve">
<style type="text/css">
	.st0{font-family:'Helvetica-Narrow-Bold';}
	.st1{font-size:0.5363px;}
	.st2{font-size:2.4628px;}
	.st3{font-size:4.3931px;}
	.st4{font-size:6.3196px;}
	.st5{font-size:8.2498px;}
	.st6{font-size:0.9476px;}
	.st7{font-size:0.8987px;}
	.st8{font-size:0.9965px;}
	.st9{font-size:3.3869px;}
	.st10{font-size:8.1641px;}
	.st11{font-size:10.5508px;}
	.st12{font-size:17.7184px;}
	.st13{font-size:1.2755px;}
	.st14{font-size:2.6102px;}
	.st15{font-size:2.6139px;}
	.st16{font-size:3.9413px;}
	.st17{font-size:0.3207px;}
	.st18{font-size:0.2881px;}
	.st19{font-size:0.3033px;}
	.st20{font-size:1.1166px;}
	.st21{font-size:1.1762px;}
	.st22{font-size:0.193px;}
	.st23{font-size:0.2023px;}
	.st24{font-size:1.6227px;}
	.st25{font-size:1.7949px;}
	.st26{font-size:3.3912px;}
	.st27{font-size:3.3911px;}
	.st28{font-size:4.9874px;}
	.st29{font-size:6.5799px;}
	.st30{font-size:0.1774px;}
	.st31{font-size:0.1969px;}
	.st32{font-size:0.197px;}
	.st33{font-size:0.1847px;}
	.st34{font-size:1.7842px;}
	.st35{font-size:1.6927px;}
	.st36{font-size:3.3713px;}
	.st37{font-size:8.1483px;}
	.st38{font-size:0.6844px;}
	.st39{font-size:1.72px;}
	.st40{font-size:3.7947px;}
	.st41{font-size:0.1295px;}
	.st42{font-size:0.1189px;}
	.st43{font-size:0.1299px;}
	.st44{font-size:1.6529px;}
	.st45{font-size:1.5709px;}
	.st46{font-size:4.6998px;}
	.st47{font-size:2.9449px;}
	.st48{font-size:7.2837px;}
	.st49{font-size:11.6189px;}
	.st50{font-size:72.344px;}
</style>
<g>
	<text transform="matrix(52.8504 0 0 1 212.5547 464.3171)" class="st0 st1">Y</text>
	<text transform="matrix(37.1673 0 0 1 212.7266 462.989)" class="st0 st1">W</text>
	<text transform="matrix(74.4089 0 0 1 210.0781 461.653)" class="st0 st1">L</text>
	<text transform="matrix(13.0764 0 0 1 210.5625 460.3249)" class="st0 st2">H</text>
	<text transform="matrix(14.8361 0 0 1 210 457.4343)" class="st0 st2">F</text>
	<text transform="matrix(12.6522 0 0 1 210.5781 454.778)" class="st0 st2">D</text>
	<text transform="matrix(6.9617 0 0 1 210.75 451.8796)" class="st0 st3">K</text>
	<text transform="matrix(5.4534 0 0 1 210.1797 447.8796)" class="st0 st4">E</text>
	<text transform="matrix(4.4991 0 0 1 212.6484 442.3327)" class="st0 st4">A</text>
	<text transform="matrix(3.7898 0 0 1 212.6328 436.7702)" class="st0 st5">T</text>
	<text transform="matrix(34.352 0 0 1 230.7812 464.2858)" class="st0 st6">S</text>
	<text transform="matrix(28.9645 0 0 1 231.2734 462.7468)" class="st0 st7">Q</text>
	<text transform="matrix(32.3186 0 0 1 229.8438 461.0593)" class="st0 st8">N</text>
	<text transform="matrix(26.5028 0 0 1 230.3438 459.3015)" class="st0 st8">M</text>
	<text transform="matrix(40.0435 0 0 1 229.2656 457.5515)" class="st0 st8">L</text>
	<text transform="matrix(29.7241 0 0 1 230.9609 455.7858)" class="st0 st6">G</text>
	<text transform="matrix(10.0795 0 0 1 229.3984 454.0436)" class="st0 st9">P</text>
	<text transform="matrix(3.5603 0 0 1 231.5469 450.7858)" class="st0 st10">V</text>
	<text transform="matrix(2.6948 0 0 1 231.8516 443.7936)" class="st0 st11">A</text>
	<text transform="matrix(1.7645 0 0 1 231.8281 435.278)" class="st0 st12">T</text>
	<text transform="matrix(20.7055 0 0 1 249.5391 457.6296)" class="st0 st13">M</text>
	<text transform="matrix(15.2876 0 0 1 248.4609 455.7155)" class="st0 st14">L</text>
	<text transform="matrix(6.9617 0 0 1 257.9609 452.8483)" class="st0 st15">I</text>
	<text transform="matrix(13.9983 0 0 1 248.375 449.9811)" class="st0 st14">F</text>
	<text transform="matrix(10.8926 0 0 1 251.0391 447.114)" class="st0 st14">A</text>
	<text transform="matrix(7.9326 0 0 1 251.0156 444.2546)" class="st0 st16">T</text>
	<text transform="matrix(97.4757 0 0 1 270.2188 460.0202)" class="st0 st17">T</text>
	<text transform="matrix(90.3618 0 0 1 269.6797 458.9968)" class="st0 st18">Q</text>
	<text transform="matrix(1 0 0 1 267.7812 457.7468)" class="st0 st17">P</text>
	<text transform="matrix(1 0 0 1 267.6562 456.489)" class="st0 st17">L</text>
	<text transform="matrix(92.8782 0 0 1 269.3438 455.2233)" class="st0 st19">G</text>
	<text transform="matrix(1 0 0 1 267.6016 453.9655)" class="st0 st17">F</text>
	<text transform="matrix(29.1536 0 0 1 269.1641 452.6921)" class="st0 st20">S</text>
	<text transform="matrix(29.2997 0 0 1 267.75 450.9499)" class="st0 st21">E</text>
	<text transform="matrix(1 0 0 1 288.3594 464.3093)" class="st0 st22">S</text>
	<text transform="matrix(1 0 0 1 287.4219 463.2233)" class="st0 st23">N</text>
	<text transform="matrix(1 0 0 1 287.9219 462.1296)" class="st0 st23">M</text>
	<text transform="matrix(1 0 0 1 287.3438 461.0358)" class="st0 st23">H</text>
	<text transform="matrix(1 0 0 1 286.7812 459.9577)" class="st0 st23">F</text>
	<text transform="matrix(1 0 0 1 286.9375 458.6296)" class="st0 st23">E</text>
	<text transform="matrix(16.042 0 0 1 288.8594 457.4421)" class="st0 st24">Q</text>
	<text transform="matrix(17.3603 0 0 1 287.3594 455.3561)" class="st0 st25">D</text>
	<text transform="matrix(11.7672 0 0 1 286.8516 452.9343)" class="st0 st26">L</text>
	<text transform="matrix(8.3843 0 0 1 289.4297 449.6686)" class="st0 st27">A</text>
	<text transform="matrix(5.8281 0 0 1 289.125 446.153)" class="st0 st28">V</text>
	<text transform="matrix(5.1883 0 0 1 286.9844 441.5515)" class="st0 st29">P</text>
	<text transform="matrix(1 0 0 1 308.0625 464.3093)" class="st0 st30">Q</text>
	<text transform="matrix(1 0 0 1 306.1562 463.239)" class="st0 st31">P</text>
	<text transform="matrix(1 0 0 1 306.625 462.1608)" class="st0 st31">N</text>
	<text transform="matrix(1 0 0 1 306.0391 461.0749)" class="st0 st32">L</text>
	<text transform="matrix(1 0 0 1 307.7344 459.9811)" class="st0 st33">G</text>
	<text transform="matrix(16.2916 0 0 1 308.3125 458.6765)" class="st0 st34">V</text>
	<text transform="matrix(19.2309 0 0 1 307.5547 456.4733)" class="st0 st35">S</text>
	<text transform="matrix(14.8023 0 0 1 307.125 454.1061)" class="st0 st34">M</text>
	<text transform="matrix(15.9359 0 0 1 308.625 451.9421)" class="st0 st34">A</text>
	<text transform="matrix(9.2738 0 0 1 308.6094 449.5436)" class="st0 st36">T</text>
	<text transform="matrix(10.8382 0 0 1 305.9688 446.3015)" class="st0 st36">F</text>
	<text transform="matrix(2.2332 0 0 1 315.5469 442.8249)" class="st0 st37">I</text>
	<text transform="matrix(29.1217 0 0 1 327.8828 457.6218)" class="st0 st38">W</text>
	<text transform="matrix(42.4675 0 0 1 327.5 456.3171)" class="st0 st38">V</text>
	<text transform="matrix(45.6788 0 0 1 327.8125 454.778)" class="st0 st38">T</text>
	<text transform="matrix(38.5853 0 0 1 326.3203 453.239)" class="st0 st38">M</text>
	<text transform="matrix(16.4784 0 0 1 327.7109 451.6999)" class="st0 st39">Y</text>
	<text transform="matrix(7.4926 0 0 1 327.8125 449.6296)" class="st0 st40">A</text>
	<text transform="matrix(1 0 0 1 346.7188 464.3171)" class="st0 st41">V</text>
	<text transform="matrix(1 0 0 1 346.4375 463.3249)" class="st0 st42">Q</text>
	<text transform="matrix(1 0 0 1 345.5156 462.3483)" class="st0 st41">M</text>
	<text transform="matrix(1 0 0 1 353.9375 461.1061)" class="st0 st43">I</text>
	<text transform="matrix(1 0 0 1 344.5312 460.1296)" class="st0 st41">E</text>
	<text transform="matrix(18.9148 0 0 1 347 458.8952)" class="st0 st44">T</text>
	<text transform="matrix(20.7226 0 0 1 345.9375 456.6452)" class="st0 st45">S</text>
	<text transform="matrix(18.5025 0 0 1 345.1094 454.7077)" class="st0 st44">K</text>
	<text transform="matrix(17.2012 0 0 1 347.0078 452.489)" class="st0 st44">A</text>
	<text transform="matrix(6.6302 0 0 1 344.7188 450.278)" class="st0 st46">R</text>
	<text transform="matrix(6.8525 0 0 1 345.0156 445.8405)" class="st0 st46">N</text>
	<text transform="matrix(8.4907 0 0 1 344.4297 441.4186)" class="st0 st46">L</text>
	<text transform="matrix(9.6243 0 0 1 366.0859 464.3171)" class="st0 st47">Y</text>
	<text transform="matrix(9.8702 0 0 1 365.9062 461.2077)" class="st0 st47">V</text>
	<text transform="matrix(13.5503 0 0 1 363.625 458.0983)" class="st0 st47">L</text>
	<text transform="matrix(3.9035 0 0 1 366.2031 454.989)" class="st0 st48">A</text>
	<text transform="matrix(2.6322 0 0 1 364.2969 448.7702)" class="st0 st49">K</text>
	<text transform="matrix(0.4307 0 0 1 363.9141 439.4421)" class="st0 st50">R</text>
</g>
</svg>
