<?xml version="1.0" encoding="utf-8"?>
<!-- Generator: Adobe Illustrator 24.3.0, SVG Export Plug-In . SVG Version: 6.00 Build 0)  -->
<svg version="1.1" id="Layer_1" xmlns="http://www.w3.org/2000/svg" xmlns:xlink="http://www.w3.org/1999/xlink" x="0px" y="0px"
	 viewBox="0 0 595.28 841.89" style="enable-background:new 0 0 595.28 841.89;" xml:space="preserve">
<style type="text/css">
	.st0{font-family:'Helvetica-Narrow-Bold';}
	.st1{font-size:3.0602px;}
	.st2{font-size:2.7639px;}
	.st3{font-size:3.0651px;}
	.st4{font-size:7.5142px;}
	.st5{font-size:11.9682px;}
	.st6{font-size:16.4222px;}
	.st7{font-size:5.8533px;}
	.st8{font-size:5.5614px;}
	.st9{font-size:63.8338px;}
	.st10{font-size:1.6899px;}
	.st11{font-size:4.7735px;}
	.st12{font-size:4.5352px;}
	.st13{font-size:1.2851px;}
	.st14{font-size:1.2218px;}
	.st15{font-size:3.964px;}
	.st16{font-size:4.7795px;}
	.st17{font-size:2.9602px;}
	.st18{font-size:2.8127px;}
	.st19{font-size:2.6759px;}
	.st20{font-size:11.6683px;}
	.st21{font-size:2.2507px;}
	.st22{font-size:2.138px;}
	.st23{font-size:5.8915px;}
	.st24{font-size:9.536px;}
	.st25{font-size:2.6554px;}
	.st26{font-size:2.6591px;}
	.st27{font-size:2.5204px;}
	.st28{font-size:6.7047px;}
	.st29{font-size:10.2115px;}
	.st30{font-size:2.4031px;}
	.st31{font-size:2.2823px;}
	.st32{font-size:6.2063px;}
	.st33{font-size:9.9931px;}
	.st34{font-size:9.4902px;}
	.st35{font-size:4.4527px;}
	.st36{font-size:10.2956px;}
	.st37{font-size:21.9815px;}
	.st38{font-size:27.8653px;}
</style>
<g>
	<text transform="matrix(8.285 0 0 1 212.2656 461.194)" class="st0 st1">Y</text>
	<text transform="matrix(8.4257 0 0 1 211.875 457.9909)" class="st0 st2">Q</text>
	<text transform="matrix(11.6643 0 0 1 210.0625 454.8893)" class="st0 st1">L</text>
	<text transform="matrix(5.3105 0 0 1 218.4219 451.6081)" class="st0 st3">I</text>
	<text transform="matrix(9.1085 0 0 1 210.5234 448.569)" class="st0 st1">D</text>
	<text transform="matrix(3.7217 0 0 1 212.3594 445.2956)" class="st0 st4">T</text>
	<text transform="matrix(2.7309 0 0 1 210 438.9753)" class="st0 st5">F</text>
	<text transform="matrix(1.4385 0 0 1 211.0312 429.3972)" class="st0 st6">M</text>
	<text transform="matrix(4.7778 0 0 1 229.6328 461.1862)" class="st0 st7">T</text>
	<text transform="matrix(5.2357 0 0 1 228.6875 455.9518)" class="st0 st8">S</text>
	<text transform="matrix(4.0359 0 0 1 228.3125 450.9284)" class="st0 st7">M</text>
	<text transform="matrix(6.0982 0 0 1 227.3359 445.8034)" class="st0 st7">L</text>
	<text transform="matrix(4.3448 0 0 1 229.6484 440.444)" class="st0 st7">A</text>
	<text transform="matrix(0.4784 0 0 1 227.4531 435.319)" class="st0 st9">P</text>
	<text transform="matrix(16.4946 0 0 1 244.875 461.194)" class="st0 st10">R</text>
	<text transform="matrix(16.1882 0 0 1 245.2109 459.1628)" class="st0 st10">K</text>
	<text transform="matrix(17.0491 0 0 1 245.0469 456.8972)" class="st0 st10">H</text>
	<text transform="matrix(19.3409 0 0 1 244.5547 454.6237)" class="st0 st10">F</text>
	<text transform="matrix(16.4946 0 0 1 245.0625 452.3581)" class="st0 st10">D</text>
	<text transform="matrix(15.0494 0 0 1 246.9141 450.3347)" class="st0 st10">A</text>
	<text transform="matrix(5.447 0 0 1 246.6562 448.0612)" class="st0 st11">V</text>
	<text transform="matrix(6.3973 0 0 1 244.7266 443.53)" class="st0 st11">P</text>
	<text transform="matrix(7.4776 0 0 1 244.6094 439.2331)" class="st0 st11">L</text>
	<text transform="matrix(5.5558 0 0 1 246.1172 434.6159)" class="st0 st12">G</text>
	<text transform="matrix(19.7294 0 0 1 264.0938 461.194)" class="st0 st13">Y</text>
	<text transform="matrix(20.2327 0 0 1 263.9219 459.5065)" class="st0 st13">V</text>
	<text transform="matrix(23.8313 0 0 1 263.2344 457.5534)" class="st0 st14">S</text>
	<text transform="matrix(21.6895 0 0 1 262.1484 455.6472)" class="st0 st13">R</text>
	<text transform="matrix(18.3828 0 0 1 262.8594 453.7331)" class="st0 st13">M</text>
	<text transform="matrix(27.7753 0 0 1 261.8906 451.8034)" class="st0 st13">L</text>
	<text transform="matrix(23.9874 0 0 1 261.9766 449.8815)" class="st0 st13">E</text>
	<text transform="matrix(21.6904 0 0 1 262.3438 447.9518)" class="st0 st13">D</text>
	<text transform="matrix(4.4976 0 0 1 264.2656 446.03)" class="st0 st15">W</text>
	<text transform="matrix(7.0551 0 0 1 264.1797 442.1706)" class="st0 st15">T</text>
	<text transform="matrix(7.7038 0 0 1 262.0078 438.3268)" class="st0 st15">P</text>
	<text transform="matrix(15.0033 0 0 1 281.3672 461.194)" class="st0 st10">Y</text>
	<text transform="matrix(15.3867 0 0 1 281.2031 459.1628)" class="st0 st10">V</text>
	<text transform="matrix(17.0491 0 0 1 279.6875 456.8972)" class="st0 st10">N</text>
	<text transform="matrix(13.9793 0 0 1 280.1328 454.6315)" class="st0 st10">M</text>
	<text transform="matrix(16.1882 0 0 1 279.7734 452.3581)" class="st0 st10">K</text>
	<text transform="matrix(16.4946 0 0 1 279.6172 450.3347)" class="st0 st10">D</text>
	<text transform="matrix(5.8392 0 0 1 279.4219 448.0612)" class="st0 st11">R</text>
	<text transform="matrix(7.4776 0 0 1 279.1562 443.5222)" class="st0 st11">L</text>
	<text transform="matrix(3.4056 0 0 1 287.5156 439.2331)" class="st0 st16">I</text>
	<text transform="matrix(5.5558 0 0 1 280.6641 434.6159)" class="st0 st12">G</text>
	<text transform="matrix(9.4474 0 0 1 298.7266 461.194)" class="st0 st17">T</text>
	<text transform="matrix(10.3523 0 0 1 297.7891 458.2409)" class="st0 st18">S</text>
	<text transform="matrix(8.7029 0 0 1 298.2422 455.0143)" class="st0 st19">Q</text>
	<text transform="matrix(10.316 0 0 1 296.5469 452.0378)" class="st0 st17">P</text>
	<text transform="matrix(11.0411 0 0 1 296.3672 448.8972)" class="st0 st17">F</text>
	<text transform="matrix(2.3888 0 0 1 296.6953 445.7643)" class="st0 st20">R</text>
	<text transform="matrix(2.3444 0 0 1 297.0391 436.3737)" class="st0 st20">K</text>
	<text transform="matrix(2.1795 0 0 1 298.7422 426.9675)" class="st0 st20">A</text>
	<text transform="matrix(7.9212 0 0 1 316.0781 461.1862)" class="st0 st21">W</text>
	<text transform="matrix(13.6188 0 0 1 315.0547 458.5612)" class="st0 st22">S</text>
	<text transform="matrix(10.4959 0 0 1 314.6719 456.0065)" class="st0 st21">M</text>
	<text transform="matrix(11.7853 0 0 1 315.2109 453.3815)" class="st0 st22">G</text>
	<text transform="matrix(14.5217 0 0 1 313.6484 450.8347)" class="st0 st21">F</text>
	<text transform="matrix(4.3034 0 0 1 315.9141 448.2409)" class="st0 st23">Y</text>
	<text transform="matrix(6.0587 0 0 1 313.7109 443.0612)" class="st0 st23">L</text>
	<text transform="matrix(4.3166 0 0 1 316.0156 437.8737)" class="st0 st23">A</text>
	<text transform="matrix(2.7266 0 0 1 315.75 432.4597)" class="st0 st24">V</text>
	<text transform="matrix(10.5318 0 0 1 333.2812 461.194)" class="st0 st25">T</text>
	<text transform="matrix(6.1212 0 0 1 339.3438 458.4987)" class="st0 st26">I</text>
	<text transform="matrix(9.9974 0 0 1 332.4844 455.5222)" class="st0 st27">G</text>
	<text transform="matrix(4.1573 0 0 1 331.25 452.6315)" class="st0 st28">R</text>
	<text transform="matrix(4.5546 0 0 1 331.1016 446.7643)" class="st0 st28">P</text>
	<text transform="matrix(3.5234 0 0 1 331.9531 440.905)" class="st0 st28">M</text>
	<text transform="matrix(5.3238 0 0 1 330.9844 435.0378)" class="st0 st28">L</text>
	<text transform="matrix(2.8515 0 0 1 332.3281 429.194)" class="st0 st29">S</text>
	<text transform="matrix(11.6377 0 0 1 350.5469 461.1862)" class="st0 st30">T</text>
	<text transform="matrix(12.7579 0 0 1 349.6016 458.5768)" class="st0 st31">S</text>
	<text transform="matrix(12.7077 0 0 1 348.375 455.819)" class="st0 st30">P</text>
	<text transform="matrix(11.9891 0 0 1 348.7812 453.2409)" class="st0 st30">N</text>
	<text transform="matrix(13.6009 0 0 1 348.1953 450.4284)" class="st0 st30">F</text>
	<text transform="matrix(10.5829 0 0 1 350.5625 447.6237)" class="st0 st30">A</text>
	<text transform="matrix(2.6227 0 0 1 356.8594 445.0456)" class="st0 st32">I</text>
	<text transform="matrix(2.6019 0 0 1 350.2969 439.4284)" class="st0 st33">V</text>
	<text transform="matrix(2.655 0 0 1 349.7656 431.0612)" class="st0 st34">G</text>
	<text transform="matrix(6.8582 0 0 1 365.6484 461.194)" class="st0 st35">P</text>
	<text transform="matrix(8.0164 0 0 1 365.5312 457.1237)" class="st0 st35">L</text>
	<text transform="matrix(5.7114 0 0 1 367.8438 452.8034)" class="st0 st35">A</text>
	<text transform="matrix(3.1745 0 0 1 365.4688 448.7331)" class="st0 st36">F</text>
	<text transform="matrix(1.1829 0 0 1 367.5703 440.3581)" class="st0 st37">V</text>
	<text transform="matrix(0.5841 0 0 1 374.1328 423.5847)" class="st0 st38">I</text>
</g>
</svg>
