<?xml version="1.0" encoding="utf-8"?>
<!-- Generator: Adobe Illustrator 24.3.0, SVG Export Plug-In . SVG Version: 6.00 Build 0)  -->
<svg version="1.1" id="Layer_1" xmlns="http://www.w3.org/2000/svg" xmlns:xlink="http://www.w3.org/1999/xlink" x="0px" y="0px"
	 viewBox="0 0 595.28 841.89" style="enable-background:new 0 0 595.28 841.89;" xml:space="preserve">
<style type="text/css">
	.st0{font-family:'Helvetica-Narrow-Bold';}
	.st1{font-size:0.2686px;}
	.st2{font-size:0.2687px;}
	.st3{font-size:0.2695px;}
	.st4{font-size:0.2562px;}
	.st5{font-size:0.9928px;}
	.st6{font-size:1.9312px;}
	.st7{font-size:2.7624px;}
	.st8{font-size:3.5937px;}
	.st9{font-size:0.4949px;}
	.st10{font-size:0.4708px;}
	.st11{font-size:4.2768px;}
	.st12{font-size:6.1572px;}
	.st13{font-size:8.0459px;}
	.st14{font-size:13.7046px;}
	.st15{font-size:17.4938px;}
	.st16{font-size:0.3351px;}
	.st17{font-size:1.1411px;}
	.st18{font-size:1.0842px;}
	.st19{font-size:1.1995px;}
	.st20{font-size:2.9284px;}
	.st21{font-size:3.7998px;}
	.st22{font-size:0.4213px;}
	.st23{font-size:0.4439px;}
	.st24{font-size:0.9546px;}
	.st25{font-size:1.0016px;}
	.st26{font-size:1.6691px;}
	.st27{font-size:0.2021px;}
	.st28{font-size:0.2127px;}
	.st29{font-size:0.9667px;}
	.st30{font-size:1.0206px;}
	.st31{font-size:1.8228px;}
	.st32{font-size:3.4292px;}
	.st33{font-size:0.1876px;}
	.st34{font-size:0.1796px;}
	.st35{font-size:0.9783px;}
	.st36{font-size:0.9784px;}
	.st37{font-size:1.774px;}
	.st38{font-size:1.6826px;}
	.st39{font-size:2.5635px;}
	.st40{font-size:0.5333px;}
	.st41{font-size:1.495px;}
	.st42{font-size:1.4951px;}
	.st43{font-size:2.4568px;}
	.st44{font-size:2.46px;}
	.st45{font-size:5.0757px;}
	.st46{font-size:0.634px;}
	.st47{font-size:0.6339px;}
	.st48{font-size:1.6515px;}
	.st49{font-size:2.6654px;}
	.st50{font-size:2.6691px;}
	.st51{font-size:6.3823px;}
	.st52{font-size:0.4001px;}
	.st53{font-size:0.3782px;}
	.st54{font-size:1.2952px;}
	.st55{font-size:2.0835px;}
	.st56{font-size:2.1903px;}
	.st57{font-size:3.0891px;}
	.st58{font-size:3.9843px;}
	.st59{font-size:0.9818px;}
	.st60{font-size:0.9343px;}
	.st61{font-size:0.9846px;}
	.st62{font-size:0.9819px;}
	.st63{font-size:15.2398px;}
	.st64{font-size:19.9949px;}
	.st65{font-size:31.8734px;}
</style>
<g>
	<text transform="matrix(96.7984 0 0 1 211.0234 451.5759)" class="st0 st1">V</text>
	<text transform="matrix(1 0 0 1 209.5312 450.3806)" class="st0 st1">N</text>
	<text transform="matrix(87.9302 0 0 1 209.9844 449.1931)" class="st0 st2">M</text>
	<text transform="matrix(60.4057 0 0 1 217.3594 448.0134)" class="st0 st3">I</text>
	<text transform="matrix(1 0 0 1 209.4219 446.8181)" class="st0 st2">H</text>
	<text transform="matrix(98.3611 0 0 1 210.5 445.6227)" class="st0 st4">G</text>
	<text transform="matrix(94.6767 0 0 1 211.3125 444.4431)" class="st0 st1">A</text>
	<text transform="matrix(23.4559 0 0 1 210.8203 443.1931)" class="st0 st5">Q</text>
	<text transform="matrix(13.1285 0 0 1 211.2031 441.3571)" class="st0 st6">Y</text>
	<text transform="matrix(10.0903 0 0 1 209.2656 438.9743)" class="st0 st7">R</text>
	<text transform="matrix(9.9327 0 0 1 209 436.1384)" class="st0 st8">L</text>
	<text transform="matrix(56.5138 0 0 1 228.5625 453.2243)" class="st0 st9">T</text>
	<text transform="matrix(61.851 0 0 1 227.6172 451.9431)" class="st0 st10">S</text>
	<text transform="matrix(58.2202 0 0 1 226.7891 450.6852)" class="st0 st9">N</text>
	<text transform="matrix(51.3915 0 0 1 228.5859 449.1852)" class="st0 st9">A</text>
	<text transform="matrix(3.8059 0 0 1 234.6406 447.9118)" class="st0 st11">I</text>
	<text transform="matrix(4.2229 0 0 1 228.3125 443.8571)" class="st0 st12">V</text>
	<text transform="matrix(4.4364 0 0 1 226.2812 438.5368)" class="st0 st13">L</text>
	<text transform="matrix(1.7237 0 0 1 227.2422 431.7009)" class="st0 st14">M</text>
	<text transform="matrix(1.3312 0 0 1 228.0859 419.8102)" class="st0 st15">Q</text>
	<text transform="matrix(85.9768 0 0 1 243.9766 450.1384)" class="st0 st16">H</text>
	<text transform="matrix(83.1805 0 0 1 244 449.0915)" class="st0 st16">D</text>
	<text transform="matrix(25.5166 0 0 1 244.9062 447.7946)" class="st0 st17">S</text>
	<text transform="matrix(21.4792 0 0 1 245.3594 445.9509)" class="st0 st18">Q</text>
	<text transform="matrix(24.0181 0 0 1 244.0703 443.9665)" class="st0 st19">N</text>
	<text transform="matrix(29.7569 0 0 1 243.5469 442.1696)" class="st0 st19">L</text>
	<text transform="matrix(21.201 0 0 1 245.8516 440.3649)" class="st0 st19">A</text>
	<text transform="matrix(8.0668 0 0 1 244.5234 438.5681)" class="st0 st20">M</text>
	<text transform="matrix(4.2836 0 0 1 251.9141 435.2321)" class="st0 st21">I</text>
	<text transform="matrix(69.1155 0 0 1 262.1719 446.3571)" class="st0 st22">S</text>
	<text transform="matrix(53.2159 0 0 1 261.7969 444.9352)" class="st0 st23">M</text>
	<text transform="matrix(24.3955 0 0 1 262.6172 443.6696)" class="st0 st24">Q</text>
	<text transform="matrix(25.156 0 0 1 262.3359 441.8727)" class="st0 st25">G</text>
	<text transform="matrix(15.2368 0 0 1 263.125 440.0602)" class="st0 st26">A</text>
	<text transform="matrix(1 0 0 1 279.6094 449.2321)" class="st0 st27">G</text>
	<text transform="matrix(1 0 0 1 280.3984 448.1227)" class="st0 st28">A</text>
	<text transform="matrix(30.1217 0 0 1 279.4453 446.9977)" class="st0 st29">S</text>
	<text transform="matrix(15.9492 0 0 1 286.4609 445.2321)" class="st0 st30">I</text>
	<text transform="matrix(15.3427 0 0 1 280.3984 443.4509)" class="st0 st31">T</text>
	<text transform="matrix(19.5826 0 0 1 278.1016 441.2321)" class="st0 st31">L</text>
	<text transform="matrix(17.9309 0 0 1 278.0391 439.029)" class="st0 st31">F</text>
	<text transform="matrix(7.5822 0 0 1 280.1406 436.5602)" class="st0 st32">V</text>
	<text transform="matrix(1 0 0 1 297.4141 451.0915)" class="st0 st33">V</text>
	<text transform="matrix(1 0 0 1 296.7188 450.0134)" class="st0 st34">S</text>
	<text transform="matrix(1 0 0 1 295.3125 448.7165)" class="st0 st33">F</text>
	<text transform="matrix(28.5859 0 0 1 297.6719 447.6384)" class="st0 st35">T</text>
	<text transform="matrix(28.4911 0 0 1 295.6328 445.904)" class="st0 st35">R</text>
	<text transform="matrix(31.2142 0 0 1 295.4844 444.1852)" class="st0 st35">P</text>
	<text transform="matrix(28.4899 0 0 1 295.8281 442.4509)" class="st0 st36">D</text>
	<text transform="matrix(9.1752 0 0 1 303.7344 440.9665)" class="st0 st37">I</text>
	<text transform="matrix(14.9749 0 0 1 296.8828 438.5446)" class="st0 st38">G</text>
	<text transform="matrix(9.9207 0 0 1 297.6797 436.1931)" class="st0 st39">A</text>
	<text transform="matrix(52.2663 0 0 1 312.9062 451.2399)" class="st0 st40">R</text>
	<text transform="matrix(57.2618 0 0 1 312.7656 449.9196)" class="st0 st40">P</text>
	<text transform="matrix(52.2664 0 0 1 313.1094 448.5915)" class="st0 st40">D</text>
	<text transform="matrix(47.6871 0 0 1 314.9531 447.029)" class="st0 st40">A</text>
	<text transform="matrix(17.3922 0 0 1 314.6875 445.7009)" class="st0 st41">V</text>
	<text transform="matrix(18.7058 0 0 1 314.9453 443.7243)" class="st0 st42">T</text>
	<text transform="matrix(20.6199 0 0 1 312.7422 441.4977)" class="st0 st41">E</text>
	<text transform="matrix(14.529 0 0 1 312.6406 439.5134)" class="st0 st43">L</text>
	<text transform="matrix(6.6169 0 0 1 321.0078 436.8571)" class="st0 st44">I</text>
	<text transform="matrix(4.9643 0 0 1 314.1484 433.8727)" class="st0 st45">G</text>
	<text transform="matrix(41.0131 0 0 1 331.9531 451.2634)" class="st0 st46">V</text>
	<text transform="matrix(48.1684 0 0 1 330.0391 449.7868)" class="st0 st46">P</text>
	<text transform="matrix(37.2649 0 0 1 330.8906 448.3102)" class="st0 st47">M</text>
	<text transform="matrix(43.1495 0 0 1 330.5312 446.8415)" class="st0 st46">K</text>
	<text transform="matrix(51.554 0 0 1 329.8594 445.3727)" class="st0 st46">F</text>
	<text transform="matrix(21.6135 0 0 1 329.9219 443.8962)" class="st0 st48">L</text>
	<text transform="matrix(15.3994 0 0 1 332.2266 441.6931)" class="st0 st48">A</text>
	<text transform="matrix(10.4924 0 0 1 332.2188 439.4821)" class="st0 st49">T</text>
	<text transform="matrix(6.0983 0 0 1 338.2812 436.5368)" class="st0 st50">I</text>
	<text transform="matrix(4.5623 0 0 1 331.2656 433.4509)" class="st0 st51">S</text>
	<text transform="matrix(63.3745 0 0 1 349.3906 450.154)" class="st0 st52">Y</text>
	<text transform="matrix(89.2233 0 0 1 347.1875 448.779)" class="st0 st52">L</text>
	<text transform="matrix(66.6185 0 0 1 348.7109 447.6384)" class="st0 st53">G</text>
	<text transform="matrix(81.698 0 0 1 347.1484 446.279)" class="st0 st52">F</text>
	<text transform="matrix(20.0753 0 0 1 349.2266 444.904)" class="st0 st54">V</text>
	<text transform="matrix(13.9752 0 0 1 348.5391 442.9118)" class="st0 st55">S</text>
	<text transform="matrix(13.9419 0 0 1 347.3125 440.4509)" class="st0 st56">P</text>
	<text transform="matrix(9.0531 0 0 1 349.4922 437.9431)" class="st0 st57">T</text>
	<text transform="matrix(6.3829 0 0 1 349.5 434.6306)" class="st0 st58">A</text>
	<text transform="matrix(26.4823 0 0 1 366.5 453.2321)" class="st0 st59">V</text>
	<text transform="matrix(31.1666 0 0 1 365.8125 451.7165)" class="st0 st60">S</text>
	<text transform="matrix(24.06 0 0 1 365.4297 450.0134)" class="st0 st59">M</text>
	<text transform="matrix(16.5312 0 0 1 373.0703 448.2712)" class="st0 st61">I</text>
	<text transform="matrix(25.9007 0 0 1 366.7812 446.5446)" class="st0 st62">A</text>
	<text transform="matrix(2.3422 0 0 1 364.4688 444.8102)" class="st0 st63">L</text>
	<text transform="matrix(1.268 0 0 1 366.6719 432.9196)" class="st0 st64">Y</text>
	<text transform="matrix(1.0254 0 0 1 364.4062 417.5681)" class="st0 st65">F</text>
</g>
</svg>
