<?xml version="1.0" encoding="utf-8"?>
<!-- Generator: Adobe Illustrator 24.3.0, SVG Export Plug-In . SVG Version: 6.00 Build 0)  -->
<svg version="1.1" id="Layer_1" xmlns="http://www.w3.org/2000/svg" xmlns:xlink="http://www.w3.org/1999/xlink" x="0px" y="0px"
	 viewBox="0 0 595.28 841.89" style="enable-background:new 0 0 595.28 841.89;" xml:space="preserve">
<style type="text/css">
	.st0{font-family:'Helvetica-Narrow-Bold';}
	.st1{font-size:1.2684px;}
	.st2{font-size:1.2683px;}
	.st3{font-size:3.927px;}
	.st4{font-size:6.5893px;}
	.st5{font-size:9.2479px;}
	.st6{font-size:4.278px;}
	.st7{font-size:4.2863px;}
	.st8{font-size:4.0638px;}
	.st9{font-size:9.9534px;}
	.st10{font-size:72.3472px;}
	.st11{font-size:0.3035px;}
	.st12{font-size:0.2739px;}
	.st13{font-size:0.3043px;}
	.st14{font-size:0.2876px;}
	.st15{font-size:2.0007px;}
	.st16{font-size:1.8986px;}
	.st17{font-size:2.0008px;}
	.st18{font-size:5.3918px;}
	.st19{font-size:1.1297px;}
	.st20{font-size:1.0747px;}
	.st21{font-size:3.6533px;}
	.st22{font-size:3.6598px;}
	.st23{font-size:6.1768px;}
	.st24{font-size:8.2651px;}
	.st25{font-size:0.8651px;}
	.st26{font-size:0.909px;}
	.st27{font-size:0.865px;}
	.st28{font-size:3.2155px;}
	.st29{font-size:5.5182px;}
	.st30{font-size:5.5183px;}
	.st31{font-size:7.832px;}
	.st32{font-size:0.3854px;}
	.st33{font-size:0.3685px;}
	.st34{font-size:0.3855px;}
	.st35{font-size:0.3508px;}
	.st36{font-size:2.1648px;}
	.st37{font-size:3.9515px;}
	.st38{font-size:0.2504px;}
	.st39{font-size:0.2363px;}
	.st40{font-size:0.2512px;}
	.st41{font-size:1.8911px;}
	.st42{font-size:3.5353px;}
	.st43{font-size:0.1685px;}
	.st44{font-size:0.159px;}
	.st45{font-size:0.1508px;}
	.st46{font-size:0.1684px;}
	.st47{font-size:1.727px;}
	.st48{font-size:3.2856px;}
	.st49{font-size:2.0526px;}
	.st50{font-size:5.4955px;}
	.st51{font-size:5.2213px;}
	.st52{font-size:8.4899px;}
	.st53{font-size:8.9419px;}
	.st54{font-size:15.8312px;}
	.st55{font-size:3.0066px;}
	.st56{font-size:2.8547px;}
	.st57{font-size:3.0076px;}
	.st58{font-size:7.4033px;}
	.st59{font-size:16.1969px;}
	.st60{font-size:38.1844px;}
</style>
<g>
	<text transform="matrix(19.9881 0 0 1 212.2656 463.8356)" class="st0 st1">Y</text>
	<text transform="matrix(20.4996 0 0 1 212.0938 461.9294)" class="st0 st1">V</text>
	<text transform="matrix(21.9748 0 0 1 210.3281 460.0309)" class="st0 st1">R</text>
	<text transform="matrix(24.0751 0 0 1 210.1797 458.1325)" class="st0 st1">P</text>
	<text transform="matrix(12.8336 0 0 1 218.4219 456.2263)" class="st0 st2">I</text>
	<text transform="matrix(25.7684 0 0 1 210 454.3356)" class="st0 st1">F</text>
	<text transform="matrix(6.476 0 0 1 212.375 452.4294)" class="st0 st3">A</text>
	<text transform="matrix(5.4171 0 0 1 210.0625 448.6325)" class="st0 st4">L</text>
	<text transform="matrix(3.024 0 0 1 212.3594 442.9294)" class="st0 st5">T</text>
	<text transform="matrix(2.5544 0 0 1 211.0312 435.32)" class="st0 st5">M</text>
	<text transform="matrix(6.5156 0 0 1 227.6016 463.8356)" class="st0 st6">R</text>
	<text transform="matrix(3.7975 0 0 1 235.7031 459.7653)" class="st0 st7">I</text>
	<text transform="matrix(6.2003 0 0 1 228.8438 455.6247)" class="st0 st8">G</text>
	<text transform="matrix(5.9447 0 0 1 229.6484 451.6403)" class="st0 st6">A</text>
	<text transform="matrix(2.3734 0 0 1 228.3047 447.57)" class="st0 st9">M</text>
	<text transform="matrix(0.4221 0 0 1 227.4609 439.445)" class="st0 st10">P</text>
	<text transform="matrix(92.1589 0 0 1 246.9141 463.8356)" class="st0 st11">T</text>
	<text transform="matrix(91.838 0 0 1 244.875 462.8434)" class="st0 st11">R</text>
	<text transform="matrix(85.0193 0 0 1 246.4219 461.5934)" class="st0 st12">Q</text>
	<text transform="matrix(1 0 0 1 244.6172 460.3669)" class="st0 st11">L</text>
	<text transform="matrix(90.1318 0 0 1 245.2031 459.1325)" class="st0 st11">K</text>
	<text transform="matrix(53.4869 0 0 1 252.9688 457.8981)" class="st0 st13">I</text>
	<text transform="matrix(94.9412 0 0 1 245.0391 456.6638)" class="st0 st11">H</text>
	<text transform="matrix(87.6223 0 0 1 246.125 455.4138)" class="st0 st14">G</text>
	<text transform="matrix(91.8533 0 0 1 245.0625 454.1872)" class="st0 st11">D</text>
	<text transform="matrix(12.9958 0 0 1 246.6484 452.945)" class="st0 st15">V</text>
	<text transform="matrix(15.3362 0 0 1 245.9688 450.4372)" class="st0 st16">S</text>
	<text transform="matrix(12.7107 0 0 1 246.9141 448.0075)" class="st0 st17">A</text>
	<text transform="matrix(5.7173 0 0 1 244.7031 445.7731)" class="st0 st18">E</text>
	<text transform="matrix(23.0162 0 0 1 263.9219 463.8278)" class="st0 st19">V</text>
	<text transform="matrix(24.7556 0 0 1 264.1797 462.1325)" class="st0 st19">T</text>
	<text transform="matrix(27.095 0 0 1 263.2344 460.3981)" class="st0 st20">S</text>
	<text transform="matrix(24.2151 0 0 1 262.4844 458.4763)" class="st0 st19">K</text>
	<text transform="matrix(22.5117 0 0 1 264.1875 456.7731)" class="st0 st19">A</text>
	<text transform="matrix(4.8801 0 0 1 264.2656 454.8356)" class="st0 st21">W</text>
	<text transform="matrix(4.4475 0 0 1 270.25 451.195)" class="st0 st22">I</text>
	<text transform="matrix(3.8245 0 0 1 262.8516 447.5388)" class="st0 st23">M</text>
	<text transform="matrix(5.7788 0 0 1 261.8906 442.1872)" class="st0 st23">L</text>
	<text transform="matrix(3.0486 0 0 1 263.3906 436.6794)" class="st0 st24">G</text>
	<text transform="matrix(33.6586 0 0 1 280.5078 463.82)" class="st0 st25">S</text>
	<text transform="matrix(33.5958 0 0 1 279.2734 462.2106)" class="st0 st26">P</text>
	<text transform="matrix(31.696 0 0 1 279.6875 460.5778)" class="st0 st26">N</text>
	<text transform="matrix(25.9889 0 0 1 280.1328 458.9528)" class="st0 st26">M</text>
	<text transform="matrix(30.0954 0 0 1 279.7734 457.32)" class="st0 st26">K</text>
	<text transform="matrix(33.9138 0 0 1 279.2656 455.695)" class="st0 st26">E</text>
	<text transform="matrix(29.9158 0 0 1 280.7344 454.0544)" class="st0 st27">C</text>
	<text transform="matrix(10.1646 0 0 1 279.1016 452.445)" class="st0 st28">F</text>
	<text transform="matrix(5.068 0 0 1 281.4531 449.1872)" class="st0 st29">T</text>
	<text transform="matrix(5.0511 0 0 1 279.6172 444.0622)" class="st0 st30">D</text>
	<text transform="matrix(2.0783 0 0 1 287.5234 439.1794)" class="st0 st31">I</text>
	<text transform="matrix(67.4571 0 0 1 298.4766 463.8356)" class="st0 st32">V</text>
	<text transform="matrix(79.0078 0 0 1 297.7812 462.7028)" class="st0 st33">S</text>
	<text transform="matrix(72.3083 0 0 1 296.6953 461.3591)" class="st0 st34">R</text>
	<text transform="matrix(66.3779 0 0 1 298.2344 459.9919)" class="st0 st35">Q</text>
	<text transform="matrix(61.2821 0 0 1 297.3984 458.8825)" class="st0 st34">M</text>
	<text transform="matrix(84.7874 0 0 1 296.3594 457.5309)" class="st0 st34">F</text>
	<text transform="matrix(12.9184 0 0 1 298.7266 456.1794)" class="st0 st36">T</text>
	<text transform="matrix(14.1065 0 0 1 296.5469 453.7106)" class="st0 st36">P</text>
	<text transform="matrix(16.4884 0 0 1 296.4297 451.2419)" class="st0 st36">L</text>
	<text transform="matrix(14.2397 0 0 1 296.5234 448.5231)" class="st0 st36">E</text>
	<text transform="matrix(11.7475 0 0 1 298.7422 446.0544)" class="st0 st36">A</text>
	<text transform="matrix(4.1192 0 0 1 304.7969 443.5856)" class="st0 st37">I</text>
	<text transform="matrix(1 0 0 1 316.0156 463.8278)" class="st0 st38">T</text>
	<text transform="matrix(1 0 0 1 315.0547 462.6794)" class="st0 st39">S</text>
	<text transform="matrix(1 0 0 1 313.9688 461.5153)" class="st0 st38">R</text>
	<text transform="matrix(1 0 0 1 314.2188 460.3513)" class="st0 st38">N</text>
	<text transform="matrix(1 0 0 1 313.7031 459.195)" class="st0 st38">L</text>
	<text transform="matrix(64.8088 0 0 1 322.0703 458.0388)" class="st0 st40">I</text>
	<text transform="matrix(1 0 0 1 315.2109 456.8825)" class="st0 st39">G</text>
	<text transform="matrix(1 0 0 1 313.6562 455.7263)" class="st0 st38">F</text>
	<text transform="matrix(1 0 0 1 314.1719 454.5622)" class="st0 st38">D</text>
	<text transform="matrix(13.7496 0 0 1 315.75 453.4059)" class="st0 st41">V</text>
	<text transform="matrix(14.4658 0 0 1 314.3281 451.0856)" class="st0 st41">K</text>
	<text transform="matrix(8.6378 0 0 1 313.8281 448.5388)" class="st0 st42">P</text>
	<text transform="matrix(8.7196 0 0 1 313.8047 445.0544)" class="st0 st42">E</text>
	<text transform="matrix(1 0 0 1 333.1875 463.8356)" class="st0 st43">Y</text>
	<text transform="matrix(1 0 0 1 332.3281 462.7888)" class="st0 st44">S</text>
	<text transform="matrix(1 0 0 1 332.7891 461.7497)" class="st0 st45">Q</text>
	<text transform="matrix(1 0 0 1 331.1016 460.4684)" class="st0 st46">P</text>
	<text transform="matrix(1 0 0 1 331.9531 459.4294)" class="st0 st46">M</text>
	<text transform="matrix(1 0 0 1 331.5938 458.3981)" class="st0 st43">K</text>
	<text transform="matrix(1 0 0 1 331.4219 457.1091)" class="st0 st46">H</text>
	<text transform="matrix(1 0 0 1 333.2812 456.0856)" class="st0 st43">A</text>
	<text transform="matrix(10.3231 0 0 1 333.3594 455.0388)" class="st0 st47">W</text>
	<text transform="matrix(15.0555 0 0 1 333.0234 452.7263)" class="st0 st47">V</text>
	<text transform="matrix(16.1932 0 0 1 333.2812 450.3981)" class="st0 st47">T</text>
	<text transform="matrix(17.8495 0 0 1 331.0781 448.32)" class="st0 st47">E</text>
	<text transform="matrix(8.4836 0 0 1 331.25 446.0075)" class="st0 st48">R</text>
	<text transform="matrix(13.5794 0 0 1 348.5156 463.8278)" class="st0 st49">R</text>
	<text transform="matrix(4.2986 0 0 1 349.2266 461.5309)" class="st0 st50">M</text>
	<text transform="matrix(4.8258 0 0 1 349.7656 456.3356)" class="st0 st51">G</text>
	<text transform="matrix(3.4297 0 0 1 349.6094 451.4059)" class="st0 st52">S</text>
	<text transform="matrix(3.222 0 0 1 348.7891 444.1794)" class="st0 st53">N</text>
	<text transform="matrix(3.4474 0 0 1 348.3594 436.7731)" class="st0 st53">E</text>
	<text transform="matrix(2.2547 0 0 1 348.2578 429.3825)" class="st0 st54">L</text>
	<text transform="matrix(9.3016 0 0 1 367.8281 463.8356)" class="st0 st55">T</text>
	<text transform="matrix(10.2 0 0 1 366.8828 460.82)" class="st0 st56">S</text>
	<text transform="matrix(5.4119 0 0 1 374.125 457.6872)" class="st0 st57">I</text>
	<text transform="matrix(10.2531 0 0 1 365.625 454.4919)" class="st0 st55">E</text>
	<text transform="matrix(4.8214 0 0 1 365.5312 451.2966)" class="st0 st58">L</text>
	<text transform="matrix(2.0179 0 0 1 365.4688 444.8981)" class="st0 st59">F</text>
	<text transform="matrix(0.4669 0 0 1 367.9062 432.3669)" class="st0 st60">W</text>
</g>
</svg>
