<?xml version="1.0" encoding="utf-8"?>
<!-- Generator: Adobe Illustrator 24.3.0, SVG Export Plug-In . SVG Version: 6.00 Build 0)  -->
<svg version="1.1" id="Layer_1" xmlns="http://www.w3.org/2000/svg" xmlns:xlink="http://www.w3.org/1999/xlink" x="0px" y="0px"
	 viewBox="0 0 595.28 841.89" style="enable-background:new 0 0 595.28 841.89;" xml:space="preserve">
<style type="text/css">
	.st0{font-family:'Helvetica-Narrow-Bold';}
	.st1{font-size:64.6335px;}
	.st2{font-size:64.6337px;}
	.st3{font-size:61.3845px;}
	.st4{font-size:58.3756px;}
	.st5{font-size:64.726px;}
	.st6{font-size:61.3844px;}
</style>
<g>
	<text transform="matrix(0.4232 0 0 1 211 464.2775)" class="st0 st1">K</text>
	<text transform="matrix(0.3935 0 0 1 212.7031 416.9885)" class="st0 st2">A</text>
	<text transform="matrix(0.4743 0 0 1 229.0156 462.9963)" class="st0 st3">S</text>
	<text transform="matrix(0.4313 0 0 1 228.125 416.9885)" class="st0 st2">D</text>
	<text transform="matrix(0.4232 0 0 1 245.5469 464.2775)" class="st0 st1">K</text>
	<text transform="matrix(0.3935 0 0 1 247.25 416.9885)" class="st0 st2">A</text>
	<text transform="matrix(0.3989 0 0 1 264.0156 460.8947)" class="st0 st4">Q</text>
	<text transform="matrix(0.4769 0 0 1 262.3125 416.9885)" class="st0 st2">E</text>
	<text transform="matrix(0.2515 0 0 1 287.8516 464.2853)" class="st0 st5">I</text>
	<text transform="matrix(0.3935 0 0 1 281.7969 416.9885)" class="st0 st2">A</text>
	<text transform="matrix(0.5523 0 0 1 296.7656 464.2775)" class="st0 st1">L</text>
	<text transform="matrix(0.4232 0 0 1 297.375 416.9885)" class="st0 st2">K</text>
	<text transform="matrix(0.4743 0 0 1 315.3828 462.9963)" class="st0 st3">S</text>
	<text transform="matrix(0.5523 0 0 1 314.0391 416.9885)" class="st0 st2">L</text>
	<text transform="matrix(0.4458 0 0 1 331.75 464.2775)" class="st0 st1">H</text>
	<text transform="matrix(0.5057 0 0 1 331.25 416.9885)" class="st0 st2">F</text>
	<text transform="matrix(0.5523 0 0 1 348.5859 464.2775)" class="st0 st1">L</text>
	<text transform="matrix(0.4105 0 0 1 350.0938 415.8166)" class="st0 st6">G</text>
	<text transform="matrix(0.2758 0 0 1 368.2344 464.2775)" class="st0 st1">W</text>
	<text transform="matrix(0.5523 0 0 1 365.8594 416.9885)" class="st0 st2">L</text>
</g>
</svg>
