<?xml version="1.0" encoding="utf-8"?>
<!-- Generator: Adobe Illustrator 24.3.0, SVG Export Plug-In . SVG Version: 6.00 Build 0)  -->
<svg version="1.1" id="Layer_1" xmlns="http://www.w3.org/2000/svg" xmlns:xlink="http://www.w3.org/1999/xlink" x="0px" y="0px"
	 viewBox="0 0 595.28 841.89" style="enable-background:new 0 0 595.28 841.89;" xml:space="preserve">
<style type="text/css">
	.st0{font-family:'Helvetica-Narrow-Bold';}
	.st1{font-size:10px;}
	.st2{font-size:0.1585px;}
	.st3{font-size:0.1584px;}
	.st4{font-size:0.446px;}
	.st5{font-size:0.6238px;}
	.st6{font-size:0.6256px;}
	.st7{font-size:1.3982px;}
	.st8{font-size:0.1051px;}
	.st9{font-size:0.1052px;}
	.st10{font-size:1.0061px;}
	.st11{font-size:1.9049px;}
	.st12{font-size:2.8042px;}
	.st13{font-size:6.4005px;}
	.st14{font-size:8.4977px;}
	.st15{font-size:0.1345px;}
	.st16{font-size:0.1248px;}
	.st17{font-size:0.5923px;}
	.st18{font-size:0.8951px;}
	.st19{font-size:1.9657px;}
	.st20{font-size:0.2927px;}
	.st21{font-size:1.887px;}
	.st22{font-size:1.8923px;}
	.st23{font-size:4.5146px;}
	.st24{font-size:9.7626px;}
	.st25{font-size:12.3866px;}
	.st26{font-size:41.2613px;}
</style>
<g>
	<text transform="matrix(1 0 0 1 212.7344 450.0432)" class="st0 st1">Q</text>
	<text transform="matrix(1 0 0 1 213 449.2385)" class="st0 st2">V</text>
	<text transform="matrix(1 0 0 1 213.2656 447.9728)" class="st0 st2">T</text>
	<text transform="matrix(1 0 0 1 211 446.9494)" class="st0 st3">R</text>
	<text transform="matrix(72.9811 0 0 1 212.2266 445.676)" class="st0 st4">S</text>
	<text transform="matrix(49.0287 0 0 1 211.3984 444.4494)" class="st0 st5">K</text>
	<text transform="matrix(29.0888 0 0 1 220.2188 442.9963)" class="st0 st6">I</text>
	<text transform="matrix(20.3354 0 0 1 213.2891 441.5353)" class="st0 st7">A</text>
	<text transform="matrix(1 0 0 1 232.3594 448.3322)" class="st0 st8">Y</text>
	<text transform="matrix(1 0 0 1 232.4922 447.1369)" class="st0 st9">A</text>
	<text transform="matrix(26.2506 0 0 1 230.9844 446.1916)" class="st0 st10">M</text>
	<text transform="matrix(9.5524 0 0 1 239.4141 444.426)" class="st0 st11">I</text>
	<text transform="matrix(11.1492 0 0 1 232.4766 442.09)" class="st0 st12">T</text>
	<text transform="matrix(4.5413 0 0 1 232.1797 438.9494)" class="st0 st13">V</text>
	<text transform="matrix(4.6959 0 0 1 229.9062 433.5197)" class="st0 st14">L</text>
	<text transform="matrix(1 0 0 1 328.4531 447.5744)" class="st0 st15">T</text>
	<text transform="matrix(1 0 0 1 327.5469 446.3322)" class="st0 st16">G</text>
	<text transform="matrix(49.0769 0 0 1 328.1641 445.34)" class="st0 st17">V</text>
	<text transform="matrix(31.766 0 0 1 328.4688 443.926)" class="st0 st18">A</text>
	<text transform="matrix(20.3007 0 0 1 325.875 442.0822)" class="st0 st19">L</text>
	<text transform="matrix(1 0 0 1 345.0781 445.8557)" class="st0 st20">L</text>
	<text transform="matrix(15.4039 0 0 1 366.5391 451.2619)" class="st0 st21">V</text>
	<text transform="matrix(9.6164 0 0 1 373.7656 448.9494)" class="st0 st22">I</text>
	<text transform="matrix(8.8389 0 0 1 364.2578 446.6369)" class="st0 st23">L</text>
	<text transform="matrix(3.1918 0 0 1 364.5469 442.4728)" class="st0 st24">R</text>
	<text transform="matrix(2.2882 0 0 1 366.7266 434.3791)" class="st0 st25">Y</text>
	<text transform="matrix(0.7412 0 0 1 364.9375 424.426)" class="st0 st26">K</text>
</g>
</svg>
