<?xml version="1.0" encoding="utf-8"?>
<!-- Generator: Adobe Illustrator 24.3.0, SVG Export Plug-In . SVG Version: 6.00 Build 0)  -->
<svg version="1.1" id="Layer_1" xmlns="http://www.w3.org/2000/svg" xmlns:xlink="http://www.w3.org/1999/xlink" x="0px" y="0px"
	 viewBox="0 0 595.28 841.89" style="enable-background:new 0 0 595.28 841.89;" xml:space="preserve">
<style type="text/css">
	.st0{font-family:'Helvetica-Narrow-Bold';}
	.st1{font-size:0.2516px;}
	.st2{font-size:0.1311px;}
	.st3{font-size:0.606px;}
	.st4{font-size:2.1584px;}
	.st5{font-size:38.1911px;}
	.st6{font-size:43.2648px;}
	.st7{font-size:0.2275px;}
	.st8{font-size:1.3096px;}
	.st9{font-size:43.4795px;}
	.st10{font-size:46.7222px;}
	.st11{font-size:0.8234px;}
	.st12{font-size:7.0281px;}
	.st13{font-size:13.6799px;}
	.st14{font-size:17.6946px;}
	.st15{font-size:35.8415px;}
</style>
<g>
	<text transform="matrix(1 0 0 1 219 452.0046)" class="st0 st1">L</text>
	<text transform="matrix(1 0 0 1 238.6875 454.6999)" class="st0 st2">H</text>
	<text transform="matrix(53.72 0 0 1 239.7031 453.4577)" class="st0 st3">S</text>
	<text transform="matrix(13.1727 0 0 1 240.7734 452.0046)" class="st0 st4">A</text>
	<text transform="matrix(0.8159 0 0 1 238.4844 449.5436)" class="st0 st5">R</text>
	<text transform="matrix(0.7069 0 0 1 238.8672 421.0202)" class="st0 st6">K</text>
	<text transform="matrix(1 0 0 1 276.5938 454.3718)" class="st0 st7">L</text>
	<text transform="matrix(24.5921 0 0 1 277.0703 453.2468)" class="st0 st8">H</text>
	<text transform="matrix(0.7167 0 0 1 276.875 451.278)" class="st0 st9">R</text>
	<text transform="matrix(0.6546 0 0 1 277.2578 418.9968)" class="st0 st10">K</text>
	<text transform="matrix(34.5319 0 0 1 355.9375 456.8249)" class="st0 st11">A</text>
	<text transform="matrix(3.7577 0 0 1 354.4375 455.0827)" class="st0 st12">M</text>
	<text transform="matrix(2.1248 0 0 1 355.6406 449.2311)" class="st0 st13">V</text>
	<text transform="matrix(1.0284 0 0 1 362.8594 438.3874)" class="st0 st14">I</text>
	<text transform="matrix(1.1134 0 0 1 353.3594 424.6999)" class="st0 st15">L</text>
</g>
</svg>
