<?xml version="1.0" encoding="utf-8"?>
<!-- Generator: Adobe Illustrator 24.3.0, SVG Export Plug-In . SVG Version: 6.00 Build 0)  -->
<svg version="1.1" id="Layer_1" xmlns="http://www.w3.org/2000/svg" xmlns:xlink="http://www.w3.org/1999/xlink" x="0px" y="0px"
	 viewBox="0 0 595.28 841.89" style="enable-background:new 0 0 595.28 841.89;" xml:space="preserve">
<style type="text/css">
	.st0{font-family:'Helvetica-Narrow-Bold';}
	.st1{font-size:64.6335px;}
	.st2{font-size:64.6337px;}
	.st3{font-size:170.4153px;}
	.st4{font-size:61.3844px;}
	.st5{font-size:170.4154px;}
</style>
<g>
	<text transform="matrix(0.4313 0 0 1 212 471.5285)" class="st0 st1">D</text>
	<text transform="matrix(0.3935 0 0 1 213.8516 424.2394)" class="st0 st2">A</text>
	<text transform="matrix(0.4023 0 0 1 230.8516 471.5285)" class="st0 st1">V</text>
	<text transform="matrix(0.4769 0 0 1 228.9141 424.2394)" class="st0 st2">E</text>
	<text transform="matrix(0.4232 0 0 1 246.6953 471.5285)" class="st0 st1">K</text>
	<text transform="matrix(0.3935 0 0 1 248.3984 424.2394)" class="st0 st2">A</text>
	<text transform="matrix(0.4313 0 0 1 263.625 471.5285)" class="st0 st1">R</text>
	<text transform="matrix(0.4232 0 0 1 263.9688 424.2394)" class="st0 st2">K</text>
	<text transform="matrix(0.4313 0 0 1 280.8984 471.5285)" class="st0 st1">R</text>
	<text transform="matrix(0.4725 0 0 1 280.7578 424.2394)" class="st0 st2">P</text>
	<text transform="matrix(0.4327 0 0 1 300.2031 471.5285)" class="st0 st1">T</text>
	<text transform="matrix(0.4313 0 0 1 298.1719 424.2394)" class="st0 st2">R</text>
	<text transform="matrix(0.2758 0 0 1 317.5625 471.5285)" class="st0 st1">W</text>
	<text transform="matrix(0.4327 0 0 1 317.4766 424.2394)" class="st0 st2">T</text>
	<text transform="matrix(0.1526 0 0 1 334.5 471.5363)" class="st0 st3">V</text>
	<text transform="matrix(0.4327 0 0 1 352.0234 471.5285)" class="st0 st1">T</text>
	<text transform="matrix(0.4105 0 0 1 351.2422 423.0676)" class="st0 st4">G</text>
	<text transform="matrix(0.1918 0 0 1 366.9453 471.5285)" class="st0 st5">F</text>
</g>
</svg>
