<?xml version="1.0" encoding="utf-8"?>
<!-- Generator: Adobe Illustrator 24.3.0, SVG Export Plug-In . SVG Version: 6.00 Build 0)  -->
<svg version="1.1" id="Layer_1" xmlns="http://www.w3.org/2000/svg" xmlns:xlink="http://www.w3.org/1999/xlink" x="0px" y="0px"
	 viewBox="0 0 595.28 841.89" style="enable-background:new 0 0 595.28 841.89;" xml:space="preserve">
<style type="text/css">
	.st0{font-family:'Helvetica-Narrow-Bold';}
	.st1{font-size:0.1068px;}
	.st2{font-size:0.0968px;}
	.st3{font-size:0.6095px;}
	.st4{font-size:1.1116px;}
	.st5{font-size:1.996px;}
	.st6{font-size:5.3896px;}
	.st7{font-size:12.1694px;}
	.st8{font-size:110.4948px;}
	.st9{font-size:0.3533px;}
	.st10{font-size:0.3938px;}
	.st11{font-size:1.5825px;}
	.st12{font-size:0.4197px;}
	.st13{font-size:0.8744px;}
	.st14{font-size:0.3498px;}
	.st15{font-size:0.9322px;}
	.st16{font-size:1.5119px;}
	.st17{font-size:2.0916px;}
	.st18{font-size:0.3051px;}
	.st19{font-size:0.8713px;}
	.st20{font-size:1.3653px;}
	.st21{font-size:2.5678px;}
	.st22{font-size:0.4641px;}
	.st23{font-size:0.464px;}
	.st24{font-size:1.0822px;}
	.st25{font-size:1.7002px;}
	.st26{font-size:2.3183px;}
	.st27{font-size:0.6409px;}
	.st28{font-size:1.2525px;}
	.st29{font-size:1.3192px;}
	.st30{font-size:2.6757px;}
	.st31{font-size:0.1103px;}
	.st32{font-size:3.1223px;}
	.st33{font-size:6.1307px;}
	.st34{font-size:6.1405px;}
	.st35{font-size:9.1391px;}
	.st36{font-size:12.1476px;}
</style>
<g>
	<text transform="matrix(1 0 0 1 211.4766 468.07)" class="st0 st1">Y</text>
	<text transform="matrix(1 0 0 1 211.5469 466.8747)" class="st0 st1">T</text>
	<text transform="matrix(1 0 0 1 209.2812 465.9138)" class="st0 st1">R</text>
	<text transform="matrix(1 0 0 1 211.0234 464.7184)" class="st0 st2">Q</text>
	<text transform="matrix(1 0 0 1 210.0781 463.7731)" class="st0 st1">M</text>
	<text transform="matrix(1 0 0 1 209.0781 462.57)" class="st0 st1">E</text>
	<text transform="matrix(65.4757 0 0 1 209 461.6169)" class="st0 st3">L</text>
	<text transform="matrix(50.1777 0 0 1 209.6797 460.1872)" class="st0 st3">K</text>
	<text transform="matrix(16.3704 0 0 1 218.5 458.7497)" class="st0 st4">I</text>
	<text transform="matrix(15.3226 0 0 1 228.8672 471.1794)" class="st0 st5">K</text>
	<text transform="matrix(5.8009 0 0 1 230.75 468.945)" class="st0 st6">T</text>
	<text transform="matrix(2.3364 0 0 1 230.7656 464.0153)" class="st0 st7">A</text>
	<text transform="matrix(0.309 0 0 1 228.3203 454.3747)" class="st0 st8">P</text>
	<text transform="matrix(73.6789 0 0 1 249.3906 465.195)" class="st0 st9">Q</text>
	<text transform="matrix(46.2132 0 0 1 256.8828 464.0934)" class="st0 st10">I</text>
	<text transform="matrix(18.3677 0 0 1 249.6562 462.7263)" class="st0 st11">V</text>
	<text transform="matrix(19.7566 0 0 1 249.9531 460.6169)" class="st0 st11">T</text>
	<text transform="matrix(19.326 0 0 1 248.0625 458.5075)" class="st0 st11">K</text>
	<text transform="matrix(17.9667 0 0 1 249.9688 456.3825)" class="st0 st11">A</text>
	<text transform="matrix(43.3582 0 0 1 276.0781 462.8981)" class="st0 st12">I</text>
	<text transform="matrix(45.6365 0 0 1 266.5781 461.4919)" class="st0 st13">L</text>
	<text transform="matrix(35.6352 0 0 1 267.0703 459.9216)" class="st0 st13">D</text>
	<text transform="matrix(52.0196 0 0 1 295.2734 464.5544)" class="st0 st14">I</text>
	<text transform="matrix(30.5004 0 0 1 288.3438 463.4841)" class="st0 st15">A</text>
	<text transform="matrix(20.6103 0 0 1 286.2812 461.5856)" class="st0 st16">D</text>
	<text transform="matrix(19.0785 0 0 1 285.7656 459.5778)" class="st0 st17">L</text>
	<text transform="matrix(16.477 0 0 1 285.8672 457.2106)" class="st0 st17">E</text>
	<text transform="matrix(65.3375 0 0 1 307.6094 463.9841)" class="st0 st18">W</text>
	<text transform="matrix(1 0 0 1 305.5469 462.7575)" class="st0 st18">N</text>
	<text transform="matrix(20.8843 0 0 1 314.4688 461.5153)" class="st0 st19">I</text>
	<text transform="matrix(20.6308 0 0 1 306.6484 459.9216)" class="st0 st20">G</text>
	<text transform="matrix(11.0725 0 0 1 307.5469 457.8044)" class="st0 st21">A</text>
	<text transform="matrix(61.0729 0 0 1 326.6328 466.8513)" class="st0 st22">Y</text>
	<text transform="matrix(42.9529 0 0 1 326.8125 465.6325)" class="st0 st23">W</text>
	<text transform="matrix(62.6325 0 0 1 326.4453 464.1716)" class="st0 st22">V</text>
	<text transform="matrix(67.3737 0 0 1 326.7344 462.9372)" class="st0 st23">T</text>
	<text transform="matrix(78.7388 0 0 1 324.0781 461.4763)" class="st0 st23">F</text>
	<text transform="matrix(31.8466 0 0 1 324.25 460.2575)" class="st0 st24">E</text>
	<text transform="matrix(20.0789 0 0 1 324.2812 458.3825)" class="st0 st25">P</text>
	<text transform="matrix(17.2128 0 0 1 324.1562 456.0934)" class="st0 st26">L</text>
	<text transform="matrix(50.2461 0 0 1 343.9453 465.9841)" class="st0 st27">N</text>
	<text transform="matrix(41.2041 0 0 1 344.4375 464.5075)" class="st0 st27">M</text>
	<text transform="matrix(47.7158 0 0 1 344.0312 463.0231)" class="st0 st27">K</text>
	<text transform="matrix(25.9889 0 0 1 344.8594 461.5231)" class="st0 st28">S</text>
	<text transform="matrix(23.6202 0 0 1 343.8672 459.57)" class="st0 st29">D</text>
	<text transform="matrix(14.9134 0 0 1 343.3516 457.6013)" class="st0 st30">L</text>
	<text transform="matrix(10.6261 0 0 1 345.9297 454.6403)" class="st0 st30">A</text>
	<text transform="matrix(1 0 0 1 365.1172 471.1716)" class="st0 st31">A</text>
	<text transform="matrix(9.3093 0 0 1 364.8281 470.2106)" class="st0 st32">V</text>
	<text transform="matrix(8.4583 0 0 1 363.625 467.1013)" class="st0 st32">M</text>
	<text transform="matrix(3.2512 0 0 1 365.2031 463.7263)" class="st0 st33">W</text>
	<text transform="matrix(2.9634 0 0 1 372.0469 458.445)" class="st0 st34">I</text>
	<text transform="matrix(4.3663 0 0 1 362.5469 452.9216)" class="st0 st35">L</text>
	<text transform="matrix(3.9981 0 0 1 362.4688 445.4763)" class="st0 st35">F</text>
	<text transform="matrix(2.3332 0 0 1 365.0078 437.7888)" class="st0 st36">Y</text>
</g>
</svg>
