<?xml version="1.0" encoding="utf-8"?>
<!-- Generator: Adobe Illustrator 24.3.0, SVG Export Plug-In . SVG Version: 6.00 Build 0)  -->
<svg version="1.1" id="Layer_1" xmlns="http://www.w3.org/2000/svg" xmlns:xlink="http://www.w3.org/1999/xlink" x="0px" y="0px"
	 viewBox="0 0 595.28 841.89" style="enable-background:new 0 0 595.28 841.89;" xml:space="preserve">
<style type="text/css">
	.st0{font-family:'Helvetica-Narrow-Bold';}
	.st1{font-size:0.5497px;}
	.st2{font-size:1.8429px;}
	.st3{font-size:3.7865px;}
	.st4{font-size:4.4332px;}
	.st5{font-size:10.9069px;}
	.st6{font-size:56.2263px;}
	.st7{font-size:10px;}
	.st8{font-size:0.1289px;}
	.st9{font-size:0.4225px;}
	.st10{font-size:0.2517px;}
	.st11{font-size:0.2537px;}
	.st12{font-size:5.1929px;}
	.st13{font-size:9.5925px;}
	.st14{font-size:21.1028px;}
	.st15{font-size:28.7819px;}
</style>
<g>
	<text transform="matrix(51.7234 0 0 1 222.6562 454.467)" class="st0 st1">A</text>
	<text transform="matrix(14.3301 0 0 1 221.1484 453.1154)" class="st0 st2">M</text>
	<text transform="matrix(5.264 0 0 1 222.7266 450.6232)" class="st0 st3">W</text>
	<text transform="matrix(9.0013 0 0 1 220.0781 447.0295)" class="st0 st4">L</text>
	<text transform="matrix(3.3501 0 0 1 220 442.7482)" class="st0 st5">F</text>
	<text transform="matrix(0.5041 0 0 1 222.5391 433.9514)" class="st0 st6">Y</text>
	<text transform="matrix(1 0 0 1 280.2266 452.3732)" class="st0 st7">A</text>
	<text transform="matrix(1 0 0 1 279.1641 451.2717)" class="st0 st8">S</text>
	<text transform="matrix(94.4412 0 0 1 277.6484 450.2795)" class="st0 st9">L</text>
	<text transform="matrix(1 0 0 1 335.2422 452.1232)" class="st0 st10">L</text>
	<text transform="matrix(1 0 0 1 356.7109 454.4045)" class="st0 st11">V</text>
	<text transform="matrix(3.8384 0 0 1 357.0781 452.9982)" class="st0 st12">W</text>
	<text transform="matrix(1.897 0 0 1 363.9297 448.3498)" class="st0 st13">I</text>
	<text transform="matrix(1.7315 0 0 1 354.3516 440.506)" class="st0 st14">F</text>
	<text transform="matrix(1.3864 0 0 1 354.4297 424.2873)" class="st0 st15">L</text>
</g>
</svg>
