<?xml version="1.0" encoding="utf-8"?>
<!-- Generator: Adobe Illustrator 24.3.0, SVG Export Plug-In . SVG Version: 6.00 Build 0)  -->
<svg version="1.1" id="Layer_1" xmlns="http://www.w3.org/2000/svg" xmlns:xlink="http://www.w3.org/1999/xlink" x="0px" y="0px"
	 viewBox="0 0 595.28 841.89" style="enable-background:new 0 0 595.28 841.89;" xml:space="preserve">
<style type="text/css">
	.st0{font-family:'Helvetica-Narrow-Bold';}
	.st1{font-size:0.1565px;}
	.st2{font-size:0.35px;}
	.st3{font-size:1.019px;}
	.st4{font-size:1.5752px;}
	.st5{font-size:0.5485px;}
	.st6{font-size:0.6548px;}
	.st7{font-size:1.2538px;}
	.st8{font-size:4.2558px;}
	.st9{font-size:9.9055px;}
	.st10{font-size:9.9185px;}
	.st11{font-size:46.9718px;}
	.st12{font-size:0.1289px;}
	.st13{font-size:1.5235px;}
	.st14{font-size:0.1px;}
	.st15{font-size:10px;}
	.st16{font-size:0.3654px;}
	.st17{font-size:1.7624px;}
	.st18{font-size:0.5653px;}
	.st19{font-size:0.0878px;}
	.st20{font-size:0.3503px;}
	.st21{font-size:0.2778px;}
	.st22{font-size:6.4498px;}
	.st23{font-size:13.313px;}
	.st24{font-size:23.9741px;}
	.st25{font-size:26.814px;}
</style>
<g>
	<text transform="matrix(1 0 0 1 211.4062 449.5182)" class="st0 st1">S</text>
	<text transform="matrix(72.4308 0 0 1 212.25 448.237)" class="st0 st2">Y</text>
	<text transform="matrix(32.075 0 0 1 210 447.1745)" class="st0 st3">F</text>
	<text transform="matrix(22.6597 0 0 1 210.0547 445.3854)" class="st0 st4">L</text>
	<text transform="matrix(46.3677 0 0 1 229.6484 454.1979)" class="st0 st5">A</text>
	<text transform="matrix(35.5668 0 0 1 229.125 452.7995)" class="st0 st6">Q</text>
	<text transform="matrix(22.3058 0 0 1 229.6328 451.2448)" class="st0 st7">T</text>
	<text transform="matrix(6.1096 0 0 1 229.375 449.362)" class="st0 st8">V</text>
	<text transform="matrix(2.3848 0 0 1 228.3047 445.3307)" class="st0 st9">M</text>
	<text transform="matrix(1.6411 0 0 1 235.6953 437.2604)" class="st0 st10">I</text>
	<text transform="matrix(0.7599 0 0 1 227.3359 429.2057)" class="st0 st11">L</text>
	<text transform="matrix(1 0 0 1 252.9688 448.1511)" class="st0 st12">I</text>
	<text transform="matrix(23.4291 0 0 1 244.6094 446.9323)" class="st0 st13">L</text>
	<text transform="matrix(1 0 0 1 261.8828 449.3229)" class="st0 st14">L</text>
	<text transform="matrix(1 0 0 1 279.1719 449.862)" class="st0 st15">L</text>
	<text transform="matrix(44.544 0 0 1 322.0703 448.2682)" class="st0 st16">I</text>
	<text transform="matrix(20.2537 0 0 1 313.7109 447.1823)" class="st0 st17">L</text>
	<text transform="matrix(63.1408 0 0 1 330.9844 448.5104)" class="st0 st18">L</text>
	<text transform="matrix(1 0 0 1 349.6094 449.3307)" class="st0 st15">S</text>
	<text transform="matrix(1 0 0 1 348.25 448.2917)" class="st0 st19">L</text>
	<text transform="matrix(93.3156 0 0 1 348.2109 447.362)" class="st0 st20">F</text>
	<text transform="matrix(1 0 0 1 367.8281 453.4557)" class="st0 st21">T</text>
	<text transform="matrix(3.943 0 0 1 367.8438 452.2526)" class="st0 st22">A</text>
	<text transform="matrix(1.2227 0 0 1 374.1328 446.7526)" class="st0 st23">I</text>
	<text transform="matrix(1.4889 0 0 1 365.5312 436.2292)" class="st0 st24">L</text>
	<text transform="matrix(0.9697 0 0 1 367.5781 418.0339)" class="st0 st25">V</text>
</g>
</svg>
