<?xml version="1.0" encoding="utf-8"?>
<!-- Generator: Adobe Illustrator 24.3.0, SVG Export Plug-In . SVG Version: 6.00 Build 0)  -->
<svg version="1.1" id="Layer_1" xmlns="http://www.w3.org/2000/svg" xmlns:xlink="http://www.w3.org/1999/xlink" x="0px" y="0px"
	 viewBox="0 0 595.28 841.89" style="enable-background:new 0 0 595.28 841.89;" xml:space="preserve">
<style type="text/css">
	.st0{font-family:'Helvetica-Narrow-Bold';}
	.st1{font-size:10px;}
	.st2{font-size:0.6097px;}
	.st3{font-size:1.1086px;}
	.st4{font-size:5.1119px;}
	.st5{font-size:14.12px;}
	.st6{font-size:95.6815px;}
	.st7{font-size:0.1146px;}
	.st8{font-size:0.0537px;}
	.st9{font-size:0.4566px;}
	.st10{font-size:1.1968px;}
	.st11{font-size:2.6772px;}
	.st12{font-size:18.9848px;}
	.st13{font-size:29.6864px;}
	.st14{font-size:31.1668px;}
</style>
<g>
	<text transform="matrix(1 0 0 1 210 462.5617)" class="st0 st1">V</text>
	<text transform="matrix(42.6483 0 0 1 227.2969 469.1086)" class="st0 st2">V</text>
	<text transform="matrix(21.308 0 0 1 226.2266 467.6711)" class="st0 st3">M</text>
	<text transform="matrix(3.4876 0 0 1 227.6328 465.757)" class="st0 st4">W</text>
	<text transform="matrix(2.3147 0 0 1 225.1875 461.218)" class="st0 st5">F</text>
	<text transform="matrix(0.265 0 0 1 227.4609 449.9758)" class="st0 st6">Y</text>
	<text transform="matrix(1 0 0 1 259.7969 464.2258)" class="st0 st7">L</text>
	<text transform="matrix(1 0 0 1 294.3516 461.9836)" class="st0 st8">L</text>
	<text transform="matrix(1 0 0 1 328.8984 462.9992)" class="st0 st1">L</text>
	<text transform="matrix(55.5252 0 0 1 365.6562 470.0617)" class="st0 st9">Y</text>
	<text transform="matrix(19.7387 0 0 1 364.4141 468.843)" class="st0 st10">M</text>
	<text transform="matrix(6.6593 0 0 1 365.8203 467.0461)" class="st0 st11">W</text>
	<text transform="matrix(0.8574 0 0 1 372.0469 464.0773)" class="st0 st12">I</text>
	<text transform="matrix(1.101 0 0 1 363.3828 449.4992)" class="st0 st13">F</text>
	<text transform="matrix(1.1453 0 0 1 363.4453 427.1867)" class="st0 st14">L</text>
</g>
</svg>
