<?xml version="1.0" encoding="utf-8"?>
<!-- Generator: Adobe Illustrator 24.3.0, SVG Export Plug-In . SVG Version: 6.00 Build 0)  -->
<svg version="1.1" id="Layer_1" xmlns="http://www.w3.org/2000/svg" xmlns:xlink="http://www.w3.org/1999/xlink" x="0px" y="0px"
	 viewBox="0 0 595.28 841.89" style="enable-background:new 0 0 595.28 841.89;" xml:space="preserve">
<style type="text/css">
	.st0{font-family:'Helvetica-Narrow-Bold';}
	.st1{font-size:0.211px;}
	.st2{font-size:0.192px;}
	.st3{font-size:1.8174px;}
	.st4{font-size:1.7249px;}
	.st5{font-size:3.4209px;}
	.st6{font-size:3.2491px;}
	.st7{font-size:6.6308px;}
	.st8{font-size:11.4419px;}
	.st9{font-size:1.2492px;}
	.st10{font-size:3.8923px;}
	.st11{font-size:3.8958px;}
	.st12{font-size:6.5318px;}
	.st13{font-size:8.2839px;}
	.st14{font-size:38.2343px;}
	.st15{font-size:1.0456px;}
	.st16{font-size:0.9953px;}
	.st17{font-size:2.2654px;}
	.st18{font-size:2.1511px;}
	.st19{font-size:3.4851px;}
	.st20{font-size:7.1444px;}
	.st21{font-size:1.2555px;}
	.st22{font-size:1.2553px;}
	.st23{font-size:2.4493px;}
	.st24{font-size:2.5765px;}
	.st25{font-size:3.9012px;}
	.st26{font-size:8.7334px;}
	.st27{font-size:0.4769px;}
	.st28{font-size:0.4768px;}
	.st29{font-size:1.3415px;}
	.st30{font-size:1.414px;}
	.st31{font-size:3.2848px;}
	.st32{font-size:3.2847px;}
	.st33{font-size:0.9406px;}
	.st34{font-size:0.9889px;}
	.st35{font-size:8.1527px;}
	.st36{font-size:12.9066px;}
	.st37{font-size:17.6758px;}
	.st38{font-size:0.8643px;}
	.st39{font-size:1.9953px;}
	.st40{font-size:1.9972px;}
	.st41{font-size:3.1262px;}
	.st42{font-size:4.2535px;}
	.st43{font-size:1.1094px;}
	.st44{font-size:1.0527px;}
	.st45{font-size:2.3591px;}
	.st46{font-size:3.6126px;}
	.st47{font-size:4.6189px;}
	.st48{font-size:6.1122px;}
	.st49{font-size:1.9068px;}
	.st50{font-size:8.5083px;}
	.st51{font-size:11.8237px;}
	.st52{font-size:18.4069px;}
	.st53{font-size:51.4106px;}
</style>
<g>
	<text transform="matrix(94.4612 0 0 1 211.7266 458.905)" class="st0 st1">W</text>
	<text transform="matrix(1 0 0 1 211.1016 457.78)" class="st0 st2">Q</text>
	<text transform="matrix(1 0 0 1 209.6484 456.7018)" class="st0 st1">N</text>
	<text transform="matrix(1 0 0 1 209.7578 455.5925)" class="st0 st1">K</text>
	<text transform="matrix(10.0127 0 0 1 218.5781 454.4831)" class="st0 st3">I</text>
	<text transform="matrix(16.7708 0 0 1 210.8359 451.9987)" class="st0 st4">C</text>
	<text transform="matrix(8.2851 0 0 1 211.5469 449.8268)" class="st0 st5">Y</text>
	<text transform="matrix(11.6649 0 0 1 209.0781 446.28)" class="st0 st5">L</text>
	<text transform="matrix(8.6693 0 0 1 210.75 442.905)" class="st0 st6">G</text>
	<text transform="matrix(4.3836 0 0 1 211.3438 439.4128)" class="st0 st7">V</text>
	<text transform="matrix(3.1934 0 0 1 209 433.655)" class="st0 st8">F</text>
	<text transform="matrix(29.2503 0 0 1 228.2031 458.905)" class="st0 st9">F</text>
	<text transform="matrix(22.76 0 0 1 230.8516 457.03)" class="st0 st9">A</text>
	<text transform="matrix(7.4677 0 0 1 230.5391 455.155)" class="st0 st10">V</text>
	<text transform="matrix(6.7851 0 0 1 229.3438 451.405)" class="st0 st10">M</text>
	<text transform="matrix(4.6709 0 0 1 237.7656 447.655)" class="st0 st11">I</text>
	<text transform="matrix(4.7866 0 0 1 230.8281 443.9206)" class="st0 st12">T</text>
	<text transform="matrix(3.1424 0 0 1 230.2891 437.5768)" class="st0 st13">Q</text>
	<text transform="matrix(1.0437 0 0 1 228.2656 430.5612)" class="st0 st14">L</text>
	<text transform="matrix(27.1061 0 0 1 249.9219 454.7097)" class="st0 st15">Y</text>
	<text transform="matrix(27.7983 0 0 1 249.7344 452.8815)" class="st0 st15">V</text>
	<text transform="matrix(32.7044 0 0 1 248.9688 451.0378)" class="st0 st16">S</text>
	<text transform="matrix(34.9442 0 0 1 247.3828 449.4831)" class="st0 st15">F</text>
	<text transform="matrix(13.801 0 0 1 250.0234 447.655)" class="st0 st17">T</text>
	<text transform="matrix(13.0948 0 0 1 249.1484 444.9987)" class="st0 st18">G</text>
	<text transform="matrix(8.1581 0 0 1 250.0391 442.4362)" class="st0 st19">A</text>
	<text transform="matrix(5.5854 0 0 1 247.4609 438.78)" class="st0 st20">L</text>
	<text transform="matrix(24.9022 0 0 1 269.2188 453.2487)" class="st0 st21">T</text>
	<text transform="matrix(27.1912 0 0 1 266.7812 451.3737)" class="st0 st21">P</text>
	<text transform="matrix(14.4958 0 0 1 276.1562 449.4987)" class="st0 st22">I</text>
	<text transform="matrix(13.2907 0 0 1 268.1562 447.569)" class="st0 st23">S</text>
	<text transform="matrix(12.0942 0 0 1 267.1719 444.7956)" class="st0 st24">D</text>
	<text transform="matrix(7.2882 0 0 1 269.2344 441.9831)" class="st0 st25">A</text>
	<text transform="matrix(3.2253 0 0 1 268.3281 438.0456)" class="st0 st26">G</text>
	<text transform="matrix(59.4376 0 0 1 288.3203 453.6706)" class="st0 st27">Y</text>
	<text transform="matrix(60.9599 0 0 1 288.1328 452.1862)" class="st0 st28">V</text>
	<text transform="matrix(55.3831 0 0 1 286.9219 450.9362)" class="st0 st27">M</text>
	<text transform="matrix(20.998 0 0 1 287.5312 449.6706)" class="st0 st29">G</text>
	<text transform="matrix(22.037 0 0 1 286.3594 447.5768)" class="st0 st30">D</text>
	<text transform="matrix(12.1484 0 0 1 285.8516 445.4831)" class="st0 st31">L</text>
	<text transform="matrix(11.1238 0 0 1 285.7812 442.1237)" class="st0 st32">F</text>
	<text transform="matrix(34.6088 0 0 1 306.5625 458.8737)" class="st0 st33">S</text>
	<text transform="matrix(34.5209 0 0 1 305.1562 457.405)" class="st0 st34">P</text>
	<text transform="matrix(32.5656 0 0 1 305.625 455.655)" class="st0 st34">N</text>
	<text transform="matrix(29.9474 0 0 1 306.7344 453.8972)" class="st0 st33">G</text>
	<text transform="matrix(2.232 0 0 1 314.5469 452.1706)" class="st0 st35">I</text>
	<text transform="matrix(2.831 0 0 1 304.9688 445.4362)" class="st0 st36">F</text>
	<text transform="matrix(1.6444 0 0 1 307.3203 434.9909)" class="st0 st37">V</text>
	<text transform="matrix(2.2576 0 0 1 305.0469 421.2878)" class="st0 st37">L</text>
	<text transform="matrix(32.7915 0 0 1 326.7109 454.8737)" class="st0 st38">Y</text>
	<text transform="matrix(36.1718 0 0 1 326.8125 453.3112)" class="st0 st38">T</text>
	<text transform="matrix(37.2611 0 0 1 324.7266 451.7487)" class="st0 st38">H</text>
	<text transform="matrix(17.11 0 0 1 324.3594 450.1784)" class="st0 st39">P</text>
	<text transform="matrix(9.1114 0 0 1 333.7422 447.7175)" class="st0 st40">I</text>
	<text transform="matrix(12.7647 0 0 1 324.2344 445.2565)" class="st0 st41">L</text>
	<text transform="matrix(11.6879 0 0 1 324.1641 441.8893)" class="st0 st41">F</text>
	<text transform="matrix(6.8337 0 0 1 326.5156 438.7487)" class="st0 st42">V</text>
	<text transform="matrix(26.2015 0 0 1 345.7109 453.6393)" class="st0 st43">V</text>
	<text transform="matrix(30.9212 0 0 1 344.9375 451.7097)" class="st0 st44">S</text>
	<text transform="matrix(25.6295 0 0 1 346.0078 450.0456)" class="st0 st43">A</text>
	<text transform="matrix(14.6083 0 0 1 343.5312 448.1472)" class="st0 st45">E</text>
	<text transform="matrix(8.6545 0 0 1 346 445.6393)" class="st0 st46">T</text>
	<text transform="matrix(6.0984 0 0 1 345.1094 441.9675)" class="st0 st47">G</text>
	<text transform="matrix(5.978 0 0 1 343.3516 437.3815)" class="st0 st48">F</text>
	<text transform="matrix(13.8501 0 0 1 363.7031 458.905)" class="st0 st49">M</text>
	<text transform="matrix(3.3417 0 0 1 365.2031 456.5612)" class="st0 st50">A</text>
	<text transform="matrix(1.539 0 0 1 372.125 449.5456)" class="st0 st51">I</text>
	<text transform="matrix(2.1679 0 0 1 362.625 439.9518)" class="st0 st52">L</text>
	<text transform="matrix(0.5654 0 0 1 364.9062 425.9206)" class="st0 st53">V</text>
</g>
</svg>
