<?xml version="1.0" encoding="utf-8"?>
<!-- Generator: Adobe Illustrator 24.3.0, SVG Export Plug-In . SVG Version: 6.00 Build 0)  -->
<svg version="1.1" id="Layer_1" xmlns="http://www.w3.org/2000/svg" xmlns:xlink="http://www.w3.org/1999/xlink" x="0px" y="0px"
	 viewBox="0 0 595.28 841.89" style="enable-background:new 0 0 595.28 841.89;" xml:space="preserve">
<style type="text/css">
	.st0{font-family:'Helvetica-Narrow-Bold';}
	.st1{font-size:0.0595px;}
	.st2{font-size:0.057px;}
	.st3{font-size:0.7879px;}
	.st4{font-size:0.7122px;}
	.st5{font-size:1.5127px;}
	.st6{font-size:2.2412px;}
	.st7{font-size:2.9696px;}
	.st8{font-size:2.0274px;}
	.st9{font-size:2.0273px;}
	.st10{font-size:4.9204px;}
	.st11{font-size:111.4988px;}
	.st12{font-size:0.2202px;}
	.st13{font-size:0.2089px;}
	.st14{font-size:0.2128px;}
	.st15{font-size:0.3623px;}
	.st16{font-size:1.2645px;}
	.st17{font-size:0.326px;}
	.st18{font-size:0.7569px;}
	.st19{font-size:1.615px;}
	.st20{font-size:0.5122px;}
	.st21{font-size:0.4863px;}
	.st22{font-size:1.7816px;}
	.st23{font-size:3.6876px;}
	.st24{font-size:0.1348px;}
	.st25{font-size:0.1349px;}
	.st26{font-size:0.1352px;}
	.st27{font-size:0.8955px;}
	.st28{font-size:1.6598px;}
	.st29{font-size:1.5773px;}
	.st30{font-size:2.3015px;}
	.st31{font-size:3.9492px;}
	.st32{font-size:0.2104px;}
	.st33{font-size:0.211px;}
	.st34{font-size:0.2001px;}
	.st35{font-size:1.0125px;}
	.st36{font-size:0.9151px;}
	.st37{font-size:0.9619px;}
	.st38{font-size:4.7708px;}
	.st39{font-size:5.0232px;}
	.st40{font-size:0.802px;}
	.st41{font-size:1.9629px;}
	.st42{font-size:1.9611px;}
	.st43{font-size:4.194px;}
	.st44{font-size:7.5489px;}
	.st45{font-size:9.7855px;}
</style>
<g>
	<text transform="matrix(1 0 0 1 212.375 467.3557)" class="st0 st1">W</text>
	<text transform="matrix(1 0 0 1 211.3438 466.2228)" class="st0 st2">S</text>
	<text transform="matrix(1 0 0 1 210.5938 465.3322)" class="st0 st1">K</text>
	<text transform="matrix(1 0 0 1 210.4688 464.215)" class="st0 st1">D</text>
	<text transform="matrix(32.1781 0 0 1 212.1875 463.09)" class="st0 st3">Y</text>
	<text transform="matrix(32.6976 0 0 1 211.8203 461.59)" class="st0 st4">Q</text>
	<text transform="matrix(29.982 0 0 1 210.9844 459.9416)" class="st0 st3">M</text>
	<text transform="matrix(18.4874 0 0 1 212.3047 458.4885)" class="st0 st5">T</text>
	<text transform="matrix(18.4262 0 0 1 210.2656 456.4807)" class="st0 st5">R</text>
	<text transform="matrix(13.7548 0 0 1 210.0938 454.2228)" class="st0 st6">E</text>
	<text transform="matrix(12.02 0 0 1 210 451.6525)" class="st0 st7">L</text>
	<text transform="matrix(15.0625 0 0 1 227.3906 468.8088)" class="st0 st8">P</text>
	<text transform="matrix(14.2107 0 0 1 227.7109 466.5353)" class="st0 st8">H</text>
	<text transform="matrix(16.1212 0 0 1 227.2031 464.0275)" class="st0 st8">F</text>
	<text transform="matrix(13.7488 0 0 1 227.7344 461.5041)" class="st0 st9">D</text>
	<text transform="matrix(4.7329 0 0 1 229.0859 458.715)" class="st0 st10">Q</text>
	<text transform="matrix(0.2765 0 0 1 227.375 454.215)" class="st0 st11">E</text>
	<text transform="matrix(1 0 0 1 246.8516 461.0744)" class="st0 st12">T</text>
	<text transform="matrix(1 0 0 1 245.9062 459.9494)" class="st0 st13">S</text>
	<text transform="matrix(1 0 0 1 244.5 458.84)" class="st0 st12">F</text>
	<text transform="matrix(1 0 0 1 261.8203 461.0275)" class="st0 st14">L</text>
	<text transform="matrix(80.3771 0 0 1 280.4453 459.7072)" class="st0 st15">S</text>
	<text transform="matrix(28.2273 0 0 1 279.1016 458.3713)" class="st0 st16">L</text>
	<text transform="matrix(1 0 0 1 296.3125 461.8166)" class="st0 st17">F</text>
	<text transform="matrix(36.9463 0 0 1 298.6719 460.551)" class="st0 st18">T</text>
	<text transform="matrix(22.1016 0 0 1 296.375 459.1447)" class="st0 st19">L</text>
	<text transform="matrix(49.5016 0 0 1 315.8438 461.2228)" class="st0 st20">Y</text>
	<text transform="matrix(34.809 0 0 1 316.0156 459.6916)" class="st0 st20">W</text>
	<text transform="matrix(59.8707 0 0 1 314.9922 458.3791)" class="st0 st21">S</text>
	<text transform="matrix(20.0348 0 0 1 313.6484 457.09)" class="st0 st22">L</text>
	<text transform="matrix(8.8631 0 0 1 313.5859 454.6994)" class="st0 st23">F</text>
	<text transform="matrix(1 0 0 1 332.9531 467.1994)" class="st0 st24">V</text>
	<text transform="matrix(1 0 0 1 333.2188 466.215)" class="st0 st25">T</text>
	<text transform="matrix(1 0 0 1 339.2812 464.9728)" class="st0 st26">I</text>
	<text transform="matrix(1 0 0 1 331.3594 463.9885)" class="st0 st25">H</text>
	<text transform="matrix(1 0 0 1 331.0156 462.9963)" class="st0 st25">E</text>
	<text transform="matrix(34.1017 0 0 1 331.0391 461.7619)" class="st0 st27">P</text>
	<text transform="matrix(36.4986 0 0 1 330.8594 460.1525)" class="st0 st27">F</text>
	<text transform="matrix(15.2749 0 0 1 333.125 458.5432)" class="st0 st28">Y</text>
	<text transform="matrix(18.461 0 0 1 332.2656 456.2932)" class="st0 st29">S</text>
	<text transform="matrix(10.948 0 0 1 332.4219 454.0588)" class="st0 st30">G</text>
	<text transform="matrix(9.0384 0 0 1 330.9219 451.5041)" class="st0 st31">L</text>
	<text transform="matrix(1 0 0 1 350.2188 464.3947)" class="st0 st32">V</text>
	<text transform="matrix(77.1354 0 0 1 356.7969 463.051)" class="st0 st33">I</text>
	<text transform="matrix(1 0 0 1 349.7578 461.9338)" class="st0 st34">C</text>
	<text transform="matrix(27.6201 0 0 1 350.4922 460.84)" class="st0 st35">T</text>
	<text transform="matrix(25.4485 0 0 1 350 459.0119)" class="st0 st36">Q</text>
	<text transform="matrix(26.1949 0 0 1 349.7109 457.2697)" class="st0 st37">G</text>
	<text transform="matrix(6.1033 0 0 1 349.5391 455.6525)" class="st0 st38">S</text>
	<text transform="matrix(5.0628 0 0 1 350.5 451.1057)" class="st0 st39">A</text>
	<text transform="matrix(36.3062 0 0 1 366.8203 462.4338)" class="st0 st40">S</text>
	<text transform="matrix(8.2926 0 0 1 374.0703 460.9182)" class="st0 st41">I</text>
	<text transform="matrix(12.9679 0 0 1 367.7812 458.4963)" class="st0 st42">A</text>
	<text transform="matrix(8.5108 0 0 1 365.4688 456.09)" class="st0 st43">L</text>
	<text transform="matrix(4.3296 0 0 1 365.4062 452.1369)" class="st0 st44">F</text>
	<text transform="matrix(2.5909 0 0 1 367.6797 445.5432)" class="st0 st45">Y</text>
</g>
</svg>
