<?xml version="1.0" encoding="utf-8"?>
<!-- Generator: Adobe Illustrator 24.3.0, SVG Export Plug-In . SVG Version: 6.00 Build 0)  -->
<svg version="1.1" id="Layer_1" xmlns="http://www.w3.org/2000/svg" xmlns:xlink="http://www.w3.org/1999/xlink" x="0px" y="0px"
	 viewBox="0 0 595.28 841.89" style="enable-background:new 0 0 595.28 841.89;" xml:space="preserve">
<style type="text/css">
	.st0{font-family:'Helvetica-Narrow-Bold';}
	.st1{font-size:1.1773px;}
	.st2{font-size:1.1174px;}
	.st3{font-size:1.0626px;}
	.st4{font-size:1.1806px;}
	.st5{font-size:3.7485px;}
	.st6{font-size:19.1757px;}
	.st7{font-size:3.28px;}
	.st8{font-size:3.1152px;}
	.st9{font-size:3.2801px;}
	.st10{font-size:64.0085px;}
	.st11{font-size:1.0326px;}
	.st12{font-size:3.4555px;}
	.st13{font-size:3.4554px;}
	.st14{font-size:5.8782px;}
	.st15{font-size:8.3012px;}
	.st16{font-size:10.724px;}
	.st17{font-size:0.918px;}
	.st18{font-size:0.8733px;}
	.st19{font-size:3.2299px;}
	.st20{font-size:2.9155px;}
	.st21{font-size:5.5418px;}
	.st22{font-size:10.1656px;}
	.st23{font-size:1.1386px;}
	.st24{font-size:1.0282px;}
	.st25{font-size:2.4012px;}
	.st26{font-size:0.5932px;}
	.st27{font-size:0.5628px;}
	.st28{font-size:2.5802px;}
	.st29{font-size:4.5636px;}
	.st30{font-size:6.5617px;}
	.st31{font-size:0.1644px;}
	.st32{font-size:0.1472px;}
	.st33{font-size:1.7227px;}
	.st34{font-size:3.1161px;}
	.st35{font-size:4.8418px;}
	.st36{font-size:0.6376px;}
	.st37{font-size:0.6394px;}
	.st38{font-size:0.6065px;}
	.st39{font-size:2.669px;}
	.st40{font-size:2.5328px;}
	.st41{font-size:2.6691px;}
	.st42{font-size:6.7284px;}
	.st43{font-size:2.6952px;}
	.st44{font-size:6.7806px;}
	.st45{font-size:6.7885px;}
	.st46{font-size:10.866px;}
	.st47{font-size:43.5565px;}
</style>
<g>
	<text transform="matrix(26.5567 0 0 1 211.6328 459.903)" class="st0 st1">T</text>
	<text transform="matrix(29.131 0 0 1 210.5781 458.1061)" class="st0 st2">S</text>
	<text transform="matrix(24.4975 0 0 1 211.0938 456.3015)" class="st0 st3">Q</text>
	<text transform="matrix(15.4134 0 0 1 218.5781 454.5827)" class="st0 st4">I</text>
	<text transform="matrix(25.2073 0 0 1 210.75 452.5515)" class="st0 st2">G</text>
	<text transform="matrix(31.0367 0 0 1 209 450.8015)" class="st0 st1">F</text>
	<text transform="matrix(25.8882 0 0 1 210.8359 449.0046)" class="st0 st2">C</text>
	<text transform="matrix(7.5611 0 0 1 211.5469 447.0124)" class="st0 st5">Y</text>
	<text transform="matrix(8.5914 0 0 1 209.6562 443.4655)" class="st0 st5">N</text>
	<text transform="matrix(9.1938 0 0 1 209.1719 439.6921)" class="st0 st5">E</text>
	<text transform="matrix(1.625 0 0 1 209.5781 435.9108)" class="st0 st6">D</text>
	<text transform="matrix(8.8617 0 0 1 230.5391 459.8952)" class="st0 st7">V</text>
	<text transform="matrix(10.4493 0 0 1 229.7734 456.489)" class="st0 st8">S</text>
	<text transform="matrix(10.4078 0 0 1 228.3984 453.2077)" class="st0 st9">P</text>
	<text transform="matrix(9.8185 0 0 1 228.8516 449.8561)" class="st0 st7">N</text>
	<text transform="matrix(12.1658 0 0 1 228.2656 446.5046)" class="st0 st7">L</text>
	<text transform="matrix(9.5 0 0 1 228.7812 443.153)" class="st0 st7">D</text>
	<text transform="matrix(8.6683 0 0 1 230.8516 439.8093)" class="st0 st7">A</text>
	<text transform="matrix(0.5384 0 0 1 228.375 436.4655)" class="st0 st10">E</text>
	<text transform="matrix(27.4492 0 0 1 249.9219 459.8952)" class="st0 st11">Y</text>
	<text transform="matrix(30.2777 0 0 1 250.0312 458.3405)" class="st0 st11">T</text>
	<text transform="matrix(30.1767 0 0 1 247.75 456.5436)" class="st0 st11">R</text>
	<text transform="matrix(31.1883 0 0 1 248.0469 454.739)" class="st0 st11">N</text>
	<text transform="matrix(27.5346 0 0 1 250.0469 453.1843)" class="st0 st11">A</text>
	<text transform="matrix(11.5482 0 0 1 247.4609 451.3796)" class="st0 st12">L</text>
	<text transform="matrix(8.8508 0 0 1 248.1406 447.778)" class="st0 st13">K</text>
	<text transform="matrix(6.2159 0 0 1 247.3828 444.4186)" class="st0 st14">F</text>
	<text transform="matrix(3.5015 0 0 1 249.7344 439.2624)" class="st0 st15">V</text>
	<text transform="matrix(3.2136 0 0 1 247.5625 432.2936)" class="st0 st16">E</text>
	<text transform="matrix(31.663 0 0 1 268.9453 459.903)" class="st0 st17">V</text>
	<text transform="matrix(37.2767 0 0 1 268.1406 458.2468)" class="st0 st18">S</text>
	<text transform="matrix(33.9436 0 0 1 267.1484 456.6218)" class="st0 st17">D</text>
	<text transform="matrix(30.9718 0 0 1 269.2344 454.9811)" class="st0 st17">A</text>
	<text transform="matrix(8.7753 0 0 1 269.125 453.3405)" class="st0 st19">Y</text>
	<text transform="matrix(9.6476 0 0 1 266.9453 450.0593)" class="st0 st19">R</text>
	<text transform="matrix(8.9286 0 0 1 268.6719 446.614)" class="st0 st20">Q</text>
	<text transform="matrix(5.6417 0 0 1 269.2188 443.5124)" class="st0 st21">T</text>
	<text transform="matrix(6.2188 0 0 1 266.7578 438.3561)" class="st0 st21">E</text>
	<text transform="matrix(3.3583 0 0 1 266.7891 433.4343)" class="st0 st22">P</text>
	<text transform="matrix(24.8926 0 0 1 288.3203 451.9577)" class="st0 st23">Y</text>
	<text transform="matrix(27.3681 0 0 1 286.1406 450.0046)" class="st0 st23">R</text>
	<text transform="matrix(25.3172 0 0 1 287.8594 448.2233)" class="st0 st24">Q</text>
	<text transform="matrix(15.2172 0 0 1 285.7734 446.3327)" class="st0 st25">F</text>
	<text transform="matrix(11.8411 0 0 1 288.4219 443.7624)" class="st0 st25">A</text>
	<text transform="matrix(49.0027 0 0 1 307.3359 459.903)" class="st0 st26">V</text>
	<text transform="matrix(57.8359 0 0 1 306.5625 458.4811)" class="st0 st27">S</text>
	<text transform="matrix(52.5323 0 0 1 305.3281 457.0749)" class="st0 st26">R</text>
	<text transform="matrix(50.0495 0 0 1 306.7344 455.653)" class="st0 st27">G</text>
	<text transform="matrix(51.398 0 0 1 306.8047 454.239)" class="st0 st27">C</text>
	<text transform="matrix(10.2354 0 0 1 306.1172 452.8327)" class="st0 st28">M</text>
	<text transform="matrix(11.8529 0 0 1 305.7188 450.0124)" class="st0 st28">K</text>
	<text transform="matrix(11.0193 0 0 1 307.625 447.1921)" class="st0 st28">A</text>
	<text transform="matrix(8.744 0 0 1 305.0469 444.3718)" class="st0 st29">L</text>
	<text transform="matrix(7.0569 0 0 1 305.5312 440.1374)" class="st0 st29">H</text>
	<text transform="matrix(2.7732 0 0 1 314.5469 435.903)" class="st0 st30">I</text>
	<text transform="matrix(1 0 0 1 326.6875 459.8952)" class="st0 st31">Y</text>
	<text transform="matrix(1 0 0 1 326.8828 458.8561)" class="st0 st31">W</text>
	<text transform="matrix(1 0 0 1 326.25 457.8171)" class="st0 st32">Q</text>
	<text transform="matrix(1 0 0 1 324.8281 456.5436)" class="st0 st31">N</text>
	<text transform="matrix(1 0 0 1 325.3203 455.5124)" class="st0 st31">M</text>
	<text transform="matrix(1 0 0 1 324.7266 454.4733)" class="st0 st31">H</text>
	<text transform="matrix(1 0 0 1 324.3125 453.1999)" class="st0 st31">E</text>
	<text transform="matrix(1 0 0 1 324.7266 452.1608)" class="st0 st31">D</text>
	<text transform="matrix(16.8726 0 0 1 326.5156 451.1218)" class="st0 st33">V</text>
	<text transform="matrix(18.1485 0 0 1 326.8047 448.8249)" class="st0 st33">T</text>
	<text transform="matrix(16.5043 0 0 1 326.8125 446.5046)" class="st0 st33">A</text>
	<text transform="matrix(9.0393 0 0 1 325.9219 444.3796)" class="st0 st34">G</text>
	<text transform="matrix(3.7582 0 0 1 333.7422 441.0905)" class="st0 st35">I</text>
	<text transform="matrix(44.4532 0 0 1 345.9062 459.8952)" class="st0 st36">Y</text>
	<text transform="matrix(41.4179 0 0 1 344.5156 458.6686)" class="st0 st36">M</text>
	<text transform="matrix(62.5862 0 0 1 343.4375 457.1921)" class="st0 st36">L</text>
	<text transform="matrix(28.461 0 0 1 352.9375 455.7155)" class="st0 st37">I</text>
	<text transform="matrix(46.4443 0 0 1 345.1094 454.2311)" class="st0 st38">G</text>
	<text transform="matrix(12.0661 0 0 1 344.0156 452.7624)" class="st0 st39">N</text>
	<text transform="matrix(12.0661 0 0 1 343.9219 449.8171)" class="st0 st39">H</text>
	<text transform="matrix(11.4218 0 0 1 345.1875 446.8171)" class="st0 st40">C</text>
	<text transform="matrix(10.6524 0 0 1 346.0078 443.9108)" class="st0 st41">A</text>
	<text transform="matrix(4.32 0 0 1 345.7109 440.9577)" class="st0 st42">V</text>
	<text transform="matrix(5.122 0 0 1 343.5312 435.2936)" class="st0 st42">E</text>
	<text transform="matrix(9.7989 0 0 1 363.7031 459.903)" class="st0 st43">M</text>
	<text transform="matrix(11.9492 0 0 1 363.1094 457.153)" class="st0 st43">H</text>
	<text transform="matrix(10.5494 0 0 1 365.2031 454.1608)" class="st0 st43">A</text>
	<text transform="matrix(5.8851 0 0 1 362.625 451.1765)" class="st0 st44">L</text>
	<text transform="matrix(2.6805 0 0 1 372.125 445.4421)" class="st0 st45">I</text>
	<text transform="matrix(3.3627 0 0 1 362.5469 439.4655)" class="st0 st46">F</text>
	<text transform="matrix(0.6507 0 0 1 365.0859 430.7468)" class="st0 st47">Y</text>
</g>
</svg>
