<?xml version="1.0" encoding="utf-8"?>
<!-- Generator: Adobe Illustrator 24.3.0, SVG Export Plug-In . SVG Version: 6.00 Build 0)  -->
<svg version="1.1" id="Layer_1" xmlns="http://www.w3.org/2000/svg" xmlns:xlink="http://www.w3.org/1999/xlink" x="0px" y="0px"
	 viewBox="0 0 595.28 841.89" style="enable-background:new 0 0 595.28 841.89;" xml:space="preserve">
<style type="text/css">
	.st0{font-family:'Helvetica-Narrow-Bold';}
	.st1{font-size:33.121px;}
	.st2{font-size:31.4974px;}
	.st3{font-size:34.8727px;}
	.st4{font-size:34.8762px;}
	.st5{font-size:43.7069px;}
	.st6{font-size:88.8078px;}
	.st7{font-size:170.4154px;}
</style>
<g>
	<text transform="matrix(0.8791 0 0 1 212.3438 470.8332)" class="st0 st1">S</text>
	<text transform="matrix(0.7394 0 0 1 212.8047 443.7863)" class="st0 st2">Q</text>
	<text transform="matrix(1.0236 0 0 1 211 419.4582)" class="st0 st3">L</text>
	<text transform="matrix(0.727 0 0 1 230.4844 471.5285)" class="st0 st4">Y</text>
	<text transform="matrix(0.6773 0 0 1 229.2422 445.6144)" class="st0 st4">M</text>
	<text transform="matrix(0.9372 0 0 1 228.2109 419.4582)" class="st0 st3">F</text>
	<text transform="matrix(0.6377 0 0 1 246 471.5285)" class="st0 st5">D</text>
	<text transform="matrix(0.368 0 0 1 245.4844 439.1613)" class="st0 st6">F</text>
	<text transform="matrix(0.8019 0 0 1 265.1172 471.5285)" class="st0 st4">T</text>
	<text transform="matrix(0.8756 0 0 1 262.9453 445.6144)" class="st0 st4">P</text>
	<text transform="matrix(0.7993 0 0 1 263.2812 419.4582)" class="st0 st3">D</text>
	<text transform="matrix(0.7455 0 0 1 282.1406 471.5285)" class="st0 st4">V</text>
	<text transform="matrix(0.8756 0 0 1 280.2109 445.6144)" class="st0 st4">P</text>
	<text transform="matrix(0.7993 0 0 1 280.5547 419.4582)" class="st0 st3">D</text>
	<text transform="matrix(0.727 0 0 1 299.5859 471.5285)" class="st0 st4">Y</text>
	<text transform="matrix(0.8791 0 0 1 298.7188 444.9191)" class="st0 st1">S</text>
	<text transform="matrix(0.7293 0 0 1 299.6797 419.4582)" class="st0 st3">A</text>
	<text transform="matrix(0.7455 0 0 1 316.6875 471.5285)" class="st0 st4">V</text>
	<text transform="matrix(0.8019 0 0 1 316.9375 445.6144)" class="st0 st4">T</text>
	<text transform="matrix(0.7293 0 0 1 316.9531 419.4582)" class="st0 st3">A</text>
	<text transform="matrix(0.2095 0 0 1 331.9297 471.5285)" class="st0 st7">L</text>
	<text transform="matrix(0.727 0 0 1 351.4062 471.5285)" class="st0 st4">Y</text>
	<text transform="matrix(0.7608 0 0 1 350.7031 444.9894)" class="st0 st1">G</text>
	<text transform="matrix(0.9372 0 0 1 349.1328 419.4582)" class="st0 st3">F</text>
	<text transform="matrix(0.7478 0 0 1 366.4062 471.5285)" class="st0 st5">F</text>
	<text transform="matrix(0.4019 0 0 1 366.4688 439.1769)" class="st0 st6">L</text>
</g>
</svg>
