<?xml version="1.0" encoding="utf-8"?>
<!-- Generator: Adobe Illustrator 24.3.0, SVG Export Plug-In . SVG Version: 6.00 Build 0)  -->
<svg version="1.1" id="Layer_1" xmlns="http://www.w3.org/2000/svg" xmlns:xlink="http://www.w3.org/1999/xlink" x="0px" y="0px"
	 viewBox="0 0 595.28 841.89" style="enable-background:new 0 0 595.28 841.89;" xml:space="preserve">
<style type="text/css">
	.st0{font-family:'Helvetica-Narrow-Bold';}
	.st1{font-size:1.3893px;}
	.st2{font-size:1.3193px;}
	.st3{font-size:2.7791px;}
	.st4{font-size:4.1688px;}
	.st5{font-size:6.952px;}
	.st6{font-size:2.1341px;}
	.st7{font-size:2.0257px;}
	.st8{font-size:16.2458px;}
	.st9{font-size:28.8296px;}
	.st10{font-size:40.9338px;}
	.st11{font-size:1.9762px;}
	.st12{font-size:2.083px;}
	.st13{font-size:12.5063px;}
	.st14{font-size:19.4526px;}
	.st15{font-size:48.1721px;}
	.st16{font-size:0.9416px;}
	.st17{font-size:0.9939px;}
	.st18{font-size:0.9938px;}
	.st19{font-size:2.1858px;}
	.st20{font-size:3.3778px;}
	.st21{font-size:4.5735px;}
	.st22{font-size:0.0786px;}
	.st23{font-size:1.551px;}
	.st24{font-size:1.5553px;}
	.st25{font-size:1.4755px;}
	.st26{font-size:3.0234px;}
	.st27{font-size:3.0233px;}
	.st28{font-size:5.9682px;}
	.st29{font-size:7.4406px;}
	.st30{font-size:0.8345px;}
	.st31{font-size:0.8787px;}
	.st32{font-size:2.0132px;}
	.st33{font-size:4.2821px;}
	.st34{font-size:0.4071px;}
	.st35{font-size:0.3881px;}
	.st36{font-size:0.3683px;}
	.st37{font-size:2.2118px;}
	.st38{font-size:4.0127px;}
	.st39{font-size:3.8109px;}
	.st40{font-size:7.6147px;}
	.st41{font-size:13.0176px;}
	.st42{font-size:1.0327px;}
	.st43{font-size:2.1338px;}
	.st44{font-size:2.246px;}
	.st45{font-size:3.4593px;}
	.st46{font-size:3.2837px;}
	.st47{font-size:3.4616px;}
	.st48{font-size:1.2742px;}
	.st49{font-size:1.2743px;}
	.st50{font-size:2.6064px;}
	.st51{font-size:5.2708px;}
	.st52{font-size:6.6031px;}
	.st53{font-size:1.2132px;}
	.st54{font-size:1.2131px;}
	.st55{font-size:2.5148px;}
	.st56{font-size:10.3321px;}
</style>
<g>
	<text transform="matrix(18.7153 0 0 1 211.9375 454.7219)" class="st0 st1">V</text>
	<text transform="matrix(20.0629 0 0 1 210.1719 452.6516)" class="st0 st1">R</text>
	<text transform="matrix(19.0984 0 0 1 211.4062 450.7922)" class="st0 st2">G</text>
	<text transform="matrix(22.1885 0 0 1 210 448.7453)" class="st0 st1">E</text>
	<text transform="matrix(10.9883 0 0 1 210.0312 446.6672)" class="st0 st3">P</text>
	<text transform="matrix(9.8434 0 0 1 210.5156 443.7922)" class="st0 st3">K</text>
	<text transform="matrix(6.1004 0 0 1 212.2188 440.6906)" class="st0 st4">A</text>
	<text transform="matrix(3.398 0 0 1 210.875 436.7844)" class="st0 st5">M</text>
	<text transform="matrix(12.8183 0 0 1 227.7891 458.6359)" class="st0 st6">K</text>
	<text transform="matrix(12.4387 0 0 1 228.6875 456.1672)" class="st0 st7">G</text>
	<text transform="matrix(1.7214 0 0 1 229.4844 453.7844)" class="st0 st8">T</text>
	<text transform="matrix(1.01 0 0 1 228.5234 440.3234)" class="st0 st9">S</text>
	<text transform="matrix(0.6213 0 0 1 229.4922 418.1516)" class="st0 st10">A</text>
	<text transform="matrix(12.7499 0 0 1 245.9688 458.5969)" class="st0 st11">G</text>
	<text transform="matrix(15.6905 0 0 1 244.3984 456.2844)" class="st0 st12">F</text>
	<text transform="matrix(12.2091 0 0 1 246.7578 453.6984)" class="st0 st12">A</text>
	<text transform="matrix(2.0791 0 0 1 246.5 451.3391)" class="st0 st13">V</text>
	<text transform="matrix(1.4377 0 0 1 246.75 441.2297)" class="st0 st14">T</text>
	<text transform="matrix(0.6045 0 0 1 245.8047 425.4016)" class="st0 st15">S</text>
	<text transform="matrix(30.9242 0 0 1 263.0781 454.3703)" class="st0 st16">S</text>
	<text transform="matrix(27.5246 0 0 1 262.3281 452.6437)" class="st0 st17">K</text>
	<text transform="matrix(26.7602 0 0 1 263.2422 451.1203)" class="st0 st16">G</text>
	<text transform="matrix(25.5894 0 0 1 264.0312 449.3859)" class="st0 st18">A</text>
	<text transform="matrix(12.7521 0 0 1 261.9922 447.6437)" class="st0 st19">R</text>
	<text transform="matrix(13.1805 0 0 1 262.1719 445.1437)" class="st0 st19">H</text>
	<text transform="matrix(7.6976 0 0 1 263.7656 442.4094)" class="st0 st20">V</text>
	<text transform="matrix(6.7402 0 0 1 261.8281 439.1516)" class="st0 st21">E</text>
	<text transform="matrix(1 0 0 1 281.3828 458.6281)" class="st0 st22">W</text>
	<text transform="matrix(1 0 0 1 281.0469 457.7219)" class="st0 st22">V</text>
	<text transform="matrix(1 0 0 1 281.3047 456.5656)" class="st0 st22">T</text>
	<text transform="matrix(1 0 0 1 279.1172 455.6516)" class="st0 st22">P</text>
	<text transform="matrix(1 0 0 1 279.0938 454.4953)" class="st0 st22">E</text>
	<text transform="matrix(17.9714 0 0 1 279.2656 453.5812)" class="st0 st23">R</text>
	<text transform="matrix(10.4655 0 0 1 287.3672 451.2766)" class="st0 st24">I</text>
	<text transform="matrix(17.0766 0 0 1 280.5078 449.175)" class="st0 st25">G</text>
	<text transform="matrix(9.5293 0 0 1 279.5312 447.1359)" class="st0 st26">N</text>
	<text transform="matrix(11.8063 0 0 1 279.0078 443.9094)" class="st0 st27">L</text>
	<text transform="matrix(4.2611 0 0 1 281.3125 440.6906)" class="st0 st28">A</text>
	<text transform="matrix(3.7461 0 0 1 279.4609 435.4016)" class="st0 st29">D</text>
	<text transform="matrix(34.8917 0 0 1 297.625 452.9719)" class="st0 st30">S</text>
	<text transform="matrix(31.1304 0 0 1 296.875 451.4094)" class="st0 st31">K</text>
	<text transform="matrix(31.7197 0 0 1 296.7344 449.8312)" class="st0 st31">D</text>
	<text transform="matrix(28.9406 0 0 1 298.5781 448.2453)" class="st0 st31">A</text>
	<text transform="matrix(13.8917 0 0 1 298.5703 446.4328)" class="st0 st32">T</text>
	<text transform="matrix(5.5167 0 0 1 297.2422 444.175)" class="st0 st33">M</text>
	<text transform="matrix(8.3357 0 0 1 296.2812 440.1125)" class="st0 st33">L</text>
	<text transform="matrix(68.6887 0 0 1 315.8594 458.6359)" class="st0 st34">T</text>
	<text transform="matrix(75.0355 0 0 1 314.8984 457.4875)" class="st0 st35">S</text>
	<text transform="matrix(63.2356 0 0 1 315.3594 456.0812)" class="st0 st36">Q</text>
	<text transform="matrix(75.0042 0 0 1 313.6719 454.9562)" class="st0 st34">P</text>
	<text transform="matrix(80.2761 0 0 1 313.5 453.5734)" class="st0 st34">F</text>
	<text transform="matrix(12.6023 0 0 1 313.8125 452.1828)" class="st0 st37">R</text>
	<text transform="matrix(10.6806 0 0 1 314.5156 449.6437)" class="st0 st37">M</text>
	<text transform="matrix(6.4797 0 0 1 315.5938 447.1125)" class="st0 st38">V</text>
	<text transform="matrix(6.6118 0 0 1 315.0547 443.1203)" class="st0 st39">G</text>
	<text transform="matrix(2.3413 0 0 1 315.9297 439.2766)" class="st0 st40">W</text>
	<text transform="matrix(2.742 0 0 1 313.5547 432.8156)" class="st0 st41">L</text>
	<text transform="matrix(27.0809 0 0 1 333.1172 453.4641)" class="st0 st42">T</text>
	<text transform="matrix(26.4906 0 0 1 331.4375 451.9016)" class="st0 st42">K</text>
	<text transform="matrix(11.8085 0 0 1 332.3281 450.0578)" class="st0 st43">G</text>
	<text transform="matrix(14.5523 0 0 1 330.7578 447.5109)" class="st0 st44">F</text>
	<text transform="matrix(7.3292 0 0 1 333.0312 444.925)" class="st0 st45">Y</text>
	<text transform="matrix(8.8672 0 0 1 332.1719 441.2531)" class="st0 st46">S</text>
	<text transform="matrix(4.7022 0 0 1 339.1875 437.9562)" class="st0 st47">I</text>
	<text transform="matrix(13.9914 0 0 1 350.4766 452.9172)" class="st0 st48">W</text>
	<text transform="matrix(21.8738 0 0 1 348.3672 451.0109)" class="st0 st49">R</text>
	<text transform="matrix(18.5383 0 0 1 349.0625 449.0969)" class="st0 st49">M</text>
	<text transform="matrix(19.9582 0 0 1 350.4062 447.1906)" class="st0 st48">A</text>
	<text transform="matrix(9.7273 0 0 1 350.3047 445.2766)" class="st0 st50">Y</text>
	<text transform="matrix(5.3058 0 0 1 350.3984 442.425)" class="st0 st51">T</text>
	<text transform="matrix(3.9378 0 0 1 350.1406 437.6516)" class="st0 st52">V</text>
	<text transform="matrix(29.4219 0 0 1 365.375 449.2844)" class="st0 st53">L</text>
	<text transform="matrix(23.7487 0 0 1 365.8125 447.4641)" class="st0 st54">H</text>
	<text transform="matrix(20.9623 0 0 1 367.6875 445.6359)" class="st0 st53">A</text>
	<text transform="matrix(12.2581 0 0 1 365.4688 443.8234)" class="st0 st55">E</text>
	<text transform="matrix(1.7255 0 0 1 367.75 441.0891)" class="st0 st56">W</text>
</g>
</svg>
