<?xml version="1.0" encoding="utf-8"?>
<!-- Generator: Adobe Illustrator 24.3.0, SVG Export Plug-In . SVG Version: 6.00 Build 0)  -->
<svg version="1.1" id="Layer_1" xmlns="http://www.w3.org/2000/svg" xmlns:xlink="http://www.w3.org/1999/xlink" x="0px" y="0px"
	 viewBox="0 0 595.28 841.89" style="enable-background:new 0 0 595.28 841.89;" xml:space="preserve">
<style type="text/css">
	.st0{font-family:'Helvetica-Narrow-Bold';}
	.st1{font-size:0.492px;}
	.st2{font-size:0.8352px;}
	.st3{font-size:1.8628px;}
	.st4{font-size:3.0595px;}
	.st5{font-size:0.4843px;}
	.st6{font-size:4.2444px;}
	.st7{font-size:6.1227px;}
	.st8{font-size:100.0446px;}
	.st9{font-size:10px;}
	.st10{font-size:0.5854px;}
	.st11{font-size:0.701px;}
	.st12{font-size:0.091px;}
	.st13{font-size:0.3206px;}
	.st14{font-size:0.4362px;}
	.st15{font-size:1.6538px;}
	.st16{font-size:0.1966px;}
	.st17{font-size:0.9919px;}
	.st18{font-size:1.2582px;}
	.st19{font-size:0.1487px;}
	.st20{font-size:0.1491px;}
	.st21{font-size:0.7268px;}
	.st22{font-size:0.7267px;}
	.st23{font-size:0.8732px;}
	.st24{font-size:1.6913px;}
	.st25{font-size:4.3899px;}
	.st26{font-size:1.7192px;}
	.st27{font-size:2.7581px;}
	.st28{font-size:3.2812px;}
	.st29{font-size:3.2757px;}
	.st30{font-size:4.8322px;}
	.st31{font-size:10.0231px;}
	.st32{font-size:29.2191px;}
</style>
<g>
	<text transform="matrix(57.795 0 0 1 211.5625 459.1042)" class="st0 st1">A</text>
	<text transform="matrix(21.7875 0 0 1 218.5 457.6042)" class="st0 st2">I</text>
	<text transform="matrix(21.422 0 0 1 209 456.0807)" class="st0 st3">L</text>
	<text transform="matrix(10.1847 0 0 1 209.2891 453.8073)" class="st0 st4">R</text>
	<text transform="matrix(54.5302 0 0 1 229.2656 461.4089)" class="st0 st5">M</text>
	<text transform="matrix(6.6987 0 0 1 230.7656 460.1511)" class="st0 st6">A</text>
	<text transform="matrix(4.7474 0 0 1 230.4609 455.9011)" class="st0 st7">V</text>
	<text transform="matrix(0.3412 0 0 1 228.3203 450.6276)" class="st0 st8">P</text>
	<text transform="matrix(1 0 0 1 248.4688 459.6745)" class="st0 st9">M</text>
	<text transform="matrix(48.567 0 0 1 249.9688 458.6276)" class="st0 st10">A</text>
	<text transform="matrix(44.4504 0 0 1 247.6562 457.2292)" class="st0 st11">R</text>
	<text transform="matrix(1 0 0 1 286.0781 459.5261)" class="st0 st12">R</text>
	<text transform="matrix(95.4082 0 0 1 286.4375 458.362)" class="st0 st13">K</text>
	<text transform="matrix(88.6978 0 0 1 288.3438 457.1042)" class="st0 st13">A</text>
	<text transform="matrix(64.5697 0 0 1 306.6562 457.7292)" class="st0 st14">G</text>
	<text transform="matrix(18.8413 0 0 1 305.2578 456.5182)" class="st0 st15">R</text>
	<text transform="matrix(1 0 0 1 324.4531 460.0807)" class="st0 st16">R</text>
	<text transform="matrix(1 0 0 1 324.1406 458.9948)" class="st0 st16">L</text>
	<text transform="matrix(28.6644 0 0 1 326.75 457.9167)" class="st0 st17">A</text>
	<text transform="matrix(24.8481 0 0 1 326.7266 456.1667)" class="st0 st18">T</text>
	<text transform="matrix(1 0 0 1 343.3594 461.7526)" class="st0 st19">L</text>
	<text transform="matrix(1 0 0 1 352.8594 460.737)" class="st0 st20">I</text>
	<text transform="matrix(43.0199 0 0 1 345.9219 459.487)" class="st0 st21">T</text>
	<text transform="matrix(46.9778 0 0 1 343.4766 458.1198)" class="st0 st22">P</text>
	<text transform="matrix(37.2786 0 0 1 344.8594 456.4948)" class="st0 st23">S</text>
	<text transform="matrix(17.1861 0 0 1 345.6328 454.8698)" class="st0 st24">V</text>
	<text transform="matrix(6.4768 0 0 1 345.9297 452.6042)" class="st0 st25">A</text>
	<text transform="matrix(18.1859 0 0 1 365.1094 464.1042)" class="st0 st26">T</text>
	<text transform="matrix(10.5388 0 0 1 364.8203 462.0339)" class="st0 st27">V</text>
	<text transform="matrix(5.5458 0 0 1 372.0469 458.9636)" class="st0 st28">I</text>
	<text transform="matrix(11.1545 0 0 1 362.4688 455.612)" class="st0 st29">F</text>
	<text transform="matrix(5.8839 0 0 1 365.1172 452.2604)" class="st0 st30">A</text>
	<text transform="matrix(2.6349 0 0 1 363.625 447.8854)" class="st0 st31">M</text>
	<text transform="matrix(1.3657 0 0 1 362.5469 439.6511)" class="st0 st32">L</text>
</g>
</svg>
