<?xml version="1.0" encoding="utf-8"?>
<!-- Generator: Adobe Illustrator 24.3.0, SVG Export Plug-In . SVG Version: 6.00 Build 0)  -->
<svg version="1.1" id="Layer_1" xmlns="http://www.w3.org/2000/svg" xmlns:xlink="http://www.w3.org/1999/xlink" x="0px" y="0px"
	 viewBox="0 0 595.28 841.89" style="enable-background:new 0 0 595.28 841.89;" xml:space="preserve">
<style type="text/css">
	.st0{font-family:'Helvetica-Narrow-Bold';}
	.st1{font-size:64.6335px;}
	.st2{font-size:64.6337px;}
	.st3{font-size:58.3758px;}
	.st4{font-size:170.4153px;}
	.st5{font-size:61.3844px;}
	.st6{font-size:61.3845px;}
</style>
<g>
	<text transform="matrix(0.4458 0 0 1 210 471.5207)" class="st0 st1">H</text>
	<text transform="matrix(0.3935 0 0 1 211.8672 424.2316)" class="st0 st2">A</text>
	<text transform="matrix(0.4725 0 0 1 226.9531 471.5207)" class="st0 st1">P</text>
	<text transform="matrix(0.3935 0 0 1 229.1406 424.2316)" class="st0 st2">A</text>
	<text transform="matrix(0.4023 0 0 1 246.1484 471.5207)" class="st0 st1">V</text>
	<text transform="matrix(0.3989 0 0 1 245.9141 420.8488)" class="st0 st3">Q</text>
	<text transform="matrix(0.1792 0 0 1 261.5 471.5285)" class="st0 st4">P</text>
	<text transform="matrix(0.5057 0 0 1 278.5859 471.5207)" class="st0 st1">F</text>
	<text transform="matrix(0.3935 0 0 1 280.9609 424.2316)" class="st0 st2">A</text>
	<text transform="matrix(0.4725 0 0 1 296.0469 471.5207)" class="st0 st1">P</text>
	<text transform="matrix(0.4105 0 0 1 297.4375 423.0598)" class="st0 st5">G</text>
	<text transform="matrix(0.5523 0 0 1 313.2031 471.5207)" class="st0 st1">L</text>
	<text transform="matrix(0.4769 0 0 1 313.2969 424.2316)" class="st0 st2">E</text>
	<text transform="matrix(0.4023 0 0 1 332.5156 471.5207)" class="st0 st1">V</text>
	<text transform="matrix(0.4458 0 0 1 331.0078 424.2316)" class="st0 st2">N</text>
	<text transform="matrix(0.4743 0 0 1 349.1016 470.2394)" class="st0 st6">S</text>
	<text transform="matrix(0.3935 0 0 1 350.0547 424.2316)" class="st0 st2">A</text>
	<text transform="matrix(0.3923 0 0 1 367.2344 471.5207)" class="st0 st1">Y</text>
	<text transform="matrix(0.3655 0 0 1 365.9922 424.2316)" class="st0 st2">M</text>
</g>
</svg>
