<?xml version="1.0" encoding="utf-8"?>
<!-- Generator: Adobe Illustrator 24.3.0, SVG Export Plug-In . SVG Version: 6.00 Build 0)  -->
<svg version="1.1" id="Layer_1" xmlns="http://www.w3.org/2000/svg" xmlns:xlink="http://www.w3.org/1999/xlink" x="0px" y="0px"
	 viewBox="0 0 595.28 841.89" style="enable-background:new 0 0 595.28 841.89;" xml:space="preserve">
<style type="text/css">
	.st0{font-family:'Helvetica-Narrow-Bold';}
	.st1{font-size:10px;}
	.st2{font-size:0.1362px;}
	.st3{font-size:0.4838px;}
	.st4{font-size:0.729px;}
	.st5{font-size:1.8474px;}
	.st6{font-size:4.4404px;}
	.st7{font-size:6.5615px;}
	.st8{font-size:6.1692px;}
	.st9{font-size:13.8424px;}
	.st10{font-size:13.9765px;}
	.st11{font-size:19.2377px;}
	.st12{font-size:0.1497px;}
	.st13{font-size:0.191px;}
	.st14{font-size:0.5884px;}
	.st15{font-size:0.1171px;}
	.st16{font-size:11.1837px;}
	.st17{font-size:16.2609px;}
	.st18{font-size:100.418px;}
</style>
<g>
	<text transform="matrix(1 0 0 1 219.375 466.4948)" class="st0 st1">I</text>
	<text transform="matrix(1 0 0 1 211 465.4167)" class="st0 st2">L</text>
	<text transform="matrix(57.8031 0 0 1 213.3281 464.1745)" class="st0 st3">T</text>
	<text transform="matrix(37.524 0 0 1 211.6094 462.9245)" class="st0 st4">K</text>
	<text transform="matrix(15.7613 0 0 1 212.3594 461.2761)" class="st0 st5">S</text>
	<text transform="matrix(6.5574 0 0 1 229.6406 472.4636)" class="st0 st6">S</text>
	<text transform="matrix(4.9812 0 0 1 228.2266 468.1667)" class="st0 st7">F</text>
	<text transform="matrix(3.7748 0 0 1 230.0938 462.1432)" class="st0 st8">Q</text>
	<text transform="matrix(1.8784 0 0 1 230.3281 456.4479)" class="st0 st9">V</text>
	<text transform="matrix(2.0009 0 0 1 230.5938 445.6042)" class="st0 st10">T</text>
	<text transform="matrix(1.8554 0 0 1 228.2891 434.5807)" class="st0 st11">L</text>
	<text transform="matrix(1 0 0 1 245.5156 464.8854)" class="st0 st12">F</text>
	<text transform="matrix(1 0 0 1 316.0078 465.1589)" class="st0 st13">S</text>
	<text transform="matrix(27.6633 0 0 1 323.0234 464.0729)" class="st0 st14">I</text>
	<text transform="matrix(1 0 0 1 331.9375 465.2136)" class="st0 st15">L</text>
	<text transform="matrix(2.267 0 0 1 368.6875 472.5026)" class="st0 st16">Y</text>
	<text transform="matrix(1.7141 0 0 1 366.75 463.5651)" class="st0 st17">R</text>
	<text transform="matrix(0.2724 0 0 1 367.0938 450.9401)" class="st0 st18">K</text>
</g>
</svg>
