<?xml version="1.0" encoding="utf-8"?>
<!-- Generator: Adobe Illustrator 24.3.0, SVG Export Plug-In . SVG Version: 6.00 Build 0)  -->
<svg version="1.1" id="Layer_1" xmlns="http://www.w3.org/2000/svg" xmlns:xlink="http://www.w3.org/1999/xlink" x="0px" y="0px"
	 viewBox="0 0 595.28 841.89" style="enable-background:new 0 0 595.28 841.89;" xml:space="preserve">
<style type="text/css">
	.st0{font-family:'Helvetica-Narrow-Bold';}
	.st1{font-size:0.5096px;}
	.st2{font-size:0.5097px;}
	.st3{font-size:1.1441px;}
	.st4{font-size:1.7785px;}
	.st5{font-size:2.2915px;}
	.st6{font-size:3.0439px;}
	.st7{font-size:3.7971px;}
	.st8{font-size:0.5047px;}
	.st9{font-size:1.1395px;}
	.st10{font-size:1.1364px;}
	.st11{font-size:3.0349px;}
	.st12{font-size:4.0856px;}
	.st13{font-size:5.5651px;}
	.st14{font-size:13.1557px;}
	.st15{font-size:15.0543px;}
	.st16{font-size:0.1065px;}
	.st17{font-size:0.2448px;}
	.st18{font-size:0.7049px;}
	.st19{font-size:0.4799px;}
	.st20{font-size:1.3498px;}
	.st21{font-size:1.682px;}
	.st22{font-size:0.4008px;}
	.st23{font-size:0.596px;}
	.st24{font-size:0.8512px;}
	.st25{font-size:1.0765px;}
	.st26{font-size:1.447px;}
	.st27{font-size:0.2298px;}
	.st28{font-size:0.8784px;}
	.st29{font-size:0.239px;}
	.st30{font-size:0.2295px;}
	.st31{font-size:0.5124px;}
	.st32{font-size:1.0554px;}
	.st33{font-size:2.0394px;}
	.st34{font-size:3.5109px;}
	.st35{font-size:0.0556px;}
	.st36{font-size:0.3005px;}
	.st37{font-size:0.5446px;}
	.st38{font-size:0.5431px;}
	.st39{font-size:1.5133px;}
	.st40{font-size:2.7226px;}
	.st41{font-size:10px;}
	.st42{font-size:0.2065px;}
	.st43{font-size:0.4089px;}
	.st44{font-size:0.8062px;}
	.st45{font-size:1.0086px;}
	.st46{font-size:5.134px;}
	.st47{font-size:26.0131px;}
	.st48{font-size:80.827px;}
</style>
<g>
	<text transform="matrix(54.8772 0 0 1 213.3281 464.4411)" class="st0 st1">T</text>
	<text transform="matrix(70.037 0 0 1 211 462.9099)" class="st0 st2">L</text>
	<text transform="matrix(22.7267 0 0 1 213.0469 461.6208)" class="st0 st3">V</text>
	<text transform="matrix(15.6721 0 0 1 211.2812 459.6599)" class="st0 st4">R</text>
	<text transform="matrix(12.707 0 0 1 212.3594 457.4567)" class="st0 st5">S</text>
	<text transform="matrix(8.3549 0 0 1 213.3281 454.6755)" class="st0 st6">A</text>
	<text transform="matrix(6.6359 0 0 1 212.5234 451.6052)" class="st0 st7">G</text>
	<text transform="matrix(50.2343 0 0 1 230.5 466.3864)" class="st0 st8">Y</text>
	<text transform="matrix(14.2842 0 0 1 236.6562 465.0974)" class="st0 st9">I</text>
	<text transform="matrix(28.7613 0 0 1 228.2188 463.1442)" class="st0 st10">F</text>
	<text transform="matrix(8.3796 0 0 1 230.6016 461.4411)" class="st0 st11">A</text>
	<text transform="matrix(7.1269 0 0 1 229.6406 458.113)" class="st0 st12">S</text>
	<text transform="matrix(6.414 0 0 1 228.2891 454.1052)" class="st0 st13">L</text>
	<text transform="matrix(2.1258 0 0 1 230.5938 449.152)" class="st0 st14">T</text>
	<text transform="matrix(1.7272 0 0 1 230.3281 438.5739)" class="st0 st15">V</text>
	<text transform="matrix(1 0 0 1 253.9219 462.5036)" class="st0 st16">I</text>
	<text transform="matrix(1 0 0 1 246.9219 461.5427)" class="st0 st17">S</text>
	<text transform="matrix(46.3697 0 0 1 245.5156 460.1364)" class="st0 st18">F</text>
	<text transform="matrix(60.6805 0 0 1 264.1875 460.2692)" class="st0 st19">S</text>
	<text transform="matrix(20.6506 0 0 1 263.2969 458.9958)" class="st0 st20">D</text>
	<text transform="matrix(14.9799 0 0 1 264.3516 456.9411)" class="st0 st21">G</text>
	<text transform="matrix(81.5515 0 0 1 280.0625 462.0505)" class="st0 st22">F</text>
	<text transform="matrix(42.2792 0 0 1 281.625 460.6599)" class="st0 st23">G</text>
	<text transform="matrix(41.9334 0 0 1 280.125 459.2067)" class="st0 st24">L</text>
	<text transform="matrix(25.8935 0 0 1 280.375 457.6677)" class="st0 st25">R</text>
	<text transform="matrix(20.1222 0 0 1 281.4609 456.0192)" class="st0 st26">S</text>
	<text transform="matrix(1 0 0 1 297.9844 460.613)" class="st0 st27">K</text>
	<text transform="matrix(34.763 0 0 1 297.5 459.4958)" class="st0 st28">P</text>
	<text transform="matrix(1 0 0 1 316.7031 463.2536)" class="st0 st29">V</text>
	<text transform="matrix(1 0 0 1 316.1641 462.113)" class="st0 st30">G</text>
	<text transform="matrix(1 0 0 1 314.6094 460.9724)" class="st0 st29">F</text>
	<text transform="matrix(69.6602 0 0 1 314.6562 459.8239)" class="st0 st31">L</text>
	<text transform="matrix(27.2973 0 0 1 315.1797 458.527)" class="st0 st32">N</text>
	<text transform="matrix(14.2773 0 0 1 316.0078 456.652)" class="st0 st33">S</text>
	<text transform="matrix(4.6362 0 0 1 323.0234 454.2536)" class="st0 st34">I</text>
	<text transform="matrix(1 0 0 1 333.5 462.7067)" class="st0 st35">C</text>
	<text transform="matrix(78.6097 0 0 1 332.9062 461.5817)" class="st0 st36">M</text>
	<text transform="matrix(29.8896 0 0 1 340.2969 460.5895)" class="st0 st37">I</text>
	<text transform="matrix(51.325 0 0 1 332.3984 459.0036)" class="st0 st38">D</text>
	<text transform="matrix(23.5869 0 0 1 331.9375 457.6677)" class="st0 st39">L</text>
	<text transform="matrix(9.5503 0 0 1 333.9766 455.6599)" class="st0 st40">V</text>
	<text transform="matrix(1 0 0 1 350.5625 463.1364)" class="st0 st41">S</text>
	<text transform="matrix(1 0 0 1 349.7344 462.0895)" class="st0 st41">N</text>
	<text transform="matrix(1 0 0 1 351.4062 461.2692)" class="st0 st42">Y</text>
	<text transform="matrix(87.2991 0 0 1 349.2031 459.9411)" class="st0 st43">L</text>
	<text transform="matrix(40.54 0 0 1 349.1641 458.7927)" class="st0 st44">F</text>
	<text transform="matrix(25.2143 0 0 1 351.5156 457.0739)" class="st0 st45">A</text>
	<text transform="matrix(4.9383 0 0 1 368.6953 465.7927)" class="st0 st46">Y</text>
	<text transform="matrix(1.0715 0 0 1 366.75 461.2224)" class="st0 st47">R</text>
	<text transform="matrix(0.3384 0 0 1 367.0938 441.5427)" class="st0 st48">K</text>
</g>
</svg>
