<?xml version="1.0" encoding="utf-8"?>
<!-- Generator: Adobe Illustrator 24.3.0, SVG Export Plug-In . SVG Version: 6.00 Build 0)  -->
<svg version="1.1" id="Layer_1" xmlns="http://www.w3.org/2000/svg" xmlns:xlink="http://www.w3.org/1999/xlink" x="0px" y="0px"
	 viewBox="0 0 595.28 841.89" style="enable-background:new 0 0 595.28 841.89;" xml:space="preserve">
<style type="text/css">
	.st0{font-family:'Helvetica-Narrow-Bold';}
	.st1{font-size:16.8005px;}
	.st2{font-size:17.6889px;}
	.st3{font-size:36.7715px;}
	.st4{font-size:27.2302px;}
	.st5{font-size:113.0953px;}
	.st6{font-size:20.8705px;}
	.st7{font-size:43.1313px;}
	.st8{font-size:38.9513px;}
	.st9{font-size:14.5071px;}
	.st10{font-size:14.5293px;}
	.st11{font-size:13.7775px;}
	.st12{font-size:17.6888px;}
	.st13{font-size:16.8006px;}
	.st14{font-size:17.7125px;}
	.st15{font-size:14.5072px;}
	.st16{font-size:13.7774px;}
	.st17{font-size:22.07px;}
	.st18{font-size:68.9942px;}
</style>
<g>
	<text transform="matrix(1.9376 0 0 1 212.5781 474.6452)" class="st0 st1">S</text>
	<text transform="matrix(2.2559 0 0 1 211.0703 461.5202)" class="st0 st2">L</text>
	<text transform="matrix(2.0656 0 0 1 211 447.8015)" class="st0 st2">F</text>
	<text transform="matrix(0.8502 0 0 1 213.6328 434.0827)" class="st0 st3">T</text>
	<text transform="matrix(0.9699 0 0 1 231.3438 475.0046)" class="st0 st4">M</text>
	<text transform="matrix(0.3019 0 0 1 230.3984 454.5515)" class="st0 st5">P</text>
	<text transform="matrix(1.358 0 0 1 251.9219 474.9968)" class="st0 st6">Y</text>
	<text transform="matrix(0.7225 0 0 1 249.75 459.114)" class="st0 st7">R</text>
	<text transform="matrix(0.6683 0 0 1 251.4844 424.8405)" class="st0 st8">Q</text>
	<text transform="matrix(2.1551 0 0 1 271.2188 475.0046)" class="st0 st9">T</text>
	<text transform="matrix(1.2524 0 0 1 278.1641 463.6921)" class="st0 st10">I</text>
	<text transform="matrix(2.0445 0 0 1 270.3359 452.114)" class="st0 st11">G</text>
	<text transform="matrix(2.5187 0 0 1 268.5781 440.8171)" class="st0 st9">F</text>
	<text transform="matrix(2.1479 0 0 1 269.1641 429.5046)" class="st0 st9">D</text>
	<text transform="matrix(1.1268 0 0 1 290.5 474.9968)" class="st0 st12">W</text>
	<text transform="matrix(1.6766 0 0 1 289.5312 461.1999)" class="st0 st13">G</text>
	<text transform="matrix(1.6074 0 0 1 290.4297 447.8015)" class="st0 st2">A</text>
	<text transform="matrix(1.0852 0 0 1 287.8516 434.0827)" class="st0 st3">L</text>
	<text transform="matrix(1.7675 0 0 1 309.6094 474.9968)" class="st0 st12">T</text>
	<text transform="matrix(2.2559 0 0 1 307.0469 461.5202)" class="st0 st2">L</text>
	<text transform="matrix(1.0273 0 0 1 316.5469 447.8015)" class="st0 st14">I</text>
	<text transform="matrix(0.8758 0 0 1 307.625 434.0827)" class="st0 st3">N</text>
	<text transform="matrix(1.7675 0 0 1 328.7969 474.9968)" class="st0 st12">T</text>
	<text transform="matrix(1.9376 0 0 1 327.7422 461.1686)" class="st0 st1">S</text>
	<text transform="matrix(1.8206 0 0 1 326.7266 447.8015)" class="st0 st2">H</text>
	<text transform="matrix(0.7732 0 0 1 328.8125 434.0827)" class="st0 st3">A</text>
	<text transform="matrix(1.374 0 0 1 348.0859 475.0046)" class="st0 st9">W</text>
	<text transform="matrix(1.8205 0 0 1 346.5156 463.6921)" class="st0 st15">M</text>
	<text transform="matrix(2.7507 0 0 1 345.4297 452.3796)" class="st0 st9">L</text>
	<text transform="matrix(2.0445 0 0 1 347.1094 440.5515)" class="st0 st16">G</text>
	<text transform="matrix(1.9599 0 0 1 348.0078 429.5046)" class="st0 st15">A</text>
	<text transform="matrix(1.317 0 0 1 366.9062 474.9968)" class="st0 st17">V</text>
	<text transform="matrix(1.4166 0 0 1 367.1875 458.3483)" class="st0 st17">T</text>
	<text transform="matrix(0.5784 0 0 1 364.625 441.4577)" class="st0 st18">L</text>
</g>
</svg>
