<?xml version="1.0" encoding="utf-8"?>
<!-- Generator: Adobe Illustrator 24.3.0, SVG Export Plug-In . SVG Version: 6.00 Build 0)  -->
<svg version="1.1" id="Layer_1" xmlns="http://www.w3.org/2000/svg" xmlns:xlink="http://www.w3.org/1999/xlink" x="0px" y="0px"
	 viewBox="0 0 595.28 841.89" style="enable-background:new 0 0 595.28 841.89;" xml:space="preserve">
<style type="text/css">
	.st0{font-family:'Helvetica-Narrow-Bold';}
	.st1{font-size:21.6823px;}
	.st2{font-size:33.4956px;}
	.st3{font-size:103.2747px;}
	.st4{font-size:26.6509px;}
	.st5{font-size:51.9473px;}
	.st6{font-size:19.5842px;}
	.st7{font-size:21.7135px;}
	.st8{font-size:21.6822px;}
	.st9{font-size:20.5938px;}
	.st10{font-size:51.9474px;}
	.st11{font-size:26.6886px;}
	.st12{font-size:54.6958px;}
</style>
<g>
	<text transform="matrix(1.3406 0 0 1 210.9844 473.2297)" class="st0 st1">V</text>
	<text transform="matrix(1.4419 0 0 1 211.2734 456.8937)" class="st0 st1">T</text>
	<text transform="matrix(1.4371 0 0 1 209 440.3078)" class="st0 st1">R</text>
	<text transform="matrix(1.218 0 0 1 209.7812 423.7375)" class="st0 st1">M</text>
	<text transform="matrix(0.8678 0 0 1 230.1797 473.2219)" class="st0 st2">V</text>
	<text transform="matrix(0.3864 0 0 1 227.8984 448.3312)" class="st0 st3">L</text>
	<text transform="matrix(1.2084 0 0 1 247.6797 473.2297)" class="st0 st4">N</text>
	<text transform="matrix(1.4973 0 0 1 247.0938 453.1125)" class="st0 st4">L</text>
	<text transform="matrix(0.5422 0 0 1 248.7734 432.0187)" class="st0 st5">G</text>
	<text transform="matrix(1.442 0 0 1 268.8516 473.2297)" class="st0 st1">T</text>
	<text transform="matrix(1.3292 0 0 1 268.3047 455.7531)" class="st0 st6">Q</text>
	<text transform="matrix(1.5745 0 0 1 266.4219 440.3078)" class="st0 st1">P</text>
	<text transform="matrix(0.838 0 0 1 275.7891 423.7375)" class="st0 st7">I</text>
	<text transform="matrix(1.5745 0 0 1 285.6172 473.2297)" class="st0 st8">P</text>
	<text transform="matrix(0.838 0 0 1 294.9844 456.8937)" class="st0 st7">I</text>
	<text transform="matrix(1.4853 0 0 1 285.9688 440.3078)" class="st0 st1">H</text>
	<text transform="matrix(1.3678 0 0 1 287.1641 423.3469)" class="st0 st9">G</text>
	<text transform="matrix(0.7479 0 0 1 307.3281 473.2297)" class="st0 st4">W</text>
	<text transform="matrix(1.4973 0 0 1 304.6719 453.1125)" class="st0 st4">L</text>
	<text transform="matrix(0.6266 0 0 1 306.1797 431.9172)" class="st0 st10">S</text>
	<text transform="matrix(1.281 0 0 1 324 473.2297)" class="st0 st4">P</text>
	<text transform="matrix(0.6818 0 0 1 333.375 453.1125)" class="st0 st11">I</text>
	<text transform="matrix(0.5422 0 0 1 325.5469 432.0187)" class="st0 st5">G</text>
	<text transform="matrix(1.442 0 0 1 345.6328 473.2297)" class="st0 st1">T</text>
	<text transform="matrix(1.4853 0 0 1 343.6484 456.8937)" class="st0 st1">N</text>
	<text transform="matrix(1.8404 0 0 1 343.0625 440.3078)" class="st0 st1">L</text>
	<text transform="matrix(1.4853 0 0 1 343.5469 423.7375)" class="st0 st1">H</text>
	<text transform="matrix(1.2084 0 0 1 362.8438 473.2297)" class="st0 st4">N</text>
	<text transform="matrix(1.4973 0 0 1 362.2578 453.1125)" class="st0 st4">L</text>
	<text transform="matrix(0.5314 0 0 1 364.5391 433.0109)" class="st0 st12">V</text>
</g>
</svg>
