<?xml version="1.0" encoding="utf-8"?>
<!-- Generator: Adobe Illustrator 24.3.0, SVG Export Plug-In . SVG Version: 6.00 Build 0)  -->
<svg version="1.1" id="Layer_1" xmlns="http://www.w3.org/2000/svg" xmlns:xlink="http://www.w3.org/1999/xlink" x="0px" y="0px"
	 viewBox="0 0 595.28 841.89" style="enable-background:new 0 0 595.28 841.89;" xml:space="preserve">
<style type="text/css">
	.st0{font-family:'Helvetica-Narrow-Bold';}
	.st1{font-size:0.0803px;}
	.st2{font-size:0.0724px;}
	.st3{font-size:0.0761px;}
	.st4{font-size:1.5508px;}
	.st5{font-size:2.2861px;}
	.st6{font-size:3.0213px;}
	.st7{font-size:3.7634px;}
	.st8{font-size:5.2271px;}
	.st9{font-size:13.3223px;}
	.st10{font-size:2.212px;}
	.st11{font-size:3.414px;}
	.st12{font-size:3.2429px;}
	.st13{font-size:15.4299px;}
	.st14{font-size:19.0322px;}
	.st15{font-size:20.3615px;}
	.st16{font-size:0.405px;}
	.st17{font-size:0.9326px;}
	.st18{font-size:1.6376px;}
	.st19{font-size:2.2417px;}
	.st20{font-size:2.248px;}
	.st21{font-size:6.4851px;}
	.st22{font-size:7.0929px;}
	.st23{font-size:0.1526px;}
	.st24{font-size:0.6656px;}
	.st25{font-size:0.6657px;}
	.st26{font-size:1.1823px;}
	.st27{font-size:1.6954px;}
	.st28{font-size:3.2382px;}
	.st29{font-size:3.5643px;}
	.st30{font-size:4.268px;}
	.st31{font-size:0.1098px;}
	.st32{font-size:0.4098px;}
	.st33{font-size:0.7098px;}
	.st34{font-size:1.0098px;}
	.st35{font-size:0.1953px;}
	.st36{font-size:0.7478px;}
	.st37{font-size:0.828px;}
	.st38{font-size:2.1008px;}
	.st39{font-size:0.0705px;}
	.st40{font-size:0.0669px;}
	.st41{font-size:0.2802px;}
	.st42{font-size:0.1934px;}
	.st43{font-size:0.4616px;}
	.st44{font-size:1.4647px;}
	.st45{font-size:1.992px;}
	.st46{font-size:0.162px;}
	.st47{font-size:0.1625px;}
	.st48{font-size:1.718px;}
	.st49{font-size:3.2775px;}
	.st50{font-size:29.7317px;}
	.st51{font-size:49.9624px;}
</style>
<g>
	<text transform="matrix(1 0 0 1 212.4766 457.0837)" class="st0 st1">Y</text>
	<text transform="matrix(1 0 0 1 212.0234 456.1696)" class="st0 st2">Q</text>
	<text transform="matrix(1 0 0 1 210.4688 455.029)" class="st0 st1">H</text>
	<text transform="matrix(1 0 0 1 211.6719 454.1071)" class="st0 st3">G</text>
	<text transform="matrix(25.7315 0 0 1 210 452.9509)" class="st0 st4">L</text>
	<text transform="matrix(12.7147 0 0 1 212.2656 450.8884)" class="st0 st5">V</text>
	<text transform="matrix(10.3137 0 0 1 210.2891 448.2477)" class="st0 st6">R</text>
	<text transform="matrix(4.8352 0 0 1 219.5 445.029)" class="st0 st7">I</text>
	<text transform="matrix(6.1612 0 0 1 210.5781 441.2321)" class="st0 st8">N</text>
	<text transform="matrix(2.2957 0 0 1 210.6719 436.529)" class="st0 st9">K</text>
	<text transform="matrix(18.04 0 0 1 229.1875 457.6227)" class="st0 st10">L</text>
	<text transform="matrix(8.5141 0 0 1 231.4609 454.8415)" class="st0 st11">V</text>
	<text transform="matrix(8.686 0 0 1 230.875 451.4821)" class="st0 st12">G</text>
	<text transform="matrix(1.8427 0 0 1 231.7656 448.0056)" class="st0 st13">A</text>
	<text transform="matrix(1.6427 0 0 1 231.75 436.0759)" class="st0 st14">T</text>
	<text transform="matrix(1.5987 0 0 1 230.6953 420.9665)" class="st0 st15">S</text>
	<text transform="matrix(80.3833 0 0 1 249.8906 453.9821)" class="st0 st16">S</text>
	<text transform="matrix(27.9132 0 0 1 250.3906 452.7634)" class="st0 st17">Q</text>
	<text transform="matrix(17.3623 0 0 1 250.9688 451.0212)" class="st0 st18">A</text>
	<text transform="matrix(8.8916 0 0 1 251.0391 448.8259)" class="st0 st19">W</text>
	<text transform="matrix(8.0947 0 0 1 257.8828 446.2477)" class="st0 st20">I</text>
	<text transform="matrix(4.8049 0 0 1 248.6719 443.654)" class="st0 st21">R</text>
	<text transform="matrix(4.3118 0 0 1 249.0625 437.8649)" class="st0 st22">K</text>
	<text transform="matrix(1 0 0 1 268.0703 455.1071)" class="st0 st23">H</text>
	<text transform="matrix(59.9513 0 0 1 267.5781 454.0915)" class="st0 st24">L</text>
	<text transform="matrix(46.8112 0 0 1 268.0703 452.5602)" class="st0 st25">D</text>
	<text transform="matrix(24.0481 0 0 1 270.1562 451.0524)" class="st0 st26">A</text>
	<text transform="matrix(20.136 0 0 1 267.7031 449.2712)" class="st0 st27">P</text>
	<text transform="matrix(9.6228 0 0 1 267.8672 446.9977)" class="st0 st28">R</text>
	<text transform="matrix(7.9028 0 0 1 269.2656 443.6384)" class="st0 st29">G</text>
	<text transform="matrix(7.1658 0 0 1 268.25 440.1618)" class="st0 st30">K</text>
	<text transform="matrix(1 0 0 1 287.4375 453.5134)" class="st0 st31">K</text>
	<text transform="matrix(1 0 0 1 286.8594 452.3181)" class="st0 st31">E</text>
	<text transform="matrix(1 0 0 1 287.2891 451.3649)" class="st0 st31">D</text>
	<text transform="matrix(97.3845 0 0 1 286.7656 450.1618)" class="st0 st32">L</text>
	<text transform="matrix(48.0982 0 0 1 286.8984 449.029)" class="st0 st33">P</text>
	<text transform="matrix(30.9617 0 0 1 289.3359 447.4509)" class="st0 st34">T</text>
	<text transform="matrix(1 0 0 1 305.9062 451.779)" class="st0 st35">F</text>
	<text transform="matrix(34.8095 0 0 1 307.9844 450.6618)" class="st0 st36">Q</text>
	<text transform="matrix(48.1912 0 0 1 305.9375 448.9509)" class="st0 st37">L</text>
	<text transform="matrix(16.2503 0 0 1 306.0859 447.4509)" class="st0 st38">P</text>
	<text transform="matrix(1 0 0 1 325.1406 453.0759)" class="st0 st39">L</text>
	<text transform="matrix(1 0 0 1 326.8281 452.1618)" class="st0 st40">G</text>
	<text transform="matrix(94.2577 0 0 1 326.2422 451.029)" class="st0 st41">M</text>
	<text transform="matrix(1 0 0 1 345.0312 452.0056)" class="st0 st42">K</text>
	<text transform="matrix(56.39 0 0 1 346.3594 450.904)" class="st0 st43">Q</text>
	<text transform="matrix(21.9878 0 0 1 344.9375 449.404)" class="st0 st44">N</text>
	<text transform="matrix(14.1405 0 0 1 346.0312 447.4274)" class="st0 st45">G</text>
	<text transform="matrix(1 0 0 1 366.0156 459.154)" class="st0 st46">Y</text>
	<text transform="matrix(1 0 0 1 366.0938 458.1227)" class="st0 st46">T</text>
	<text transform="matrix(1 0 0 1 364.625 457.0759)" class="st0 st46">M</text>
	<text transform="matrix(1 0 0 1 373.0469 455.8102)" class="st0 st47">I</text>
	<text transform="matrix(1 0 0 1 366.125 454.7712)" class="st0 st46">A</text>
	<text transform="matrix(16.9194 0 0 1 365.8203 453.7321)" class="st0 st48">V</text>
	<text transform="matrix(12.1753 0 0 1 363.5469 451.4352)" class="st0 st49">L</text>
	<text transform="matrix(1.229 0 0 1 363.4688 448.0837)" class="st0 st50">F</text>
	<text transform="matrix(0.3989 0 0 1 366.2031 425.7087)" class="st0 st51">W</text>
</g>
</svg>
