<?xml version="1.0" encoding="utf-8"?>
<!-- Generator: Adobe Illustrator 24.3.0, SVG Export Plug-In . SVG Version: 6.00 Build 0)  -->
<svg version="1.1" id="Layer_1" xmlns="http://www.w3.org/2000/svg" xmlns:xlink="http://www.w3.org/1999/xlink" x="0px" y="0px"
	 viewBox="0 0 595.28 841.89" style="enable-background:new 0 0 595.28 841.89;" xml:space="preserve">
<style type="text/css">
	.st0{font-family:'Helvetica-Narrow-Bold';}
	.st1{font-size:26.6886px;}
	.st2{font-size:26.6509px;}
	.st3{font-size:54.6957px;}
	.st4{font-size:21.6822px;}
	.st5{font-size:19.5842px;}
	.st6{font-size:21.7135px;}
	.st7{font-size:21.6823px;}
	.st8{font-size:20.5938px;}
	.st9{font-size:20.5939px;}
	.st10{font-size:25.3121px;}
	.st11{font-size:54.6958px;}
</style>
<g>
	<text transform="matrix(0.6818 0 0 1 218.5781 460.8972)" class="st0 st1">I</text>
	<text transform="matrix(1.371 0 0 1 209 440.7878)" class="st0 st2">F</text>
	<text transform="matrix(0.5888 0 0 1 209.5625 420.6706)" class="st0 st3">H</text>
	<text transform="matrix(1.442 0 0 1 230.8281 460.905)" class="st0 st4">T</text>
	<text transform="matrix(1.3292 0 0 1 230.2812 443.4284)" class="st0 st5">Q</text>
	<text transform="matrix(0.838 0 0 1 237.7656 427.9831)" class="st0 st6">I</text>
	<text transform="matrix(1.3113 0 0 1 230.8438 411.4128)" class="st0 st7">A</text>
	<text transform="matrix(1.3072 0 0 1 249.9297 460.905)" class="st0 st4">Y</text>
	<text transform="matrix(1.5807 0 0 1 248.9688 444.1315)" class="st0 st8">S</text>
	<text transform="matrix(1.218 0 0 1 248.5391 427.9831)" class="st0 st7">M</text>
	<text transform="matrix(1.3113 0 0 1 250.0391 411.4128)" class="st0 st7">A</text>
	<text transform="matrix(1.1731 0 0 1 269.2188 460.905)" class="st0 st2">T</text>
	<text transform="matrix(1.2084 0 0 1 267.1406 440.7878)" class="st0 st2">H</text>
	<text transform="matrix(0.6242 0 0 1 266.7891 420.6706)" class="st0 st3">P</text>
	<text transform="matrix(1.3406 0 0 1 288.125 460.905)" class="st0 st7">V</text>
	<text transform="matrix(1.5807 0 0 1 287.3516 444.1393)" class="st0 st9">S</text>
	<text transform="matrix(0.838 0 0 1 295.3516 427.9831)" class="st0 st6">I</text>
	<text transform="matrix(1.3678 0 0 1 287.5312 411.0222)" class="st0 st8">G</text>
	<text transform="matrix(1.286 0 0 1 306.5469 460.3737)" class="st0 st10">S</text>
	<text transform="matrix(1.2084 0 0 1 305.625 440.7878)" class="st0 st2">N</text>
	<text transform="matrix(0.7296 0 0 1 305.0469 420.6862)" class="st0 st11">L</text>
	<text transform="matrix(1.442 0 0 1 326.7969 460.905)" class="st0 st4">T</text>
	<text transform="matrix(1.5807 0 0 1 325.7344 444.1315)" class="st0 st8">S</text>
	<text transform="matrix(1.4371 0 0 1 324.5234 427.9831)" class="st0 st7">R</text>
	<text transform="matrix(1.5895 0 0 1 324.3438 411.4128)" class="st0 st7">E</text>
	<text transform="matrix(1.3406 0 0 1 345.7109 460.905)" class="st0 st7">V</text>
	<text transform="matrix(0.838 0 0 1 352.9375 444.569)" class="st0 st6">I</text>
	<text transform="matrix(1.3678 0 0 1 345.1094 427.5925)" class="st0 st8">G</text>
	<text transform="matrix(1.5895 0 0 1 343.5312 411.4128)" class="st0 st7">E</text>
	<text transform="matrix(1.4973 0 0 1 362.625 460.905)" class="st0 st2">L</text>
	<text transform="matrix(1.371 0 0 1 362.5469 440.7878)" class="st0 st2">F</text>
	<text transform="matrix(0.4828 0 0 1 363.7031 420.6862)" class="st0 st11">M</text>
</g>
</svg>
