<?xml version="1.0" encoding="utf-8"?>
<!-- Generator: Adobe Illustrator 24.3.0, SVG Export Plug-In . SVG Version: 6.00 Build 0)  -->
<svg version="1.1" id="Layer_1" xmlns="http://www.w3.org/2000/svg" xmlns:xlink="http://www.w3.org/1999/xlink" x="0px" y="0px"
	 viewBox="0 0 595.28 841.89" style="enable-background:new 0 0 595.28 841.89;" xml:space="preserve">
<style type="text/css">
	.st0{font-family:'Helvetica-Narrow-Bold';}
	.st1{font-size:0.1414px;}
	.st2{font-size:0.1252px;}
	.st3{font-size:0.6181px;}
	.st4{font-size:1.1637px;}
	.st5{font-size:2.186px;}
	.st6{font-size:2.6953px;}
	.st7{font-size:4.2269px;}
	.st8{font-size:0.9674px;}
	.st9{font-size:3.3325px;}
	.st10{font-size:5.1405px;}
	.st11{font-size:116.6923px;}
	.st12{font-size:0.1635px;}
	.st13{font-size:0.3689px;}
	.st14{font-size:0.3897px;}
	.st15{font-size:0.687px;}
	.st16{font-size:1.2815px;}
	.st17{font-size:0.1047px;}
	.st18{font-size:0.1014px;}
	.st19{font-size:0.1015px;}
	.st20{font-size:1.2277px;}
	.st21{font-size:2.3544px;}
	.st22{font-size:0.2317px;}
	.st23{font-size:0.3928px;}
	.st24{font-size:0.6465px;}
	.st25{font-size:0.1788px;}
	.st26{font-size:0.7024px;}
	.st27{font-size:0.6683px;}
	.st28{font-size:1.2264px;}
	.st29{font-size:1.7505px;}
	.st30{font-size:1.6624px;}
	.st31{font-size:2.7986px;}
	.st32{font-size:3.1535px;}
	.st33{font-size:10px;}
	.st34{font-size:0.0503px;}
	.st35{font-size:0.7724px;}
	.st36{font-size:3.6636px;}
	.st37{font-size:3.6608px;}
	.st38{font-size:6.5454px;}
	.st39{font-size:8.7117px;}
</style>
<g>
	<text transform="matrix(1 0 0 1 211.4453 466.5148)" class="st0 st1">T</text>
	<text transform="matrix(1 0 0 1 209.1797 465.5148)" class="st0 st1">R</text>
	<text transform="matrix(1 0 0 1 210.9219 464.2648)" class="st0 st2">Q</text>
	<text transform="matrix(1 0 0 1 209.4688 463.2726)" class="st0 st1">N</text>
	<text transform="matrix(52.6608 0 0 1 210.4062 462.257)" class="st0 st3">S</text>
	<text transform="matrix(45.5679 0 0 1 210.5703 460.7648)" class="st0 st3">G</text>
	<text transform="matrix(22.695 0 0 1 209.9766 459.2805)" class="st0 st4">M</text>
	<text transform="matrix(12.9658 0 0 1 211.3594 457.2883)" class="st0 st5">Y</text>
	<text transform="matrix(11.561 0 0 1 209.3984 454.7883)" class="st0 st6">D</text>
	<text transform="matrix(8.1532 0 0 1 209 451.7961)" class="st0 st7">E</text>
	<text transform="matrix(33.2891 0 0 1 228.5703 469.0148)" class="st0 st8">H</text>
	<text transform="matrix(37.7686 0 0 1 228.0234 467.5461)" class="st0 st8">F</text>
	<text transform="matrix(32.2093 0 0 1 228.6094 465.8351)" class="st0 st8">D</text>
	<text transform="matrix(10.2443 0 0 1 228.2188 464.1164)" class="st0 st9">P</text>
	<text transform="matrix(5.064 0 0 1 230.1016 460.3898)" class="st0 st10">Q</text>
	<text transform="matrix(0.2953 0 0 1 228.1875 455.5617)" class="st0 st11">E</text>
	<text transform="matrix(1 0 0 1 247.3828 460.9055)" class="st0 st12">E</text>
	<text transform="matrix(88.2436 0 0 1 267.9609 462.6867)" class="st0 st13">S</text>
	<text transform="matrix(1 0 0 1 266.4766 461.343)" class="st0 st14">L</text>
	<text transform="matrix(42.3121 0 0 1 268.7656 460.218)" class="st0 st15">V</text>
	<text transform="matrix(26.8937 0 0 1 266.5703 458.6711)" class="st0 st16">E</text>
	<text transform="matrix(1 0 0 1 288.2422 463.1789)" class="st0 st17">T</text>
	<text transform="matrix(1 0 0 1 287.1797 462.218)" class="st0 st18">S</text>
	<text transform="matrix(1 0 0 1 287.3594 461.0383)" class="st0 st19">G</text>
	<text transform="matrix(26.2316 0 0 1 286.1562 460.0773)" class="st0 st20">H</text>
	<text transform="matrix(23.1585 0 0 1 288.2422 457.9992)" class="st0 st20">A</text>
	<text transform="matrix(16.9487 0 0 1 285.6641 456.1555)" class="st0 st21">L</text>
	<text transform="matrix(1 0 0 1 304.8359 460.6398)" class="st0 st22">L</text>
	<text transform="matrix(93.0158 0 0 1 323.9766 461.1867)" class="st0 st23">F</text>
	<text transform="matrix(61.727 0 0 1 324.0391 460.0617)" class="st0 st24">L</text>
	<text transform="matrix(1 0 0 1 352.7578 466.3898)" class="st0 st25">I</text>
	<text transform="matrix(49.0665 0 0 1 343.3516 465.3273)" class="st0 st26">E</text>
	<text transform="matrix(43.2856 0 0 1 344.9922 463.7414)" class="st0 st27">C</text>
	<text transform="matrix(29.7928 0 0 1 343.1719 462.4367)" class="st0 st28">F</text>
	<text transform="matrix(22.7958 0 0 1 343.25 460.593)" class="st0 st29">L</text>
	<text transform="matrix(16.9442 0 0 1 344.9297 458.2023)" class="st0 st30">G</text>
	<text transform="matrix(16.2426 0 0 1 345.8281 455.882)" class="st0 st29">A</text>
	<text transform="matrix(12.1985 0 0 1 343.375 453.7648)" class="st0 st31">P</text>
	<text transform="matrix(10.3225 0 0 1 344.75 450.5617)" class="st0 st32">S</text>
	<text transform="matrix(1 0 0 1 364.4453 467.5773)" class="st0 st33">Q</text>
	<text transform="matrix(1 0 0 1 363.5234 466.468)" class="st0 st34">M</text>
	<text transform="matrix(1 0 0 1 362.4609 465.6008)" class="st0 st34">L</text>
	<text transform="matrix(1 0 0 1 364.1094 464.4758)" class="st0 st33">G</text>
	<text transform="matrix(1 0 0 1 362.5391 463.3742)" class="st0 st34">E</text>
	<text transform="matrix(25.8067 0 0 1 365.1016 462.4992)" class="st0 st35">W</text>
	<text transform="matrix(41.6966 0 0 1 362.9297 460.8273)" class="st0 st35">H</text>
	<text transform="matrix(4.9669 0 0 1 371.9453 459.3976)" class="st0 st36">I</text>
	<text transform="matrix(7.7668 0 0 1 365.0234 455.7492)" class="st0 st37">A</text>
	<text transform="matrix(4.3302 0 0 1 364.9062 452.093)" class="st0 st38">Y</text>
	<text transform="matrix(4.1942 0 0 1 362.3672 446.4523)" class="st0 st39">F</text>
</g>
</svg>
