<?xml version="1.0" encoding="utf-8"?>
<!-- Generator: Adobe Illustrator 24.3.0, SVG Export Plug-In . SVG Version: 6.00 Build 0)  -->
<svg version="1.1" id="Layer_1" xmlns="http://www.w3.org/2000/svg" xmlns:xlink="http://www.w3.org/1999/xlink" x="0px" y="0px"
	 viewBox="0 0 595.28 841.89" style="enable-background:new 0 0 595.28 841.89;" xml:space="preserve">
<style type="text/css">
	.st0{font-family:'Helvetica-Narrow-Bold';}
	.st1{font-size:1.6823px;}
	.st2{font-size:1.6833px;}
	.st3{font-size:1.5975px;}
	.st4{font-size:4.5183px;}
	.st5{font-size:7.8309px;}
	.st6{font-size:13.9796px;}
	.st7{font-size:16.375px;}
	.st8{font-size:131.8728px;}
	.st9{font-size:1.1837px;}
	.st10{font-size:1.0713px;}
	.st11{font-size:1.1836px;}
	.st12{font-size:3.768px;}
	.st13{font-size:6.3424px;}
	.st14{font-size:8.4701px;}
	.st15{font-size:1.3538px;}
	.st16{font-size:0.2555px;}
	.st17{font-size:0.2444px;}
	.st18{font-size:0.2556px;}
	.st19{font-size:1.9049px;}
	.st20{font-size:1.9066px;}
	.st21{font-size:0.6362px;}
	.st22{font-size:0.6017px;}
	.st23{font-size:0.6343px;}
	.st24{font-size:0.6016px;}
	.st25{font-size:2.6626px;}
	.st26{font-size:4.6891px;}
	.st27{font-size:1.0132px;}
	.st28{font-size:3.2486px;}
	.st29{font-size:3.4204px;}
	.st30{font-size:5.8275px;}
	.st31{font-size:1.6333px;}
	.st32{font-size:1.6341px;}
	.st33{font-size:1.5498px;}
	.st34{font-size:4.4231px;}
	.st35{font-size:4.6568px;}
	.st36{font-size:10.7038px;}
	.st37{font-size:2.8117px;}
	.st38{font-size:2.9591px;}
	.st39{font-size:2.959px;}
	.st40{font-size:16.0143px;}
	.st41{font-size:29.0695px;}
</style>
<g>
	<text transform="matrix(16.848 0 0 1 211.3672 472.8229)" class="st0 st1">Y</text>
	<text transform="matrix(15.6988 0 0 1 209.9766 470.8073)" class="st0 st1">M</text>
	<text transform="matrix(18.1797 0 0 1 209.5703 468.5573)" class="st0 st1">K</text>
	<text transform="matrix(10.8103 0 0 1 218.3984 466.2917)" class="st0 st2">I</text>
	<text transform="matrix(19.1438 0 0 1 209.3828 464.0417)" class="st0 st1">H</text>
	<text transform="matrix(17.6328 0 0 1 210.5703 461.7604)" class="st0 st3">G</text>
	<text transform="matrix(16.901 0 0 1 211.4688 459.7761)" class="st0 st1">A</text>
	<text transform="matrix(7.2045 0 0 1 210.3984 457.4245)" class="st0 st4">S</text>
	<text transform="matrix(3.9791 0 0 1 209.4062 453.0104)" class="st0 st5">D</text>
	<text transform="matrix(2.4652 0 0 1 209 446.487)" class="st0 st6">E</text>
	<text transform="matrix(1.9029 0 0 1 228.6016 472.8229)" class="st0 st7">D</text>
	<text transform="matrix(0.2613 0 0 1 228.1875 460.2682)" class="st0 st8">E</text>
	<text transform="matrix(23.9452 0 0 1 249.75 472.8151)" class="st0 st9">Y</text>
	<text transform="matrix(26.4136 0 0 1 249.8516 471.0417)" class="st0 st9">T</text>
	<text transform="matrix(26.3255 0 0 1 247.5703 469.2604)" class="st0 st9">R</text>
	<text transform="matrix(24.2989 0 0 1 249.2891 467.4167)" class="st0 st10">Q</text>
	<text transform="matrix(27.208 0 0 1 247.8672 465.4479)" class="st0 st9">N</text>
	<text transform="matrix(22.3127 0 0 1 248.3594 463.6745)" class="st0 st11">M</text>
	<text transform="matrix(33.7139 0 0 1 247.2812 461.8854)" class="st0 st11">L</text>
	<text transform="matrix(30.8693 0 0 1 247.2031 459.8698)" class="st0 st9">F</text>
	<text transform="matrix(4.8293 0 0 1 256.7812 458.0886)" class="st0 st12">I</text>
	<text transform="matrix(4.5829 0 0 1 249.5547 454.5261)" class="st0 st13">V</text>
	<text transform="matrix(3.3256 0 0 1 248.9609 448.7839)" class="st0 st14">G</text>
	<text transform="matrix(21.4706 0 0 1 268.7578 462.1667)" class="st0 st15">V</text>
	<text transform="matrix(19.5078 0 0 1 267.5547 460.1354)" class="st0 st15">M</text>
	<text transform="matrix(25.4566 0 0 1 266.5703 458.1042)" class="st0 st15">E</text>
	<text transform="matrix(1 0 0 1 288.2422 472.8229)" class="st0 st16">T</text>
	<text transform="matrix(1 0 0 1 287.1797 471.6511)" class="st0 st17">S</text>
	<text transform="matrix(1 0 0 1 285.9766 470.4948)" class="st0 st16">R</text>
	<text transform="matrix(1 0 0 1 286.7422 469.3229)" class="st0 st16">M</text>
	<text transform="matrix(1 0 0 1 286.3359 468.1589)" class="st0 st16">K</text>
	<text transform="matrix(1 0 0 1 286.1641 466.987)" class="st0 st18">H</text>
	<text transform="matrix(1 0 0 1 287.3359 465.8151)" class="st0 st17">G</text>
	<text transform="matrix(1 0 0 1 287.4297 464.6432)" class="st0 st17">C</text>
	<text transform="matrix(1 0 0 1 288.2422 463.4792)" class="st0 st16">A</text>
	<text transform="matrix(20.9479 0 0 1 285.6719 462.3151)" class="st0 st19">L</text>
	<text transform="matrix(9.5443 0 0 1 295.1719 459.9714)" class="st0 st20">I</text>
	<text transform="matrix(19.1812 0 0 1 285.6016 457.6511)" class="st0 st19">F</text>
	<text transform="matrix(16.3578 0 0 1 286.1797 455.0729)" class="st0 st19">D</text>
	<text transform="matrix(49.1429 0 0 1 307.4375 472.8229)" class="st0 st21">T</text>
	<text transform="matrix(54.1022 0 0 1 306.3828 471.5729)" class="st0 st22">S</text>
	<text transform="matrix(53.6603 0 0 1 304.9766 470.1198)" class="st0 st21">P</text>
	<text transform="matrix(50.6247 0 0 1 305.4453 468.6432)" class="st0 st21">N</text>
	<text transform="matrix(62.7228 0 0 1 304.8594 467.1667)" class="st0 st21">L</text>
	<text transform="matrix(48.0718 0 0 1 305.5234 465.7057)" class="st0 st21">K</text>
	<text transform="matrix(28.6881 0 0 1 314.3672 464.2292)" class="st0 st23">I</text>
	<text transform="matrix(46.8185 0 0 1 306.5547 462.7448)" class="st0 st24">G</text>
	<text transform="matrix(12.0952 0 0 1 305.3516 461.2917)" class="st0 st25">H</text>
	<text transform="matrix(13.7228 0 0 1 304.7891 458.3386)" class="st0 st25">F</text>
	<text transform="matrix(12.9432 0 0 1 304.9688 455.3932)" class="st0 st25">E</text>
	<text transform="matrix(6.1989 0 0 1 307.1484 452.4557)" class="st0 st26">V</text>
	<text transform="matrix(19.6726 0 0 1 326.7031 472.8229)" class="st0 st27">W</text>
	<text transform="matrix(28.687 0 0 1 326.3359 471.2839)" class="st0 st27">V</text>
	<text transform="matrix(31.7854 0 0 1 324.6484 469.5104)" class="st0 st27">N</text>
	<text transform="matrix(31.7854 0 0 1 324.5469 467.737)" class="st0 st27">H</text>
	<text transform="matrix(36.0626 0 0 1 323.9922 465.9636)" class="st0 st27">F</text>
	<text transform="matrix(34.0139 0 0 1 324.1484 464.1823)" class="st0 st27">E</text>
	<text transform="matrix(28.0618 0 0 1 326.6328 462.6511)" class="st0 st27">A</text>
	<text transform="matrix(10.0203 0 0 1 325.5547 460.8073)" class="st0 st28">S</text>
	<text transform="matrix(8.9415 0 0 1 324.7344 457.3151)" class="st0 st29">K</text>
	<text transform="matrix(5.3651 0 0 1 326.625 454.0104)" class="st0 st30">T</text>
	<text transform="matrix(6.8476 0 0 1 324.0547 448.6745)" class="st0 st30">L</text>
	<text transform="matrix(18.7251 0 0 1 343.9297 472.8151)" class="st0 st31">K</text>
	<text transform="matrix(11.1355 0 0 1 352.7578 470.8698)" class="st0 st32">I</text>
	<text transform="matrix(18.1747 0 0 1 344.9297 468.6667)" class="st0 st33">G</text>
	<text transform="matrix(7.3596 0 0 1 344.75 466.4167)" class="st0 st34">S</text>
	<text transform="matrix(6.9158 0 0 1 343.8359 462.1511)" class="st0 st35">N</text>
	<text transform="matrix(5.6712 0 0 1 344.3359 457.7761)" class="st0 st35">M</text>
	<text transform="matrix(7.8464 0 0 1 343.1719 453.4089)" class="st0 st35">F</text>
	<text transform="matrix(6.6914 0 0 1 343.7578 449.0417)" class="st0 st35">D</text>
	<text transform="matrix(3.7281 0 0 1 343.25 444.6823)" class="st0 st36">L</text>
	<text transform="matrix(11.5774 0 0 1 363.9453 472.7682)" class="st0 st37">S</text>
	<text transform="matrix(10.8835 0 0 1 363.0156 469.9323)" class="st0 st38">N</text>
	<text transform="matrix(8.9251 0 0 1 363.5234 466.7995)" class="st0 st39">M</text>
	<text transform="matrix(13.4854 0 0 1 362.4375 463.6745)" class="st0 st38">L</text>
	<text transform="matrix(12.3481 0 0 1 362.375 460.5495)" class="st0 st38">F</text>
	<text transform="matrix(9.6087 0 0 1 365.0234 457.4167)" class="st0 st39">A</text>
	<text transform="matrix(1.2447 0 0 1 365.1016 454.2917)" class="st0 st40">W</text>
	<text transform="matrix(0.975 0 0 1 364.9062 441.7682)" class="st0 st41">Y</text>
</g>
</svg>
