<?xml version="1.0" encoding="utf-8"?>
<!-- Generator: Adobe Illustrator 24.3.0, SVG Export Plug-In . SVG Version: 6.00 Build 0)  -->
<svg version="1.1" id="Layer_1" xmlns="http://www.w3.org/2000/svg" xmlns:xlink="http://www.w3.org/1999/xlink" x="0px" y="0px"
	 viewBox="0 0 595.28 841.89" style="enable-background:new 0 0 595.28 841.89;" xml:space="preserve">
<style type="text/css">
	.st0{font-family:'Helvetica-Narrow-Bold';}
	.st1{font-size:5.1195px;}
	.st2{font-size:5.6678px;}
	.st3{font-size:5.6727px;}
	.st4{font-size:12.726px;}
	.st5{font-size:26.8459px;}
	.st6{font-size:4.1533px;}
	.st7{font-size:4.6068px;}
	.st8{font-size:4.6013px;}
	.st9{font-size:10.5928px;}
	.st10{font-size:10.0625px;}
	.st11{font-size:16.588px;}
	.st12{font-size:3.6957px;}
	.st13{font-size:3.7024px;}
	.st14{font-size:8.7853px;}
	.st15{font-size:2.3821px;}
	.st16{font-size:2.1516px;}
	.st17{font-size:6.1545px;}
	.st18{font-size:3.9427px;}
	.st19{font-size:3.744px;}
	.st20{font-size:3.9426px;}
	.st21{font-size:3.95px;}
	.st22{font-size:9.2793px;}
	.st23{font-size:14.6158px;}
	.st24{font-size:9.5661px;}
	.st25{font-size:10.6078px;}
	.st26{font-size:3.0371px;}
	.st27{font-size:6.7463px;}
	.st28{font-size:7.4681px;}
	.st29{font-size:3.7023px;}
	.st30{font-size:7.4754px;}
	.st31{font-size:7.4889px;}
	.st32{font-size:16.3447px;}
	.st33{font-size:51.8256px;}
</style>
<g>
	<text transform="matrix(5.0847 0 0 1 210.8906 457.737)" class="st0 st1">Q</text>
	<text transform="matrix(6.0232 0 0 1 209 453.1745)" class="st0 st2">P</text>
	<text transform="matrix(3.2078 0 0 1 218.375 448.0729)" class="st0 st3">I</text>
	<text transform="matrix(2.4486 0 0 1 209.1641 442.9792)" class="st0 st4">R</text>
	<text transform="matrix(2.2342 0 0 1 211.4453 432.7839)" class="st0 st4">A</text>
	<text transform="matrix(1.1392 0 0 1 209.5469 422.5886)" class="st0 st5">K</text>
	<text transform="matrix(6.2677 0 0 1 230.0781 457.7917)" class="st0 st6">Q</text>
	<text transform="matrix(3.95 0 0 1 237.5625 453.7526)" class="st0 st7">I</text>
	<text transform="matrix(7.941 0 0 1 227.9922 449.4636)" class="st0 st8">F</text>
	<text transform="matrix(6.1792 0 0 1 230.6406 445.1745)" class="st0 st8">A</text>
	<text transform="matrix(2.6757 0 0 1 230.5312 440.8854)" class="st0 st9">Y</text>
	<text transform="matrix(3.235 0 0 1 229.5703 432.0964)" class="st0 st10">S</text>
	<text transform="matrix(1.7523 0 0 1 230.3438 423.737)" class="st0 st11">V</text>
	<text transform="matrix(8.7142 0 0 1 247.8438 458.0261)" class="st0 st12">N</text>
	<text transform="matrix(7.1461 0 0 1 248.3359 454.5573)" class="st0 st12">M</text>
	<text transform="matrix(8.2754 0 0 1 247.9375 450.862)" class="st0 st12">K</text>
	<text transform="matrix(4.9149 0 0 1 256.7578 447.1432)" class="st0 st13">I</text>
	<text transform="matrix(8.4316 0 0 1 247.7656 443.4479)" class="st0 st12">D</text>
	<text transform="matrix(3.5469 0 0 1 247.5469 439.9792)" class="st0 st14">R</text>
	<text transform="matrix(4.5422 0 0 1 247.2578 432.5651)" class="st0 st14">L</text>
	<text transform="matrix(4.1591 0 0 1 247.1875 425.1589)" class="st0 st14">F</text>
	<text transform="matrix(11.8984 0 0 1 268.9219 458.0339)" class="st0 st15">Y</text>
	<text transform="matrix(12.202 0 0 1 268.7266 455.4948)" class="st0 st15">V</text>
	<text transform="matrix(12.0986 0 0 1 268.4688 452.5886)" class="st0 st16">Q</text>
	<text transform="matrix(14.3311 0 0 1 266.5859 449.9323)" class="st0 st15">P</text>
	<text transform="matrix(13.5194 0 0 1 267.0469 447.3932)" class="st0 st15">N</text>
	<text transform="matrix(16.7515 0 0 1 266.4453 444.6198)" class="st0 st15">L</text>
	<text transform="matrix(15.3389 0 0 1 266.3672 441.8307)" class="st0 st15">F</text>
	<text transform="matrix(14.4672 0 0 1 266.5547 439.2995)" class="st0 st15">E</text>
	<text transform="matrix(13.0811 0 0 1 266.9688 436.5104)" class="st0 st15">D</text>
	<text transform="matrix(4.9693 0 0 1 267.1328 433.737)" class="st0 st17">K</text>
	<text transform="matrix(5.0555 0 0 1 288.3047 458.0261)" class="st0 st18">W</text>
	<text transform="matrix(8.6944 0 0 1 287.1484 454.1276)" class="st0 st19">S</text>
	<text transform="matrix(7.9034 0 0 1 285.9375 450.3932)" class="st0 st20">R</text>
	<text transform="matrix(8.1683 0 0 1 286.2344 446.5651)" class="st0 st18">N</text>
	<text transform="matrix(4.6068 0 0 1 295.1484 442.7448)" class="st0 st21">I</text>
	<text transform="matrix(7.2114 0 0 1 288.2188 438.9167)" class="st0 st18">A</text>
	<text transform="matrix(4.3003 0 0 1 285.6484 435.0964)" class="st0 st22">L</text>
	<text transform="matrix(2.132 0 0 1 286.1562 427.4479)" class="st0 st23">D</text>
	<text transform="matrix(6.1598 0 0 1 307.3047 458.0339)" class="st0 st8">Y</text>
	<text transform="matrix(6.7721 0 0 1 305.125 453.7526)" class="st0 st8">R</text>
	<text transform="matrix(5.7396 0 0 1 305.9219 449.4636)" class="st0 st8">M</text>
	<text transform="matrix(6.9991 0 0 1 305.3281 445.1745)" class="st0 st8">H</text>
	<text transform="matrix(2.7212 0 0 1 306.8594 440.3307)" class="st0 st24">Q</text>
	<text transform="matrix(1.7154 0 0 1 314.3438 432.3151)" class="st0 st25">I</text>
	<text transform="matrix(2.4056 0 0 1 304.8359 423.737)" class="st0 st11">L</text>
	<text transform="matrix(6.5629 0 0 1 326.6875 458.0339)" class="st0 st26">W</text>
	<text transform="matrix(9.5705 0 0 1 326.3125 455.0261)" class="st0 st26">V</text>
	<text transform="matrix(10.2944 0 0 1 326.6016 451.7839)" class="st0 st26">T</text>
	<text transform="matrix(11.2405 0 0 1 324.1641 448.5417)" class="st0 st26">P</text>
	<text transform="matrix(10.07 0 0 1 324.7109 445.5495)" class="st0 st26">K</text>
	<text transform="matrix(12.0307 0 0 1 323.9531 442.2917)" class="st0 st26">F</text>
	<text transform="matrix(9.3616 0 0 1 326.6094 439.0495)" class="st0 st26">A</text>
	<text transform="matrix(3.8586 0 0 1 326.0469 435.4167)" class="st0 st27">Q</text>
	<text transform="matrix(5.3433 0 0 1 324.0312 429.5651)" class="st0 st28">L</text>
	<text transform="matrix(8.4316 0 0 1 343.5156 458.0261)" class="st0 st12">R</text>
	<text transform="matrix(10.7976 0 0 1 343.2266 454.5573)" class="st0 st12">L</text>
	<text transform="matrix(8.2754 0 0 1 343.9062 450.862)" class="st0 st12">K</text>
	<text transform="matrix(4.915 0 0 1 352.7344 447.1589)" class="st0 st29">I</text>
	<text transform="matrix(8.4316 0 0 1 343.7344 443.4479)" class="st0 st12">D</text>
	<text transform="matrix(3.8859 0 0 1 343.3594 439.9792)" class="st0 st14">P</text>
	<text transform="matrix(3.6658 0 0 1 343.7109 432.5651)" class="st0 st14">H</text>
	<text transform="matrix(3.2363 0 0 1 345.8047 425.1589)" class="st0 st14">A</text>
	<text transform="matrix(3.5329 0 0 1 363.5 458.0339)" class="st0 st30">M</text>
	<text transform="matrix(5.3381 0 0 1 362.4219 451.7761)" class="st0 st30">L</text>
	<text transform="matrix(2.4298 0 0 1 371.9219 445.5182)" class="st0 st31">I</text>
	<text transform="matrix(1.7341 0 0 1 364.8828 439.0182)" class="st0 st32">Y</text>
	<text transform="matrix(0.5901 0 0 1 363.0938 426.2682)" class="st0 st33">K</text>
</g>
</svg>
