<?xml version="1.0" encoding="utf-8"?>
<!-- Generator: Adobe Illustrator 24.3.0, SVG Export Plug-In . SVG Version: 6.00 Build 0)  -->
<svg version="1.1" id="Layer_1" xmlns="http://www.w3.org/2000/svg" xmlns:xlink="http://www.w3.org/1999/xlink" x="0px" y="0px"
	 viewBox="0 0 595.28 841.89" style="enable-background:new 0 0 595.28 841.89;" xml:space="preserve">
<style type="text/css">
	.st0{font-family:'Helvetica-Narrow-Bold';}
	.st1{font-size:15.3648px;}
	.st2{font-size:15.3857px;}
	.st3{font-size:48.8821px;}
	.st4{font-size:17.5734px;}
	.st5{font-size:36.5406px;}
	.st6{font-size:50.1315px;}
	.st7{font-size:9.6076px;}
	.st8{font-size:10.1154px;}
	.st9{font-size:10.1155px;}
	.st10{font-size:12.324px;}
	.st11{font-size:12.3241px;}
	.st12{font-size:26.0419px;}
	.st13{font-size:14.5326px;}
	.st14{font-size:14.5327px;}
	.st15{font-size:30.4591px;}
	.st16{font-size:28.9281px;}
	.st17{font-size:12.3401px;}
	.st18{font-size:24.7316px;}
	.st19{font-size:17.5733px;}
	.st20{font-size:55.5077px;}
	.st21{font-size:64.6335px;}
	.st22{font-size:64.6337px;}
</style>
<g>
	<text transform="matrix(1.8141 0 0 1 211.2656 464.2775)" class="st0 st1">R</text>
	<text transform="matrix(1.7804 0 0 1 211.6094 452.4572)" class="st0 st1">K</text>
	<text transform="matrix(1.0579 0 0 1 219.3594 440.3947)" class="st0 st2">I</text>
	<text transform="matrix(0.7302 0 0 1 211 428.3322)" class="st0 st3">L</text>
	<text transform="matrix(2.0312 0 0 1 228.2734 464.2853)" class="st0 st4">L</text>
	<text transform="matrix(0.6465 0 0 1 229.2422 450.7228)" class="st0 st5">M</text>
	<text transform="matrix(0.4645 0 0 1 230.0859 420.7072)" class="st0 st6">Q</text>
	<text transform="matrix(1.8141 0 0 1 245.8125 464.2775)" class="st0 st1">R</text>
	<text transform="matrix(2.3231 0 0 1 245.5547 452.4572)" class="st0 st1">L</text>
	<text transform="matrix(1.7804 0 0 1 246.1562 440.3947)" class="st0 st1">K</text>
	<text transform="matrix(0.5203 0 0 1 247.8516 428.3322)" class="st0 st3">A</text>
	<text transform="matrix(3.0307 0 0 1 264.1719 464.0822)" class="st0 st7">S</text>
	<text transform="matrix(3.0189 0 0 1 262.9375 456.1525)" class="st0 st8">P</text>
	<text transform="matrix(2.3353 0 0 1 263.7891 447.7932)" class="st0 st8">M</text>
	<text transform="matrix(3.5287 0 0 1 262.8281 439.6682)" class="st0 st9">L</text>
	<text transform="matrix(2.7555 0 0 1 263.2812 431.301)" class="st0 st8">D</text>
	<text transform="matrix(2.5141 0 0 1 265.1328 423.176)" class="st0 st8">A</text>
	<text transform="matrix(2.2692 0 0 1 282.3906 464.2775)" class="st0 st10">T</text>
	<text transform="matrix(2.3377 0 0 1 280.5312 454.6682)" class="st0 st11">H</text>
	<text transform="matrix(2.5013 0 0 1 280.1953 444.8166)" class="st0 st11">E</text>
	<text transform="matrix(2.0636 0 0 1 282.4062 434.9494)" class="st0 st10">A</text>
	<text transform="matrix(1.3707 0 0 1 280.1016 425.0978)" class="st0 st12">L</text>
	<text transform="matrix(2.4562 0 0 1 297.375 464.2775)" class="st0 st13">L</text>
	<text transform="matrix(1.918 0 0 1 297.8281 452.926)" class="st0 st14">D</text>
	<text transform="matrix(0.9151 0 0 1 297.6328 441.5822)" class="st0 st15">R</text>
	<text transform="matrix(0.871 0 0 1 298.8828 418.0978)" class="st0 st16">G</text>
	<text transform="matrix(2.1098 0 0 1 316.6875 464.2775)" class="st0 st10">V</text>
	<text transform="matrix(2.2692 0 0 1 316.9375 454.6682)" class="st0 st11">T</text>
	<text transform="matrix(2.2617 0 0 1 314.9062 444.8166)" class="st0 st11">R</text>
	<text transform="matrix(2.0636 0 0 1 316.9531 434.9494)" class="st0 st10">A</text>
	<text transform="matrix(1.3707 0 0 1 314.6484 425.0978)" class="st0 st12">L</text>
	<text transform="matrix(2.0572 0 0 1 334.125 464.2775)" class="st0 st10">Y</text>
	<text transform="matrix(2.2692 0 0 1 334.2188 454.6682)" class="st0 st11">T</text>
	<text transform="matrix(2.8963 0 0 1 331.9219 444.8166)" class="st0 st11">L</text>
	<text transform="matrix(1.319 0 0 1 340.2812 434.9494)" class="st0 st17">I</text>
	<text transform="matrix(1.1773 0 0 1 333.2656 424.5666)" class="st0 st18">S</text>
	<text transform="matrix(1.6394 0 0 1 349.7188 464.2775)" class="st0 st19">N</text>
	<text transform="matrix(0.8357 0 0 1 349.3125 450.7228)" class="st0 st5">P</text>
	<text transform="matrix(0.4582 0 0 1 351.5 423.6135)" class="st0 st20">A</text>
	<text transform="matrix(0.3923 0 0 1 368.6797 464.2775)" class="st0 st21">Y</text>
	<text transform="matrix(0.5057 0 0 1 366.4062 416.9885)" class="st0 st22">F</text>
</g>
</svg>
