<?xml version="1.0" encoding="utf-8"?>
<!-- Generator: Adobe Illustrator 24.3.0, SVG Export Plug-In . SVG Version: 6.00 Build 0)  -->
<svg version="1.1" id="Layer_1" xmlns="http://www.w3.org/2000/svg" xmlns:xlink="http://www.w3.org/1999/xlink" x="0px" y="0px"
	 viewBox="0 0 595.28 841.89" style="enable-background:new 0 0 595.28 841.89;" xml:space="preserve">
<style type="text/css">
	.st0{font-family:'Helvetica-Narrow-Bold';}
	.st1{font-size:2.9116px;}
	.st2{font-size:2.7652px;}
	.st3{font-size:7.2209px;}
	.st4{font-size:11.5264px;}
	.st5{font-size:10.4359px;}
	.st6{font-size:141.0188px;}
	.st7{font-size:2.1523px;}
	.st8{font-size:1.9441px;}
	.st9{font-size:5.6986px;}
	.st10{font-size:5.7071px;}
	.st11{font-size:3.6746px;}
	.st12{font-size:3.4884px;}
	.st13{font-size:13.8079px;}
	.st14{font-size:3.8174px;}
	.st15{font-size:4.2258px;}
	.st16{font-size:9.3503px;}
	.st17{font-size:15.4618px;}
	.st18{font-size:4.2554px;}
	.st19{font-size:26.8377px;}
	.st20{font-size:2.7036px;}
	.st21{font-size:2.5672px;}
	.st22{font-size:6.8011px;}
	.st23{font-size:6.8128px;}
	.st24{font-size:5.8833px;}
	.st25{font-size:5.5849px;}
	.st26{font-size:5.8923px;}
	.st27{font-size:13.1568px;}
	.st28{font-size:42.2582px;}
</style>
<g>
	<text transform="matrix(9.7345 0 0 1 212.4688 472.1501)" class="st0 st1">Y</text>
	<text transform="matrix(6.8457 0 0 1 212.6562 469.0954)" class="st0 st1">W</text>
	<text transform="matrix(9.9829 0 0 1 212.2734 466.0251)" class="st0 st1">V</text>
	<text transform="matrix(11.7721 0 0 1 211.5 462.9001)" class="st0 st2">S</text>
	<text transform="matrix(13.7051 0 0 1 210 459.9079)" class="st0 st1">L</text>
	<text transform="matrix(11.0608 0 0 1 210.4922 456.8376)" class="st0 st1">H</text>
	<text transform="matrix(10.1864 0 0 1 211.6875 453.7204)" class="st0 st2">G</text>
	<text transform="matrix(4.3153 0 0 1 210.2969 450.7048)" class="st0 st3">R</text>
	<text transform="matrix(2.4667 0 0 1 212.5781 444.3376)" class="st0 st4">A</text>
	<text transform="matrix(2.4944 0 0 1 231.2109 471.5563)" class="st0 st5">Q</text>
	<text transform="matrix(0.2444 0 0 1 229.2969 462.9235)" class="st0 st6">E</text>
	<text transform="matrix(14.4775 0 0 1 248.6797 472.1579)" class="st0 st7">R</text>
	<text transform="matrix(13.3899 0 0 1 250.3984 469.5954)" class="st0 st8">Q</text>
	<text transform="matrix(14.963 0 0 1 248.9766 467.2516)" class="st0 st7">N</text>
	<text transform="matrix(12.2702 0 0 1 249.4609 464.5641)" class="st0 st7">M</text>
	<text transform="matrix(18.5399 0 0 1 248.3906 462.111)" class="st0 st7">L</text>
	<text transform="matrix(14.2093 0 0 1 249.0625 459.6579)" class="st0 st7">K</text>
	<text transform="matrix(16.9763 0 0 1 248.3047 456.9626)" class="st0 st7">F</text>
	<text transform="matrix(14.4774 0 0 1 248.8906 454.5173)" class="st0 st7">D</text>
	<text transform="matrix(3.4978 0 0 1 251.0469 451.8141)" class="st0 st9">W</text>
	<text transform="matrix(3.1884 0 0 1 257.8906 446.9235)" class="st0 st10">I</text>
	<text transform="matrix(8.4799 0 0 1 267.875 472.1501)" class="st0 st11">R</text>
	<text transform="matrix(8.7642 0 0 1 268.1719 468.7204)" class="st0 st11">N</text>
	<text transform="matrix(8.3229 0 0 1 268.2656 465.0407)" class="st0 st11">K</text>
	<text transform="matrix(8.7642 0 0 1 268.0703 461.3688)" class="st0 st11">H</text>
	<text transform="matrix(8.0748 0 0 1 269.2734 457.6188)" class="st0 st12">G</text>
	<text transform="matrix(7.7375 0 0 1 270.1641 454.0173)" class="st0 st11">A</text>
	<text transform="matrix(2.4959 0 0 1 267.6875 450.3454)" class="st0 st13">E</text>
	<text transform="matrix(2.2567 0 0 1 268.1016 439.5485)" class="st0 st13">D</text>
	<text transform="matrix(6.8191 0 0 1 288.7891 471.9391)" class="st0 st14">Q</text>
	<text transform="matrix(8.0786 0 0 1 286.9141 468.1657)" class="st0 st15">P</text>
	<text transform="matrix(9.4429 0 0 1 286.7812 464.1813)" class="st0 st15">L</text>
	<text transform="matrix(7.621 0 0 1 287.2656 460.1891)" class="st0 st15">H</text>
	<text transform="matrix(3.0125 0 0 1 288.4609 456.0251)" class="st0 st16">G</text>
	<text transform="matrix(2.0153 0 0 1 287.0703 447.9782)" class="st0 st17">R</text>
	<text transform="matrix(2.0153 0 0 1 287.2891 436.0173)" class="st0 st17">D</text>
	<text transform="matrix(4.684 0 0 1 308.625 472.1501)" class="st0 st18">W</text>
	<text transform="matrix(6.8306 0 0 1 308.2578 468.1266)" class="st0 st18">V</text>
	<text transform="matrix(7.3226 0 0 1 306.2578 464.1032)" class="st0 st18">R</text>
	<text transform="matrix(8.0225 0 0 1 306.1016 460.072)" class="st0 st18">P</text>
	<text transform="matrix(8.5865 0 0 1 305.8984 456.0329)" class="st0 st18">F</text>
	<text transform="matrix(7.3226 0 0 1 306.4844 452.0173)" class="st0 st18">D</text>
	<text transform="matrix(6.6815 0 0 1 308.5469 447.986)" class="st0 st18">A</text>
	<text transform="matrix(1.4869 0 0 1 305.9766 443.9548)" class="st0 st19">L</text>
	<text transform="matrix(10.7512 0 0 1 327.4453 472.1579)" class="st0 st20">V</text>
	<text transform="matrix(11.564 0 0 1 327.7344 469.3845)" class="st0 st20">T</text>
	<text transform="matrix(12.6802 0 0 1 326.6641 466.3298)" class="st0 st21">S</text>
	<text transform="matrix(11.5254 0 0 1 325.4531 463.3766)" class="st0 st20">R</text>
	<text transform="matrix(12.7472 0 0 1 325.2734 460.6188)" class="st0 st20">E</text>
	<text transform="matrix(11.2687 0 0 1 326.9297 457.5641)" class="st0 st21">C</text>
	<text transform="matrix(5.8673 0 0 1 325.1641 454.611)" class="st0 st22">L</text>
	<text transform="matrix(2.671 0 0 1 334.6719 448.8376)" class="st0 st23">I</text>
	<text transform="matrix(4.7353 0 0 1 325.6562 442.8298)" class="st0 st22">H</text>
	<text transform="matrix(10.4833 0 0 1 346.8203 472.1501)" class="st0 st20">Y</text>
	<text transform="matrix(10.751 0 0 1 346.6406 469.3845)" class="st0 st20">V</text>
	<text transform="matrix(11.5642 0 0 1 346.9297 466.3923)" class="st0 st20">T</text>
	<text transform="matrix(12.627 0 0 1 344.4922 463.3766)" class="st0 st20">P</text>
	<text transform="matrix(14.7598 0 0 1 344.3594 460.6188)" class="st0 st20">L</text>
	<text transform="matrix(10.5163 0 0 1 346.9375 457.611)" class="st0 st20">A</text>
	<text transform="matrix(4.4968 0 0 1 345.0391 454.611)" class="st0 st22">K</text>
	<text transform="matrix(5.3725 0 0 1 344.2812 448.8376)" class="st0 st22">F</text>
	<text transform="matrix(5.0673 0 0 1 344.4609 442.8298)" class="st0 st22">E</text>
	<text transform="matrix(4.9406 0 0 1 365.8359 472.1579)" class="st0 st24">V</text>
	<text transform="matrix(5.8286 0 0 1 365.0547 466.8688)" class="st0 st25">S</text>
	<text transform="matrix(3.0882 0 0 1 373.0547 461.8141)" class="st0 st26">I</text>
	<text transform="matrix(6.2106 0 0 1 363.4766 456.6501)" class="st0 st24">F</text>
	<text transform="matrix(2.161 0 0 1 366.1328 451.486)" class="st0 st27">A</text>
	<text transform="matrix(0.9443 0 0 1 363.5547 440.9079)" class="st0 st28">L</text>
</g>
</svg>
