<?xml version="1.0" encoding="utf-8"?>
<!-- Generator: Adobe Illustrator 24.3.0, SVG Export Plug-In . SVG Version: 6.00 Build 0)  -->
<svg version="1.1" id="Layer_1" xmlns="http://www.w3.org/2000/svg" xmlns:xlink="http://www.w3.org/1999/xlink" x="0px" y="0px"
	 viewBox="0 0 595.28 841.89" style="enable-background:new 0 0 595.28 841.89;" xml:space="preserve">
<style type="text/css">
	.st0{font-family:'Helvetica-Narrow-Bold';}
	.st1{font-size:27.2302px;}
	.st2{font-size:113.0953px;}
	.st3{font-size:22.07px;}
	.st4{font-size:68.9942px;}
	.st5{font-size:20.8705px;}
	.st6{font-size:43.1313px;}
	.st7{font-size:43.1312px;}
	.st8{font-size:40.9634px;}
	.st9{font-size:14.5071px;}
	.st10{font-size:13.103px;}
	.st11{font-size:170.416px;}
	.st12{font-size:17.6888px;}
	.st13{font-size:17.6889px;}
	.st14{font-size:36.7715px;}
	.st15{font-size:16.8005px;}
	.st16{font-size:17.7125px;}
</style>
<g>
	<text transform="matrix(1.3419 0 0 1 211 471.529)" class="st0 st1">F</text>
	<text transform="matrix(0.3047 0 0 1 211.1797 451.0602)" class="st0 st2">E</text>
	<text transform="matrix(1.8081 0 0 1 230.2656 471.5212)" class="st0 st3">L</text>
	<text transform="matrix(1.6556 0 0 1 230.1953 454.8727)" class="st0 st3">F</text>
	<text transform="matrix(0.4995 0 0 1 230.375 437.9821)" class="st0 st4">E</text>
	<text transform="matrix(1.493 0 0 1 249.75 471.5212)" class="st0 st5">R</text>
	<text transform="matrix(0.6571 0 0 1 251.9297 455.6384)" class="st0 st6">Y</text>
	<text transform="matrix(0.8472 0 0 1 249.3906 423.6227)" class="st0 st7">F</text>
	<text transform="matrix(0.955 0 0 1 271.3125 471.5212)" class="st0 st5">W</text>
	<text transform="matrix(0.9252 0 0 1 268.6484 455.6384)" class="st0 st6">L</text>
	<text transform="matrix(0.6876 0 0 1 270.3359 422.8493)" class="st0 st8">G</text>
	<text transform="matrix(2.1479 0 0 1 288.1406 471.529)" class="st0 st9">R</text>
	<text transform="matrix(1.9867 0 0 1 289.8672 459.4509)" class="st0 st10">Q</text>
	<text transform="matrix(2.1082 0 0 1 288.5234 448.904)" class="st0 st9">K</text>
	<text transform="matrix(2.1479 0 0 1 288.3594 437.3415)" class="st0 st9">D</text>
	<text transform="matrix(1.9599 0 0 1 290.4297 426.029)" class="st0 st9">A</text>
	<text transform="matrix(0.1668 0 0 1 309.6172 471.529)" class="st0 st11">A</text>
	<text transform="matrix(1.6023 0 0 1 328.7031 471.5212)" class="st0 st12">Y</text>
	<text transform="matrix(1.1268 0 0 1 328.8906 458.0446)" class="st0 st13">W</text>
	<text transform="matrix(1.8206 0 0 1 326.8281 444.3259)" class="st0 st13">N</text>
	<text transform="matrix(0.9937 0 0 1 326.1562 430.6071)" class="st0 st14">F</text>
	<text transform="matrix(1.9376 0 0 1 346.9297 471.1696)" class="st0 st15">S</text>
	<text transform="matrix(1.6766 0 0 1 347.1094 457.7321)" class="st0 st15">G</text>
	<text transform="matrix(1.7616 0 0 1 345.9375 444.3259)" class="st0 st13">D</text>
	<text transform="matrix(0.8502 0 0 1 347.9922 430.6071)" class="st0 st14">T</text>
	<text transform="matrix(1.6023 0 0 1 367.0859 471.5212)" class="st0 st12">Y</text>
	<text transform="matrix(2.2559 0 0 1 364.625 458.0446)" class="st0 st13">L</text>
	<text transform="matrix(1.0273 0 0 1 374.125 444.3259)" class="st0 st16">I</text>
	<text transform="matrix(0.9937 0 0 1 364.5469 430.6071)" class="st0 st14">F</text>
</g>
</svg>
