<?xml version="1.0" encoding="utf-8"?>
<!-- Generator: Adobe Illustrator 24.3.0, SVG Export Plug-In . SVG Version: 6.00 Build 0)  -->
<svg version="1.1" id="Layer_1" xmlns="http://www.w3.org/2000/svg" xmlns:xlink="http://www.w3.org/1999/xlink" x="0px" y="0px"
	 viewBox="0 0 595.28 841.89" style="enable-background:new 0 0 595.28 841.89;" xml:space="preserve">
<style type="text/css">
	.st0{font-family:'Helvetica-Narrow-Bold';}
	.st1{font-size:64.6335px;}
	.st2{font-size:64.6337px;}
	.st3{font-size:58.3756px;}
	.st4{font-size:58.3758px;}
	.st5{font-size:61.3845px;}
</style>
<g>
	<text transform="matrix(0.4327 0 0 1 214.2031 464.2775)" class="st0 st1">T</text>
	<text transform="matrix(0.4769 0 0 1 212 416.9885)" class="st0 st2">E</text>
	<text transform="matrix(0.5523 0 0 1 229.1875 464.2775)" class="st0 st1">L</text>
	<text transform="matrix(0.4769 0 0 1 229.2812 416.9885)" class="st0 st2">E</text>
	<text transform="matrix(0.3989 0 0 1 248.2656 460.8947)" class="st0 st3">Q</text>
	<text transform="matrix(0.4725 0 0 1 246.5781 416.9885)" class="st0 st2">P</text>
	<text transform="matrix(0.4313 0 0 1 263.9922 464.2775)" class="st0 st1">R</text>
	<text transform="matrix(0.3989 0 0 1 265.5391 413.6057)" class="st0 st4">Q</text>
	<text transform="matrix(0.2758 0 0 1 283.3828 464.2775)" class="st0 st1">W</text>
	<text transform="matrix(0.4232 0 0 1 281.6094 416.9885)" class="st0 st2">K</text>
	<text transform="matrix(0.4327 0 0 1 300.5703 464.2775)" class="st0 st1">T</text>
	<text transform="matrix(0.5523 0 0 1 298.2812 416.9885)" class="st0 st2">L</text>
	<text transform="matrix(0.4743 0 0 1 316.8984 462.9963)" class="st0 st5">S</text>
	<text transform="matrix(0.5057 0 0 1 315.4922 416.9885)" class="st0 st2">F</text>
	<text transform="matrix(0.4023 0 0 1 334.8672 464.2775)" class="st0 st1">V</text>
	<text transform="matrix(0.3935 0 0 1 335.1328 416.9885)" class="st0 st2">A</text>
	<text transform="matrix(0.4458 0 0 1 350.625 464.2775)" class="st0 st1">N</text>
	<text transform="matrix(0.4769 0 0 1 350.1953 416.9885)" class="st0 st2">E</text>
	<text transform="matrix(0.4313 0 0 1 367.6406 464.2775)" class="st0 st1">R</text>
	<text transform="matrix(0.5523 0 0 1 367.375 416.9885)" class="st0 st2">L</text>
</g>
</svg>
