<?xml version="1.0" encoding="utf-8"?>
<!-- Generator: Adobe Illustrator 24.3.0, SVG Export Plug-In . SVG Version: 6.00 Build 0)  -->
<svg version="1.1" id="Layer_1" xmlns="http://www.w3.org/2000/svg" xmlns:xlink="http://www.w3.org/1999/xlink" x="0px" y="0px"
	 viewBox="0 0 595.28 841.89" style="enable-background:new 0 0 595.28 841.89;" xml:space="preserve">
<style type="text/css">
	.st0{font-family:'Helvetica-Narrow-Bold';}
	.st1{font-size:0.256px;}
	.st2{font-size:0.2415px;}
	.st3{font-size:0.2561px;}
	.st4{font-size:0.1463px;}
	.st5{font-size:0.4737px;}
	.st6{font-size:0.7844px;}
	.st7{font-size:0.7053px;}
	.st8{font-size:0.7795px;}
	.st9{font-size:1.2127px;}
	.st10{font-size:2.9528px;}
	.st11{font-size:0.766px;}
	.st12{font-size:1.2479px;}
	.st13{font-size:1.6888px;}
	.st14{font-size:2.8591px;}
	.st15{font-size:10px;}
	.st16{font-size:0.3309px;}
	.st17{font-size:0.3515px;}
	.st18{font-size:1.0459px;}
	.st19{font-size:1.0488px;}
	.st20{font-size:0.2058px;}
	.st21{font-size:0.2063px;}
	.st22{font-size:0.8485px;}
	.st23{font-size:0.3128px;}
	.st24{font-size:0.2996px;}
	.st25{font-size:0.1928px;}
	.st26{font-size:0.1929px;}
	.st27{font-size:0.1844px;}
	.st28{font-size:0.687px;}
	.st29{font-size:0.723px;}
	.st30{font-size:1.7796px;}
	.st31{font-size:2.8361px;}
	.st32{font-size:3.8964px;}
	.st33{font-size:0.0897px;}
	.st34{font-size:0.0798px;}
	.st35{font-size:3.0543px;}
	.st36{font-size:4.533px;}
	.st37{font-size:6.0166px;}
	.st38{font-size:20.8302px;}
	.st39{font-size:34.164px;}
</style>
<g>
	<text transform="matrix(1 0 0 1 211.5547 445.1652)" class="st0 st1">Y</text>
	<text transform="matrix(1 0 0 1 210.5859 443.9933)" class="st0 st2">S</text>
	<text transform="matrix(1 0 0 1 209 442.8293)" class="st0 st3">F</text>
	<text transform="matrix(1 0 0 1 230.2734 445.6262)" class="st0 st4">Q</text>
	<text transform="matrix(77.1358 0 0 1 228.2031 444.6027)" class="st0 st5">F</text>
	<text transform="matrix(36.1344 0 0 1 230.7188 443.3605)" class="st0 st6">Y</text>
	<text transform="matrix(39.7264 0 0 1 228.5547 441.6808)" class="st0 st6">R</text>
	<text transform="matrix(36.9075 0 0 1 249.4688 444.9855)" class="st0 st7">Q</text>
	<text transform="matrix(33.8822 0 0 1 248.5469 443.3449)" class="st0 st8">M</text>
	<text transform="matrix(36.4771 0 0 1 250.0469 441.8918)" class="st0 st8">A</text>
	<text transform="matrix(25.695 0 0 1 247.9766 440.2199)" class="st0 st9">D</text>
	<text transform="matrix(9.5985 0 0 1 249.9297 438.3918)" class="st0 st10">Y</text>
	<text transform="matrix(36.7723 0 0 1 268.3438 445.7433)" class="st0 st11">G</text>
	<text transform="matrix(27.3578 0 0 1 266.7812 444.2824)" class="st0 st12">P</text>
	<text transform="matrix(22.7849 0 0 1 269.2344 442.4074)" class="st0 st12">A</text>
	<text transform="matrix(20.4074 0 0 1 266.75 440.5324)" class="st0 st13">E</text>
	<text transform="matrix(11.3854 0 0 1 268.1562 438.2043)" class="st0 st14">S</text>
	<text transform="matrix(1 0 0 1 288.1172 447.5949)" class="st0 st15">V</text>
	<text transform="matrix(1 0 0 1 286.9375 446.5637)" class="st0 st15">M</text>
	<text transform="matrix(1 0 0 1 288.4375 445.7668)" class="st0 st15">A</text>
	<text transform="matrix(98.3768 0 0 1 287.3594 444.7043)" class="st0 st16">S</text>
	<text transform="matrix(97.1291 0 0 1 285.9766 443.423)" class="st0 st17">P</text>
	<text transform="matrix(38.1522 0 0 1 285.8516 442.1105)" class="st0 st18">L</text>
	<text transform="matrix(17.3497 0 0 1 295.3516 440.5324)" class="st0 st19">I</text>
	<text transform="matrix(1 0 0 1 305.3281 445.923)" class="st0 st20">R</text>
	<text transform="matrix(1 0 0 1 306.125 444.8293)" class="st0 st20">M</text>
	<text transform="matrix(1 0 0 1 305.0391 443.7355)" class="st0 st20">L</text>
	<text transform="matrix(88.2044 0 0 1 314.5469 442.6262)" class="st0 st21">I</text>
	<text transform="matrix(36.8453 0 0 1 307.6172 441.2902)" class="st0 st22">T</text>
	<text transform="matrix(1 0 0 1 326.7109 447.2043)" class="st0 st15">Y</text>
	<text transform="matrix(99.9416 0 0 1 326.8125 446.134)" class="st0 st23">T</text>
	<text transform="matrix(1 0 0 1 325.7188 444.8762)" class="st0 st24">S</text>
	<text transform="matrix(1 0 0 1 324.3594 443.634)" class="st0 st23">P</text>
	<text transform="matrix(1 0 0 1 324.8281 442.384)" class="st0 st23">N</text>
	<text transform="matrix(1 0 0 1 345.7188 450.9465)" class="st0 st25">V</text>
	<text transform="matrix(1 0 0 1 346 449.8762)" class="st0 st26">T</text>
	<text transform="matrix(1 0 0 1 343.7344 448.5558)" class="st0 st25">R</text>
	<text transform="matrix(1 0 0 1 343.3594 447.4855)" class="st0 st25">F</text>
	<text transform="matrix(1 0 0 1 345.1719 446.3996)" class="st0 st27">C</text>
	<text transform="matrix(47.3851 0 0 1 344.9375 445.3137)" class="st0 st28">S</text>
	<text transform="matrix(47.2212 0 0 1 343.5547 443.7355)" class="st0 st29">P</text>
	<text transform="matrix(39.328 0 0 1 346.0156 442.1262)" class="st0 st29">A</text>
	<text transform="matrix(17.1858 0 0 1 344.1094 440.7746)" class="st0 st30">K</text>
	<text transform="matrix(9.9935 0 0 1 345.8906 438.3762)" class="st0 st31">Y</text>
	<text transform="matrix(10.2413 0 0 1 343.4297 435.423)" class="st0 st32">L</text>
	<text transform="matrix(1 0 0 1 365.0938 452.3058)" class="st0 st33">Y</text>
	<text transform="matrix(1 0 0 1 362.9062 451.3762)" class="st0 st33">R</text>
	<text transform="matrix(1 0 0 1 364.625 450.2199)" class="st0 st34">Q</text>
	<text transform="matrix(1 0 0 1 363.2969 449.2902)" class="st0 st33">K</text>
	<text transform="matrix(5.9578 0 0 1 372.125 448.1183)" class="st0 st35">I</text>
	<text transform="matrix(6.4122 0 0 1 364.9062 445.0949)" class="st0 st36">V</text>
	<text transform="matrix(4.3895 0 0 1 363.7031 440.6652)" class="st0 st37">M</text>
	<text transform="matrix(1.7541 0 0 1 362.5469 435.3137)" class="st0 st38">F</text>
	<text transform="matrix(1.168 0 0 1 362.625 419.4855)" class="st0 st39">L</text>
</g>
</svg>
