<?xml version="1.0" encoding="utf-8"?>
<!-- Generator: Adobe Illustrator 24.3.0, SVG Export Plug-In . SVG Version: 6.00 Build 0)  -->
<svg version="1.1" id="Layer_1" xmlns="http://www.w3.org/2000/svg" xmlns:xlink="http://www.w3.org/1999/xlink" x="0px" y="0px"
	 viewBox="0 0 595.28 841.89" style="enable-background:new 0 0 595.28 841.89;" xml:space="preserve">
<style type="text/css">
	.st0{font-family:'Helvetica-Narrow-Bold';}
	.st1{font-size:10.1154px;}
	.st2{font-size:9.6077px;}
	.st3{font-size:9.1338px;}
	.st4{font-size:10.1155px;}
	.st5{font-size:21.7813px;}
	.st6{font-size:120.246px;}
	.st7{font-size:12.324px;}
	.st8{font-size:12.3402px;}
	.st9{font-size:11.704px;}
	.st10{font-size:26.042px;}
	.st11{font-size:12.3241px;}
	.st12{font-size:26.0419px;}
	.st13{font-size:10.129px;}
	.st14{font-size:9.6076px;}
	.st15{font-size:13.1239px;}
	.st16{font-size:14.5327px;}
	.st17{font-size:30.4591px;}
	.st18{font-size:30.4592px;}
	.st19{font-size:11.1307px;}
	.st20{font-size:24.7316px;}
</style>
<g>
	<text transform="matrix(2.5064 0 0 1 212.2422 473.9504)" class="st0 st1">Y</text>
	<text transform="matrix(2.5704 0 0 1 212.0703 465.8254)" class="st0 st1">V</text>
	<text transform="matrix(2.7647 0 0 1 212.3281 457.466)" class="st0 st1">T</text>
	<text transform="matrix(3.0307 0 0 1 211.375 449.1379)" class="st0 st2">S</text>
	<text transform="matrix(2.5496 0 0 1 211.8359 440.4426)" class="st0 st3">Q</text>
	<text transform="matrix(2.3353 0 0 1 211 432.8488)" class="st0 st4">M</text>
	<text transform="matrix(1.1881 0 0 1 228.8828 473.5363)" class="st0 st5">C</text>
	<text transform="matrix(0.2564 0 0 1 227.4062 456.5363)" class="st0 st6">E</text>
	<text transform="matrix(2.2617 0 0 1 244.8438 473.9504)" class="st0 st7">R</text>
	<text transform="matrix(1.319 0 0 1 252.9453 464.341)" class="st0 st8">I</text>
	<text transform="matrix(2.1528 0 0 1 246.0859 454.2629)" class="st0 st9">G</text>
	<text transform="matrix(2.5013 0 0 1 244.6719 444.6223)" class="st0 st7">E</text>
	<text transform="matrix(0.9984 0 0 1 246.625 434.7707)" class="st0 st10">V</text>
	<text transform="matrix(1.4466 0 0 1 264.2344 473.9504)" class="st0 st7">W</text>
	<text transform="matrix(2.2617 0 0 1 262.1172 464.341)" class="st0 st11">R</text>
	<text transform="matrix(1.9168 0 0 1 262.8203 454.4894)" class="st0 st11">M</text>
	<text transform="matrix(2.2617 0 0 1 262.3125 444.6223)" class="st0 st7">D</text>
	<text transform="matrix(1.1837 0 0 1 261.9531 434.7707)" class="st0 st12">E</text>
	<text transform="matrix(2.2617 0 0 1 279.3906 473.9504)" class="st0 st7">R</text>
	<text transform="matrix(2.4779 0 0 1 279.25 464.341)" class="st0 st11">P</text>
	<text transform="matrix(2.5013 0 0 1 279.2266 454.4894)" class="st0 st11">E</text>
	<text transform="matrix(2.211 0 0 1 280.7109 444.3957)" class="st0 st9">C</text>
	<text transform="matrix(1.0739 0 0 1 281.4219 434.7707)" class="st0 st10">T</text>
	<text transform="matrix(2.5064 0 0 1 298.6094 473.9504)" class="st0 st1">Y</text>
	<text transform="matrix(2.7555 0 0 1 296.6641 465.8254)" class="st0 st1">R</text>
	<text transform="matrix(2.8482 0 0 1 296.9297 457.466)" class="st0 st1">N</text>
	<text transform="matrix(1.607 0 0 1 304.7656 449.341)" class="st0 st13">I</text>
	<text transform="matrix(2.6226 0 0 1 297.9062 440.7863)" class="st0 st14">G</text>
	<text transform="matrix(3.2311 0 0 1 296.3438 432.8488)" class="st0 st4">F</text>
	<text transform="matrix(2.5704 0 0 1 315.7188 473.9504)" class="st0 st1">V</text>
	<text transform="matrix(3.0307 0 0 1 315.0234 465.6301)" class="st0 st2">S</text>
	<text transform="matrix(1.607 0 0 1 322.0391 457.466)" class="st0 st13">I</text>
	<text transform="matrix(2.6226 0 0 1 315.1797 449.1535)" class="st0 st14">G</text>
	<text transform="matrix(3.2311 0 0 1 313.6172 440.9738)" class="st0 st4">F</text>
	<text transform="matrix(2.6935 0 0 1 315.2578 432.6613)" class="st0 st14">C</text>
	<text transform="matrix(1.7745 0 0 1 332.7578 473.1926)" class="st0 st15">Q</text>
	<text transform="matrix(1.9825 0 0 1 331.3906 462.5988)" class="st0 st16">H</text>
	<text transform="matrix(1.1719 0 0 1 330.9531 451.2551)" class="st0 st17">L</text>
	<text transform="matrix(1.073 0 0 1 330.8906 428.3254)" class="st0 st18">F</text>
	<text transform="matrix(2.0572 0 0 1 350.4375 473.9504)" class="st0 st7">Y</text>
	<text transform="matrix(2.0922 0 0 1 350.0312 463.6926)" class="st0 st19">Q</text>
	<text transform="matrix(2.8963 0 0 1 348.2266 454.4894)" class="st0 st11">L</text>
	<text transform="matrix(2.2197 0 0 1 348.8359 444.6223)" class="st0 st7">K</text>
	<text transform="matrix(1.1773 0 0 1 349.5781 434.2394)" class="st0 st20">S</text>
	<text transform="matrix(2.5064 0 0 1 367.7031 473.9504)" class="st0 st1">Y</text>
	<text transform="matrix(2.7647 0 0 1 367.7969 465.8254)" class="st0 st1">T</text>
	<text transform="matrix(3.5287 0 0 1 365.5 457.466)" class="st0 st1">L</text>
	<text transform="matrix(1.607 0 0 1 374.1016 449.341)" class="st0 st13">I</text>
	<text transform="matrix(2.6226 0 0 1 367 440.7863)" class="st0 st14">G</text>
	<text transform="matrix(3.2311 0 0 1 365.4375 432.8488)" class="st0 st4">F</text>
</g>
</svg>
