<?xml version="1.0" encoding="utf-8"?>
<!-- Generator: Adobe Illustrator 24.3.0, SVG Export Plug-In . SVG Version: 6.00 Build 0)  -->
<svg version="1.1" id="Layer_1" xmlns="http://www.w3.org/2000/svg" xmlns:xlink="http://www.w3.org/1999/xlink" x="0px" y="0px"
	 viewBox="0 0 595.28 841.89" style="enable-background:new 0 0 595.28 841.89;" xml:space="preserve">
<style type="text/css">
	.st0{font-family:'Helvetica-Narrow-Bold';}
	.st1{font-size:1.3502px;}
	.st2{font-size:1.2171px;}
	.st3{font-size:1.3503px;}
	.st4{font-size:1.2806px;}
	.st5{font-size:4.0907px;}
	.st6{font-size:14.3006px;}
	.st7{font-size:23.2814px;}
	.st8{font-size:4.136px;}
	.st9{font-size:3.7374px;}
	.st10{font-size:4.1439px;}
	.st11{font-size:3.9288px;}
	.st12{font-size:109.2044px;}
	.st13{font-size:0.0889px;}
	.st14{font-size:0.089px;}
	.st15{font-size:0.0892px;}
	.st16{font-size:1.5681px;}
	.st17{font-size:3.051px;}
	.st18{font-size:3.0509px;}
	.st19{font-size:2.8981px;}
	.st20{font-size:0.7066px;}
	.st21{font-size:0.7067px;}
	.st22{font-size:1.7532px;}
	.st23{font-size:0.5938px;}
	.st24{font-size:0.5668px;}
	.st25{font-size:2.585px;}
	.st26{font-size:4.3401px;}
	.st27{font-size:4.5727px;}
	.st28{font-size:5.9232px;}
	.st29{font-size:8.5479px;}
	.st30{font-size:0.4292px;}
	.st31{font-size:0.4291px;}
	.st32{font-size:0.408px;}
	.st33{font-size:1.2112px;}
	.st34{font-size:1.3426px;}
	.st35{font-size:0.6008px;}
	.st36{font-size:0.5697px;}
	.st37{font-size:0.6007px;}
	.st38{font-size:1.5981px;}
	.st39{font-size:2.5955px;}
	.st40{font-size:0.2199px;}
	.st41{font-size:0.2323px;}
	.st42{font-size:0.233px;}
	.st43{font-size:1.8585px;}
	.st44{font-size:1.7668px;}
	.st45{font-size:3.4847px;}
	.st46{font-size:6.7371px;}
	.st47{font-size:0.3728px;}
	.st48{font-size:0.3702px;}
	.st49{font-size:0.3729px;}
	.st50{font-size:2.136px;}
	.st51{font-size:3.899px;}
	.st52{font-size:7.4289px;}
</style>
<g>
	<text transform="matrix(20.9916 0 0 1 211.3438 468.9665)" class="st0 st1">Y</text>
	<text transform="matrix(21.3883 0 0 1 210.8906 467.1227)" class="st0 st2">Q</text>
	<text transform="matrix(25.2832 0 0 1 209 465.1774)" class="st0 st3">P</text>
	<text transform="matrix(19.559 0 0 1 209.9531 463.1618)" class="st0 st3">M</text>
	<text transform="matrix(22.6501 0 0 1 209.5469 461.1462)" class="st0 st3">K</text>
	<text transform="matrix(21.9966 0 0 1 210.5469 459.3493)" class="st0 st4">G</text>
	<text transform="matrix(23.0783 0 0 1 209.3828 457.3493)" class="st0 st1">D</text>
	<text transform="matrix(7.6429 0 0 1 211.4297 455.3337)" class="st0 st5">T</text>
	<text transform="matrix(2.2763 0 0 1 210.375 450.9977)" class="st0 st6">S</text>
	<text transform="matrix(1.3384 0 0 1 209.1641 439.6774)" class="st0 st7">R</text>
	<text transform="matrix(7.0277 0 0 1 230.3438 468.9743)" class="st0 st8">V</text>
	<text transform="matrix(6.9651 0 0 1 230.0781 464.8962)" class="st0 st9">Q</text>
	<text transform="matrix(4.3912 0 0 1 237.5625 461.2556)" class="st0 st10">I</text>
	<text transform="matrix(7.1695 0 0 1 229.75 457.0681)" class="st0 st11">G</text>
	<text transform="matrix(0.2853 0 0 1 228.3594 453.2946)" class="st0 st12">R</text>
	<text transform="matrix(1 0 0 1 247.375 468.9743)" class="st0 st13">P</text>
	<text transform="matrix(1 0 0 1 247.8281 468.0524)" class="st0 st13">N</text>
	<text transform="matrix(1 0 0 1 248.3438 466.8806)" class="st0 st13">M</text>
	<text transform="matrix(1 0 0 1 247.9531 465.9509)" class="st0 st14">K</text>
	<text transform="matrix(1 0 0 1 256.7578 464.7868)" class="st0 st15">I</text>
	<text transform="matrix(12.711 0 0 1 249.9141 463.8571)" class="st0 st16">W</text>
	<text transform="matrix(18.5362 0 0 1 249.5312 461.7712)" class="st0 st16">V</text>
	<text transform="matrix(9.2898 0 0 1 249.7188 459.4274)" class="st0 st17">Y</text>
	<text transform="matrix(10.2135 0 0 1 247.5469 456.4118)" class="st0 st18">R</text>
	<text transform="matrix(13.0792 0 0 1 247.2578 453.1462)" class="st0 st17">L</text>
	<text transform="matrix(9.7195 0 0 1 248.9453 449.8259)" class="st0 st19">G</text>
	<text transform="matrix(11.9761 0 0 1 247.1875 446.8649)" class="st0 st17">F</text>
	<text transform="matrix(28.2081 0 0 1 269.1094 464.4899)" class="st0 st20">W</text>
	<text transform="matrix(41.1353 0 0 1 268.7188 463.1618)" class="st0 st20">V</text>
	<text transform="matrix(44.2459 0 0 1 269.0156 461.5915)" class="st0 st20">T</text>
	<text transform="matrix(48.313 0 0 1 266.5781 460.0212)" class="st0 st20">P</text>
	<text transform="matrix(45.5766 0 0 1 266.9453 458.4509)" class="st0 st20">H</text>
	<text transform="matrix(40.2343 0 0 1 269.0312 457.1149)" class="st0 st21">A</text>
	<text transform="matrix(17.7732 0 0 1 266.7344 455.5368)" class="st0 st22">R</text>
	<text transform="matrix(22.7606 0 0 1 266.4531 453.1852)" class="st0 st22">L</text>
	<text transform="matrix(47.7339 0 0 1 288.1172 468.9665)" class="st0 st23">Y</text>
	<text transform="matrix(52.6547 0 0 1 288.2188 467.5602)" class="st0 st23">T</text>
	<text transform="matrix(51.0375 0 0 1 287.4141 466.1306)" class="st0 st24">C</text>
	<text transform="matrix(13.2063 0 0 1 285.7734 464.7243)" class="st0 st25">P</text>
	<text transform="matrix(10.2163 0 0 1 286.7266 461.8962)" class="st0 st25">M</text>
	<text transform="matrix(13.3317 0 0 1 285.7422 459.0681)" class="st0 st25">E</text>
	<text transform="matrix(6.4901 0 0 1 287.3281 456.154)" class="st0 st26">G</text>
	<text transform="matrix(6.2179 0 0 1 288.2266 451.9899)" class="st0 st27">A</text>
	<text transform="matrix(4.3948 0 0 1 287.6641 447.404)" class="st0 st28">Q</text>
	<text transform="matrix(3.6454 0 0 1 285.9375 442.0915)" class="st0 st29">R</text>
	<text transform="matrix(72.8499 0 0 1 307.4141 463.7868)" class="st0 st30">T</text>
	<text transform="matrix(72.6123 0 0 1 305.125 462.6071)" class="st0 st31">R</text>
	<text transform="matrix(79.5524 0 0 1 304.9531 461.1931)" class="st0 st31">P</text>
	<text transform="matrix(92.9809 0 0 1 304.8359 460.0212)" class="st0 st30">L</text>
	<text transform="matrix(69.0311 0 0 1 306.5312 458.5993)" class="st0 st32">G</text>
	<text transform="matrix(21.4925 0 0 1 306.8594 457.3649)" class="st0 st33">Q</text>
	<text transform="matrix(13.5539 0 0 1 314.3438 455.4274)" class="st0 st34">I</text>
	<text transform="matrix(48.3829 0 0 1 326.3203 462.5681)" class="st0 st35">V</text>
	<text transform="matrix(52.0416 0 0 1 326.6094 461.1462)" class="st0 st35">T</text>
	<text transform="matrix(49.4451 0 0 1 325.7031 459.7165)" class="st0 st36">G</text>
	<text transform="matrix(47.334 0 0 1 326.6094 458.3024)" class="st0 st37">A</text>
	<text transform="matrix(19.4984 0 0 1 324.3281 456.8806)" class="st0 st38">R</text>
	<text transform="matrix(15.3747 0 0 1 324.0234 454.7477)" class="st0 st39">L</text>
	<text transform="matrix(1 0 0 1 344.7344 468.9665)" class="st0 st40">S</text>
	<text transform="matrix(1 0 0 1 343.3516 467.8337)" class="st0 st41">P</text>
	<text transform="matrix(1 0 0 1 344.3125 466.7009)" class="st0 st41">M</text>
	<text transform="matrix(78.1081 0 0 1 352.7344 465.5681)" class="st0 st42">I</text>
	<text transform="matrix(1 0 0 1 343.7031 464.4352)" class="st0 st41">H</text>
	<text transform="matrix(1 0 0 1 343.7422 463.2946)" class="st0 st41">D</text>
	<text transform="matrix(21.4711 0 0 1 343.2266 462.1618)" class="st0 st43">L</text>
	<text transform="matrix(15.9427 0 0 1 344.9062 459.6227)" class="st0 st44">G</text>
	<text transform="matrix(8.3413 0 0 1 345.5078 457.3806)" class="st0 st45">V</text>
	<text transform="matrix(9.8898 0 0 1 343.3281 453.9743)" class="st0 st45">E</text>
	<text transform="matrix(8.1592 0 0 1 345.8047 450.3337)" class="st0 st45">A</text>
	<text transform="matrix(4.6407 0 0 1 345.7969 446.9274)" class="st0 st46">T</text>
	<text transform="matrix(77.9602 0 0 1 364.7031 468.9743)" class="st0 st47">V</text>
	<text transform="matrix(49.1501 0 0 1 371.9219 467.8727)" class="st0 st48">I</text>
	<text transform="matrix(98.0008 0 0 1 362.3359 466.5524)" class="st0 st47">F</text>
	<text transform="matrix(83.563 0 0 1 362.9219 465.2165)" class="st0 st49">D</text>
	<text transform="matrix(12.3643 0 0 1 363.5 464.1227)" class="st0 st50">M</text>
	<text transform="matrix(15.0776 0 0 1 362.9062 461.4431)" class="st0 st50">H</text>
	<text transform="matrix(13.3113 0 0 1 365 459.0212)" class="st0 st50">A</text>
	<text transform="matrix(7.2692 0 0 1 364.8828 456.3571)" class="st0 st51">Y</text>
	<text transform="matrix(10.2345 0 0 1 362.4219 452.5993)" class="st0 st51">L</text>
	<text transform="matrix(7.8438 0 0 1 363.0938 448.8415)" class="st0 st51">K</text>
	<text transform="matrix(4.1945 0 0 1 362.7109 445.0837)" class="st0 st52">R</text>
</g>
</svg>
