<?xml version="1.0" encoding="utf-8"?>
<!-- Generator: Adobe Illustrator 24.3.0, SVG Export Plug-In . SVG Version: 6.00 Build 0)  -->
<svg version="1.1" id="Layer_1" xmlns="http://www.w3.org/2000/svg" xmlns:xlink="http://www.w3.org/1999/xlink" x="0px" y="0px"
	 viewBox="0 0 595.28 841.89" style="enable-background:new 0 0 595.28 841.89;" xml:space="preserve">
<style type="text/css">
	.st0{font-family:'Helvetica-Narrow-Bold';}
	.st1{font-size:0.1386px;}
	.st2{font-size:0.656px;}
	.st3{font-size:0.9138px;}
	.st4{font-size:1.4258px;}
	.st5{font-size:1.6819px;}
	.st6{font-size:3.7865px;}
	.st7{font-size:3.9859px;}
	.st8{font-size:10px;}
	.st9{font-size:0.4611px;}
	.st10{font-size:1.4577px;}
	.st11{font-size:2.8898px;}
	.st12{font-size:4.313px;}
	.st13{font-size:7.2558px;}
	.st14{font-size:11.9185px;}
	.st15{font-size:15.7195px;}
	.st16{font-size:0.1974px;}
	.st17{font-size:1.0321px;}
	.st18{font-size:1.1468px;}
	.st19{font-size:1.2945px;}
	.st20{font-size:3.088px;}
	.st21{font-size:20.1135px;}
	.st22{font-size:73.8783px;}
</style>
<g>
	<text transform="matrix(1 0 0 1 210.3828 460.5622)" class="st0 st1">G</text>
	<text transform="matrix(27.7396 0 0 1 218.2109 459.5544)" class="st0 st2">I</text>
	<text transform="matrix(31.8072 0 0 1 210.9922 458.0622)" class="st0 st3">V</text>
	<text transform="matrix(21.9271 0 0 1 211.2656 456.4294)" class="st0 st4">T</text>
	<text transform="matrix(18.527 0 0 1 209 454.2888)" class="st0 st5">R</text>
	<text transform="matrix(18.1839 0 0 1 209.3828 452.0466)" class="st0 st5">K</text>
	<text transform="matrix(8.5968 0 0 1 210.2109 449.945)" class="st0 st6">S</text>
	<text transform="matrix(7.1331 0 0 1 211.2812 446.1481)" class="st0 st7">A</text>
	<text transform="matrix(1 0 0 1 228.9766 462.7731)" class="st0 st8">M</text>
	<text transform="matrix(56.4526 0 0 1 229.9062 461.6559)" class="st0 st9">Q</text>
	<text transform="matrix(25.066 0 0 1 227.8359 460.3981)" class="st0 st10">F</text>
	<text transform="matrix(6.297 0 0 1 237.3984 458.4606)" class="st0 st11">I</text>
	<text transform="matrix(9.2521 0 0 1 227.9062 455.195)" class="st0 st12">L</text>
	<text transform="matrix(4.4863 0 0 1 229.4062 450.9294)" class="st0 st13">S</text>
	<text transform="matrix(2.6232 0 0 1 230.4609 444.5856)" class="st0 st14">T</text>
	<text transform="matrix(1.8491 0 0 1 230.1797 435.0856)" class="st0 st15">V</text>
	<text transform="matrix(1 0 0 1 247.0938 457.1325)" class="st0 st16">L</text>
	<text transform="matrix(38.6641 0 0 1 323.8594 456.4528)" class="st0 st17">L</text>
	<text transform="matrix(34.7948 0 0 1 343.0625 457.3356)" class="st0 st18">L</text>
	<text transform="matrix(24.8778 0 0 1 362.7422 460.2575)" class="st0 st19">H</text>
	<text transform="matrix(9.1783 0 0 1 364.7188 458.3278)" class="st0 st20">Y</text>
	<text transform="matrix(1.5492 0 0 1 362.5469 455.2497)" class="st0 st21">R</text>
	<text transform="matrix(0.414 0 0 1 362.9297 439.7263)" class="st0 st22">K</text>
</g>
</svg>
