<?xml version="1.0" encoding="utf-8"?>
<!-- Generator: Adobe Illustrator 24.3.0, SVG Export Plug-In . SVG Version: 6.00 Build 0)  -->
<svg version="1.1" id="Layer_1" xmlns="http://www.w3.org/2000/svg" xmlns:xlink="http://www.w3.org/1999/xlink" x="0px" y="0px"
	 viewBox="0 0 595.28 841.89" style="enable-background:new 0 0 595.28 841.89;" xml:space="preserve">
<style type="text/css">
	.st0{font-family:'Helvetica-Narrow-Bold';}
	.st1{font-size:0.2322px;}
	.st2{font-size:0.2321px;}
	.st3{font-size:0.2328px;}
	.st4{font-size:1.3137px;}
	.st5{font-size:3.4806px;}
	.st6{font-size:4.1494px;}
	.st7{font-size:47.5983px;}
	.st8{font-size:67.7686px;}
	.st9{font-size:0.0835px;}
	.st10{font-size:0.0746px;}
	.st11{font-size:0.5772px;}
	.st12{font-size:1.0673px;}
	.st13{font-size:2.051px;}
	.st14{font-size:10px;}
	.st15{font-size:0.4701px;}
	.st16{font-size:0.47px;}
	.st17{font-size:1.7744px;}
	.st18{font-size:0.5191px;}
	.st19{font-size:1.1567px;}
	.st20{font-size:1.7944px;}
	.st21{font-size:2.4321px;}
	.st22{font-size:2.915px;}
	.st23{font-size:0.8192px;}
	.st24{font-size:0.741px;}
	.st25{font-size:0.8216px;}
	.st26{font-size:1.5582px;}
	.st27{font-size:2.18px;}
	.st28{font-size:3.0325px;}
	.st29{font-size:3.7714px;}
	.st30{font-size:0.6413px;}
	.st31{font-size:1.3197px;}
	.st32{font-size:1.253px;}
	.st33{font-size:1.1923px;}
	.st34{font-size:4.0296px;}
	.st35{font-size:0.2185px;}
	.st36{font-size:0.2307px;}
	.st37{font-size:0.2314px;}
	.st38{font-size:0.636px;}
	.st39{font-size:0.4545px;}
	.st40{font-size:2.3066px;}
	.st41{font-size:9.7003px;}
	.st42{font-size:11.5487px;}
	.st43{font-size:20.8231px;}
	.st44{font-size:24.4913px;}
</style>
<g>
	<text transform="matrix(1 0 0 1 211.5547 461.6437)" class="st0 st1">Y</text>
	<text transform="matrix(1 0 0 1 209.6484 460.5109)" class="st0 st2">N</text>
	<text transform="matrix(1 0 0 1 209.7578 459.3781)" class="st0 st1">K</text>
	<text transform="matrix(78.1628 0 0 1 218.5781 458.2453)" class="st0 st3">I</text>
	<text transform="matrix(1 0 0 1 209 457.1125)" class="st0 st1">F</text>
	<text transform="matrix(1 0 0 1 209.5938 455.9797)" class="st0 st2">D</text>
	<text transform="matrix(22.1254 0 0 1 211.3516 454.6125)" class="st0 st4">V</text>
	<text transform="matrix(11.4648 0 0 1 209.0781 452.8781)" class="st0 st5">L</text>
	<text transform="matrix(6.7884 0 0 1 229.9453 465.8)" class="st0 st6">G</text>
	<text transform="matrix(0.5973 0 0 1 230.8516 461.925)" class="st0 st7">A</text>
	<text transform="matrix(0.5038 0 0 1 228.3984 426.6125)" class="st0 st8">P</text>
	<text transform="matrix(1 0 0 1 250.1172 460.3234)" class="st0 st9">W</text>
	<text transform="matrix(1 0 0 1 249.4688 459.1594)" class="st0 st10">Q</text>
	<text transform="matrix(69.1283 0 0 1 247.4609 458.2453)" class="st0 st11">L</text>
	<text transform="matrix(26.5569 0 0 1 249.9219 456.8547)" class="st0 st12">Y</text>
	<text transform="matrix(27.2351 0 0 1 249.7344 455.0031)" class="st0 st12">V</text>
	<text transform="matrix(13.8627 0 0 1 250.0391 453.3937)" class="st0 st13">A</text>
	<text transform="matrix(1 0 0 1 267.2266 461.3078)" class="st0 st14">N</text>
	<text transform="matrix(1 0 0 1 267.125 460.2531)" class="st0 st14">H</text>
	<text transform="matrix(42.4028 0 0 1 269.3125 459.2062)" class="st0 st15">W</text>
	<text transform="matrix(72.63 0 0 1 266.7812 457.9719)" class="st0 st16">P</text>
	<text transform="matrix(84.8966 0 0 1 266.6562 456.7375)" class="st0 st16">L</text>
	<text transform="matrix(66.2939 0 0 1 267.1484 455.2687)" class="st0 st16">D</text>
	<text transform="matrix(18.3453 0 0 1 268.1562 453.9875)" class="st0 st17">S</text>
	<text transform="matrix(70.385 0 0 1 285.7812 459.9719)" class="st0 st18">F</text>
	<text transform="matrix(24.5799 0 0 1 288.4219 458.675)" class="st0 st19">A</text>
	<text transform="matrix(16.1987 0 0 1 288.1328 456.925)" class="st0 st20">V</text>
	<text transform="matrix(22.2384 0 0 1 285.8516 454.5109)" class="st0 st20">L</text>
	<text transform="matrix(14.0368 0 0 1 285.9766 452.3312)" class="st0 st21">P</text>
	<text transform="matrix(9.6631 0 0 1 287.5312 449.425)" class="st0 st22">G</text>
	<text transform="matrix(38.163 0 0 1 307.6172 463.4562)" class="st0 st23">T</text>
	<text transform="matrix(35.1283 0 0 1 307.0625 461.6828)" class="st0 st24">Q</text>
	<text transform="matrix(41.671 0 0 1 305.1562 460.2219)" class="st0 st23">P</text>
	<text transform="matrix(22.1487 0 0 1 314.5469 458.4875)" class="st0 st25">I</text>
	<text transform="matrix(18.6536 0 0 1 307.3125 456.9953)" class="st0 st26">V</text>
	<text transform="matrix(23.4496 0 0 1 304.9766 454.9094)" class="st0 st26">F</text>
	<text transform="matrix(14.9323 0 0 1 306.5469 452.7922)" class="st0 st27">S</text>
	<text transform="matrix(13.1591 0 0 1 305.0391 450.1906)" class="st0 st28">L</text>
	<text transform="matrix(7.5389 0 0 1 307.625 446.9406)" class="st0 st29">A</text>
	<text transform="matrix(45.327 0 0 1 326.5 462.6594)" class="st0 st30">V</text>
	<text transform="matrix(48.7509 0 0 1 326.8125 461.1828)" class="st0 st30">T</text>
	<text transform="matrix(53.2322 0 0 1 324.3594 459.6984)" class="st0 st30">P</text>
	<text transform="matrix(56.9746 0 0 1 324.1797 458.2141)" class="st0 st30">F</text>
	<text transform="matrix(21.4775 0 0 1 326.7031 456.7375)" class="st0 st31">Y</text>
	<text transform="matrix(25.9795 0 0 1 325.7344 454.7375)" class="st0 st32">S</text>
	<text transform="matrix(21.8321 0 0 1 326.25 452.7219)" class="st0 st33">Q</text>
	<text transform="matrix(24.4041 0 0 1 324.7188 450.8156)" class="st0 st31">H</text>
	<text transform="matrix(9.9028 0 0 1 324.2344 448.8391)" class="st0 st34">L</text>
	<text transform="matrix(1 0 0 1 344.9375 460.6594)" class="st0 st35">S</text>
	<text transform="matrix(1 0 0 1 343.4375 459.5344)" class="st0 st36">L</text>
	<text transform="matrix(78.6525 0 0 1 352.9375 458.4016)" class="st0 st37">I</text>
	<text transform="matrix(1 0 0 1 343.5312 457.2687)" class="st0 st36">E</text>
	<text transform="matrix(1 0 0 1 346.0078 456.1359)" class="st0 st36">A</text>
	<text transform="matrix(49.1611 0 0 1 346 455.0109)" class="st0 st38">T</text>
	<text transform="matrix(43.8544 0 0 1 365.2812 465.8703)" class="st0 st39">W</text>
	<text transform="matrix(58.1057 0 0 1 363.7031 464.6594)" class="st0 st39">M</text>
	<text transform="matrix(12.3266 0 0 1 365.2031 463.4484)" class="st0 st40">A</text>
	<text transform="matrix(4.1137 0 0 1 362.625 460.7687)" class="st0 st41">L</text>
	<text transform="matrix(3.1639 0 0 1 362.5469 452.7687)" class="st0 st42">F</text>
	<text transform="matrix(0.8739 0 0 1 372.125 443.55)" class="st0 st43">I</text>
	<text transform="matrix(1.1868 0 0 1 364.8984 427.5187)" class="st0 st44">V</text>
</g>
</svg>
