<?xml version="1.0" encoding="utf-8"?>
<!-- Generator: Adobe Illustrator 24.3.0, SVG Export Plug-In . SVG Version: 6.00 Build 0)  -->
<svg version="1.1" id="Layer_1" xmlns="http://www.w3.org/2000/svg" xmlns:xlink="http://www.w3.org/1999/xlink" x="0px" y="0px"
	 viewBox="0 0 595.28 841.89" style="enable-background:new 0 0 595.28 841.89;" xml:space="preserve">
<style type="text/css">
	.st0{font-family:'Helvetica-Narrow-Bold';}
	.st1{font-size:0.5936px;}
	.st2{font-size:0.6469px;}
	.st3{font-size:1.4808px;}
	.st4{font-size:4.5617px;}
	.st5{font-size:4.8981px;}
	.st6{font-size:4.8542px;}
	.st7{font-size:11.3774px;}
	.st8{font-size:11.9496px;}
	.st9{font-size:15.3798px;}
	.st10{font-size:0.0571px;}
	.st11{font-size:10px;}
	.st12{font-size:0.0806px;}
	.st13{font-size:10.0207px;}
	.st14{font-size:17.0603px;}
	.st15{font-size:96.7759px;}
</style>
<g>
	<text transform="matrix(46.0872 0 0 1 212 464.3215)" class="st0 st1">K</text>
	<text transform="matrix(43.233 0 0 1 213.7188 462.9074)" class="st0 st2">T</text>
	<text transform="matrix(19.6637 0 0 1 212.75 461.3918)" class="st0 st3">S</text>
	<text transform="matrix(6.383 0 0 1 230.0312 470.0949)" class="st0 st4">S</text>
	<text transform="matrix(6.6727 0 0 1 228.6172 465.6105)" class="st0 st5">F</text>
	<text transform="matrix(4.7975 0 0 1 230.4922 460.8605)" class="st0 st6">Q</text>
	<text transform="matrix(2.458 0 0 1 230.9844 456.4699)" class="st0 st7">T</text>
	<text transform="matrix(2.1759 0 0 1 230.7188 447.2433)" class="st0 st8">V</text>
	<text transform="matrix(2.3209 0 0 1 228.6875 437.6808)" class="st0 st9">L</text>
	<text transform="matrix(1 0 0 1 248.1484 464.5793)" class="st0 st10">Y</text>
	<text transform="matrix(1 0 0 1 323.4141 464.7199)" class="st0 st11">I</text>
	<text transform="matrix(1 0 0 1 332.2656 465.7355)" class="st0 st11">F</text>
	<text transform="matrix(1 0 0 1 332.3281 464.6808)" class="st0 st12">L</text>
	<text transform="matrix(2.5301 0 0 1 369.0859 471.173)" class="st0 st13">Y</text>
	<text transform="matrix(1.6338 0 0 1 367.1406 462.9543)" class="st0 st14">R</text>
	<text transform="matrix(0.2827 0 0 1 367.4844 449.8918)" class="st0 st15">K</text>
</g>
</svg>
