<?xml version="1.0" encoding="utf-8"?>
<!-- Generator: Adobe Illustrator 24.3.0, SVG Export Plug-In . SVG Version: 6.00 Build 0)  -->
<svg version="1.1" id="Layer_1" xmlns="http://www.w3.org/2000/svg" xmlns:xlink="http://www.w3.org/1999/xlink" x="0px" y="0px"
	 viewBox="0 0 595.28 841.89" style="enable-background:new 0 0 595.28 841.89;" xml:space="preserve">
<style type="text/css">
	.st0{font-family:'Helvetica-Narrow-Bold';}
	.st1{font-size:0.1201px;}
	.st2{font-size:0.2017px;}
	.st3{font-size:0.3373px;}
	.st4{font-size:0.6627px;}
	.st5{font-size:1.756px;}
	.st6{font-size:5.0124px;}
	.st7{font-size:5.8547px;}
	.st8{font-size:8.2038px;}
	.st9{font-size:12.2892px;}
	.st10{font-size:14.9437px;}
	.st11{font-size:15.0454px;}
	.st12{font-size:10px;}
	.st13{font-size:0.8032px;}
	.st14{font-size:0.8968px;}
	.st15{font-size:1.0871px;}
	.st16{font-size:14.0556px;}
	.st17{font-size:21.1616px;}
	.st18{font-size:83.4942px;}
</style>
<g>
	<text transform="matrix(1 0 0 1 211 463.1188)" class="st0 st1">L</text>
	<text transform="matrix(1 0 0 1 213.5625 462.1423)" class="st0 st2">A</text>
	<text transform="matrix(53.9412 0 0 1 220.5 461.0563)" class="st0 st3">I</text>
	<text transform="matrix(46.1521 0 0 1 211.6797 459.7673)" class="st0 st4">K</text>
	<text transform="matrix(18.5375 0 0 1 212.5 458.2282)" class="st0 st5">S</text>
	<text transform="matrix(5.1933 0 0 1 232.2031 468.7595)" class="st0 st6">Q</text>
	<text transform="matrix(5.56 0 0 1 231.6953 463.9938)" class="st0 st7">S</text>
	<text transform="matrix(4.4539 0 0 1 230.1172 458.8063)" class="st0 st8">F</text>
	<text transform="matrix(2.5441 0 0 1 232.75 451.9782)" class="st0 st9">T</text>
	<text transform="matrix(2.6703 0 0 1 230.1875 441.9313)" class="st0 st10">L</text>
	<text transform="matrix(1.9319 0 0 1 232.4688 430.2282)" class="st0 st11">V</text>
	<text transform="matrix(1 0 0 1 258.8828 462.4001)" class="st0 st12">I</text>
	<text transform="matrix(1 0 0 1 249.3047 461.5641)" class="st0 st12">F</text>
	<text transform="matrix(45.4916 0 0 1 326.1016 462.6891)" class="st0 st13">F</text>
	<text transform="matrix(44.4954 0 0 1 326.1406 460.9782)" class="st0 st14">L</text>
	<text transform="matrix(16.7385 0 0 1 335.6641 459.3688)" class="st0 st15">I</text>
	<text transform="matrix(2.0165 0 0 1 367.0078 469.2282)" class="st0 st16">Y</text>
	<text transform="matrix(1.4725 0 0 1 364.8359 458.0798)" class="st0 st17">R</text>
	<text transform="matrix(0.3663 0 0 1 365.2188 441.7751)" class="st0 st18">K</text>
</g>
</svg>
