<?xml version="1.0" encoding="utf-8"?>
<!-- Generator: Adobe Illustrator 24.3.0, SVG Export Plug-In . SVG Version: 6.00 Build 0)  -->
<svg version="1.1" id="Layer_1" xmlns="http://www.w3.org/2000/svg" xmlns:xlink="http://www.w3.org/1999/xlink" x="0px" y="0px"
	 viewBox="0 0 595.28 841.89" style="enable-background:new 0 0 595.28 841.89;" xml:space="preserve">
<style type="text/css">
	.st0{font-family:'Helvetica-Narrow-Bold';}
	.st1{font-size:3.7175px;}
	.st2{font-size:8.8325px;}
	.st3{font-size:19.0553px;}
	.st4{font-size:19.0828px;}
	.st5{font-size:5.6672px;}
	.st6{font-size:26.8507px;}
	.st7{font-size:25.5028px;}
	.st8{font-size:33.9119px;}
	.st9{font-size:3.148px;}
	.st10{font-size:8.0193px;}
	.st11{font-size:17.4555px;}
	.st12{font-size:2.7621px;}
	.st13{font-size:2.9079px;}
	.st14{font-size:2.9078px;}
	.st15{font-size:7.2097px;}
	.st16{font-size:7.2098px;}
	.st17{font-size:15.8098px;}
	.st18{font-size:3.2349px;}
	.st19{font-size:2.9196px;}
	.st20{font-size:3.2403px;}
	.st21{font-size:7.8601px;}
	.st22{font-size:20.6485px;}
	.st23{font-size:2.0983px;}
	.st24{font-size:2.0984px;}
	.st25{font-size:1.9901px;}
	.st26{font-size:1.8936px;}
	.st27{font-size:5.587px;}
	.st28{font-size:12.5809px;}
	.st29{font-size:3.0709px;}
	.st30{font-size:7.099px;}
	.st31{font-size:21.7429px;}
	.st32{font-size:2.2508px;}
	.st33{font-size:5.8918px;}
	.st34{font-size:5.5961px;}
	.st35{font-size:9.5484px;}
	.st36{font-size:5.5673px;}
	.st37{font-size:33.4157px;}
	.st38{font-size:40.3769px;}
</style>
<g>
	<text transform="matrix(8.3821 0 0 1 209.2891 457.696)" class="st0 st1">R</text>
	<text transform="matrix(8.6632 0 0 1 209.5781 454.196)" class="st0 st1">N</text>
	<text transform="matrix(10.7343 0 0 1 209 450.4538)" class="st0 st1">L</text>
	<text transform="matrix(7.6482 0 0 1 211.5703 446.7116)" class="st0 st1">A</text>
	<text transform="matrix(3.2909 0 0 1 211.2734 443.2038)" class="st0 st2">V</text>
	<text transform="matrix(1.605 0 0 1 209.6797 435.735)" class="st0 st3">K</text>
	<text transform="matrix(0.9536 0 0 1 218.5 421.0085)" class="st0 st4">I</text>
	<text transform="matrix(7.0412 0 0 1 228.1875 457.6882)" class="st0 st5">L</text>
	<text transform="matrix(1.1644 0 0 1 230.75 452.8366)" class="st0 st6">T</text>
	<text transform="matrix(1.2764 0 0 1 229.6953 431.8991)" class="st0 st7">S</text>
	<text transform="matrix(0.8384 0 0 1 230.7656 412.2741)" class="st0 st8">A</text>
	<text transform="matrix(10.3405 0 0 1 248.8906 457.6335)" class="st0 st9">S</text>
	<text transform="matrix(8.9477 0 0 1 249.0625 454.4772)" class="st0 st9">G</text>
	<text transform="matrix(3.8987 0 0 1 249.9453 451.1335)" class="st0 st10">T</text>
	<text transform="matrix(3.2932 0 0 1 248.4609 444.3366)" class="st0 st10">M</text>
	<text transform="matrix(4.976 0 0 1 247.3828 437.5397)" class="st0 st10">L</text>
	<text transform="matrix(3.5455 0 0 1 249.9609 430.7585)" class="st0 st10">A</text>
	<text transform="matrix(1.0425 0 0 1 256.8828 423.9616)" class="st0 st11">I</text>
	<text transform="matrix(11.7855 0 0 1 268.0781 457.6335)" class="st0 st12">S</text>
	<text transform="matrix(10.1981 0 0 1 268.2578 454.5866)" class="st0 st12">G</text>
	<text transform="matrix(12.5653 0 0 1 266.4922 451.5866)" class="st0 st13">F</text>
	<text transform="matrix(9.7779 0 0 1 269.1562 448.5241)" class="st0 st14">A</text>
	<text transform="matrix(4.0316 0 0 1 268.8594 445.4694)" class="st0 st15">V</text>
	<text transform="matrix(4.7351 0 0 1 266.7109 439.36)" class="st0 st15">P</text>
	<text transform="matrix(4.4669 0 0 1 267.1562 433.0085)" class="st0 st16">N</text>
	<text transform="matrix(2.1799 0 0 1 266.6797 426.8991)" class="st0 st17">E</text>
	<text transform="matrix(9.6326 0 0 1 286.0625 457.696)" class="st0 st18">R</text>
	<text transform="matrix(8.9159 0 0 1 287.7891 454.2429)" class="st0 st19">Q</text>
	<text transform="matrix(10.5531 0 0 1 285.8984 451.1257)" class="st0 st18">P</text>
	<text transform="matrix(5.6157 0 0 1 295.2734 447.8366)" class="st0 st20">I</text>
	<text transform="matrix(9.6326 0 0 1 286.2812 444.5554)" class="st0 st18">D</text>
	<text transform="matrix(3.698 0 0 1 288.0469 441.2741)" class="st0 st21">V</text>
	<text transform="matrix(3.6173 0 0 1 288.3438 434.4538)" class="st0 st21">A</text>
	<text transform="matrix(1.5765 0 0 1 287.2734 427.4538)" class="st0 st22">S</text>
	<text transform="matrix(13.5073 0 0 1 307.4297 457.6882)" class="st0 st23">Y</text>
	<text transform="matrix(14.8995 0 0 1 307.5312 455.321)" class="st0 st24">T</text>
	<text transform="matrix(16.357 0 0 1 306.4766 452.6647)" class="st0 st25">S</text>
	<text transform="matrix(13.7466 0 0 1 306.9844 450.235)" class="st0 st26">Q</text>
	<text transform="matrix(14.1536 0 0 1 306.6484 447.696)" class="st0 st25">G</text>
	<text transform="matrix(16.4236 0 0 1 305.0703 445.3679)" class="st0 st24">E</text>
	<text transform="matrix(14.536 0 0 1 306.7266 442.7194)" class="st0 st25">C</text>
	<text transform="matrix(13.5499 0 0 1 307.5469 440.3757)" class="st0 st23">A</text>
	<text transform="matrix(7.1424 0 0 1 304.9609 437.7663)" class="st0 st27">L</text>
	<text transform="matrix(1.4464 0 0 1 314.4688 432.7897)" class="st0 st28">I</text>
	<text transform="matrix(10.6002 0 0 1 325.6562 457.6335)" class="st0 st29">S</text>
	<text transform="matrix(9.9554 0 0 1 324.75 454.4069)" class="st0 st18">N</text>
	<text transform="matrix(5.6157 0 0 1 333.6641 451.1257)" class="st0 st20">I</text>
	<text transform="matrix(9.6325 0 0 1 324.6719 447.8444)" class="st0 st18">D</text>
	<text transform="matrix(8.7893 0 0 1 326.7344 444.5554)" class="st0 st18">A</text>
	<text transform="matrix(3.6669 0 0 1 326.1797 440.86)" class="st0 st30">Q</text>
	<text transform="matrix(4.6486 0 0 1 324.0781 434.4538)" class="st0 st21">F</text>
	<text transform="matrix(1.3368 0 0 1 326.4375 427.8913)" class="st0 st31">V</text>
	<text transform="matrix(12.5925 0 0 1 345.8125 457.696)" class="st0 st32">Y</text>
	<text transform="matrix(15.1675 0 0 1 343.4766 455.1022)" class="st0 st32">P</text>
	<text transform="matrix(13.5879 0 0 1 344.0312 452.5085)" class="st0 st32">K</text>
	<text transform="matrix(16.2338 0 0 1 343.2812 449.9225)" class="st0 st32">F</text>
	<text transform="matrix(12.6322 0 0 1 345.9297 447.3366)" class="st0 st32">A</text>
	<text transform="matrix(5.3065 0 0 1 345.9219 444.7429)" class="st0 st33">T</text>
	<text transform="matrix(6.7729 0 0 1 343.3516 439.5632)" class="st0 st33">L</text>
	<text transform="matrix(5.0335 0 0 1 345.0312 434.2741)" class="st0 st34">G</text>
	<text transform="matrix(1.9058 0 0 1 352.8516 428.9616)" class="st0 st35">I</text>
	<text transform="matrix(5.091 0 0 1 365.0078 457.696)" class="st0 st36">Y</text>
	<text transform="matrix(4.7437 0 0 1 363.625 452.735)" class="st0 st36">M</text>
	<text transform="matrix(7.1677 0 0 1 362.5469 447.7897)" class="st0 st36">L</text>
	<text transform="matrix(1.0935 0 0 1 362.4688 442.821)" class="st0 st37">F</text>
	<text transform="matrix(0.4937 0 0 1 365.1953 417.8054)" class="st0 st38">W</text>
</g>
</svg>
