<?xml version="1.0" encoding="utf-8"?>
<!-- Generator: Adobe Illustrator 24.3.0, SVG Export Plug-In . SVG Version: 6.00 Build 0)  -->
<svg version="1.1" id="Layer_1" xmlns="http://www.w3.org/2000/svg" xmlns:xlink="http://www.w3.org/1999/xlink" x="0px" y="0px"
	 viewBox="0 0 595.28 841.89" style="enable-background:new 0 0 595.28 841.89;" xml:space="preserve">
<style type="text/css">
	.st0{font-family:'Helvetica-Narrow-Bold';}
	.st1{font-size:10px;}
	.st2{font-size:0.2023px;}
	.st3{font-size:0.6359px;}
	.st4{font-size:0.8517px;}
	.st5{font-size:2.1983px;}
	.st6{font-size:4.8952px;}
	.st7{font-size:6.0926px;}
	.st8{font-size:8.4477px;}
	.st9{font-size:37.8253px;}
	.st10{font-size:0.2928px;}
	.st11{font-size:0.1903px;}
	.st12{font-size:0.7603px;}
	.st13{font-size:0.2338px;}
	.st14{font-size:2.3058px;}
	.st15{font-size:5.9034px;}
	.st16{font-size:9.8125px;}
	.st17{font-size:21.3321px;}
	.st18{font-size:23.0582px;}
</style>
<g>
	<text transform="matrix(1 0 0 1 210 443.9875)" class="st0 st1">F</text>
	<text transform="matrix(1 0 0 1 210.0781 442.8859)" class="st0 st2">L</text>
	<text transform="matrix(40.9381 0 0 1 231.2734 448.2375)" class="st0 st3">Q</text>
	<text transform="matrix(33.384 0 0 1 231.8516 446.7062)" class="st0 st4">A</text>
	<text transform="matrix(14.2224 0 0 1 231.8359 445.1516)" class="st0 st5">T</text>
	<text transform="matrix(5.9378 0 0 1 231.5469 442.6437)" class="st0 st6">V</text>
	<text transform="matrix(4.3347 0 0 1 230.3438 437.925)" class="st0 st7">M</text>
	<text transform="matrix(2.1541 0 0 1 238.7734 432.6984)" class="st0 st8">I</text>
	<text transform="matrix(1.055 0 0 1 229.2656 425.55)" class="st0 st9">L</text>
	<text transform="matrix(1 0 0 1 248.4609 444.2687)" class="st0 st10">L</text>
	<text transform="matrix(95.6139 0 0 1 315.5469 444.4875)" class="st0 st11">I</text>
	<text transform="matrix(52.4818 0 0 1 306.0156 443.4094)" class="st0 st12">L</text>
	<text transform="matrix(1 0 0 1 364.7031 448.9406)" class="st0 st13">M</text>
	<text transform="matrix(13.5593 0 0 1 366.1875 447.8)" class="st0 st14">T</text>
	<text transform="matrix(4.8163 0 0 1 366.2031 445.1281)" class="st0 st15">A</text>
	<text transform="matrix(1.8545 0 0 1 373.125 439.925)" class="st0 st16">I</text>
	<text transform="matrix(1.8706 0 0 1 363.625 432.0266)" class="st0 st17">L</text>
	<text transform="matrix(1.2606 0 0 1 365.9062 415.7062)" class="st0 st18">V</text>
</g>
</svg>
