<?xml version="1.0" encoding="utf-8"?>
<!-- Generator: Adobe Illustrator 24.3.0, SVG Export Plug-In . SVG Version: 6.00 Build 0)  -->
<svg version="1.1" id="Layer_1" xmlns="http://www.w3.org/2000/svg" xmlns:xlink="http://www.w3.org/1999/xlink" x="0px" y="0px"
	 viewBox="0 0 595.28 841.89" style="enable-background:new 0 0 595.28 841.89;" xml:space="preserve">
<style type="text/css">
	.st0{font-family:'Helvetica-Narrow-Bold';}
	.st1{font-size:161.8499px;}
	.st2{font-size:170.4153px;}
	.st3{font-size:170.4154px;}
	.st4{font-size:161.8503px;}
</style>
<g>
	<text transform="matrix(0.1557 0 0 1 212 468.4582)" class="st0 st1">G</text>
	<text transform="matrix(0.1636 0 0 1 228.0391 471.5363)" class="st0 st2">R</text>
	<text transform="matrix(0.1641 0 0 1 247.3438 471.5285)" class="st0 st3">T</text>
	<text transform="matrix(0.1557 0 0 1 263.8281 468.4582)" class="st0 st1">G</text>
	<text transform="matrix(0.1492 0 0 1 281.9062 471.5285)" class="st0 st3">A</text>
	<text transform="matrix(0.1557 0 0 1 298.3828 468.4582)" class="st0 st1">G</text>
	<text transform="matrix(0.1605 0 0 1 314.75 471.5285)" class="st0 st3">K</text>
	<text transform="matrix(0.1799 0 0 1 332.7656 468.1301)" class="st0 st4">S</text>
	<text transform="matrix(0.1918 0 0 1 348.6328 471.5285)" class="st0 st3">F</text>
	<text transform="matrix(0.2095 0 0 1 365.9688 471.5285)" class="st0 st3">L</text>
</g>
</svg>
