<?xml version="1.0" encoding="utf-8"?>
<!-- Generator: Adobe Illustrator 24.3.0, SVG Export Plug-In . SVG Version: 6.00 Build 0)  -->
<svg version="1.1" id="Layer_1" xmlns="http://www.w3.org/2000/svg" xmlns:xlink="http://www.w3.org/1999/xlink" x="0px" y="0px"
	 viewBox="0 0 595.28 841.89" style="enable-background:new 0 0 595.28 841.89;" xml:space="preserve">
<style type="text/css">
	.st0{font-family:'Helvetica-Narrow-Bold';}
	.st1{font-size:43.7069px;}
	.st2{font-size:88.8078px;}
	.st3{font-size:84.3441px;}
	.st4{font-size:41.5105px;}
	.st5{font-size:34.8762px;}
	.st6{font-size:34.8727px;}
	.st7{font-size:31.4974px;}
</style>
<g>
	<text transform="matrix(0.4079 0 0 1 212.3359 469.5895)" class="st0 st1">W</text>
	<text transform="matrix(0.2928 0 0 1 212 437.2224)" class="st0 st2">V</text>
	<text transform="matrix(0.5405 0 0 1 228.2031 469.5895)" class="st0 st1">M</text>
	<text transform="matrix(0.3244 0 0 1 227.6719 437.2224)" class="st0 st2">H</text>
	<text transform="matrix(0.6377 0 0 1 244.9609 469.5895)" class="st0 st1">D</text>
	<text transform="matrix(0.3068 0 0 1 246.0859 435.6286)" class="st0 st3">C</text>
	<text transform="matrix(0.7015 0 0 1 263.1328 468.7302)" class="st0 st4">S</text>
	<text transform="matrix(0.3439 0 0 1 261.9062 437.2224)" class="st0 st2">P</text>
	<text transform="matrix(0.6399 0 0 1 281.3594 469.5895)" class="st0 st1">T</text>
	<text transform="matrix(0.3068 0 0 1 280.6406 435.6286)" class="st0 st3">C</text>
	<text transform="matrix(0.6773 0 0 1 297.2969 469.5895)" class="st0 st5">M</text>
	<text transform="matrix(1.0235 0 0 1 296.3359 443.6755)" class="st0 st5">L</text>
	<text transform="matrix(0.7844 0 0 1 296.9375 417.5192)" class="st0 st6">K</text>
	<text transform="matrix(0.6773 0 0 1 314.5703 469.5895)" class="st0 st5">M</text>
	<text transform="matrix(1.0235 0 0 1 313.6094 443.6755)" class="st0 st5">L</text>
	<text transform="matrix(0.7293 0 0 1 315.9141 417.5192)" class="st0 st6">A</text>
	<text transform="matrix(0.6399 0 0 1 333.1797 469.5895)" class="st0 st1">T</text>
	<text transform="matrix(0.3068 0 0 1 332.4609 435.6286)" class="st0 st3">C</text>
	<text transform="matrix(0.7992 0 0 1 348.4141 469.5895)" class="st0 st5">R</text>
	<text transform="matrix(0.7394 0 0 1 349.9609 441.8474)" class="st0 st7">Q</text>
	<text transform="matrix(0.6774 0 0 1 349.125 417.5192)" class="st0 st6">M</text>
	<text transform="matrix(0.5801 0 0 1 367.6328 469.5895)" class="st0 st1">Y</text>
	<text transform="matrix(0.4019 0 0 1 365.4297 437.238)" class="st0 st2">L</text>
</g>
</svg>
