<?xml version="1.0" encoding="utf-8"?>
<!-- Generator: Adobe Illustrator 24.3.0, SVG Export Plug-In . SVG Version: 6.00 Build 0)  -->
<svg version="1.1" id="Layer_1" xmlns="http://www.w3.org/2000/svg" xmlns:xlink="http://www.w3.org/1999/xlink" x="0px" y="0px"
	 viewBox="0 0 595.28 841.89" style="enable-background:new 0 0 595.28 841.89;" xml:space="preserve">
<style type="text/css">
	.st0{font-family:'Helvetica-Narrow-Bold';}
	.st1{font-size:10px;}
	.st2{font-size:0.1344px;}
	.st3{font-size:0.3107px;}
	.st4{font-size:1.4316px;}
	.st5{font-size:3.7922px;}
	.st6{font-size:5.7264px;}
	.st7{font-size:6.1277px;}
	.st8{font-size:11.0999px;}
	.st9{font-size:11.8995px;}
	.st10{font-size:13.0629px;}
	.st11{font-size:0.6026px;}
	.st12{font-size:0.6545px;}
	.st13{font-size:0.8805px;}
	.st14{font-size:12.0406px;}
	.st15{font-size:22.7012px;}
	.st16{font-size:79.8912px;}
</style>
<g>
	<text transform="matrix(1 0 0 1 213.8828 460.9313)" class="st0 st1">A</text>
	<text transform="matrix(1 0 0 1 220.8203 459.861)" class="st0 st2">I</text>
	<text transform="matrix(98.4322 0 0 1 212 458.8766)" class="st0 st3">K</text>
	<text transform="matrix(22.7384 0 0 1 212.8203 457.5954)" class="st0 st4">S</text>
	<text transform="matrix(6.8643 0 0 1 232.5234 465.7829)" class="st0 st5">Q</text>
	<text transform="matrix(6.3807 0 0 1 230.4375 462.0485)" class="st0 st6">F</text>
	<text transform="matrix(5.3123 0 0 1 232.0078 456.736)" class="st0 st7">S</text>
	<text transform="matrix(2.8167 0 0 1 233.0703 451.3688)" class="st0 st8">T</text>
	<text transform="matrix(3.3534 0 0 1 230.5078 442.3063)" class="st0 st9">L</text>
	<text transform="matrix(2.2251 0 0 1 232.7891 432.822)" class="st0 st10">V</text>
	<text transform="matrix(60.6304 0 0 1 326.4219 461.2985)" class="st0 st11">F</text>
	<text transform="matrix(27.8033 0 0 1 335.9844 459.8688)" class="st0 st12">I</text>
	<text transform="matrix(45.3217 0 0 1 326.4609 458.3688)" class="st0 st13">L</text>
	<text transform="matrix(2.3539 0 0 1 367.3281 466.7673)" class="st0 st14">Y</text>
	<text transform="matrix(1.3726 0 0 1 365.1562 457.0798)" class="st0 st15">R</text>
	<text transform="matrix(0.3828 0 0 1 365.5391 439.7595)" class="st0 st16">K</text>
</g>
</svg>
