<?xml version="1.0" encoding="utf-8"?>
<!-- Generator: Adobe Illustrator 24.3.0, SVG Export Plug-In . SVG Version: 6.00 Build 0)  -->
<svg version="1.1" id="Layer_1" xmlns="http://www.w3.org/2000/svg" xmlns:xlink="http://www.w3.org/1999/xlink" x="0px" y="0px"
	 viewBox="0 0 595.28 841.89" style="enable-background:new 0 0 595.28 841.89;" xml:space="preserve">
<style type="text/css">
	.st0{font-family:'Helvetica-Narrow-Bold';}
	.st1{font-size:0.3809px;}
	.st2{font-size:0.382px;}
	.st3{font-size:2.0486px;}
	.st4{font-size:2.1593px;}
	.st5{font-size:2.1594px;}
	.st6{font-size:3.9341px;}
	.st7{font-size:9.2584px;}
	.st8{font-size:1.5947px;}
	.st9{font-size:4.3532px;}
	.st10{font-size:4.5833px;}
	.st11{font-size:7.5718px;}
	.st12{font-size:10.5603px;}
	.st13{font-size:19.5259px;}
	.st14{font-size:0.3338px;}
	.st15{font-size:0.3021px;}
	.st16{font-size:0.3186px;}
	.st17{font-size:2.0613px;}
	.st18{font-size:2.0634px;}
	.st19{font-size:5.2371px;}
	.st20{font-size:7.2368px;}
	.st21{font-size:1.7717px;}
	.st22{font-size:4.9335px;}
	.st23{font-size:8.0953px;}
	.st24{font-size:28.7192px;}
	.st25{font-size:0.9826px;}
	.st26{font-size:0.9827px;}
	.st27{font-size:3.3592px;}
	.st28{font-size:3.1935px;}
	.st29{font-size:5.4482px;}
	.st30{font-size:8.1121px;}
	.st31{font-size:12.8864px;}
	.st32{font-size:0.6154px;}
	.st33{font-size:0.6497px;}
	.st34{font-size:2.7611px;}
	.st35{font-size:2.6192px;}
	.st36{font-size:4.8368px;}
	.st37{font-size:11.0636px;}
	.st38{font-size:0.3261px;}
	.st39{font-size:0.326px;}
	.st40{font-size:0.2959px;}
	.st41{font-size:0.3079px;}
	.st42{font-size:2.046px;}
	.st43{font-size:1.943px;}
	.st44{font-size:5.4822px;}
	.st45{font-size:8.9323px;}
	.st46{font-size:0.2676px;}
	.st47{font-size:0.2551px;}
	.st48{font-size:0.2675px;}
	.st49{font-size:1.9327px;}
	.st50{font-size:1.9344px;}
	.st51{font-size:1.8337px;}
	.st52{font-size:3.594px;}
	.st53{font-size:5.2554px;}
	.st54{font-size:0.4471px;}
	.st55{font-size:0.4045px;}
	.st56{font-size:2.2881px;}
	.st57{font-size:2.1718px;}
	.st58{font-size:4.1254px;}
	.st59{font-size:4.1255px;}
	.st60{font-size:7.8074px;}
	.st61{font-size:2.7917px;}
	.st62{font-size:2.5216px;}
	.st63{font-size:19.5373px;}
	.st64{font-size:23.7228px;}
	.st65{font-size:40.4647px;}
</style>
<g>
	<text transform="matrix(66.5545 0 0 1 212.2031 457.7746)" class="st0 st1">Y</text>
	<text transform="matrix(68.2551 0 0 1 212.0391 456.673)" class="st0 st1">V</text>
	<text transform="matrix(73.4129 0 0 1 212.3281 455.3215)" class="st0 st1">T</text>
	<text transform="matrix(93.7009 0 0 1 210 453.9699)" class="st0 st1">L</text>
	<text transform="matrix(42.6114 0 0 1 218.375 452.8605)" class="st0 st2">I</text>
	<text transform="matrix(73.1759 0 0 1 210.4844 451.5168)" class="st0 st1">D</text>
	<text transform="matrix(14.2134 0 0 1 211.3594 450.1183)" class="st0 st3">S</text>
	<text transform="matrix(12.9085 0 0 1 210.2812 447.7043)" class="st0 st4">R</text>
	<text transform="matrix(12.2994 0 0 1 211.5156 445.2043)" class="st0 st3">G</text>
	<text transform="matrix(11.7772 0 0 1 212.3281 442.548)" class="st0 st5">A</text>
	<text transform="matrix(6.9535 0 0 1 210.6172 440.0871)" class="st0 st6">K</text>
	<text transform="matrix(3.1118 0 0 1 210.4609 436.2824)" class="st0 st7">H</text>
	<text transform="matrix(18.0664 0 0 1 227.8047 457.7746)" class="st0 st8">N</text>
	<text transform="matrix(6.6888 0 0 1 228.6406 455.5558)" class="st0 st9">S</text>
	<text transform="matrix(7.1311 0 0 1 227.2266 451.3918)" class="st0 st10">F</text>
	<text transform="matrix(4.7141 0 0 1 227.2969 447.1262)" class="st0 st11">L</text>
	<text transform="matrix(2.4622 0 0 1 229.3281 440.7199)" class="st0 st12">V</text>
	<text transform="matrix(2.4082 0 0 1 229.6016 432.1965)" class="st0 st12">A</text>
	<text transform="matrix(1.4323 0 0 1 229.5859 423.673)" class="st0 st13">T</text>
	<text transform="matrix(83.7856 0 0 1 246.8672 457.7824)" class="st0 st14">T</text>
	<text transform="matrix(83.5079 0 0 1 244.8281 456.7355)" class="st0 st14">R</text>
	<text transform="matrix(77.0856 0 0 1 246.375 455.4543)" class="st0 st15">Q</text>
	<text transform="matrix(1 0 0 1 244.5703 454.1808)" class="st0 st14">L</text>
	<text transform="matrix(79.0874 0 0 1 246.0781 452.8918)" class="st0 st16">G</text>
	<text transform="matrix(81.2243 0 0 1 246.1328 451.6105)" class="st0 st16">C</text>
	<text transform="matrix(14.8143 0 0 1 244.6797 450.3449)" class="st0 st17">P</text>
	<text transform="matrix(7.8885 0 0 1 252.9297 448.0324)" class="st0 st18">I</text>
	<text transform="matrix(15.8557 0 0 1 244.5078 445.4699)" class="st0 st17">F</text>
	<text transform="matrix(12.3373 0 0 1 246.8672 442.9074)" class="st0 st17">A</text>
	<text transform="matrix(5.5598 0 0 1 245.9062 440.4855)" class="st0 st19">S</text>
	<text transform="matrix(3.5929 0 0 1 246.6016 435.4777)" class="st0 st20">V</text>
	<text transform="matrix(14.676 0 0 1 263.875 457.7746)" class="st0 st21">V</text>
	<text transform="matrix(15.7328 0 0 1 262.1016 455.634)" class="st0 st21">R</text>
	<text transform="matrix(17.3995 0 0 1 261.9297 453.2512)" class="st0 st21">E</text>
	<text transform="matrix(4.7883 0 0 1 262.8047 451.1105)" class="st0 st22">M</text>
	<text transform="matrix(5.6498 0 0 1 262.2969 446.5949)" class="st0 st22">D</text>
	<text transform="matrix(3.7722 0 0 1 261.9609 442.0637)" class="st0 st23">P</text>
	<text transform="matrix(4.0374 0 0 1 261.7812 435.1574)" class="st0 st23">F</text>
	<text transform="matrix(0.8774 0 0 1 263.3438 427.9543)" class="st0 st24">G</text>
	<text transform="matrix(27.8389 0 0 1 279.7266 457.7824)" class="st0 st25">K</text>
	<text transform="matrix(28.3647 0 0 1 279.5703 456.2902)" class="st0 st26">D</text>
	<text transform="matrix(8.3252 0 0 1 281.4141 454.548)" class="st0 st27">T</text>
	<text transform="matrix(9.1179 0 0 1 280.4609 451.0246)" class="st0 st28">S</text>
	<text transform="matrix(9.0908 0 0 1 279.2344 447.6183)" class="st0 st27">P</text>
	<text transform="matrix(9.7297 0 0 1 279.0547 444.1496)" class="st0 st27">F</text>
	<text transform="matrix(4.6248 0 0 1 280.6172 440.8215)" class="st0 st29">G</text>
	<text transform="matrix(4.4001 0 0 1 279.1094 435.7355)" class="st0 st30">L</text>
	<text transform="matrix(1.2631 0 0 1 287.4766 428.798)" class="st0 st31">I</text>
	<text transform="matrix(37.8431 0 0 1 298.1875 457.7433)" class="st0 st32">Q</text>
	<text transform="matrix(39.8275 0 0 1 297.9609 456.4699)" class="st0 st33">C</text>
	<text transform="matrix(10.1287 0 0 1 298.6797 454.9387)" class="st0 st34">T</text>
	<text transform="matrix(10.0949 0 0 1 296.6484 451.8605)" class="st0 st34">R</text>
	<text transform="matrix(11.06 0 0 1 296.5 449.0168)" class="st0 st34">P</text>
	<text transform="matrix(10.4345 0 0 1 296.9141 445.9308)" class="st0 st34">N</text>
	<text transform="matrix(9.6202 0 0 1 297.8906 443.0402)" class="st0 st35">G</text>
	<text transform="matrix(9.2106 0 0 1 298.6953 440.0012)" class="st0 st34">A</text>
	<text transform="matrix(7.3798 0 0 1 296.3906 436.923)" class="st0 st36">L</text>
	<text transform="matrix(2.9542 0 0 1 296.3281 432.5402)" class="st0 st37">F</text>
	<text transform="matrix(77.7584 0 0 1 315.8594 457.7746)" class="st0 st38">Y</text>
	<text transform="matrix(85.787 0 0 1 315.9766 456.759)" class="st0 st39">T</text>
	<text transform="matrix(78.7048 0 0 1 315.4688 455.4699)" class="st0 st40">Q</text>
	<text transform="matrix(93.6577 0 0 1 313.7812 454.2121)" class="st0 st38">P</text>
	<text transform="matrix(72.4513 0 0 1 314.625 452.9543)" class="st0 st38">M</text>
	<text transform="matrix(83.899 0 0 1 314.2891 451.6808)" class="st0 st38">K</text>
	<text transform="matrix(88.3613 0 0 1 314.1016 450.4074)" class="st0 st38">H</text>
	<text transform="matrix(1 0 0 1 313.6094 449.1418)" class="st0 st38">F</text>
	<text transform="matrix(84.0359 0 0 1 315.2266 448.1105)" class="st0 st41">C</text>
	<text transform="matrix(8.7136 0 0 1 316.0469 446.8449)" class="st0 st42">W</text>
	<text transform="matrix(14.986 0 0 1 315.0078 444.2668)" class="st0 st43">S</text>
	<text transform="matrix(5.0844 0 0 1 313.9219 441.7668)" class="st0 st44">R</text>
	<text transform="matrix(1.8223 0 0 1 322.0234 436.9387)" class="st0 st45">I</text>
	<text transform="matrix(97.1735 0 0 1 332.9688 457.7824)" class="st0 st46">V</text>
	<text transform="matrix(1 0 0 1 332.2812 456.5949)" class="st0 st47">S</text>
	<text transform="matrix(1 0 0 1 330.9375 455.3996)" class="st0 st48">L</text>
	<text transform="matrix(1 0 0 1 330.875 454.2199)" class="st0 st46">F</text>
	<text transform="matrix(1 0 0 1 331.0312 453.0324)" class="st0 st48">E</text>
	<text transform="matrix(1 0 0 1 331.3984 451.8449)" class="st0 st48">D</text>
	<text transform="matrix(12.2231 0 0 1 331.9062 450.6574)" class="st0 st49">M</text>
	<text transform="matrix(8.4148 0 0 1 339.2969 448.2824)" class="st0 st50">I</text>
	<text transform="matrix(14.1124 0 0 1 332.5078 445.8762)" class="st0 st51">C</text>
	<text transform="matrix(7.0544 0 0 1 333.1406 443.5324)" class="st0 st52">Y</text>
	<text transform="matrix(5.3214 0 0 1 333.2344 439.9855)" class="st0 st53">T</text>
	<text transform="matrix(4.8391 0 0 1 333.2422 435.2355)" class="st0 st53">A</text>
	<text transform="matrix(56.7013 0 0 1 350.4062 457.7746)" class="st0 st54">Y</text>
	<text transform="matrix(62.5498 0 0 1 350.5156 456.5715)" class="st0 st54">T</text>
	<text transform="matrix(57.5756 0 0 1 350.0156 455.3527)" class="st0 st55">Q</text>
	<text transform="matrix(64.4328 0 0 1 348.6406 453.9387)" class="st0 st54">H</text>
	<text transform="matrix(12.182 0 0 1 348.4688 452.7355)" class="st0 st56">R</text>
	<text transform="matrix(15.6001 0 0 1 348.2109 450.0871)" class="st0 st56">L</text>
	<text transform="matrix(11.6017 0 0 1 349.7109 447.4074)" class="st0 st57">G</text>
	<text transform="matrix(14.2841 0 0 1 348.1484 444.798)" class="st0 st56">F</text>
	<text transform="matrix(6.9836 0 0 1 348.7422 442.1574)" class="st0 st58">N</text>
	<text transform="matrix(6.6309 0 0 1 348.8203 438.0637)" class="st0 st59">K</text>
	<text transform="matrix(3.2573 0 0 1 350.5156 434.2277)" class="st0 st60">A</text>
	<text transform="matrix(9.0819 0 0 1 367.6875 457.7824)" class="st0 st61">Y</text>
	<text transform="matrix(9.2353 0 0 1 367.2969 454.7355)" class="st0 st62">Q</text>
	<text transform="matrix(1.3309 0 0 1 367.5234 451.9933)" class="st0 st63">V</text>
	<text transform="matrix(1.1531 0 0 1 366.0938 436.8293)" class="st0 st64">K</text>
	<text transform="matrix(0.6888 0 0 1 365.75 418.759)" class="st0 st65">R</text>
</g>
</svg>
