<?xml version="1.0" encoding="utf-8"?>
<!-- Generator: Adobe Illustrator 24.3.0, SVG Export Plug-In . SVG Version: 6.00 Build 0)  -->
<svg version="1.1" id="Layer_1" xmlns="http://www.w3.org/2000/svg" xmlns:xlink="http://www.w3.org/1999/xlink" x="0px" y="0px"
	 viewBox="0 0 595.28 841.89" style="enable-background:new 0 0 595.28 841.89;" xml:space="preserve">
<style type="text/css">
	.st0{font-family:'Helvetica-Narrow-Bold';}
	.st1{font-size:64.6335px;}
	.st2{font-size:64.6337px;}
	.st3{font-size:61.3845px;}
	.st4{font-size:61.3843px;}
	.st5{font-size:61.3844px;}
</style>
<g>
	<text transform="matrix(0.4327 0 0 1 213.3594 464.2775)" class="st0 st1">T</text>
	<text transform="matrix(0.5057 0 0 1 211 416.9885)" class="st0 st2">F</text>
	<text transform="matrix(0.4023 0 0 1 230.375 464.2775)" class="st0 st1">V</text>
	<text transform="matrix(0.4743 0 0 1 229.6875 415.7072)" class="st0 st3">S</text>
	<text transform="matrix(0.3923 0 0 1 247.8203 464.2775)" class="st0 st1">Y</text>
	<text transform="matrix(0.5523 0 0 1 245.6094 416.9885)" class="st0 st2">L</text>
	<text transform="matrix(0.4105 0 0 1 264.3906 463.1135)" class="st0 st4">G</text>
	<text transform="matrix(0.4769 0 0 1 262.9844 416.9885)" class="st0 st2">E</text>
	<text transform="matrix(0.4458 0 0 1 280.6875 464.2775)" class="st0 st1">N</text>
	<text transform="matrix(0.4105 0 0 1 281.6641 415.8166)" class="st0 st5">G</text>
	<text transform="matrix(0.4743 0 0 1 298.7812 462.9963)" class="st0 st3">S</text>
	<text transform="matrix(0.4105 0 0 1 298.9453 415.8166)" class="st0 st5">G</text>
	<text transform="matrix(0.5523 0 0 1 314.7109 464.2775)" class="st0 st1">L</text>
	<text transform="matrix(0.4232 0 0 1 315.3203 416.9885)" class="st0 st2">K</text>
	<text transform="matrix(0.4327 0 0 1 334.2812 464.2775)" class="st0 st1">T</text>
	<text transform="matrix(0.4232 0 0 1 332.5938 416.9885)" class="st0 st2">K</text>
	<text transform="matrix(0.4743 0 0 1 350.6094 462.9963)" class="st0 st3">S</text>
	<text transform="matrix(0.4725 0 0 1 349.375 416.9885)" class="st0 st2">P</text>
	<text transform="matrix(0.4023 0 0 1 368.5703 464.2775)" class="st0 st1">V</text>
	<text transform="matrix(0.5523 0 0 1 366.5312 416.9885)" class="st0 st2">L</text>
</g>
</svg>
