<?xml version="1.0" encoding="utf-8"?>
<!-- Generator: Adobe Illustrator 24.3.0, SVG Export Plug-In . SVG Version: 6.00 Build 0)  -->
<svg version="1.1" id="Layer_1" xmlns="http://www.w3.org/2000/svg" xmlns:xlink="http://www.w3.org/1999/xlink" x="0px" y="0px"
	 viewBox="0 0 595.28 841.89" style="enable-background:new 0 0 595.28 841.89;" xml:space="preserve">
<style type="text/css">
	.st0{font-family:'Helvetica-Narrow-Bold';}
	.st1{font-size:0.1702px;}
	.st2{font-size:0.5291px;}
	.st3{font-size:0.5804px;}
	.st4{font-size:1.1838px;}
	.st5{font-size:4.0066px;}
	.st6{font-size:3.985px;}
	.st7{font-size:5.4775px;}
	.st8{font-size:11.2825px;}
	.st9{font-size:11.4754px;}
	.st10{font-size:17.0875px;}
	.st11{font-size:10px;}
	.st12{font-size:0.0935px;}
	.st13{font-size:9.8589px;}
	.st14{font-size:15.1087px;}
	.st15{font-size:94.6199px;}
</style>
<g>
	<text transform="matrix(1 0 0 1 211 464.1808)" class="st0 st1">L</text>
	<text transform="matrix(52.8536 0 0 1 213.3281 463.134)" class="st0 st2">T</text>
	<text transform="matrix(47.1321 0 0 1 211.6094 461.5715)" class="st0 st3">K</text>
	<text transform="matrix(24.597 0 0 1 212.3594 460.1496)" class="st0 st4">S</text>
	<text transform="matrix(7.2674 0 0 1 229.6406 468.6496)" class="st0 st5">S</text>
	<text transform="matrix(5.8439 0 0 1 230.0938 464.5246)" class="st0 st6">Q</text>
	<text transform="matrix(5.9669 0 0 1 228.2266 460.4933)" class="st0 st7">F</text>
	<text transform="matrix(2.3046 0 0 1 230.3281 455.673)" class="st0 st8">V</text>
	<text transform="matrix(2.4371 0 0 1 230.5859 446.5871)" class="st0 st9">T</text>
	<text transform="matrix(2.0889 0 0 1 228.2891 437.2355)" class="st0 st10">L</text>
	<text transform="matrix(1 0 0 1 247.7578 463.2746)" class="st0 st11">Y</text>
	<text transform="matrix(1 0 0 1 316.0156 464.0715)" class="st0 st11">S</text>
	<text transform="matrix(1 0 0 1 323.0234 463.0402)" class="st0 st11">I</text>
	<text transform="matrix(1 0 0 1 331.9375 463.6027)" class="st0 st12">L</text>
	<text transform="matrix(2.5716 0 0 1 368.6953 469.0246)" class="st0 st13">Y</text>
	<text transform="matrix(1.8449 0 0 1 366.75 460.7824)" class="st0 st14">R</text>
	<text transform="matrix(0.2891 0 0 1 367.0938 449.0871)" class="st0 st15">K</text>
</g>
</svg>
