<?xml version="1.0" encoding="utf-8"?>
<!-- Generator: Adobe Illustrator 24.3.0, SVG Export Plug-In . SVG Version: 6.00 Build 0)  -->
<svg version="1.1" id="Layer_1" xmlns="http://www.w3.org/2000/svg" xmlns:xlink="http://www.w3.org/1999/xlink" x="0px" y="0px"
	 viewBox="0 0 595.28 841.89" style="enable-background:new 0 0 595.28 841.89;" xml:space="preserve">
<style type="text/css">
	.st0{font-family:'Helvetica-Narrow-Bold';}
	.st1{font-size:9.9281px;}
	.st2{font-size:10.4553px;}
	.st3{font-size:22.3008px;}
	.st4{font-size:11.065px;}
	.st5{font-size:9.9943px;}
	.st6{font-size:11.0649px;}
	.st7{font-size:35.9825px;}
	.st8{font-size:8.8325px;}
	.st9{font-size:8.8326px;}
	.st10{font-size:8.3879px;}
	.st11{font-size:19.0553px;}
	.st12{font-size:9.4411px;}
	.st13{font-size:22.3009px;}
	.st14{font-size:13.6971px;}
	.st15{font-size:13.6972px;}
	.st16{font-size:13.0086px;}
	.st17{font-size:58.9743px;}
	.st18{font-size:10.5091px;}
	.st19{font-size:11.0812px;}
	.st20{font-size:7.9751px;}
	.st21{font-size:8.8425px;}
	.st22{font-size:12.6877px;}
	.st23{font-size:12.7048px;}
	.st24{font-size:26.7694px;}
	.st25{font-size:40.8508px;}
</style>
<g>
	<text transform="matrix(3.2788 0 0 1 211.5078 460.4235)" class="st0 st1">S</text>
	<text transform="matrix(2.526 0 0 1 211.0781 452.2595)" class="st0 st2">M</text>
	<text transform="matrix(3.2962 0 0 1 210.1094 443.6501)" class="st0 st2">E</text>
	<text transform="matrix(1.7894 0 0 1 210 435.2751)" class="st0 st3">L</text>
	<text transform="matrix(1.3714 0 0 1 210.6797 418.2907)" class="st0 st3">K</text>
	<text transform="matrix(2.8256 0 0 1 231.7578 460.6266)" class="st0 st4">T</text>
	<text transform="matrix(2.6046 0 0 1 231.2109 451.2829)" class="st0 st5">Q</text>
	<text transform="matrix(3.0853 0 0 1 229.3281 442.8532)" class="st0 st6">P</text>
	<text transform="matrix(2.3868 0 0 1 230.2734 433.8376)" class="st0 st6">M</text>
	<text transform="matrix(0.7902 0 0 1 231.7812 425.072)" class="st0 st7">A</text>
	<text transform="matrix(3.2909 0 0 1 250.6641 460.6266)" class="st0 st8">V</text>
	<text transform="matrix(3.8651 0 0 1 248.5156 453.3923)" class="st0 st8">P</text>
	<text transform="matrix(3.4626 0 0 1 249.0703 446.1501)" class="st0 st9">K</text>
	<text transform="matrix(3.3581 0 0 1 250.0703 438.5095)" class="st0 st10">G</text>
	<text transform="matrix(3.219 0 0 1 250.9688 431.4313)" class="st0 st9">A</text>
	<text transform="matrix(1.6353 0 0 1 248.6797 423.947)" class="st0 st11">R</text>
	<text transform="matrix(2.9804 0 0 1 267.875 460.6266)" class="st0 st2">R</text>
	<text transform="matrix(2.7572 0 0 1 269.6016 451.7126)" class="st0 st12">Q</text>
	<text transform="matrix(3.8167 0 0 1 267.5859 443.6501)" class="st0 st2">L</text>
	<text transform="matrix(1.402 0 0 1 270.1484 435.2751)" class="st0 st13">T</text>
	<text transform="matrix(1.3714 0 0 1 268.2656 418.2907)" class="st0 st3">K</text>
	<text transform="matrix(2.2826 0 0 1 289.3438 460.6345)" class="st0 st14">T</text>
	<text transform="matrix(2.3512 0 0 1 287.2656 450.0016)" class="st0 st15">H</text>
	<text transform="matrix(2.1653 0 0 1 288.4609 438.8766)" class="st0 st16">G</text>
	<text transform="matrix(0.5284 0 0 1 287.0703 428.2516)" class="st0 st17">R</text>
	<text transform="matrix(3.5397 0 0 1 308.5391 460.6266)" class="st0 st8">T</text>
	<text transform="matrix(3.5279 0 0 1 306.2578 453.3923)" class="st0 st8">R</text>
	<text transform="matrix(4.1368 0 0 1 305.8984 446.1423)" class="st0 st8">F</text>
	<text transform="matrix(3.5279 0 0 1 306.4766 438.6657)" class="st0 st8">D</text>
	<text transform="matrix(3.219 0 0 1 308.5469 431.4313)" class="st0 st9">A</text>
	<text transform="matrix(1.5254 0 0 1 308.2422 423.947)" class="st0 st11">V</text>
	<text transform="matrix(3.0975 0 0 1 326.6641 460.4157)" class="st0 st18">S</text>
	<text transform="matrix(3.6064 0 0 1 325.1641 451.8532)" class="st0 st4">L</text>
	<text transform="matrix(1.6421 0 0 1 334.6719 442.8532)" class="st0 st19">I</text>
	<text transform="matrix(2.6803 0 0 1 326.8516 433.6423)" class="st0 st18">G</text>
	<text transform="matrix(0.8078 0 0 1 327.4375 425.072)" class="st0 st7">V</text>
	<text transform="matrix(3.5279 0 0 1 344.6484 460.6266)" class="st0 st8">R</text>
	<text transform="matrix(3.264 0 0 1 346.3828 452.9235)" class="st0 st20">Q</text>
	<text transform="matrix(3.8651 0 0 1 344.4922 446.1501)" class="st0 st9">P</text>
	<text transform="matrix(2.0579 0 0 1 353.8672 438.6657)" class="st0 st21">I</text>
	<text transform="matrix(3.9018 0 0 1 344.4609 431.4313)" class="st0 st9">E</text>
	<text transform="matrix(1.4921 0 0 1 346.9375 423.947)" class="st0 st11">A</text>
	<text transform="matrix(2.291 0 0 1 365.8359 460.6345)" class="st0 st22">V</text>
	<text transform="matrix(1.4323 0 0 1 373.0547 450.736)" class="st0 st23">I</text>
	<text transform="matrix(1.0621 0 0 1 366.1328 440.5954)" class="st0 st24">A</text>
	<text transform="matrix(0.9768 0 0 1 363.5547 420.3063)" class="st0 st25">L</text>
</g>
</svg>
