<?xml version="1.0" encoding="utf-8"?>
<!-- Generator: Adobe Illustrator 24.3.0, SVG Export Plug-In . SVG Version: 6.00 Build 0)  -->
<svg version="1.1" id="Layer_1" xmlns="http://www.w3.org/2000/svg" xmlns:xlink="http://www.w3.org/1999/xlink" x="0px" y="0px"
	 viewBox="0 0 595.28 841.89" style="enable-background:new 0 0 595.28 841.89;" xml:space="preserve">
<style type="text/css">
	.st0{font-family:'Helvetica-Narrow-Bold';}
	.st1{font-size:64.6335px;}
	.st2{font-size:64.6337px;}
	.st3{font-size:64.7262px;}
	.st4{font-size:58.3756px;}
	.st5{font-size:170.4154px;}
</style>
<g>
	<text transform="matrix(0.5523 0 0 1 211 471.5285)" class="st0 st1">L</text>
	<text transform="matrix(0.4313 0 0 1 211.4609 424.2394)" class="st0 st2">D</text>
	<text transform="matrix(0.4023 0 0 1 230.3125 471.5285)" class="st0 st1">V</text>
	<text transform="matrix(0.2515 0 0 1 236.6328 424.2316)" class="st0 st3">I</text>
	<text transform="matrix(0.4327 0 0 1 247.8438 471.5285)" class="st0 st1">T</text>
	<text transform="matrix(0.4232 0 0 1 246.1562 424.2394)" class="st0 st2">K</text>
	<text transform="matrix(0.3989 0 0 1 264.625 468.1457)" class="st0 st4">Q</text>
	<text transform="matrix(0.4232 0 0 1 263.4297 424.2394)" class="st0 st2">K</text>
	<text transform="matrix(0.4023 0 0 1 282.1406 471.5285)" class="st0 st1">V</text>
	<text transform="matrix(0.4313 0 0 1 280.3594 424.2394)" class="st0 st2">R</text>
	<text transform="matrix(0.4313 0 0 1 297.6328 471.5285)" class="st0 st1">R</text>
	<text transform="matrix(0.4232 0 0 1 297.9844 424.2394)" class="st0 st2">K</text>
	<text transform="matrix(0.2758 0 0 1 317.0234 471.5285)" class="st0 st1">W</text>
	<text transform="matrix(0.2515 0 0 1 323.0078 424.2316)" class="st0 st3">I</text>
	<text transform="matrix(0.4023 0 0 1 333.9609 471.5285)" class="st0 st1">V</text>
	<text transform="matrix(0.4232 0 0 1 332.5312 424.2394)" class="st0 st2">K</text>
	<text transform="matrix(0.4023 0 0 1 351.2344 471.5285)" class="st0 st1">V</text>
	<text transform="matrix(0.4327 0 0 1 351.4844 424.2394)" class="st0 st2">T</text>
	<text transform="matrix(0.1918 0 0 1 366.4062 471.5285)" class="st0 st5">F</text>
</g>
</svg>
