<?xml version="1.0" encoding="utf-8"?>
<!-- Generator: Adobe Illustrator 24.3.0, SVG Export Plug-In . SVG Version: 6.00 Build 0)  -->
<svg version="1.1" id="Layer_1" xmlns="http://www.w3.org/2000/svg" xmlns:xlink="http://www.w3.org/1999/xlink" x="0px" y="0px"
	 viewBox="0 0 595.28 841.89" style="enable-background:new 0 0 595.28 841.89;" xml:space="preserve">
<style type="text/css">
	.st0{font-family:'Helvetica-Narrow-Bold';}
	.st1{font-size:61.3873px;}
	.st2{font-size:64.6367px;}
	.st3{font-size:170.416px;}
	.st4{font-size:64.6365px;}
</style>
<g>
	<text transform="matrix(0.5303 0 0 1 210.5 470.2321)" class="st0 st1">S</text>
	<text transform="matrix(0.6174 0 0 1 209 424.2243)" class="st0 st2">L</text>
	<text transform="matrix(0.1668 0 0 1 230.7656 471.529)" class="st0 st3">A</text>
	<text transform="matrix(0.4385 0 0 1 249.8516 471.5212)" class="st0 st4">Y</text>
	<text transform="matrix(0.4086 0 0 1 248.4609 424.2243)" class="st0 st2">M</text>
	<text transform="matrix(0.5282 0 0 1 266.7109 471.5212)" class="st0 st4">P</text>
	<text transform="matrix(0.4589 0 0 1 268.2578 423.0602)" class="st0 st1">G</text>
	<text transform="matrix(0.5653 0 0 1 285.6953 471.5212)" class="st0 st4">F</text>
	<text transform="matrix(0.5332 0 0 1 285.875 424.2243)" class="st0 st2">E</text>
	<text transform="matrix(0.5282 0 0 1 305.0938 471.5212)" class="st0 st4">P</text>
	<text transform="matrix(0.4399 0 0 1 307.5469 424.2243)" class="st0 st2">A</text>
	<text transform="matrix(0.4837 0 0 1 326.7266 471.5212)" class="st0 st4">T</text>
	<text transform="matrix(0.4821 0 0 1 324.4453 424.2243)" class="st0 st2">R</text>
	<text transform="matrix(0.5282 0 0 1 343.4844 471.5212)" class="st0 st4">P</text>
	<text transform="matrix(0.4732 0 0 1 344.0312 424.2243)" class="st0 st2">K</text>
	<text transform="matrix(0.4086 0 0 1 363.625 471.5212)" class="st0 st4">M</text>
	<text transform="matrix(0.6174 0 0 1 362.5469 424.2243)" class="st0 st2">L</text>
</g>
</svg>
