<?xml version="1.0" encoding="utf-8"?>
<!-- Generator: Adobe Illustrator 24.3.0, SVG Export Plug-In . SVG Version: 6.00 Build 0)  -->
<svg version="1.1" id="Layer_1" xmlns="http://www.w3.org/2000/svg" xmlns:xlink="http://www.w3.org/1999/xlink" x="0px" y="0px"
	 viewBox="0 0 595.28 841.89" style="enable-background:new 0 0 595.28 841.89;" xml:space="preserve">
<style type="text/css">
	.st0{font-family:'Helvetica-Narrow-Bold';}
	.st1{font-size:26.6509px;}
	.st2{font-size:25.312px;}
	.st3{font-size:54.6957px;}
	.st4{font-size:54.6958px;}
	.st5{font-size:21.6823px;}
	.st6{font-size:25.3119px;}
	.st7{font-size:64.6365px;}
	.st8{font-size:64.6367px;}
</style>
<g>
	<text transform="matrix(0.7479 0 0 1 213.1484 464.2956)" class="st0 st1">W</text>
	<text transform="matrix(1.1429 0 0 1 212.2578 443.7018)" class="st0 st2">C</text>
	<text transform="matrix(0.5697 0 0 1 211 424.0612)" class="st0 st3">D</text>
	<text transform="matrix(1.1476 0 0 1 230.3672 464.2956)" class="st0 st1">K</text>
	<text transform="matrix(1.0668 0 0 1 232.2656 444.1784)" class="st0 st1">A</text>
	<text transform="matrix(0.5697 0 0 1 229.9766 424.0768)" class="st0 st4">R</text>
	<text transform="matrix(1.0635 0 0 1 251.3516 464.2956)" class="st0 st1">Y</text>
	<text transform="matrix(1.1692 0 0 1 249.1719 444.1784)" class="st0 st1">R</text>
	<text transform="matrix(0.668 0 0 1 248.8125 424.0768)" class="st0 st4">F</text>
	<text transform="matrix(1.1692 0 0 1 268.3672 464.2956)" class="st0 st1">R</text>
	<text transform="matrix(1.4973 0 0 1 268.0781 444.1784)" class="st0 st1">L</text>
	<text transform="matrix(0.5182 0 0 1 270.5469 424.0612)" class="st0 st3">Y</text>
	<text transform="matrix(1.2084 0 0 1 287.8594 464.2956)" class="st0 st1">N</text>
	<text transform="matrix(1.1476 0 0 1 287.9453 444.1784)" class="st0 st1">K</text>
	<text transform="matrix(0.5697 0 0 1 287.5625 424.0768)" class="st0 st4">R</text>
	<text transform="matrix(1.3406 0 0 1 308.7422 464.2956)" class="st0 st5">V</text>
	<text transform="matrix(1.4419 0 0 1 309.0312 447.9597)" class="st0 st5">T</text>
	<text transform="matrix(1.8404 0 0 1 306.4688 431.3737)" class="st0 st5">L</text>
	<text transform="matrix(1.3113 0 0 1 309.0469 414.8034)" class="st0 st5">A</text>
	<text transform="matrix(1.0907 0 0 1 327.9375 464.2956)" class="st0 st1">V</text>
	<text transform="matrix(1.1692 0 0 1 325.9453 444.1784)" class="st0 st1">R</text>
	<text transform="matrix(0.7296 0 0 1 325.6562 424.0768)" class="st0 st4">L</text>
	<text transform="matrix(1.1731 0 0 1 347.4141 464.2956)" class="st0 st1">T</text>
	<text transform="matrix(1.286 0 0 1 346.3516 443.655)" class="st0 st6">S</text>
	<text transform="matrix(0.5697 0 0 1 345.1406 424.0768)" class="st0 st4">R</text>
	<text transform="matrix(0.6174 0 0 1 364.0469 464.2878)" class="st0 st7">L</text>
	<text transform="matrix(0.4399 0 0 1 366.625 416.9909)" class="st0 st8">A</text>
</g>
</svg>
