<?xml version="1.0" encoding="utf-8"?>
<!-- Generator: Adobe Illustrator 24.3.0, SVG Export Plug-In . SVG Version: 6.00 Build 0)  -->
<svg version="1.1" id="Layer_1" xmlns="http://www.w3.org/2000/svg" xmlns:xlink="http://www.w3.org/1999/xlink" x="0px" y="0px"
	 viewBox="0 0 595.28 841.89" style="enable-background:new 0 0 595.28 841.89;" xml:space="preserve">
<style type="text/css">
	.st0{font-family:'Helvetica-Narrow-Bold';}
	.st1{font-size:10px;}
	.st2{font-size:0.3244px;}
	.st3{font-size:0.5793px;}
	.st4{font-size:0.6115px;}
	.st5{font-size:0.8985px;}
	.st6{font-size:2.0448px;}
	.st7{font-size:2.6167px;}
	.st8{font-size:0.476px;}
	.st9{font-size:0.4983px;}
	.st10{font-size:0.4761px;}
	.st11{font-size:153.7583px;}
	.st12{font-size:0.1653px;}
	.st13{font-size:0.4778px;}
	.st14{font-size:0.4791px;}
	.st15{font-size:1.3429px;}
	.st16{font-size:1.728px;}
	.st17{font-size:5.1587px;}
	.st18{font-size:0.1235px;}
	.st19{font-size:0.8821px;}
	.st20{font-size:1.1382px;}
	.st21{font-size:1.318px;}
	.st22{font-size:1.388px;}
	.st23{font-size:0.1365px;}
	.st24{font-size:0.1438px;}
	.st25{font-size:0.3171px;}
	.st26{font-size:0.1549px;}
	.st27{font-size:0.3085px;}
	.st28{font-size:0.4921px;}
	.st29{font-size:0.4753px;}
	.st30{font-size:0.4532px;}
	.st31{font-size:0.7869px;}
	.st32{font-size:1.1014px;}
	.st33{font-size:1.3378px;}
	.st34{font-size:4.2137px;}
	.st35{font-size:0.4817px;}
	.st36{font-size:1.1045px;}
	.st37{font-size:1.418px;}
	.st38{font-size:1.9377px;}
	.st39{font-size:2.0405px;}
	.st40{font-size:2.3536px;}
	.st41{font-size:0.4769px;}
	.st42{font-size:2.344px;}
	.st43{font-size:4.2148px;}
	.st44{font-size:7.0172px;}
	.st45{font-size:12.6427px;}
	.st46{font-size:35.0563px;}
</style>
<g>
	<text transform="matrix(1 0 0 1 211.0781 467.4377)" class="st0 st1">V</text>
	<text transform="matrix(1 0 0 1 209.6484 466.3283)" class="st0 st1">K</text>
	<text transform="matrix(1 0 0 1 209.4766 465.4846)" class="st0 st1">H</text>
	<text transform="matrix(78.3876 0 0 1 211.3672 464.3752)" class="st0 st2">A</text>
	<text transform="matrix(50.266 0 0 1 210.3984 463.1096)" class="st0 st3">S</text>
	<text transform="matrix(53.453 0 0 1 209 461.6877)" class="st0 st4">F</text>
	<text transform="matrix(39.7288 0 0 1 209.0391 460.2502)" class="st0 st5">L</text>
	<text transform="matrix(7.9602 0 0 1 217.4141 458.6408)" class="st0 st6">I</text>
	<text transform="matrix(10.652 0 0 1 209.3203 456.0939)" class="st0 st7">R</text>
	<text transform="matrix(61.1712 0 0 1 227.6719 470.6408)" class="st0 st8">S</text>
	<text transform="matrix(32.6648 0 0 1 234.6875 469.3752)" class="st0 st9">I</text>
	<text transform="matrix(54.3563 0 0 1 227.8984 468.0939)" class="st0 st10">C</text>
	<text transform="matrix(0.1986 0 0 1 226.4453 466.5861)" class="st0 st11">P</text>
	<text transform="matrix(1 0 0 1 245.9062 464.5939)" class="st0 st12">T</text>
	<text transform="matrix(53.062 0 0 1 245.8047 463.3127)" class="st0 st13">Y</text>
	<text transform="matrix(33.9725 0 0 1 251.9609 462.0627)" class="st0 st14">I</text>
	<text transform="matrix(21.6833 0 0 1 244.9609 460.5471)" class="st0 st15">S</text>
	<text transform="matrix(14.7169 0 0 1 245.9062 458.7033)" class="st0 st16">A</text>
	<text transform="matrix(5.4032 0 0 1 243.8672 456.3908)" class="st0 st17">R</text>
	<text transform="matrix(1 0 0 1 263.0703 465.4064)" class="st0 st18">Y</text>
	<text transform="matrix(31.7035 0 0 1 263.1797 464.4299)" class="st0 st19">T</text>
	<text transform="matrix(34.6183 0 0 1 261.0078 462.8439)" class="st0 st19">P</text>
	<text transform="matrix(14.3006 0 0 1 269.2422 461.2502)" class="st0 st20">I</text>
	<text transform="matrix(22.0928 0 0 1 262.2344 459.2736)" class="st0 st21">S</text>
	<text transform="matrix(25.7172 0 0 1 260.8828 457.2346)" class="st0 st22">L</text>
	<text transform="matrix(1 0 0 1 279.5 463.8596)" class="st0 st23">S</text>
	<text transform="matrix(1 0 0 1 280.4531 462.6252)" class="st0 st24">A</text>
	<text transform="matrix(1 0 0 1 278.1641 461.6174)" class="st0 st25">L</text>
	<text transform="matrix(1 0 0 1 295.4297 462.5236)" class="st0 st26">L</text>
	<text transform="matrix(94.3976 0 0 1 296.7734 461.4846)" class="st0 st27">S</text>
	<text transform="matrix(72.5388 0 0 1 312.6953 462.5939)" class="st0 st28">L</text>
	<text transform="matrix(53.3368 0 0 1 332.1797 466.4767)" class="st0 st29">Y</text>
	<text transform="matrix(58.6383 0 0 1 330.2422 465.2346)" class="st0 st29">R</text>
	<text transform="matrix(49.6965 0 0 1 330.9453 463.7502)" class="st0 st29">M</text>
	<text transform="matrix(55.601 0 0 1 331.4766 462.4924)" class="st0 st30">G</text>
	<text transform="matrix(35.5408 0 0 1 332.2734 461.2658)" class="st0 st31">T</text>
	<text transform="matrix(14.7779 0 0 1 338.3359 459.5783)" class="st0 st32">I</text>
	<text transform="matrix(21.7652 0 0 1 331.3203 457.8908)" class="st0 st33">S</text>
	<text transform="matrix(8.471 0 0 1 329.9766 455.8127)" class="st0 st34">L</text>
	<text transform="matrix(53.9741 0 0 1 349.2734 465.8283)" class="st0 st35">V</text>
	<text transform="matrix(57.8605 0 0 1 347.7031 464.5783)" class="st0 st35">D</text>
	<text transform="matrix(27.6479 0 0 1 347.3672 463.0939)" class="st0 st36">P</text>
	<text transform="matrix(11.4791 0 0 1 355.8516 461.4221)" class="st0 st37">I</text>
	<text transform="matrix(15.027 0 0 1 348.5938 459.2658)" class="st0 st38">S</text>
	<text transform="matrix(12.4635 0 0 1 349.5547 456.7736)" class="st0 st39">A</text>
	<text transform="matrix(15.1658 0 0 1 347.25 454.4767)" class="st0 st40">L</text>
	<text transform="matrix(53.1651 0 0 1 366.7266 470.0314)" class="st0 st41">Y</text>
	<text transform="matrix(10.0781 0 0 1 365.4922 468.7814)" class="st0 st42">M</text>
	<text transform="matrix(7.7546 0 0 1 364.4609 466.0627)" class="st0 st43">F</text>
	<text transform="matrix(3.7054 0 0 1 366.5625 462.0861)" class="st0 st44">V</text>
	<text transform="matrix(3.6242 0 0 1 366.8359 456.0002)" class="st0 st44">A</text>
	<text transform="matrix(1.2875 0 0 1 373.125 449.9221)" class="st0 st45">I</text>
	<text transform="matrix(1.0182 0 0 1 364.5234 439.8752)" class="st0 st46">L</text>
</g>
</svg>
