<?xml version="1.0" encoding="utf-8"?>
<!-- Generator: Adobe Illustrator 24.3.0, SVG Export Plug-In . SVG Version: 6.00 Build 0)  -->
<svg version="1.1" id="Layer_1" xmlns="http://www.w3.org/2000/svg" xmlns:xlink="http://www.w3.org/1999/xlink" x="0px" y="0px"
	 viewBox="0 0 595.28 841.89" style="enable-background:new 0 0 595.28 841.89;" xml:space="preserve">
<style type="text/css">
	.st0{font-family:'Helvetica-Narrow-Bold';}
	.st1{font-size:0.3019px;}
	.st2{font-size:5.4333px;}
	.st3{font-size:6.2991px;}
	.st4{font-size:27.2154px;}
	.st5{font-size:64.9253px;}
	.st6{font-size:10px;}
	.st7{font-size:2.1196px;}
	.st8{font-size:2.2815px;}
	.st9{font-size:5.7158px;}
	.st10{font-size:17.2316px;}
	.st11{font-size:21.6762px;}
	.st12{font-size:25.8102px;}
</style>
<g>
	<text transform="matrix(1 0 0 1 210 455.9904)" class="st0 st1">K</text>
	<text transform="matrix(4.8607 0 0 1 229.5859 463.2014)" class="st0 st2">M</text>
	<text transform="matrix(3.1643 0 0 1 231.1641 458.4357)" class="st0 st3">W</text>
	<text transform="matrix(1.3426 0 0 1 228.4375 452.9045)" class="st0 st4">F</text>
	<text transform="matrix(0.4365 0 0 1 230.9766 432.2326)" class="st0 st5">Y</text>
	<text transform="matrix(1 0 0 1 343.6797 456.1779)" class="st0 st6">L</text>
	<text transform="matrix(9.404 0 0 1 365.5234 463.9982)" class="st0 st7">W</text>
	<text transform="matrix(11.5753 0 0 1 363.9453 461.3498)" class="st0 st8">M</text>
	<text transform="matrix(4.9587 0 0 1 365.3281 458.717)" class="st0 st9">Y</text>
	<text transform="matrix(2.1205 0 0 1 362.7891 453.7951)" class="st0 st10">F</text>
	<text transform="matrix(0.8395 0 0 1 372.3672 440.2404)" class="st0 st11">I</text>
	<text transform="matrix(1.5461 0 0 1 362.8672 423.7248)" class="st0 st12">L</text>
</g>
</svg>
