<?xml version="1.0" encoding="utf-8"?>
<!-- Generator: Adobe Illustrator 24.3.0, SVG Export Plug-In . SVG Version: 6.00 Build 0)  -->
<svg version="1.1" id="Layer_1" xmlns="http://www.w3.org/2000/svg" xmlns:xlink="http://www.w3.org/1999/xlink" x="0px" y="0px"
	 viewBox="0 0 595.28 841.89" style="enable-background:new 0 0 595.28 841.89;" xml:space="preserve">
<style type="text/css">
	.st0{font-family:'Helvetica-Narrow-Bold';}
	.st1{font-size:8.8321px;}
	.st2{font-size:8.8421px;}
	.st3{font-size:19.0544px;}
	.st4{font-size:13.7002px;}
	.st5{font-size:12.3724px;}
	.st6{font-size:58.9715px;}
	.st7{font-size:12.0525px;}
	.st8{font-size:12.6871px;}
	.st9{font-size:26.7681px;}
	.st10{font-size:40.8526px;}
	.st11{font-size:8.3875px;}
	.st12{font-size:7.9748px;}
	.st13{font-size:8.8322px;}
	.st14{font-size:11.0644px;}
	.st15{font-size:11.0645px;}
	.st16{font-size:35.9845px;}
	.st17{font-size:12.687px;}
	.st18{font-size:10.9065px;}
	.st19{font-size:25.5452px;}
	.st20{font-size:25.5798px;}
	.st21{font-size:24.2626px;}
</style>
<g>
	<text transform="matrix(3.1664 0 0 1 213.1719 460.6242)" class="st0 st1">T</text>
	<text transform="matrix(3.4576 0 0 1 211 453.382)" class="st0 st1">P</text>
	<text transform="matrix(3.0973 0 0 1 211.4844 446.1398)" class="st0 st1">K</text>
	<text transform="matrix(1.8409 0 0 1 219.2344 438.6633)" class="st0 st2">I</text>
	<text transform="matrix(2.8794 0 0 1 213.1875 431.4211)" class="st0 st1">A</text>
	<text transform="matrix(1.4628 0 0 1 211.1406 423.9367)" class="st0 st3">R</text>
	<text transform="matrix(1.3013 0 0 1 230.5312 460.6242)" class="st0 st4">W</text>
	<text transform="matrix(1.8822 0 0 1 229.9531 449.2648)" class="st0 st5">Q</text>
	<text transform="matrix(2.3856 0 0 1 228.0859 439.1242)" class="st0 st4">F</text>
	<text transform="matrix(0.4299 0 0 1 230.3594 428.2492)" class="st0 st6">Y</text>
	<text transform="matrix(2.4159 0 0 1 246.7734 460.3742)" class="st0 st7">S</text>
	<text transform="matrix(2.0045 0 0 1 247.7344 450.7258)" class="st0 st8">A</text>
	<text transform="matrix(0.8825 0 0 1 246.3906 440.5773)" class="st0 st9">M</text>
	<text transform="matrix(0.8737 0 0 1 245.4219 420.3039)" class="st0 st10">L</text>
	<text transform="matrix(3.1664 0 0 1 264.9922 460.6242)" class="st0 st1">T</text>
	<text transform="matrix(3.4716 0 0 1 264.0469 453.2023)" class="st0 st11">S</text>
	<text transform="matrix(2.9202 0 0 1 264.5 445.6711)" class="st0 st12">Q</text>
	<text transform="matrix(1.8409 0 0 1 271.0625 438.6633)" class="st0 st2">I</text>
	<text transform="matrix(3.7006 0 0 1 262.6406 431.4211)" class="st0 st13">F</text>
	<text transform="matrix(1.6178 0 0 1 262.7969 423.9367)" class="st0 st3">E</text>
	<text transform="matrix(2.0186 0 0 1 282.3516 460.6242)" class="st0 st1">W</text>
	<text transform="matrix(3.4716 0 0 1 281.3203 453.2023)" class="st0 st11">S</text>
	<text transform="matrix(3.0973 0 0 1 280.5859 446.1398)" class="st0 st1">K</text>
	<text transform="matrix(3.262 0 0 1 280.4062 438.6633)" class="st0 st1">H</text>
	<text transform="matrix(2.8794 0 0 1 282.2812 431.4211)" class="st0 st1">A</text>
	<text transform="matrix(1.7153 0 0 1 279.9062 423.9367)" class="st0 st3">F</text>
	<text transform="matrix(2.9439 0 0 1 299.2891 460.6242)" class="st0 st1">V</text>
	<text transform="matrix(4.0414 0 0 1 297.25 453.382)" class="st0 st1">L</text>
	<text transform="matrix(1.8409 0 0 1 305.6094 446.1398)" class="st0 st2">I</text>
	<text transform="matrix(3.0041 0 0 1 298.75 438.4992)" class="st0 st11">G</text>
	<text transform="matrix(2.8794 0 0 1 299.5625 431.4211)" class="st0 st1">A</text>
	<text transform="matrix(1.6178 0 0 1 297.3438 423.9367)" class="st0 st3">E</text>
	<text transform="matrix(2.35 0 0 1 316.5625 460.6164)" class="st0 st14">V</text>
	<text transform="matrix(2.6039 0 0 1 315.0469 451.8586)" class="st0 st15">N</text>
	<text transform="matrix(2.6039 0 0 1 314.9609 442.843)" class="st0 st15">H</text>
	<text transform="matrix(2.954 0 0 1 314.4609 433.8273)" class="st0 st15">F</text>
	<text transform="matrix(0.7067 0 0 1 316.8281 425.0617)" class="st0 st16">A</text>
	<text transform="matrix(2.2709 0 0 1 332.2344 460.6242)" class="st0 st17">H</text>
	<text transform="matrix(2.0045 0 0 1 334.1016 450.7258)" class="st0 st8">A</text>
	<text transform="matrix(1.022 0 0 1 332.4062 440.5773)" class="st0 st9">K</text>
	<text transform="matrix(0.8737 0 0 1 331.7969 420.3039)" class="st0 st10">L</text>
	<text transform="matrix(2.1352 0 0 1 350.875 459.9914)" class="st0 st18">Q</text>
	<text transform="matrix(1.3973 0 0 1 349.0703 451.1242)" class="st0 st19">L</text>
	<text transform="matrix(0.6363 0 0 1 357.6719 431.6398)" class="st0 st20">I</text>
	<text transform="matrix(1.0385 0 0 1 350.5781 411.9367)" class="st0 st21">G</text>
	<text transform="matrix(1.3013 0 0 1 368.7188 460.6242)" class="st0 st4">W</text>
	<text transform="matrix(2.6054 0 0 1 366.3438 449.9914)" class="st0 st4">L</text>
	<text transform="matrix(1.8563 0 0 1 368.6562 439.1242)" class="st0 st4">A</text>
	<text transform="matrix(0.5542 0 0 1 366.2812 428.2492)" class="st0 st6">F</text>
</g>
</svg>
