<?xml version="1.0" encoding="utf-8"?>
<!-- Generator: Adobe Illustrator 24.3.0, SVG Export Plug-In . SVG Version: 6.00 Build 0)  -->
<svg version="1.1" id="Layer_1" xmlns="http://www.w3.org/2000/svg" xmlns:xlink="http://www.w3.org/1999/xlink" x="0px" y="0px"
	 viewBox="0 0 595.28 841.89" style="enable-background:new 0 0 595.28 841.89;" xml:space="preserve">
<style type="text/css">
	.st0{font-family:'Helvetica-Narrow-Bold';}
	.st1{font-size:33.121px;}
	.st2{font-size:34.8762px;}
	.st3{font-size:34.8727px;}
	.st4{font-size:170.4154px;}
	.st5{font-size:34.9223px;}
	.st6{font-size:43.7069px;}
	.st7{font-size:88.8078px;}
</style>
<g>
	<text transform="matrix(0.8791 0 0 1 212.4062 470.8332)" class="st0 st1">S</text>
	<text transform="matrix(1.0235 0 0 1 211.0625 445.6144)" class="st0 st2">L</text>
	<text transform="matrix(0.9372 0 0 1 211 419.4582)" class="st0 st3">F</text>
	<text transform="matrix(0.2095 0 0 1 228.3438 471.5285)" class="st0 st4">L</text>
	<text transform="matrix(0.8756 0 0 1 245.7266 471.5285)" class="st0 st2">P</text>
	<text transform="matrix(0.7608 0 0 1 247.1172 444.9894)" class="st0 st1">G</text>
	<text transform="matrix(0.7293 0 0 1 247.9219 419.4582)" class="st0 st3">A</text>
	<text transform="matrix(0.7455 0 0 1 264.9219 471.5285)" class="st0 st2">V</text>
	<text transform="matrix(0.8791 0 0 1 264.2344 444.9191)" class="st0 st1">S</text>
	<text transform="matrix(1.0236 0 0 1 262.8906 419.4582)" class="st0 st3">L</text>
	<text transform="matrix(0.7455 0 0 1 282.2031 471.5285)" class="st0 st2">V</text>
	<text transform="matrix(0.8791 0 0 1 281.5078 444.9191)" class="st0 st1">S</text>
	<text transform="matrix(0.7993 0 0 1 280.6172 419.4582)" class="st0 st3">D</text>
	<text transform="matrix(0.8791 0 0 1 298.7812 470.8332)" class="st0 st1">S</text>
	<text transform="matrix(0.4661 0 0 1 305.7969 445.6144)" class="st0 st5">I</text>
	<text transform="matrix(0.9372 0 0 1 297.3672 419.4582)" class="st0 st3">F</text>
	<text transform="matrix(1.0235 0 0 1 314.7109 471.5285)" class="st0 st2">L</text>
	<text transform="matrix(0.4661 0 0 1 323.0703 445.6144)" class="st0 st5">I</text>
	<text transform="matrix(0.9372 0 0 1 314.6484 419.4582)" class="st0 st3">F</text>
	<text transform="matrix(0.6987 0 0 1 332.1016 471.5285)" class="st0 st6">P</text>
	<text transform="matrix(0.4019 0 0 1 331.9922 439.1769)" class="st0 st7">L</text>
	<text transform="matrix(0.7455 0 0 1 351.2969 471.5285)" class="st0 st2">V</text>
	<text transform="matrix(0.8791 0 0 1 350.6016 444.9191)" class="st0 st1">S</text>
	<text transform="matrix(1.0236 0 0 1 349.2578 419.4582)" class="st0 st3">L</text>
	<text transform="matrix(0.5949 0 0 1 368.5703 471.5285)" class="st0 st6">V</text>
	<text transform="matrix(0.4019 0 0 1 366.5312 439.1769)" class="st0 st7">L</text>
</g>
</svg>
