<?xml version="1.0" encoding="utf-8"?>
<!-- Generator: Adobe Illustrator 24.3.0, SVG Export Plug-In . SVG Version: 6.00 Build 0)  -->
<svg version="1.1" id="Layer_1" xmlns="http://www.w3.org/2000/svg" xmlns:xlink="http://www.w3.org/1999/xlink" x="0px" y="0px"
	 viewBox="0 0 595.28 841.89" style="enable-background:new 0 0 595.28 841.89;" xml:space="preserve">
<style type="text/css">
	.st0{font-family:'Helvetica-Narrow-Bold';}
	.st1{font-size:0.1208px;}
	.st2{font-size:0.1088px;}
	.st3{font-size:0.1175px;}
	.st4{font-size:0.6233px;}
	.st5{font-size:1.6319px;}
	.st6{font-size:2.1344px;}
	.st7{font-size:2.026px;}
	.st8{font-size:1.6207px;}
	.st9{font-size:1.6208px;}
	.st10{font-size:4.1878px;}
	.st11{font-size:128.2211px;}
	.st12{font-size:0.4929px;}
	.st13{font-size:0.5193px;}
	.st14{font-size:0.5194px;}
	.st15{font-size:1.1559px;}
	.st16{font-size:1.7924px;}
	.st17{font-size:1.7002px;}
	.st18{font-size:5.6116px;}
	.st19{font-size:0.224px;}
	.st20{font-size:0.5231px;}
	.st21{font-size:0.102px;}
	.st22{font-size:0.1053px;}
	.st23{font-size:0.4811px;}
	.st24{font-size:0.4824px;}
	.st25{font-size:0.3699px;}
	.st26{font-size:0.8072px;}
	.st27{font-size:1.2481px;}
	.st28{font-size:2.1299px;}
	.st29{font-size:0.0971px;}
	.st30{font-size:0.0946px;}
	.st31{font-size:0.0973px;}
	.st32{font-size:0.5965px;}
	.st33{font-size:1.5881px;}
	.st34{font-size:2.0838px;}
	.st35{font-size:2.4518px;}
	.st36{font-size:0.3849px;}
	.st37{font-size:0.7874px;}
	.st38{font-size:0.8305px;}
	.st39{font-size:1.6333px;}
	.st40{font-size:0.9539px;}
	.st41{font-size:3.298px;}
	.st42{font-size:8.0012px;}
	.st43{font-size:10.3377px;}
	.st44{font-size:78.365px;}
</style>
<g>
	<text transform="matrix(1 0 0 1 209.2891 465.6882)" class="st0 st1">R</text>
	<text transform="matrix(1 0 0 1 211.0312 464.4616)" class="st0 st2">Q</text>
	<text transform="matrix(1 0 0 1 209.6875 463.5085)" class="st0 st1">K</text>
	<text transform="matrix(1 0 0 1 218.5078 462.2975)" class="st0 st3">I</text>
	<text transform="matrix(50.1595 0 0 1 211.5547 461.3288)" class="st0 st4">T</text>
	<text transform="matrix(17.8119 0 0 1 211.2812 459.86)" class="st0 st5">V</text>
	<text transform="matrix(18.6957 0 0 1 209 457.6882)" class="st0 st6">L</text>
	<text transform="matrix(13.9031 0 0 1 210.6875 454.985)" class="st0 st7">G</text>
	<text transform="matrix(21.0637 0 0 1 228.3203 469.8054)" class="st0 st8">P</text>
	<text transform="matrix(16.2942 0 0 1 229.2734 467.8835)" class="st0 st9">M</text>
	<text transform="matrix(19.2261 0 0 1 228.7109 465.7116)" class="st0 st8">D</text>
	<text transform="matrix(6.216 0 0 1 230.2109 463.2975)" class="st0 st10">Q</text>
	<text transform="matrix(0.2688 0 0 1 228.2969 459.2116)" class="st0 st11">E</text>
	<text transform="matrix(66.0408 0 0 1 248.8984 465.4616)" class="st0 st12">S</text>
	<text transform="matrix(50.8537 0 0 1 248.4766 463.9147)" class="st0 st13">M</text>
	<text transform="matrix(58.8859 0 0 1 248.0859 462.6179)" class="st0 st14">K</text>
	<text transform="matrix(31.6111 0 0 1 247.3125 461.321)" class="st0 st15">F</text>
	<text transform="matrix(29.8153 0 0 1 247.4922 459.3366)" class="st0 st15">E</text>
	<text transform="matrix(16.2168 0 0 1 249.6641 457.5944)" class="st0 st16">V</text>
	<text transform="matrix(16.5672 0 0 1 249.0703 455.1569)" class="st0 st17">G</text>
	<text transform="matrix(5.5529 0 0 1 247.8984 453.0085)" class="st0 st18">D</text>
	<text transform="matrix(1 0 0 1 266.5859 461.2585)" class="st0 st19">L</text>
	<text transform="matrix(53.8498 0 0 1 268.2734 460.1179)" class="st0 st20">G</text>
	<text transform="matrix(1 0 0 1 287.2891 465.4616)" class="st0 st21">S</text>
	<text transform="matrix(1 0 0 1 286.0859 464.2663)" class="st0 st22">R</text>
	<text transform="matrix(1 0 0 1 286.8516 463.321)" class="st0 st22">M</text>
	<text transform="matrix(1 0 0 1 286.2969 462.1257)" class="st0 st22">D</text>
	<text transform="matrix(70.9628 0 0 1 285.9062 460.9382)" class="st0 st23">P</text>
	<text transform="matrix(82.9477 0 0 1 285.7891 459.6882)" class="st0 st23">L</text>
	<text transform="matrix(37.7232 0 0 1 295.2812 458.4382)" class="st0 st24">I</text>
	<text transform="matrix(92.2934 0 0 1 305.0859 461.9225)" class="st0 st25">P</text>
	<text transform="matrix(38.7347 0 0 1 307.5469 460.8444)" class="st0 st26">T</text>
	<text transform="matrix(31.973 0 0 1 304.9688 459.1257)" class="st0 st27">L</text>
	<text transform="matrix(17.1548 0 0 1 304.8984 457.2507)" class="st0 st28">F</text>
	<text transform="matrix(1 0 0 1 326.4531 464.86)" class="st0 st29">V</text>
	<text transform="matrix(1 0 0 1 325.6484 463.9147)" class="st0 st30">S</text>
	<text transform="matrix(1 0 0 1 333.6719 462.735)" class="st0 st31">I</text>
	<text transform="matrix(33.4158 0 0 1 326.8125 461.7975)" class="st0 st32">W</text>
	<text transform="matrix(19.6875 0 0 1 326.7344 460.3913)" class="st0 st33">T</text>
	<text transform="matrix(16.5383 0 0 1 324.2734 458.2663)" class="st0 st34">E</text>
	<text transform="matrix(11.4885 0 0 1 325.8516 455.6257)" class="st0 st35">G</text>
	<text transform="matrix(81.2375 0 0 1 345.9297 463.9225)" class="st0 st36">T</text>
	<text transform="matrix(80.9663 0 0 1 343.875 462.571)" class="st0 st36">D</text>
	<text transform="matrix(73.8775 0 0 1 345.9453 461.2194)" class="st0 st36">A</text>
	<text transform="matrix(35.7727 0 0 1 345.0391 460.0944)" class="st0 st37">G</text>
	<text transform="matrix(41.4964 0 0 1 343.4609 458.36)" class="st0 st38">E</text>
	<text transform="matrix(19.9307 0 0 1 344.8672 456.8054)" class="st0 st39">S</text>
	<text transform="matrix(30.4724 0 0 1 364.8203 469.8054)" class="st0 st40">V</text>
	<text transform="matrix(8.5939 0 0 1 365.0156 468.36)" class="st0 st41">Y</text>
	<text transform="matrix(11.0792 0 0 1 362.4766 464.985)" class="st0 st41">F</text>
	<text transform="matrix(2.2743 0 0 1 372.0547 461.61)" class="st0 st42">I</text>
	<text transform="matrix(2.5547 0 0 1 363.6328 454.8522)" class="st0 st43">M</text>
	<text transform="matrix(0.5092 0 0 1 362.5547 446.4069)" class="st0 st44">L</text>
</g>
</svg>
