<?xml version="1.0" encoding="utf-8"?>
<!-- Generator: Adobe Illustrator 24.3.0, SVG Export Plug-In . SVG Version: 6.00 Build 0)  -->
<svg version="1.1" id="Layer_1" xmlns="http://www.w3.org/2000/svg" xmlns:xlink="http://www.w3.org/1999/xlink" x="0px" y="0px"
	 viewBox="0 0 595.28 841.89" style="enable-background:new 0 0 595.28 841.89;" xml:space="preserve">
<style type="text/css">
	.st0{font-family:'Helvetica-Narrow-Bold';}
	.st1{font-size:0.1488px;}
	.st2{font-size:0.6205px;}
	.st3{font-size:0.6171px;}
	.st4{font-size:1.2147px;}
	.st5{font-size:2.7611px;}
	.st6{font-size:3.9484px;}
	.st7{font-size:5.4402px;}
	.st8{font-size:6.3227px;}
	.st9{font-size:52.9073px;}
	.st10{font-size:0.0986px;}
	.st11{font-size:0.1313px;}
	.st12{font-size:1.928px;}
	.st13{font-size:10px;}
	.st14{font-size:0.0785px;}
	.st15{font-size:0.5278px;}
	.st16{font-size:0.6538px;}
	.st17{font-size:0.1178px;}
	.st18{font-size:2.1569px;}
	.st19{font-size:0.6502px;}
	.st20{font-size:2.0475px;}
	.st21{font-size:2.8694px;}
	.st22{font-size:0.0859px;}
	.st23{font-size:0.7566px;}
	.st24{font-size:0.1046px;}
	.st25{font-size:0.7463px;}
	.st26{font-size:0.5589px;}
	.st27{font-size:1.2073px;}
	.st28{font-size:4.3334px;}
	.st29{font-size:6.1495px;}
	.st30{font-size:19.6718px;}
	.st31{font-size:31.7653px;}
</style>
<g>
	<text transform="matrix(1 0 0 1 210.3594 449.5329)" class="st0 st1">S</text>
	<text transform="matrix(57.5214 0 0 1 209 448.2673)" class="st0 st2">L</text>
	<text transform="matrix(44.0832 0 0 1 209.6094 446.8141)" class="st0 st2">K</text>
	<text transform="matrix(37.74 0 0 1 228.0781 453.8298)" class="st0 st3">Q</text>
	<text transform="matrix(23.9706 0 0 1 227.6328 452.2985)" class="st0 st4">S</text>
	<text transform="matrix(10.1285 0 0 1 228.5938 450.4001)" class="st0 st5">T</text>
	<text transform="matrix(6.5853 0 0 1 228.3281 447.3141)" class="st0 st6">V</text>
	<text transform="matrix(2.992 0 0 1 234.6562 443.486)" class="st0 st7">I</text>
	<text transform="matrix(3.7362 0 0 1 227.2578 438.7282)" class="st0 st8">M</text>
	<text transform="matrix(0.6747 0 0 1 226.2891 433.1735)" class="st0 st9">L</text>
	<text transform="matrix(1 0 0 1 244.9219 449.7438)" class="st0 st10">S</text>
	<text transform="matrix(1 0 0 1 245.8672 448.7907)" class="st0 st11">A</text>
	<text transform="matrix(18.5137 0 0 1 243.5625 447.5641)" class="st0 st12">L</text>
	<text transform="matrix(1 0 0 1 260.9531 450.6891)" class="st0 st13">P</text>
	<text transform="matrix(1 0 0 1 262.1953 449.8923)" class="st0 st14">S</text>
	<text transform="matrix(48.1836 0 0 1 263.1406 448.7282)" class="st0 st15">A</text>
	<text transform="matrix(38.5409 0 0 1 262.3516 447.3923)" class="st0 st16">G</text>
	<text transform="matrix(1 0 0 1 295.3906 448.3298)" class="st0 st17">L</text>
	<text transform="matrix(11.6819 0 0 1 296.8906 447.3141)" class="st0 st18">G</text>
	<text transform="matrix(1 0 0 1 312.7812 449.7829)" class="st0 st13">P</text>
	<text transform="matrix(39.9878 0 0 1 314.7031 448.9235)" class="st0 st19">V</text>
	<text transform="matrix(7.9497 0 0 1 321.0234 447.4391)" class="st0 st20">I</text>
	<text transform="matrix(12.4398 0 0 1 312.6562 444.9001)" class="st0 st21">L</text>
	<text transform="matrix(1 0 0 1 330.4453 449.7204)" class="st0 st22">N</text>
	<text transform="matrix(47.1785 0 0 1 329.9375 448.7907)" class="st0 st23">L</text>
	<text transform="matrix(1 0 0 1 349.5156 449.6657)" class="st0 st24">T</text>
	<text transform="matrix(34.078 0 0 1 349.5078 448.4782)" class="st0 st25">A</text>
	<text transform="matrix(42.2699 0 0 1 365.4453 453.7673)" class="st0 st26">M</text>
	<text transform="matrix(23.1646 0 0 1 366.7812 452.1657)" class="st0 st27">T</text>
	<text transform="matrix(3.7562 0 0 1 373.0781 450.3532)" class="st0 st28">I</text>
	<text transform="matrix(4.1355 0 0 1 366.7969 446.2204)" class="st0 st29">A</text>
	<text transform="matrix(1.8145 0 0 1 364.4844 440.9079)" class="st0 st30">L</text>
	<text transform="matrix(0.8185 0 0 1 366.5234 425.7673)" class="st0 st31">V</text>
</g>
</svg>
