<?xml version="1.0" encoding="utf-8"?>
<!-- Generator: Adobe Illustrator 24.3.0, SVG Export Plug-In . SVG Version: 6.00 Build 0)  -->
<svg version="1.1" id="Layer_1" xmlns="http://www.w3.org/2000/svg" xmlns:xlink="http://www.w3.org/1999/xlink" x="0px" y="0px"
	 viewBox="0 0 595.28 841.89" style="enable-background:new 0 0 595.28 841.89;" xml:space="preserve">
<style type="text/css">
	.st0{font-family:'Helvetica-Narrow-Bold';}
	.st1{font-size:0.5212px;}
	.st2{font-size:0.66px;}
	.st3{font-size:0.869px;}
	.st4{font-size:1.6507px;}
	.st5{font-size:1.1801px;}
	.st6{font-size:4.4002px;}
	.st7{font-size:122.1712px;}
	.st8{font-size:0.0668px;}
	.st9{font-size:0.2622px;}
	.st10{font-size:0.263px;}
	.st11{font-size:0.3617px;}
	.st12{font-size:0.8037px;}
	.st13{font-size:3.1834px;}
	.st14{font-size:0.0639px;}
	.st15{font-size:0.1319px;}
	.st16{font-size:0.1844px;}
	.st17{font-size:10px;}
	.st18{font-size:0.4861px;}
	.st19{font-size:0.5632px;}
	.st20{font-size:0.7483px;}
	.st21{font-size:0.9405px;}
	.st22{font-size:1.6065px;}
	.st23{font-size:1.9394px;}
	.st24{font-size:3.2713px;}
	.st25{font-size:3.2712px;}
	.st26{font-size:4.6031px;}
	.st27{font-size:7.9439px;}
	.st28{font-size:33.9181px;}
</style>
<g>
	<text transform="matrix(68.4886 0 0 1 209 461.3976)" class="st0 st1">L</text>
	<text transform="matrix(44.1189 0 0 1 210.3594 460.0773)" class="st0 st2">S</text>
	<text transform="matrix(29.2658 0 0 1 211.3281 458.5383)" class="st0 st3">A</text>
	<text transform="matrix(16.8857 0 0 1 209.2812 456.9601)" class="st0 st4">R</text>
	<text transform="matrix(22.0338 0 0 1 228.3281 463.1633)" class="st0 st5">V</text>
	<text transform="matrix(5.7796 0 0 1 228.6016 461.1476)" class="st0 st6">A</text>
	<text transform="matrix(0.25 0 0 1 226.4141 457.1476)" class="st0 st7">P</text>
	<text transform="matrix(1 0 0 1 245.5938 462.7648)" class="st0 st8">V</text>
	<text transform="matrix(1 0 0 1 243.5703 461.6164)" class="st0 st9">L</text>
	<text transform="matrix(61.8924 0 0 1 251.9219 460.4445)" class="st0 st10">I</text>
	<text transform="matrix(70.3051 0 0 1 245.8672 459.2648)" class="st0 st11">A</text>
	<text transform="matrix(36.2276 0 0 1 244.9219 457.9367)" class="st0 st12">S</text>
	<text transform="matrix(8.7559 0 0 1 243.8281 456.4133)" class="st0 st13">R</text>
	<text transform="matrix(1 0 0 1 279.4609 461.632)" class="st0 st14">S</text>
	<text transform="matrix(1 0 0 1 278.125 460.4992)" class="st0 st15">L</text>
	<text transform="matrix(1 0 0 1 279.625 459.4992)" class="st0 st16">G</text>
	<text transform="matrix(1 0 0 1 347.3281 461.9055)" class="st0 st17">P</text>
	<text transform="matrix(52.3175 0 0 1 349.5078 460.8117)" class="st0 st18">A</text>
	<text transform="matrix(63.3763 0 0 1 347.2031 459.5539)" class="st0 st19">L</text>
	<text transform="matrix(38.9109 0 0 1 348.5625 458.1633)" class="st0 st20">S</text>
	<text transform="matrix(29.7343 0 0 1 366.7812 467.3351)" class="st0 st21">T</text>
	<text transform="matrix(29.6358 0 0 1 364.7422 465.6711)" class="st0 st21">R</text>
	<text transform="matrix(20.3451 0 0 1 364.4219 464.007)" class="st0 st22">F</text>
	<text transform="matrix(13.0729 0 0 1 366.6953 461.8508)" class="st0 st23">Y</text>
	<text transform="matrix(7.2214 0 0 1 365.4531 459.4758)" class="st0 st24">M</text>
	<text transform="matrix(7.7743 0 0 1 366.7969 456.132)" class="st0 st25">A</text>
	<text transform="matrix(5.6487 0 0 1 366.5234 452.8039)" class="st0 st26">V</text>
	<text transform="matrix(2.049 0 0 1 373.0859 448.507)" class="st0 st27">I</text>
	<text transform="matrix(1.0524 0 0 1 364.4844 441.8351)" class="st0 st28">L</text>
</g>
</svg>
