<?xml version="1.0" encoding="utf-8"?>
<!-- Generator: Adobe Illustrator 24.3.0, SVG Export Plug-In . SVG Version: 6.00 Build 0)  -->
<svg version="1.1" id="Layer_1" xmlns="http://www.w3.org/2000/svg" xmlns:xlink="http://www.w3.org/1999/xlink" x="0px" y="0px"
	 viewBox="0 0 595.28 841.89" style="enable-background:new 0 0 595.28 841.89;" xml:space="preserve">
<style type="text/css">
	.st0{font-family:'Helvetica-Narrow-Bold';}
	.st1{font-size:10.146px;}
	.st2{font-size:42.5075px;}
	.st3{font-size:11.3891px;}
	.st4{font-size:24.1685px;}
	.st5{font-size:49.727px;}
	.st6{font-size:8.903px;}
	.st7{font-size:19.1998px;}
	.st8{font-size:5.7961px;}
	.st9{font-size:6.4168px;}
	.st10{font-size:6.4274px;}
	.st11{font-size:6.0939px;}
	.st12{font-size:14.2275px;}
	.st13{font-size:6.0938px;}
	.st14{font-size:13.5148px;}
	.st15{font-size:10.615px;}
	.st16{font-size:22.6203px;}
	.st17{font-size:22.6505px;}
	.st18{font-size:34.6257px;}
	.st19{font-size:9.372px;}
	.st20{font-size:8.9022px;}
	.st21{font-size:20.1378px;}
	.st22{font-size:30.9423px;}
	.st23{font-size:17.3839px;}
	.st24{font-size:130.0326px;}
</style>
<g>
	<text transform="matrix(2.7935 0 0 1 213.1719 473.0168)" class="st0 st1">Y</text>
	<text transform="matrix(1.9645 0 0 1 213.3594 464.8449)" class="st0 st1">W</text>
	<text transform="matrix(3.0712 0 0 1 211 456.6808)" class="st0 st1">R</text>
	<text transform="matrix(3.1742 0 0 1 211.1953 448.2746)" class="st0 st1">H</text>
	<text transform="matrix(0.7658 0 0 1 212.2109 439.2121)" class="st0 st2">S</text>
	<text transform="matrix(2.736 0 0 1 230.1875 473.0168)" class="st0 st3">R</text>
	<text transform="matrix(2.3189 0 0 1 230.9766 464.0246)" class="st0 st3">M</text>
	<text transform="matrix(1.2654 0 0 1 230.5781 454.7824)" class="st0 st4">K</text>
	<text transform="matrix(0.6476 0 0 1 230.3906 436.3293)" class="st0 st5">H</text>
	<text transform="matrix(3.1835 0 0 1 251.5625 473.009)" class="st0 st6">Y</text>
	<text transform="matrix(3.4352 0 0 1 249.7734 465.6652)" class="st0 st6">K</text>
	<text transform="matrix(1.795 0 0 1 249.2031 458.3215)" class="st0 st7">E</text>
	<text transform="matrix(1.623 0 0 1 249.6016 443.634)" class="st0 st7">D</text>
	<text transform="matrix(1.4809 0 0 1 251.6719 428.7121)" class="st0 st7">A</text>
	<text transform="matrix(4.4912 0 0 1 270.3047 472.673)" class="st0 st8">Q</text>
	<text transform="matrix(5.3202 0 0 1 268.4219 467.5637)" class="st0 st9">P</text>
	<text transform="matrix(6.2187 0 0 1 268.2812 461.8605)" class="st0 st9">L</text>
	<text transform="matrix(4.7661 0 0 1 268.9688 456.4074)" class="st0 st9">K</text>
	<text transform="matrix(2.8312 0 0 1 277.7969 450.7043)" class="st0 st10">I</text>
	<text transform="matrix(4.6223 0 0 1 269.9609 444.8918)" class="st0 st11">G</text>
	<text transform="matrix(1.9984 0 0 1 270.8672 439.548)" class="st0 st12">A</text>
	<text transform="matrix(4.5298 0 0 1 289.7578 473.0168)" class="st0 st9">V</text>
	<text transform="matrix(4.8723 0 0 1 290.0391 467.5637)" class="st0 st9">T</text>
	<text transform="matrix(6.2187 0 0 1 287.4766 461.8605)" class="st0 st9">L</text>
	<text transform="matrix(2.8311 0 0 1 296.9844 456.4074)" class="st0 st10">I</text>
	<text transform="matrix(4.6223 0 0 1 289.1641 450.5871)" class="st0 st11">G</text>
	<text transform="matrix(4.4309 0 0 1 290.0625 445.009)" class="st0 st9">A</text>
	<text transform="matrix(2.2636 0 0 1 288.0625 439.548)" class="st0 st12">N</text>
	<text transform="matrix(3.1063 0 0 1 309.3281 473.0168)" class="st0 st9">W</text>
	<text transform="matrix(4.5298 0 0 1 308.9531 467.5637)" class="st0 st9">V</text>
	<text transform="matrix(5.3418 0 0 1 308.1797 461.7355)" class="st0 st13">S</text>
	<text transform="matrix(6.2187 0 0 1 306.6719 456.4074)" class="st0 st9">L</text>
	<text transform="matrix(4.8561 0 0 1 307.1875 450.7043)" class="st0 st9">D</text>
	<text transform="matrix(4.4309 0 0 1 309.2578 445.009)" class="st0 st9">A</text>
	<text transform="matrix(2.0842 0 0 1 308.3516 439.298)" class="st0 st14">G</text>
	<text transform="matrix(3.4422 0 0 1 325.7891 473.009)" class="st0 st15">F</text>
	<text transform="matrix(1.285 0 0 1 328.1484 464.4152)" class="st0 st16">V</text>
	<text transform="matrix(0.8034 0 0 1 335.3672 447.2043)" class="st0 st17">I</text>
	<text transform="matrix(0.8211 0 0 1 328.4453 430.009)" class="st0 st18">A</text>
	<text transform="matrix(3.0242 0 0 1 347.5234 473.009)" class="st0 st19">Y</text>
	<text transform="matrix(3.336 0 0 1 347.6328 465.4777)" class="st0 st19">T</text>
	<text transform="matrix(3.6566 0 0 1 346.5625 457.509)" class="st0 st20">S</text>
	<text transform="matrix(1.4119 0 0 1 347.6406 449.923)" class="st0 st21">A</text>
	<text transform="matrix(0.5881 0 0 1 354.5703 434.6105)" class="st0 st22">I</text>
	<text transform="matrix(2.1019 0 0 1 364.1797 473.0168)" class="st0 st23">F</text>
	<text transform="matrix(0.3069 0 0 1 364.2578 459.7277)" class="st0 st24">L</text>
</g>
</svg>
