<?xml version="1.0" encoding="utf-8"?>
<!-- Generator: Adobe Illustrator 24.3.0, SVG Export Plug-In . SVG Version: 6.00 Build 0)  -->
<svg version="1.1" id="Layer_1" xmlns="http://www.w3.org/2000/svg" xmlns:xlink="http://www.w3.org/1999/xlink" x="0px" y="0px"
	 viewBox="0 0 595.28 841.89" style="enable-background:new 0 0 595.28 841.89;" xml:space="preserve">
<style type="text/css">
	.st0{font-family:'Helvetica-Narrow-Bold';}
	.st1{font-size:0.0992px;}
	.st2{font-size:0.2995px;}
	.st3{font-size:0.7971px;}
	.st4{font-size:0.9976px;}
	.st5{font-size:1.4952px;}
	.st6{font-size:0.1594px;}
	.st7{font-size:0.6918px;}
	.st8{font-size:1.2109px;}
	.st9{font-size:1.7318px;}
	.st10{font-size:1.6422px;}
	.st11{font-size:12.6609px;}
	.st12{font-size:60.0238px;}
	.st13{font-size:0.1508px;}
	.st14{font-size:0.203px;}
	.st15{font-size:0.5371px;}
	.st16{font-size:0.5845px;}
	.st17{font-size:0.8566px;}
	.st18{font-size:0.1172px;}
	.st19{font-size:0.1125px;}
	.st20{font-size:0.0737px;}
	.st21{font-size:0.1654px;}
	.st22{font-size:0.4406px;}
	.st23{font-size:0.4418px;}
	.st24{font-size:1.0827px;}
	.st25{font-size:0.0722px;}
	.st26{font-size:0.072px;}
	.st27{font-size:8.8526px;}
	.st28{font-size:12.8775px;}
	.st29{font-size:13.2431px;}
	.st30{font-size:17.9989px;}
</style>
<g>
	<text transform="matrix(1 0 0 1 218.5 454.7629)" class="st0 st1">I</text>
	<text transform="matrix(1 0 0 1 211.5469 453.5832)" class="st0 st2">T</text>
	<text transform="matrix(33.1341 0 0 1 210.0781 452.341)" class="st0 st3">M</text>
	<text transform="matrix(29.136 0 0 1 211.2812 450.8723)" class="st0 st4">V</text>
	<text transform="matrix(26.6878 0 0 1 209 449.1301)" class="st0 st5">L</text>
	<text transform="matrix(1 0 0 1 229.7031 457.0988)" class="st0 st6">S</text>
	<text transform="matrix(26.3023 0 0 1 237.6953 456.0598)" class="st0 st7">I</text>
	<text transform="matrix(21.8107 0 0 1 229.2656 454.5129)" class="st0 st8">M</text>
	<text transform="matrix(32.9553 0 0 1 228.1875 452.6926)" class="st0 st8">L</text>
	<text transform="matrix(16.784 0 0 1 230.4609 450.6379)" class="st0 st9">V</text>
	<text transform="matrix(17.1528 0 0 1 229.875 448.5207)" class="st0 st10">G</text>
	<text transform="matrix(2.2457 0 0 1 230.7656 446.2316)" class="st0 st11">A</text>
	<text transform="matrix(0.5688 0 0 1 228.3203 436.1301)" class="st0 st12">P</text>
	<text transform="matrix(1 0 0 1 247.3828 452.8098)" class="st0 st13">L</text>
	<text transform="matrix(1 0 0 1 269.1406 452.5598)" class="st0 st14">T</text>
	<text transform="matrix(64.1636 0 0 1 285.8594 453.4191)" class="st0 st15">E</text>
	<text transform="matrix(48.6412 0 0 1 307.5469 451.4113)" class="st0 st16">A</text>
	<text transform="matrix(36.3761 0 0 1 305.4844 450.0129)" class="st0 st17">D</text>
	<text transform="matrix(1 0 0 1 326.7344 452.9269)" class="st0 st18">T</text>
	<text transform="matrix(1 0 0 1 325.6406 451.716)" class="st0 st19">S</text>
	<text transform="matrix(1 0 0 1 343.3594 454.6926)" class="st0 st20">L</text>
	<text transform="matrix(1 0 0 1 345.9219 453.5441)" class="st0 st21">T</text>
	<text transform="matrix(65.9752 0 0 1 345.6406 452.5051)" class="st0 st22">V</text>
	<text transform="matrix(41.1885 0 0 1 352.8594 451.3176)" class="st0 st23">I</text>
	<text transform="matrix(26.2617 0 0 1 345.9297 449.8801)" class="st0 st24">A</text>
	<text transform="matrix(1 0 0 1 372.0469 456.4504)" class="st0 st25">I</text>
	<text transform="matrix(1 0 0 1 365.125 455.3019)" class="st0 st26">A</text>
	<text transform="matrix(4.1274 0 0 1 362.4688 454.4113)" class="st0 st27">F</text>
	<text transform="matrix(2.0508 0 0 1 363.625 446.8879)" class="st0 st28">M</text>
	<text transform="matrix(2.1402 0 0 1 365.0078 436.7238)" class="st0 st29">Y</text>
	<text transform="matrix(2.217 0 0 1 362.5469 426.2629)" class="st0 st30">L</text>
</g>
</svg>
