<?xml version="1.0" encoding="utf-8"?>
<!-- Generator: Adobe Illustrator 24.3.0, SVG Export Plug-In . SVG Version: 6.00 Build 0)  -->
<svg version="1.1" id="Layer_1" xmlns="http://www.w3.org/2000/svg" xmlns:xlink="http://www.w3.org/1999/xlink" x="0px" y="0px"
	 viewBox="0 0 595.28 841.89" style="enable-background:new 0 0 595.28 841.89;" xml:space="preserve">
<style type="text/css">
	.st0{font-family:'Helvetica-Narrow-Bold';}
	.st1{font-size:0.1526px;}
	.st2{font-size:0.846px;}
	.st3{font-size:0.7089px;}
	.st4{font-size:1.2303px;}
	.st5{font-size:1.3202px;}
	.st6{font-size:4.2106px;}
	.st7{font-size:6.7861px;}
	.st8{font-size:8.0872px;}
	.st9{font-size:44.8442px;}
	.st10{font-size:0.7979px;}
	.st11{font-size:0.135px;}
	.st12{font-size:0.5764px;}
	.st13{font-size:0.2425px;}
	.st14{font-size:0.8499px;}
	.st15{font-size:1.4405px;}
	.st16{font-size:0.4756px;}
	.st17{font-size:0.8418px;}
	.st18{font-size:6.018px;}
	.st19{font-size:6.383px;}
	.st20{font-size:24.5748px;}
	.st21{font-size:24.7408px;}
</style>
<g>
	<text transform="matrix(1 0 0 1 210 445.987)" class="st0 st1">F</text>
	<text transform="matrix(47.1693 0 0 1 210.0781 444.9714)" class="st0 st2">L</text>
	<text transform="matrix(36.7215 0 0 1 231.2734 451.487)" class="st0 st3">Q</text>
	<text transform="matrix(25.413 0 0 1 231.8359 449.8464)" class="st0 st4">T</text>
	<text transform="matrix(21.5361 0 0 1 231.8516 447.9948)" class="st0 st5">A</text>
	<text transform="matrix(6.9033 0 0 1 231.5469 446.0261)" class="st0 st6">V</text>
	<text transform="matrix(3.8917 0 0 1 230.3438 442.0495)" class="st0 st7">M</text>
	<text transform="matrix(2.2501 0 0 1 238.7734 436.0651)" class="st0 st8">I</text>
	<text transform="matrix(0.8898 0 0 1 229.2734 429.4245)" class="st0 st9">L</text>
	<text transform="matrix(50.0126 0 0 1 248.4609 447.0026)" class="st0 st10">L</text>
	<text transform="matrix(1 0 0 1 269.3438 447.5104)" class="st0 st11">G</text>
	<text transform="matrix(59.7871 0 0 1 267.7344 446.5026)" class="st0 st12">E</text>
	<text transform="matrix(75.0534 0 0 1 315.5469 447.4714)" class="st0 st13">I</text>
	<text transform="matrix(34.2003 0 0 1 308.3125 446.3151)" class="st0 st14">V</text>
	<text transform="matrix(27.7009 0 0 1 306.0391 444.7761)" class="st0 st15">L</text>
	<text transform="matrix(83.9076 0 0 1 325.2188 446.8542)" class="st0 st16">L</text>
	<text transform="matrix(37.1418 0 0 1 366.1719 450.1042)" class="st0 st17">T</text>
	<text transform="matrix(3.0237 0 0 1 373.125 448.5807)" class="st0 st18">I</text>
	<text transform="matrix(4.4543 0 0 1 366.2031 443.237)" class="st0 st19">A</text>
	<text transform="matrix(1.6238 0 0 1 363.625 437.5886)" class="st0 st20">L</text>
	<text transform="matrix(1.1749 0 0 1 365.9062 419.0182)" class="st0 st21">V</text>
</g>
</svg>
