<?xml version="1.0" encoding="utf-8"?>
<!-- Generator: Adobe Illustrator 24.3.0, SVG Export Plug-In . SVG Version: 6.00 Build 0)  -->
<svg version="1.1" id="Layer_1" xmlns="http://www.w3.org/2000/svg" xmlns:xlink="http://www.w3.org/1999/xlink" x="0px" y="0px"
	 viewBox="0 0 595.28 841.89" style="enable-background:new 0 0 595.28 841.89;" xml:space="preserve">
<style type="text/css">
	.st0{font-family:'Helvetica-Narrow-Bold';}
	.st1{font-size:0.6655px;}
	.st2{font-size:0.6656px;}
	.st3{font-size:1.6934px;}
	.st4{font-size:2.7212px;}
	.st5{font-size:3.7491px;}
	.st6{font-size:5.514px;}
	.st7{font-size:0.3821px;}
	.st8{font-size:0.362px;}
	.st9{font-size:2.1543px;}
	.st10{font-size:3.9302px;}
	.st11{font-size:9.2543px;}
	.st12{font-size:10.471px;}
	.st13{font-size:14.5745px;}
	.st14{font-size:10px;}
	.st15{font-size:1.4256px;}
	.st16{font-size:1.3519px;}
	.st17{font-size:5.3668px;}
	.st18{font-size:5.653px;}
	.st19{font-size:12.6961px;}
	.st20{font-size:0.4898px;}
	.st21{font-size:1.114px;}
	.st22{font-size:2.3698px;}
	.st23{font-size:0.3888px;}
	.st24{font-size:0.3716px;}
	.st25{font-size:0.3899px;}
	.st26{font-size:0.3715px;}
	.st27{font-size:1.282px;}
	.st28{font-size:2.175px;}
	.st29{font-size:2.1751px;}
	.st30{font-size:3.9577px;}
	.st31{font-size:1.0865px;}
	.st32{font-size:1.2021px;}
	.st33{font-size:1.7566px;}
	.st34{font-size:1.269px;}
	.st35{font-size:1.2689px;}
	.st36{font-size:1.2038px;}
	.st37{font-size:2.1567px;}
	.st38{font-size:3.0406px;}
	.st39{font-size:0.1983px;}
	.st40{font-size:0.1899px;}
	.st41{font-size:0.2083px;}
	.st42{font-size:1.0075px;}
	.st43{font-size:1.8104px;}
	.st44{font-size:3.4125px;}
	.st45{font-size:0.1514px;}
	.st46{font-size:0.1438px;}
	.st47{font-size:0.1603px;}
	.st48{font-size:0.9373px;}
	.st49{font-size:1.7143px;}
	.st50{font-size:2.4914px;}
	.st51{font-size:1.8736px;}
	.st52{font-size:2.0739px;}
	.st53{font-size:5.5379px;}
	.st54{font-size:9.0056px;}
	.st55{font-size:81.7945px;}
</style>
<g>
	<text transform="matrix(42.022 0 0 1 212.375 461.2897)" class="st0 st1">T</text>
	<text transform="matrix(41.8794 0 0 1 210.3281 459.7741)" class="st0 st2">R</text>
	<text transform="matrix(41.1047 0 0 1 210.6562 458.2663)" class="st0 st1">K</text>
	<text transform="matrix(38.2133 0 0 1 212.375 456.7507)" class="st0 st1">A</text>
	<text transform="matrix(15.3545 0 0 1 212.0938 455.4772)" class="st0 st3">V</text>
	<text transform="matrix(12.0108 0 0 1 210 453.2038)" class="st0 st4">F</text>
	<text transform="matrix(9.5209 0 0 1 210.0625 450.1725)" class="st0 st5">L</text>
	<text transform="matrix(5.2806 0 0 1 211.4062 446.2819)" class="st0 st6">S</text>
	<text transform="matrix(79.9204 0 0 1 227.4609 465.5944)" class="st0 st7">P</text>
	<text transform="matrix(69.5974 0 0 1 228.8594 464.4694)" class="st0 st8">G</text>
	<text transform="matrix(71.478 0 0 1 228.9062 463.1257)" class="st0 st8">C</text>
	<text transform="matrix(66.5626 0 0 1 229.6484 461.7897)" class="st0 st7">A</text>
	<text transform="matrix(11.7687 0 0 1 229.5469 460.6725)" class="st0 st9">Y</text>
	<text transform="matrix(12.0694 0 0 1 229.375 457.9772)" class="st0 st9">V</text>
	<text transform="matrix(7.8435 0 0 1 227.4297 455.5319)" class="st0 st10">E</text>
	<text transform="matrix(3.8571 0 0 1 227.3359 451.7272)" class="st0 st11">L</text>
	<text transform="matrix(2.7808 0 0 1 228.6875 443.8991)" class="st0 st12">S</text>
	<text transform="matrix(1.9188 0 0 1 229.6328 435.1647)" class="st0 st13">T</text>
	<text transform="matrix(1 0 0 1 246.6406 465.5944)" class="st0 st14">V</text>
	<text transform="matrix(1 0 0 1 246.4062 464.7663)" class="st0 st14">Q</text>
	<text transform="matrix(1 0 0 1 245.5859 463.7038)" class="st0 st14">M</text>
	<text transform="matrix(1 0 0 1 252.9688 462.6413)" class="st0 st14">I</text>
	<text transform="matrix(1 0 0 1 245.0391 461.5788)" class="st0 st14">H</text>
	<text transform="matrix(1 0 0 1 246.125 460.7507)" class="st0 st14">G</text>
	<text transform="matrix(1 0 0 1 244.5625 459.6882)" class="st0 st14">F</text>
	<text transform="matrix(25.0381 0 0 1 244.6094 458.6257)" class="st0 st15">L</text>
	<text transform="matrix(19.1414 0 0 1 246.1875 456.4772)" class="st0 st16">C</text>
	<text transform="matrix(17.839 0 0 1 246.9141 454.61)" class="st0 st15">A</text>
	<text transform="matrix(5.4255 0 0 1 245.9531 452.3757)" class="st0 st17">S</text>
	<text transform="matrix(5.4531 0 0 1 244.7031 447.4147)" class="st0 st18">E</text>
	<text transform="matrix(2.1954 0 0 1 245.0625 442.3366)" class="st0 st19">D</text>
	<text transform="matrix(72.8728 0 0 1 261.8828 457.9694)" class="st0 st20">L</text>
	<text transform="matrix(56.9105 0 0 1 262.3438 456.7116)" class="st0 st20">D</text>
	<text transform="matrix(27.6724 0 0 1 261.9766 455.4382)" class="st0 st21">E</text>
	<text transform="matrix(12.8861 0 0 1 262 453.5241)" class="st0 st22">P</text>
	<text transform="matrix(71.9265 0 0 1 281.4609 463.11)" class="st0 st23">T</text>
	<text transform="matrix(78.3662 0 0 1 280.5078 461.985)" class="st0 st24">S</text>
	<text transform="matrix(70.3563 0 0 1 279.7734 460.6257)" class="st0 st23">K</text>
	<text transform="matrix(41.7484 0 0 1 287.5234 459.2663)" class="st0 st25">I</text>
	<text transform="matrix(74.1042 0 0 1 279.6094 458.1413)" class="st0 st23">H</text>
	<text transform="matrix(67.8249 0 0 1 280.6719 456.7819)" class="st0 st26">G</text>
	<text transform="matrix(18.4271 0 0 1 280.1328 455.4304)" class="st0 st27">M</text>
	<text transform="matrix(12.8151 0 0 1 279.4141 453.5085)" class="st0 st28">R</text>
	<text transform="matrix(13.2457 0 0 1 279.6875 451.0241)" class="st0 st29">N</text>
	<text transform="matrix(9.019 0 0 1 279.1641 448.5475)" class="st0 st30">L</text>
	<text transform="matrix(21.4335 0 0 1 298.2344 456.2585)" class="st0 st31">Q</text>
	<text transform="matrix(25.4028 0 0 1 296.5469 454.5241)" class="st0 st32">P</text>
	<text transform="matrix(14.3438 0 0 1 297.9453 452.6725)" class="st0 st33">G</text>
	<text transform="matrix(22.0379 0 0 1 316.0078 461.7897)" class="st0 st34">T</text>
	<text transform="matrix(24.0641 0 0 1 313.8281 459.8835)" class="st0 st34">P</text>
	<text transform="matrix(22.7032 0 0 1 314.2266 457.985)" class="st0 st34">N</text>
	<text transform="matrix(12.8278 0 0 1 322.0703 456.0866)" class="st0 st35">I</text>
	<text transform="matrix(20.9307 0 0 1 315.2109 454.1569)" class="st0 st36">G</text>
	<text transform="matrix(20.0404 0 0 1 316.0156 452.2819)" class="st0 st34">A</text>
	<text transform="matrix(15.1547 0 0 1 313.6484 450.3913)" class="st0 st37">F</text>
	<text transform="matrix(11.7391 0 0 1 313.7109 447.9304)" class="st0 st38">L</text>
	<text transform="matrix(1 0 0 1 332.3281 462.2819)" class="st0 st39">S</text>
	<text transform="matrix(1 0 0 1 332.7891 461.1804)" class="st0 st40">Q</text>
	<text transform="matrix(1 0 0 1 331.4219 459.8522)" class="st0 st41">H</text>
	<text transform="matrix(1 0 0 1 332.4844 458.7507)" class="st0 st39">G</text>
	<text transform="matrix(27.7574 0 0 1 333.2812 457.6569)" class="st0 st42">T</text>
	<text transform="matrix(32.44 0 0 1 330.9219 455.8913)" class="st0 st42">F</text>
	<text transform="matrix(27.6655 0 0 1 331.4453 454.1257)" class="st0 st42">D</text>
	<text transform="matrix(15.9135 0 0 1 331.5156 452.5866)" class="st0 st43">N</text>
	<text transform="matrix(10.4598 0 0 1 330.9844 450.1491)" class="st0 st44">L</text>
	<text transform="matrix(1 0 0 1 349.6094 462.2585)" class="st0 st45">S</text>
	<text transform="matrix(1 0 0 1 350.0625 461.2194)" class="st0 st46">Q</text>
	<text transform="matrix(1 0 0 1 349.2188 460.196)" class="st0 st47">M</text>
	<text transform="matrix(1 0 0 1 348.8438 458.9225)" class="st0 st47">K</text>
	<text transform="matrix(34.8699 0 0 1 348.2109 457.8913)" class="st0 st48">F</text>
	<text transform="matrix(32.8882 0 0 1 348.3438 456.235)" class="st0 st48">E</text>
	<text transform="matrix(14.7891 0 0 1 350.4688 454.5632)" class="st0 st49">Y</text>
	<text transform="matrix(16.3131 0 0 1 350.5547 452.2585)" class="st0 st49">T</text>
	<text transform="matrix(14.327 0 0 1 348.2578 450.196)" class="st0 st50">L</text>
	<text transform="matrix(12.4291 0 0 1 367.3438 465.485)" class="st0 st51">Q</text>
	<text transform="matrix(13.1905 0 0 1 366.1406 463.2507)" class="st0 st52">K</text>
	<text transform="matrix(4.6952 0 0 1 367.5703 460.6725)" class="st0 st53">V</text>
	<text transform="matrix(5.9018 0 0 1 365.4688 455.7663)" class="st0 st53">F</text>
	<text transform="matrix(3.1054 0 0 1 367.8281 450.8522)" class="st0 st54">T</text>
	<text transform="matrix(0.31 0 0 1 367.7422 443.3522)" class="st0 st55">Y</text>
</g>
</svg>
