<?xml version="1.0" encoding="utf-8"?>
<!-- Generator: Adobe Illustrator 24.3.0, SVG Export Plug-In . SVG Version: 6.00 Build 0)  -->
<svg version="1.1" id="Layer_1" xmlns="http://www.w3.org/2000/svg" xmlns:xlink="http://www.w3.org/1999/xlink" x="0px" y="0px"
	 viewBox="0 0 595.28 841.89" style="enable-background:new 0 0 595.28 841.89;" xml:space="preserve">
<style type="text/css">
	.st0{font-family:'Helvetica-Narrow-Bold';}
	.st1{font-size:10px;}
	.st2{font-size:0.1446px;}
	.st3{font-size:0.0765px;}
	.st4{font-size:0.0722px;}
	.st5{font-size:0.0763px;}
	.st6{font-size:0.5651px;}
	.st7{font-size:2.0353px;}
	.st8{font-size:3.0167px;}
	.st9{font-size:7.5159px;}
	.st10{font-size:13.7893px;}
	.st11{font-size:0.5575px;}
	.st12{font-size:0.5308px;}
	.st13{font-size:1.0889px;}
	.st14{font-size:1.2089px;}
	.st15{font-size:1.2055px;}
	.st16{font-size:2.3813px;}
	.st17{font-size:11.6067px;}
	.st18{font-size:24.6037px;}
	.st19{font-size:0.1224px;}
	.st20{font-size:0.2905px;}
	.st21{font-size:1.2342px;}
	.st22{font-size:0.0859px;}
	.st23{font-size:0.3337px;}
	.st24{font-size:0.5525px;}
	.st25{font-size:0.5816px;}
	.st26{font-size:4.5251px;}
	.st27{font-size:0.0882px;}
	.st28{font-size:0.222px;}
	.st29{font-size:0.9012px;}
	.st30{font-size:0.9037px;}
	.st31{font-size:5.495px;}
	.st32{font-size:7.79px;}
	.st33{font-size:77.8057px;}
</style>
<g>
	<text transform="matrix(1 0 0 1 212.1875 457.3654)" class="st0 st1">Y</text>
	<text transform="matrix(1 0 0 1 212 456.3264)" class="st0 st2">V</text>
	<text transform="matrix(1 0 0 1 238.4141 460.9357)" class="st0 st3">I</text>
	<text transform="matrix(1 0 0 1 230.6016 459.7795)" class="st0 st4">G</text>
	<text transform="matrix(1 0 0 1 229.4297 458.6389)" class="st0 st5">D</text>
	<text transform="matrix(46.7311 0 0 1 229.9844 457.717)" class="st0 st6">M</text>
	<text transform="matrix(50.3138 0 0 1 231.4922 456.3498)" class="st0 st6">A</text>
	<text transform="matrix(14.2815 0 0 1 231.1875 454.9748)" class="st0 st7">V</text>
	<text transform="matrix(13.2279 0 0 1 228.9062 452.4514)" class="st0 st8">L</text>
	<text transform="matrix(4.3311 0 0 1 230.4141 449.0842)" class="st0 st9">S</text>
	<text transform="matrix(2.2673 0 0 1 231.4688 442.5998)" class="st0 st10">T</text>
	<text transform="matrix(57.7695 0 0 1 248.6875 460.0529)" class="st0 st11">N</text>
	<text transform="matrix(54.5008 0 0 1 249.8594 458.6857)" class="st0 st12">C</text>
	<text transform="matrix(23.906 0 0 1 250.1094 457.2717)" class="st0 st13">Q</text>
	<text transform="matrix(15.0525 0 0 1 257.6016 455.2873)" class="st0 st14">I</text>
	<text transform="matrix(23.5862 0 0 1 250.6875 453.467)" class="st0 st15">A</text>
	<text transform="matrix(13.6697 0 0 1 249.6094 451.6076)" class="st0 st16">S</text>
	<text transform="matrix(2.9692 0 0 1 248.2031 448.9357)" class="st0 st17">E</text>
	<text transform="matrix(1.2665 0 0 1 248.6094 439.3889)" class="st0 st18">D</text>
	<text transform="matrix(1 0 0 1 307.9766 458.756)" class="st0 st19">V</text>
	<text transform="matrix(1 0 0 1 306.2656 457.5295)" class="st0 st19">N</text>
	<text transform="matrix(1 0 0 1 308.2578 456.5607)" class="st0 st20">T</text>
	<text transform="matrix(26.3754 0 0 1 307.1953 455.3185)" class="st0 st21">S</text>
	<text transform="matrix(1 0 0 1 325.3672 458.4435)" class="st0 st22">D</text>
	<text transform="matrix(1 0 0 1 327.4688 457.5139)" class="st0 st22">A</text>
	<text transform="matrix(93.69 0 0 1 327.4531 456.3498)" class="st0 st23">T</text>
	<text transform="matrix(58.9139 0 0 1 326.3594 455.0529)" class="st0 st24">S</text>
	<text transform="matrix(55.3767 0 0 1 325.4688 453.6779)" class="st0 st25">N</text>
	<text transform="matrix(8.8184 0 0 1 324.875 452.2795)" class="st0 st26">L</text>
	<text transform="matrix(1 0 0 1 345.1562 457.8264)" class="st0 st27">M</text>
	<text transform="matrix(1 0 0 1 344.0781 456.8889)" class="st0 st28">L</text>
	<text transform="matrix(32.2548 0 0 1 365.5312 459.0607)" class="st0 st29">V</text>
	<text transform="matrix(20.1362 0 0 1 372.7656 457.2014)" class="st0 st30">I</text>
	<text transform="matrix(7.262 0 0 1 363.2656 455.5764)" class="st0 st31">L</text>
	<text transform="matrix(4.6905 0 0 1 363.1875 450.7248)" class="st0 st32">F</text>
	<text transform="matrix(0.3643 0 0 1 365.7266 444.0139)" class="st0 st33">Y</text>
</g>
</svg>
