<?xml version="1.0" encoding="utf-8"?>
<!-- Generator: Adobe Illustrator 24.3.0, SVG Export Plug-In . SVG Version: 6.00 Build 0)  -->
<svg version="1.1" id="Layer_1" xmlns="http://www.w3.org/2000/svg" xmlns:xlink="http://www.w3.org/1999/xlink" x="0px" y="0px"
	 viewBox="0 0 595.28 841.89" style="enable-background:new 0 0 595.28 841.89;" xml:space="preserve">
<style type="text/css">
	.st0{font-family:'Helvetica-Narrow-Bold';}
	.st1{font-size:170.4153px;}
	.st2{font-size:170.4154px;}
	.st3{font-size:153.9102px;}
</style>
<g>
	<text transform="matrix(0.1636 0 0 1 211 471.5363)" class="st0 st1">R</text>
	<text transform="matrix(0.1526 0 0 1 230.0469 471.5363)" class="st0 st1">V</text>
	<text transform="matrix(0.1605 0 0 1 245.8906 471.5363)" class="st0 st1">K</text>
	<text transform="matrix(0.1809 0 0 1 262.6562 471.5363)" class="st0 st1">E</text>
	<text transform="matrix(0.1605 0 0 1 280.4375 471.5363)" class="st0 st1">K</text>
	<text transform="matrix(0.1488 0 0 1 299.3125 471.5285)" class="st0 st2">Y</text>
	<text transform="matrix(0.1513 0 0 1 316.1875 462.5988)" class="st0 st3">Q</text>
	<text transform="matrix(0.1691 0 0 1 332.0938 471.5285)" class="st0 st2">H</text>
	<text transform="matrix(0.2095 0 0 1 348.9375 471.5285)" class="st0 st2">L</text>
	<text transform="matrix(0.1046 0 0 1 368.5781 471.5285)" class="st0 st2">W</text>
</g>
</svg>
