<?xml version="1.0" encoding="utf-8"?>
<!-- Generator: Adobe Illustrator 24.3.0, SVG Export Plug-In . SVG Version: 6.00 Build 0)  -->
<svg version="1.1" id="Layer_1" xmlns="http://www.w3.org/2000/svg" xmlns:xlink="http://www.w3.org/1999/xlink" x="0px" y="0px"
	 viewBox="0 0 595.28 841.89" style="enable-background:new 0 0 595.28 841.89;" xml:space="preserve">
<style type="text/css">
	.st0{font-family:'Helvetica-Narrow-Bold';}
	.st1{font-size:0.5242px;}
	.st2{font-size:0.474px;}
	.st3{font-size:0.5257px;}
	.st4{font-size:2.4423px;}
	.st5{font-size:2.3179px;}
	.st6{font-size:6.2749px;}
	.st7{font-size:2.0237px;}
	.st8{font-size:2.0257px;}
	.st9{font-size:5.4377px;}
	.st10{font-size:12.2694px;}
	.st11{font-size:11.0793px;}
	.st12{font-size:15.6834px;}
	.st13{font-size:0.6919px;}
	.st14{font-size:0.692px;}
	.st15{font-size:0.6902px;}
	.st16{font-size:2.7741px;}
	.st17{font-size:4.3843px;}
	.st18{font-size:4.8563px;}
	.st19{font-size:0.3686px;}
	.st20{font-size:0.3855px;}
	.st21{font-size:2.1649px;}
	.st22{font-size:1.9576px;}
	.st23{font-size:3.9443px;}
	.st24{font-size:0.3866px;}
	.st25{font-size:2.057px;}
	.st26{font-size:3.9444px;}
	.st27{font-size:0.827px;}
	.st28{font-size:0.8269px;}
	.st29{font-size:2.7506px;}
	.st30{font-size:3.0479px;}
	.st31{font-size:5.2688px;}
	.st32{font-size:7.1105px;}
	.st33{font-size:0.774px;}
	.st34{font-size:0.7328px;}
	.st35{font-size:2.6544px;}
	.st36{font-size:2.9382px;}
	.st37{font-size:5.106px;}
	.st38{font-size:0.909px;}
	.st39{font-size:0.9116px;}
	.st40{font-size:3.212px;}
	.st41{font-size:4.9809px;}
	.st42{font-size:5.5185px;}
	.st43{font-size:7.4271px;}
	.st44{font-size:4.5483px;}
	.st45{font-size:4.5536px;}
	.st46{font-size:46.1215px;}
	.st47{font-size:52.0599px;}
</style>
<g>
	<text transform="matrix(55.4466 0 0 1 213.2891 463.0187)" class="st0 st1">V</text>
	<text transform="matrix(54.9181 0 0 1 213.0312 461.6828)" class="st0 st2">Q</text>
	<text transform="matrix(65.1217 0 0 1 211.1328 460.4016)" class="st0 st1">P</text>
	<text transform="matrix(50.378 0 0 1 212.0859 459.0812)" class="st0 st1">M</text>
	<text transform="matrix(58.3396 0 0 1 211.6875 457.5266)" class="st0 st1">K</text>
	<text transform="matrix(34.6155 0 0 1 220.5078 456.2219)" class="st0 st3">I</text>
	<text transform="matrix(59.4404 0 0 1 211.5234 454.9172)" class="st0 st1">D</text>
	<text transform="matrix(11.6048 0 0 1 213.4688 453.5969)" class="st0 st4">Y</text>
	<text transform="matrix(12.8011 0 0 1 213.5703 450.7297)" class="st0 st4">T</text>
	<text transform="matrix(13.1861 0 0 1 211.5859 448.1047)" class="st0 st4">N</text>
	<text transform="matrix(12.1524 0 0 1 212.6875 445.1984)" class="st0 st5">G</text>
	<text transform="matrix(6.3593 0 0 1 211 442.6203)" class="st0 st6">L</text>
	<text transform="matrix(13.0499 0 0 1 231.2734 463.0266)" class="st0 st7">M</text>
	<text transform="matrix(8.9829 0 0 1 239.6953 460.7609)" class="st0 st8">I</text>
	<text transform="matrix(15.9136 0 0 1 230.6875 458.2531)" class="st0 st7">H</text>
	<text transform="matrix(15.3974 0 0 1 230.6953 455.7531)" class="st0 st7">D</text>
	<text transform="matrix(5.2287 0 0 1 232.7734 453.2453)" class="st0 st9">A</text>
	<text transform="matrix(2.3691 0 0 1 232.4766 448.4797)" class="st0 st10">V</text>
	<text transform="matrix(2.3495 0 0 1 232.2109 438.0578)" class="st0 st11">Q</text>
	<text transform="matrix(2.5444 0 0 1 230.2031 428.9172)" class="st0 st12">L</text>
	<text transform="matrix(28.8074 0 0 1 252.0547 463.0266)" class="st0 st13">W</text>
	<text transform="matrix(42.006 0 0 1 251.6641 461.7141)" class="st0 st14">V</text>
	<text transform="matrix(44.1977 0 0 1 250.0703 460.1594)" class="st0 st14">K</text>
	<text transform="matrix(26.3643 0 0 1 258.8906 458.6125)" class="st0 st15">I</text>
	<text transform="matrix(41.0922 0 0 1 251.9766 457.0578)" class="st0 st13">A</text>
	<text transform="matrix(10.2168 0 0 1 251.8594 455.7531)" class="st0 st16">Y</text>
	<text transform="matrix(11.2327 0 0 1 249.6797 452.6516)" class="st0 st16">R</text>
	<text transform="matrix(11.6092 0 0 1 249.9766 449.7844)" class="st0 st16">N</text>
	<text transform="matrix(9.5201 0 0 1 250.4609 446.6828)" class="st0 st16">M</text>
	<text transform="matrix(5.9373 0 0 1 251.4062 443.5656)" class="st0 st17">Q</text>
	<text transform="matrix(8.217 0 0 1 249.3984 439.1672)" class="st0 st18">L</text>
	<text transform="matrix(88.3175 0 0 1 270.0703 463.0187)" class="st0 st19">S</text>
	<text transform="matrix(88.5585 0 0 1 268.7109 461.9016)" class="st0 st20">P</text>
	<text transform="matrix(79.3357 0 0 1 269.2734 460.55)" class="st0 st20">K</text>
	<text transform="matrix(76.422 0 0 1 270.2734 459.1906)" class="st0 st19">G</text>
	<text transform="matrix(89.3999 0 0 1 268.6641 458.0734)" class="st0 st20">E</text>
	<text transform="matrix(80.8328 0 0 1 269.0781 456.7297)" class="st0 st20">D</text>
	<text transform="matrix(14.4414 0 0 1 271.1562 455.3703)" class="st0 st21">T</text>
	<text transform="matrix(14.3932 0 0 1 268.875 452.9016)" class="st0 st21">R</text>
	<text transform="matrix(13.2975 0 0 1 270.6094 450.3156)" class="st0 st22">Q</text>
	<text transform="matrix(14.876 0 0 1 269.1719 447.7141)" class="st0 st21">N</text>
	<text transform="matrix(18.4324 0 0 1 268.5781 445.2453)" class="st0 st21">L</text>
	<text transform="matrix(7.3692 0 0 1 270.8672 442.7766)" class="st0 st23">V</text>
	<text transform="matrix(51.706 0 0 1 290.4375 463.0266)" class="st0 st20">W</text>
	<text transform="matrix(81.1035 0 0 1 290.3516 461.9016)" class="st0 st20">T</text>
	<text transform="matrix(80.8328 0 0 1 288.0625 460.55)" class="st0 st20">R</text>
	<text transform="matrix(79.3356 0 0 1 288.4453 459.1984)" class="st0 st20">K</text>
	<text transform="matrix(47.0705 0 0 1 297.2812 458.0891)" class="st0 st24">I</text>
	<text transform="matrix(94.7846 0 0 1 287.7109 456.7297)" class="st0 st20">F</text>
	<text transform="matrix(13.0918 0 0 1 290.2422 455.3703)" class="st0 st21">Y</text>
	<text transform="matrix(13.4261 0 0 1 290.0547 452.9016)" class="st0 st21">V</text>
	<text transform="matrix(13.2975 0 0 1 289.7891 450.3156)" class="st0 st22">Q</text>
	<text transform="matrix(13.6935 0 0 1 289.4609 447.675)" class="st0 st25">G</text>
	<text transform="matrix(14.3934 0 0 1 288.2891 445.2453)" class="st0 st21">D</text>
	<text transform="matrix(8.7373 0 0 1 287.875 442.7766)" class="st0 st26">E</text>
	<text transform="matrix(34.2718 0 0 1 309.4453 463.0266)" class="st0 st27">Y</text>
	<text transform="matrix(35.147 0 0 1 309.2422 461.5109)" class="st0 st27">V</text>
	<text transform="matrix(37.8047 0 0 1 309.5469 460.0109)" class="st0 st27">T</text>
	<text transform="matrix(37.6814 0 0 1 307.2578 458.2531)" class="st0 st28">R</text>
	<text transform="matrix(41.2798 0 0 1 307.0859 456.7609)" class="st0 st27">P</text>
	<text transform="matrix(44.1853 0 0 1 306.9141 455.2453)" class="st0 st28">F</text>
	<text transform="matrix(9.464 0 0 1 308.9922 453.3391)" class="st0 st29">Q</text>
	<text transform="matrix(10.5663 0 0 1 307.5547 450.4797)" class="st0 st30">N</text>
	<text transform="matrix(10.5663 0 0 1 307.4609 447.2141)" class="st0 st30">H</text>
	<text transform="matrix(7.5737 0 0 1 306.9688 443.9641)" class="st0 st31">L</text>
	<text transform="matrix(3.9614 0 0 1 308.6562 439.0734)" class="st0 st32">G</text>
	<text transform="matrix(36.6203 0 0 1 328.6406 463.0187)" class="st0 st33">Y</text>
	<text transform="matrix(37.5554 0 0 1 328.4531 461.5891)" class="st0 st33">V</text>
	<text transform="matrix(51.5579 0 0 1 326.1484 459.925)" class="st0 st33">L</text>
	<text transform="matrix(41.6102 0 0 1 326.6562 458.4875)" class="st0 st33">H</text>
	<text transform="matrix(38.4384 0 0 1 327.8359 456.8078)" class="st0 st34">G</text>
	<text transform="matrix(44.5275 0 0 1 326.2422 455.3937)" class="st0 st33">E</text>
	<text transform="matrix(9.8068 0 0 1 328.1875 453.5656)" class="st0 st35">Q</text>
	<text transform="matrix(10.961 0 0 1 326.75 450.6203)" class="st0 st36">N</text>
	<text transform="matrix(6.1231 0 0 1 328.7344 447.5187)" class="st0 st37">T</text>
	<text transform="matrix(6.686 0 0 1 326.2969 442.9875)" class="st0 st37">P</text>
	<text transform="matrix(6.1027 0 0 1 326.6797 438.2141)" class="st0 st37">D</text>
	<text transform="matrix(31.1799 0 0 1 347.8359 463.0187)" class="st0 st38">Y</text>
	<text transform="matrix(31.9761 0 0 1 347.6484 461.4016)" class="st0 st38">V</text>
	<text transform="matrix(35.4285 0 0 1 345.9531 459.7766)" class="st0 st38">N</text>
	<text transform="matrix(33.6444 0 0 1 346.0391 458.1359)" class="st0 st38">K</text>
	<text transform="matrix(19.9622 0 0 1 354.8672 456.5109)" class="st0 st39">I</text>
	<text transform="matrix(37.9125 0 0 1 345.4609 454.8937)" class="st0 st38">E</text>
	<text transform="matrix(34.2793 0 0 1 345.875 453.2531)" class="st0 st38">D</text>
	<text transform="matrix(9.7337 0 0 1 347.9297 451.6359)" class="st0 st40">T</text>
	<text transform="matrix(5.2262 0 0 1 347.3828 448.0891)" class="st0 st41">Q</text>
	<text transform="matrix(6.1863 0 0 1 345.4844 443.2531)" class="st0 st42">P</text>
	<text transform="matrix(4.3829 0 0 1 346.8594 438.2141)" class="st0 st43">S</text>
	<text transform="matrix(8.7736 0 0 1 364.5547 463.0266)" class="st0 st44">L</text>
	<text transform="matrix(3.9961 0 0 1 374.0547 458.8234)" class="st0 st45">I</text>
	<text transform="matrix(0.6145 0 0 1 367.0234 454.6125)" class="st0 st46">Y</text>
	<text transform="matrix(0.7019 0 0 1 364.4844 420.4641)" class="st0 st47">F</text>
</g>
</svg>
