<?xml version="1.0" encoding="utf-8"?>
<!-- Generator: Adobe Illustrator 24.3.0, SVG Export Plug-In . SVG Version: 6.00 Build 0)  -->
<svg version="1.1" id="Layer_1" xmlns="http://www.w3.org/2000/svg" xmlns:xlink="http://www.w3.org/1999/xlink" x="0px" y="0px"
	 viewBox="0 0 595.28 841.89" style="enable-background:new 0 0 595.28 841.89;" xml:space="preserve">
<style type="text/css">
	.st0{font-family:'Helvetica-Narrow-Bold';}
	.st1{font-size:10.1154px;}
	.st2{font-size:10.1155px;}
	.st3{font-size:10.129px;}
	.st4{font-size:12.324px;}
	.st5{font-size:11.7041px;}
	.st6{font-size:12.3241px;}
	.st7{font-size:26.042px;}
	.st8{font-size:11.1306px;}
	.st9{font-size:26.0419px;}
	.st10{font-size:11.1307px;}
	.st11{font-size:11.704px;}
	.st12{font-size:24.7316px;}
	.st13{font-size:26.078px;}
	.st14{font-size:9.6076px;}
	.st15{font-size:14.5326px;}
	.st16{font-size:14.5512px;}
	.st17{font-size:30.4591px;}
	.st18{font-size:30.4592px;}
</style>
<g>
	<text transform="matrix(2.5704 0 0 1 212.0391 455.0095)" class="st0 st1">V</text>
	<text transform="matrix(2.3353 0 0 1 210.9688 446.8845)" class="st0 st1">M</text>
	<text transform="matrix(3.5287 0 0 1 210 438.5251)" class="st0 st1">L</text>
	<text transform="matrix(2.7043 0 0 1 210.6094 430.4001)" class="st0 st2">K</text>
	<text transform="matrix(1.607 0 0 1 218.3594 422.0329)" class="st0 st3">I</text>
	<text transform="matrix(2.5141 0 0 1 212.3125 413.9079)" class="st0 st1">A</text>
	<text transform="matrix(2.1098 0 0 1 229.3125 455.0095)" class="st0 st4">V</text>
	<text transform="matrix(2.4878 0 0 1 228.6172 445.1579)" class="st0 st5">S</text>
	<text transform="matrix(2.3377 0 0 1 227.8047 435.5485)" class="st0 st6">N</text>
	<text transform="matrix(2.0636 0 0 1 229.5859 425.6813)" class="st0 st4">A</text>
	<text transform="matrix(1.0739 0 0 1 229.5781 415.8298)" class="st0 st7">T</text>
	<text transform="matrix(2.0922 0 0 1 246.3594 454.361)" class="st0 st8">Q</text>
	<text transform="matrix(2.2197 0 0 1 245.1562 445.4001)" class="st0 st6">K</text>
	<text transform="matrix(2.3377 0 0 1 244.9922 435.5485)" class="st0 st6">H</text>
	<text transform="matrix(2.652 0 0 1 244.4844 425.6813)" class="st0 st4">F</text>
	<text transform="matrix(1.0703 0 0 1 244.8125 415.8298)" class="st0 st9">R</text>
	<text transform="matrix(2.2692 0 0 1 264.1172 455.0095)" class="st0 st4">T</text>
	<text transform="matrix(2.4878 0 0 1 263.1719 445.1579)" class="st0 st5">S</text>
	<text transform="matrix(2.3377 0 0 1 262.3438 435.5485)" class="st0 st6">N</text>
	<text transform="matrix(2.652 0 0 1 261.7656 425.6813)" class="st0 st4">F</text>
	<text transform="matrix(1.0703 0 0 1 262.0859 415.8298)" class="st0 st9">R</text>
	<text transform="matrix(2.1098 0 0 1 281.1406 455.0095)" class="st0 st4">V</text>
	<text transform="matrix(2.4878 0 0 1 280.4453 445.1579)" class="st0 st5">S</text>
	<text transform="matrix(2.0922 0 0 1 280.9062 434.8923)" class="st0 st10">Q</text>
	<text transform="matrix(2.3378 0 0 1 279.625 425.6813)" class="st0 st4">N</text>
	<text transform="matrix(1.0739 0 0 1 281.3906 415.8298)" class="st0 st7">T</text>
	<text transform="matrix(2.2617 0 0 1 296.6328 455.0095)" class="st0 st4">R</text>
	<text transform="matrix(2.8963 0 0 1 296.375 445.4001)" class="st0 st6">L</text>
	<text transform="matrix(2.2197 0 0 1 296.9844 435.5485)" class="st0 st6">K</text>
	<text transform="matrix(2.1528 0 0 1 297.8828 425.4548)" class="st0 st11">G</text>
	<text transform="matrix(1.1773 0 0 1 297.7188 415.2985)" class="st0 st12">S</text>
	<text transform="matrix(2.1098 0 0 1 315.6875 455.0095)" class="st0 st4">V</text>
	<text transform="matrix(2.0922 0 0 1 315.4531 444.7516)" class="st0 st10">Q</text>
	<text transform="matrix(2.2617 0 0 1 314.1094 435.5485)" class="st0 st6">D</text>
	<text transform="matrix(2.0636 0 0 1 315.9531 425.6813)" class="st0 st4">A</text>
	<text transform="matrix(1.0739 0 0 1 315.9375 415.8298)" class="st0 st7">T</text>
	<text transform="matrix(2.1098 0 0 1 332.9609 455.0095)" class="st0 st4">V</text>
	<text transform="matrix(2.4779 0 0 1 331.0391 445.4001)" class="st0 st6">P</text>
	<text transform="matrix(2.3377 0 0 1 331.4453 435.5485)" class="st0 st6">N</text>
	<text transform="matrix(1.9168 0 0 1 331.8906 425.6813)" class="st0 st4">M</text>
	<text transform="matrix(0.6242 0 0 1 339.2812 415.8298)" class="st0 st13">I</text>
	<text transform="matrix(2.5064 0 0 1 350.4062 455.0095)" class="st0 st1">Y</text>
	<text transform="matrix(2.7647 0 0 1 350.4922 446.8845)" class="st0 st2">T</text>
	<text transform="matrix(3.0307 0 0 1 349.5469 438.322)" class="st0 st14">S</text>
	<text transform="matrix(2.7555 0 0 1 348.4531 430.4001)" class="st0 st2">R</text>
	<text transform="matrix(2.3353 0 0 1 349.1641 422.0329)" class="st0 st2">M</text>
	<text transform="matrix(3.5287 0 0 1 348.1953 413.9079)" class="st0 st2">L</text>
	<text transform="matrix(1.8824 0 0 1 366.0781 455.0095)" class="st0 st15">K</text>
	<text transform="matrix(1.1186 0 0 1 374.0703 443.6579)" class="st0 st16">I</text>
	<text transform="matrix(0.8536 0 0 1 367.5156 432.3141)" class="st0 st17">V</text>
	<text transform="matrix(0.8349 0 0 1 367.7812 409.3845)" class="st0 st18">A</text>
</g>
</svg>
