<?xml version="1.0" encoding="utf-8"?>
<!-- Generator: Adobe Illustrator 24.3.0, SVG Export Plug-In . SVG Version: 6.00 Build 0)  -->
<svg version="1.1" id="Layer_1" xmlns="http://www.w3.org/2000/svg" xmlns:xlink="http://www.w3.org/1999/xlink" x="0px" y="0px"
	 viewBox="0 0 595.28 841.89" style="enable-background:new 0 0 595.28 841.89;" xml:space="preserve">
<style type="text/css">
	.st0{font-family:'Helvetica-Narrow-Bold';}
	.st1{font-size:0.5284px;}
	.st2{font-size:1.4132px;}
	.st3{font-size:1.3441px;}
	.st4{font-size:2.4471px;}
	.st5{font-size:3.4083px;}
	.st6{font-size:8.2224px;}
	.st7{font-size:9.1716px;}
	.st8{font-size:1.2893px;}
	.st9{font-size:3.7678px;}
	.st10{font-size:7.9883px;}
	.st11{font-size:8.8591px;}
	.st12{font-size:17.3669px;}
	.st13{font-size:0.4037px;}
	.st14{font-size:0.4036px;}
	.st15{font-size:0.3814px;}
	.st16{font-size:1.3024px;}
	.st17{font-size:2.9424px;}
	.st18{font-size:4.8938px;}
	.st19{font-size:6.699px;}
	.st20{font-size:6.6876px;}
	.st21{font-size:10px;}
	.st22{font-size:0.3935px;}
	.st23{font-size:0.413px;}
	.st24{font-size:0.7729px;}
	.st25{font-size:0.2609px;}
	.st26{font-size:0.2777px;}
	.st27{font-size:0.2748px;}
	.st28{font-size:0.6946px;}
	.st29{font-size:0.871px;}
	.st30{font-size:0.7868px;}
	.st31{font-size:1.2548px;}
	.st32{font-size:0.0608px;}
	.st33{font-size:0.4245px;}
	.st34{font-size:0.313px;}
	.st35{font-size:0.7957px;}
	.st36{font-size:0.882px;}
	.st37{font-size:0.8821px;}
	.st38{font-size:1.4474px;}
	.st39{font-size:1.9161px;}
	.st40{font-size:2.5853px;}
	.st41{font-size:1.0918px;}
	.st42{font-size:8.5524px;}
	.st43{font-size:8.5653px;}
	.st44{font-size:11.0381px;}
	.st45{font-size:78.1618px;}
</style>
<g>
	<text transform="matrix(37.7191 0 0 1 212.3594 463.4601)" class="st0 st1">W</text>
	<text transform="matrix(55.0089 0 0 1 211.9922 462.132)" class="st0 st1">V</text>
	<text transform="matrix(59.1641 0 0 1 212.2578 460.5773)" class="st0 st1">T</text>
	<text transform="matrix(23.0343 0 0 1 211.2109 459.2336)" class="st0 st2">S</text>
	<text transform="matrix(19.3665 0 0 1 211.7266 457.2101)" class="st0 st3">Q</text>
	<text transform="matrix(11.6187 0 0 1 212.2812 455.0695)" class="st0 st4">A</text>
	<text transform="matrix(8.9732 0 0 1 210.3828 452.4367)" class="st0 st5">K</text>
	<text transform="matrix(2.2131 0 0 1 219.2109 448.8976)" class="st0 st6">I</text>
	<text transform="matrix(3.3975 0 0 1 210 442.0617)" class="st0 st7">R</text>
	<text transform="matrix(14.1138 0 0 1 238.4062 462.468)" class="st0 st8">I</text>
	<text transform="matrix(7.4759 0 0 1 230.5859 460.4836)" class="st0 st9">G</text>
	<text transform="matrix(3.6387 0 0 1 231.1797 456.6867)" class="st0 st10">V</text>
	<text transform="matrix(3.9138 0 0 1 231.4688 449.9367)" class="st0 st10">T</text>
	<text transform="matrix(3.6744 0 0 1 230.4062 442.9992)" class="st0 st11">S</text>
	<text transform="matrix(1.6372 0 0 1 231.4766 435.468)" class="st0 st12">A</text>
	<text transform="matrix(70.2113 0 0 1 250.5469 464.3898)" class="st0 st13">Y</text>
	<text transform="matrix(49.3763 0 0 1 250.7578 463.007)" class="st0 st13">W</text>
	<text transform="matrix(77.4607 0 0 1 250.6719 461.6242)" class="st0 st14">T</text>
	<text transform="matrix(85.3569 0 0 1 249.6016 460.4836)" class="st0 st15">S</text>
	<text transform="matrix(77.2024 0 0 1 248.3672 459.1008)" class="st0 st14">R</text>
	<text transform="matrix(22.3181 0 0 1 250.3672 457.7258)" class="st0 st16">V</text>
	<text transform="matrix(9.5732 0 0 1 249.7812 455.7258)" class="st0 st17">G</text>
	<text transform="matrix(8.1541 0 0 1 248.1016 452.6867)" class="st0 st18">L</text>
	<text transform="matrix(2.7164 0 0 1 257.5938 448.2258)" class="st0 st19">I</text>
	<text transform="matrix(4.2515 0 0 1 250.6719 442.3742)" class="st0 st20">A</text>
	<text transform="matrix(1 0 0 1 268.7734 459.5617)" class="st0 st21">S</text>
	<text transform="matrix(71.5908 0 0 1 268.9766 458.4523)" class="st0 st22">G</text>
	<text transform="matrix(68.8396 0 0 1 269.8672 457.0539)" class="st0 st23">A</text>
	<text transform="matrix(44.1682 0 0 1 267.4141 455.8976)" class="st0 st24">P</text>
	<text transform="matrix(1 0 0 1 287.9922 460.1008)" class="st0 st25">S</text>
	<text transform="matrix(95.1103 0 0 1 287.5547 458.9211)" class="st0 st26">M</text>
	<text transform="matrix(66.2227 0 0 1 295.9844 457.718)" class="st0 st27">I</text>
	<text transform="matrix(1 0 0 1 289.0547 456.5226)" class="st0 st26">A</text>
	<text transform="matrix(41.8449 0 0 1 288.7656 455.3273)" class="st0 st28">V</text>
	<text transform="matrix(49.6135 0 0 1 286.5703 454.007)" class="st0 st28">E</text>
	<text transform="matrix(33.3728 0 0 1 307.9453 458.007)" class="st0 st29">V</text>
	<text transform="matrix(33.0865 0 0 1 307.6953 456.3898)" class="st0 st30">Q</text>
	<text transform="matrix(45.8157 0 0 1 305.6484 454.8742)" class="st0 st29">L</text>
	<text transform="matrix(22.4484 0 0 1 307.3594 453.2726)" class="st0 st31">G</text>
	<text transform="matrix(1 0 0 1 324.9922 459.2101)" class="st0 st32">P</text>
	<text transform="matrix(68.4753 0 0 1 327.1562 458.0851)" class="st0 st33">V</text>
	<text transform="matrix(73.6534 0 0 1 327.4453 456.9133)" class="st0 st33">T</text>
	<text transform="matrix(81.1938 0 0 1 324.9453 455.507)" class="st0 st33">E</text>
	<text transform="matrix(97.6998 0 0 1 344.7422 460.9992)" class="st0 st34">K</text>
	<text transform="matrix(32.714 0 0 1 346.0703 459.7101)" class="st0 st35">Q</text>
	<text transform="matrix(36.5128 0 0 1 344.6562 458.1633)" class="st0 st36">N</text>
	<text transform="matrix(39.0713 0 0 1 344.1641 456.3508)" class="st0 st37">E</text>
	<text transform="matrix(21.6011 0 0 1 346.625 454.757)" class="st0 st38">T</text>
	<text transform="matrix(16.9887 0 0 1 345.5703 452.7961)" class="st0 st39">S</text>
	<text transform="matrix(15.4349 0 0 1 344.0625 450.343)" class="st0 st40">L</text>
	<text transform="matrix(25.9606 0 0 1 365.7266 466.0851)" class="st0 st41">Y</text>
	<text transform="matrix(4.6659 0 0 1 363.2578 464.4445)" class="st0 st42">L</text>
	<text transform="matrix(2.1245 0 0 1 372.7578 457.3586)" class="st0 st43">I</text>
	<text transform="matrix(3.3103 0 0 1 363.1797 450.0383)" class="st0 st44">F</text>
	<text transform="matrix(0.255 0 0 1 365.9141 441.3117)" class="st0 st45">W</text>
</g>
</svg>
