<?xml version="1.0" encoding="utf-8"?>
<!-- Generator: Adobe Illustrator 24.3.0, SVG Export Plug-In . SVG Version: 6.00 Build 0)  -->
<svg version="1.1" id="Layer_1" xmlns="http://www.w3.org/2000/svg" xmlns:xlink="http://www.w3.org/1999/xlink" x="0px" y="0px"
	 viewBox="0 0 595.28 841.89" style="enable-background:new 0 0 595.28 841.89;" xml:space="preserve">
<style type="text/css">
	.st0{font-family:'Helvetica-Narrow-Bold';}
	.st1{font-size:43.7089px;}
	.st2{font-size:88.8083px;}
	.st3{font-size:170.416px;}
	.st4{font-size:34.8742px;}
	.st5{font-size:34.8743px;}
	.st6{font-size:39.4757px;}
	.st7{font-size:41.5122px;}
</style>
<g>
	<text transform="matrix(0.7129 0 0 1 211.2109 471.529)" class="st0 st1">D</text>
	<text transform="matrix(0.3509 0 0 1 211 439.154)" class="st0 st2">R</text>
	<text transform="matrix(0.1828 0 0 1 230.1953 471.529)" class="st0 st3">R</text>
	<text transform="matrix(0.5715 0 0 1 251.7422 471.5212)" class="st0 st4">W</text>
	<text transform="matrix(0.8935 0 0 1 249.3828 445.6071)" class="st0 st4">R</text>
	<text transform="matrix(1.1442 0 0 1 249.0938 419.4431)" class="st0 st5">L</text>
	<text transform="matrix(0.8935 0 0 1 268.5781 471.5212)" class="st0 st4">R</text>
	<text transform="matrix(1.1442 0 0 1 268.2891 445.6071)" class="st0 st4">L</text>
	<text transform="matrix(0.8935 0 0 1 268.8047 419.4431)" class="st0 st5">D</text>
	<text transform="matrix(0.7368 0 0 1 288.0625 471.529)" class="st0 st1">N</text>
	<text transform="matrix(0.3509 0 0 1 287.7734 439.154)" class="st0 st2">R</text>
	<text transform="matrix(0.8965 0 0 1 309.2422 471.5212)" class="st0 st4">T</text>
	<text transform="matrix(0.8935 0 0 1 306.9609 445.6071)" class="st0 st4">R</text>
	<text transform="matrix(1.1442 0 0 1 306.6797 419.4431)" class="st0 st5">L</text>
	<text transform="matrix(0.7153 0 0 1 328.4375 471.529)" class="st0 st1">T</text>
	<text transform="matrix(0.4493 0 0 1 325.8672 439.154)" class="st0 st2">L</text>
	<text transform="matrix(0.6594 0 0 1 347.0859 469.2321)" class="st0 st6">Q</text>
	<text transform="matrix(0.3273 0 0 1 347.3438 439.154)" class="st0 st2">V</text>
	<text transform="matrix(0.6969 0 0 1 366.0156 470.7399)" class="st0 st7">C</text>
	<text transform="matrix(0.4493 0 0 1 364.2578 439.154)" class="st0 st2">L</text>
</g>
</svg>
