<?xml version="1.0" encoding="utf-8"?>
<!-- Generator: Adobe Illustrator 24.3.0, SVG Export Plug-In . SVG Version: 6.00 Build 0)  -->
<svg version="1.1" id="Layer_1" xmlns="http://www.w3.org/2000/svg" xmlns:xlink="http://www.w3.org/1999/xlink" x="0px" y="0px"
	 viewBox="0 0 595.28 841.89" style="enable-background:new 0 0 595.28 841.89;" xml:space="preserve">
<style type="text/css">
	.st0{font-family:'Helvetica-Narrow-Bold';}
	.st1{font-size:1.0036px;}
	.st2{font-size:1.1161px;}
	.st3{font-size:2.2458px;}
	.st4{font-size:2.3665px;}
	.st5{font-size:3.6199px;}
	.st6{font-size:7.0083px;}
	.st7{font-size:170.4153px;}
	.st8{font-size:0.0745px;}
	.st9{font-size:0.0744px;}
	.st10{font-size:0.0704px;}
	.st11{font-size:0.0705px;}
	.st12{font-size:1.5427px;}
	.st13{font-size:1.3937px;}
	.st14{font-size:3.0109px;}
	.st15{font-size:3.011px;}
	.st16{font-size:11.8388px;}
	.st17{font-size:0.6801px;}
	.st18{font-size:0.68px;}
	.st19{font-size:1.717px;}
	.st20{font-size:2.7539px;}
	.st21{font-size:4.8279px;}
	.st22{font-size:0.8994px;}
	.st23{font-size:2.0442px;}
	.st24{font-size:1.9412px;}
	.st25{font-size:4.3337px;}
	.st26{font-size:0.8891px;}
	.st27{font-size:2.0323px;}
	.st28{font-size:4.3115px;}
	.st29{font-size:5.4549px;}
	.st30{font-size:0.7579px;}
	.st31{font-size:0.7184px;}
	.st32{font-size:0.7578px;}
	.st33{font-size:1.8315px;}
	.st34{font-size:3.7794px;}
	.st35{font-size:5.0539px;}
	.st36{font-size:0.6446px;}
	.st37{font-size:4.8278px;}
	.st38{font-size:0.6765px;}
	.st39{font-size:0.7115px;}
	.st40{font-size:1.5961px;}
	.st41{font-size:1.766px;}
	.st42{font-size:1.6764px;}
	.st43{font-size:1.7659px;}
	.st44{font-size:3.8713px;}
	.st45{font-size:0.7827px;}
	.st46{font-size:0.7079px;}
	.st47{font-size:0.7848px;}
	.st48{font-size:2.9592px;}
	.st49{font-size:5.1357px;}
	.st50{font-size:29.0701px;}
</style>
<g>
	<text transform="matrix(23.2037 0 0 1 210.8125 466.2004)" class="st0 st1">Q</text>
	<text transform="matrix(14.5837 0 0 1 217.3594 464.3332)" class="st0 st2">I</text>
	<text transform="matrix(12.9655 0 0 1 210.3438 462.6066)" class="st0 st3">S</text>
	<text transform="matrix(11.7784 0 0 1 209.2656 459.9035)" class="st0 st4">R</text>
	<text transform="matrix(15.0836 0 0 1 209 457.1379)" class="st0 st4">L</text>
	<text transform="matrix(7.7257 0 0 1 211.2969 454.6223)" class="st0 st5">T</text>
	<text transform="matrix(3.5953 0 0 1 210.5078 450.8879)" class="st0 st6">G</text>
	<text transform="matrix(0.1809 0 0 1 226.3672 471.5285)" class="st0 st7">E</text>
	<text transform="matrix(1 0 0 1 245.7422 471.5285)" class="st0 st8">Y</text>
	<text transform="matrix(1 0 0 1 245.9219 470.6144)" class="st0 st9">W</text>
	<text transform="matrix(1 0 0 1 244.9062 469.4582)" class="st0 st10">S</text>
	<text transform="matrix(1 0 0 1 245.0625 468.5598)" class="st0 st11">G</text>
	<text transform="matrix(18.1281 0 0 1 245.8516 467.4113)" class="st0 st12">T</text>
	<text transform="matrix(16.7089 0 0 1 245.3594 465.2707)" class="st0 st13">Q</text>
	<text transform="matrix(15.3128 0 0 1 244.5234 463.2941)" class="st0 st12">M</text>
	<text transform="matrix(16.485 0 0 1 245.8516 461.0051)" class="st0 st12">A</text>
	<text transform="matrix(8.6356 0 0 1 245.5859 458.9426)" class="st0 st14">V</text>
	<text transform="matrix(9.5685 0 0 1 244.0703 455.7394)" class="st0 st15">N</text>
	<text transform="matrix(10.8551 0 0 1 243.4922 452.7707)" class="st0 st14">F</text>
	<text transform="matrix(1.3749 0 0 1 251.9141 449.5676)" class="st0 st16">I</text>
	<text transform="matrix(44.9026 0 0 1 260.9531 467.1535)" class="st0 st17">P</text>
	<text transform="matrix(52.4899 0 0 1 260.8203 465.6144)" class="st0 st18">L</text>
	<text transform="matrix(40.2241 0 0 1 261.4219 464.3098)" class="st0 st17">K</text>
	<text transform="matrix(40.9889 0 0 1 261.2812 462.7785)" class="st0 st18">D</text>
	<text transform="matrix(17.9538 0 0 1 260.9141 461.2473)" class="st0 st19">E</text>
	<text transform="matrix(14.8116 0 0 1 263.125 458.9348)" class="st0 st19">A</text>
	<text transform="matrix(10.1553 0 0 1 263.1172 456.8723)" class="st0 st20">T</text>
	<text transform="matrix(5.7734 0 0 1 261.0859 453.7941)" class="st0 st21">R</text>
	<text transform="matrix(28.19 0 0 1 280.2969 467.6223)" class="st0 st22">Y</text>
	<text transform="matrix(39.6881 0 0 1 278.1094 465.7707)" class="st0 st22">L</text>
	<text transform="matrix(30.992 0 0 1 278.5547 464.1535)" class="st0 st22">D</text>
	<text transform="matrix(13.6807 0 0 1 280.3906 462.5441)" class="st0 st23">T</text>
	<text transform="matrix(14.9996 0 0 1 279.4453 459.9816)" class="st0 st24">S</text>
	<text transform="matrix(15.08 0 0 1 278.1875 457.7238)" class="st0 st23">E</text>
	<text transform="matrix(6.3123 0 0 1 278.7031 455.1926)" class="st0 st25">K</text>
	<text transform="matrix(5.8682 0 0 1 280.3984 451.0441)" class="st0 st25">A</text>
	<text transform="matrix(29.2459 0 0 1 297.4141 465.1379)" class="st0 st26">V</text>
	<text transform="matrix(13.715 0 0 1 295.6328 463.5441)" class="st0 st27">R</text>
	<text transform="matrix(13.715 0 0 1 295.8281 461.0207)" class="st0 st27">D</text>
	<text transform="matrix(12.5134 0 0 1 297.6797 458.5051)" class="st0 st27">A</text>
	<text transform="matrix(8.2788 0 0 1 295.375 455.9973)" class="st0 st28">L</text>
	<text transform="matrix(5.1268 0 0 1 297.6641 451.8723)" class="st0 st29">T</text>
	<text transform="matrix(34.3082 0 0 1 314.6875 467.0676)" class="st0 st30">V</text>
	<text transform="matrix(36.901 0 0 1 314.9531 465.4269)" class="st0 st30">T</text>
	<text transform="matrix(40.5312 0 0 1 313.9922 463.9973)" class="st0 st31">S</text>
	<text transform="matrix(40.2955 0 0 1 312.7656 462.3723)" class="st0 st32">P</text>
	<text transform="matrix(47.1003 0 0 1 312.6406 460.966)" class="st0 st32">L</text>
	<text transform="matrix(8.8876 0 0 1 321.0078 459.3254)" class="st0 st33">I</text>
	<text transform="matrix(6.667 0 0 1 314.1484 457.0207)" class="st0 st34">G</text>
	<text transform="matrix(6.4671 0 0 1 312.5859 453.216)" class="st0 st35">F</text>
	<text transform="matrix(26.2149 0 0 1 332.2969 467.1535)" class="st0 st17">W</text>
	<text transform="matrix(41.1252 0 0 1 332.2188 465.6144)" class="st0 st18">T</text>
	<text transform="matrix(45.1743 0 0 1 331.2656 464.3019)" class="st0 st36">S</text>
	<text transform="matrix(42.3633 0 0 1 330.4297 462.7785)" class="st0 st17">N</text>
	<text transform="matrix(20.789 0 0 1 329.9219 461.2473)" class="st0 st19">L</text>
	<text transform="matrix(17.9539 0 0 1 330.0156 458.9348)" class="st0 st19">E</text>
	<text transform="matrix(11.868 0 0 1 329.8516 456.8723)" class="st0 st20">F</text>
	<text transform="matrix(5.3857 0 0 1 331.9531 453.7941)" class="st0 st37">V</text>
	<text transform="matrix(43.0448 0 0 1 348.5469 468.591)" class="st0 st38">S</text>
	<text transform="matrix(39.1731 0 0 1 347.4688 467.0207)" class="st0 st39">R</text>
	<text transform="matrix(40.4934 0 0 1 347.7266 465.6691)" class="st0 st39">N</text>
	<text transform="matrix(14.5904 0 0 1 349 463.9973)" class="st0 st40">Q</text>
	<text transform="matrix(20.2122 0 0 1 347.1953 461.716)" class="st0 st41">L</text>
	<text transform="matrix(15.0305 0 0 1 348.7031 459.5441)" class="st0 st42">G</text>
	<text transform="matrix(15.7839 0 0 1 347.6484 457.2004)" class="st0 st43">D</text>
	<text transform="matrix(14.4007 0 0 1 349.5 455.0676)" class="st0 st41">A</text>
	<text transform="matrix(7.9628 0 0 1 347.2891 452.6926)" class="st0 st44">E</text>
	<text transform="matrix(33.2193 0 0 1 366.5 471.5285)" class="st0 st45">V</text>
	<text transform="matrix(35.7312 0 0 1 366.7656 470.0832)" class="st0 st45">T</text>
	<text transform="matrix(35.6112 0 0 1 364.7266 468.6379)" class="st0 st45">R</text>
	<text transform="matrix(32.8979 0 0 1 366.2812 466.9113)" class="st0 st46">Q</text>
	<text transform="matrix(34.9511 0 0 1 365.0703 465.5051)" class="st0 st45">K</text>
	<text transform="matrix(20.7393 0 0 1 373.0703 463.8254)" class="st0 st47">I</text>
	<text transform="matrix(8.5678 0 0 1 366.6797 462.3801)" class="st0 st48">Y</text>
	<text transform="matrix(7.9829 0 0 1 365.4375 459.2473)" class="st0 st48">M</text>
	<text transform="matrix(5.6099 0 0 1 364.9922 456.1223)" class="st0 st49">N</text>
	<text transform="matrix(6.364 0 0 1 364.4062 451.3098)" class="st0 st49">F</text>
	<text transform="matrix(1.2279 0 0 1 364.4688 446.7238)" class="st0 st50">L</text>
</g>
</svg>
