<?xml version="1.0" encoding="utf-8"?>
<!-- Generator: Adobe Illustrator 24.3.0, SVG Export Plug-In . SVG Version: 6.00 Build 0)  -->
<svg version="1.1" id="Layer_1" xmlns="http://www.w3.org/2000/svg" xmlns:xlink="http://www.w3.org/1999/xlink" x="0px" y="0px"
	 viewBox="0 0 595.28 841.89" style="enable-background:new 0 0 595.28 841.89;" xml:space="preserve">
<style type="text/css">
	.st0{font-family:'Helvetica-Narrow-Bold';}
	.st1{font-size:0.1239px;}
	.st2{font-size:0.1242px;}
	.st3{font-size:1.1333px;}
	.st4{font-size:1.6379px;}
	.st5{font-size:2.513px;}
	.st6{font-size:4.666px;}
	.st7{font-size:6.1838px;}
	.st8{font-size:0.7847px;}
	.st9{font-size:0.7461px;}
	.st10{font-size:137.9315px;}
	.st11{font-size:10px;}
	.st12{font-size:0.4792px;}
	.st13{font-size:0.9456px;}
	.st14{font-size:1.412px;}
	.st15{font-size:1.3432px;}
	.st16{font-size:1.7846px;}
	.st17{font-size:2.3485px;}
	.st18{font-size:6.5573px;}
	.st19{font-size:0.6134px;}
	.st20{font-size:0.581px;}
	.st21{font-size:0.9006px;}
	.st22{font-size:0.3557px;}
	.st23{font-size:0.3558px;}
	.st24{font-size:0.3567px;}
	.st25{font-size:0.7034px;}
	.st26{font-size:1.0001px;}
	.st27{font-size:1.4063px;}
	.st28{font-size:0.3082px;}
	.st29{font-size:0.9407px;}
	.st30{font-size:1.6734px;}
	.st31{font-size:4.0562px;}
	.st32{font-size:0.0606px;}
	.st33{font-size:0.7897px;}
	.st34{font-size:0.7507px;}
	.st35{font-size:1.1505px;}
	.st36{font-size:1.8796px;}
	.st37{font-size:3.3341px;}
	.st38{font-size:0.0772px;}
	.st39{font-size:0.3721px;}
	.st40{font-size:1.2533px;}
	.st41{font-size:0.2311px;}
	.st42{font-size:0.2446px;}
	.st43{font-size:0.8978px;}
	.st44{font-size:1.8793px;}
	.st45{font-size:2.861px;}
	.st46{font-size:0.2645px;}
	.st47{font-size:1.0937px;}
	.st48{font-size:2.7484px;}
	.st49{font-size:3.5776px;}
	.st50{font-size:4.4068px;}
	.st51{font-size:4.4118px;}
	.st52{font-size:6.8907px;}
	.st53{font-size:19.3174px;}
</style>
<g>
	<text transform="matrix(1 0 0 1 209.6016 466.1437)" class="st0 st1">K</text>
	<text transform="matrix(1 0 0 1 217.3672 465.175)" class="st0 st2">I</text>
	<text transform="matrix(25.4228 0 0 1 209.5391 463.9562)" class="st0 st3">N</text>
	<text transform="matrix(21.7924 0 0 1 209 462.2609)" class="st0 st4">L</text>
	<text transform="matrix(15.5264 0 0 1 211.3203 460.0656)" class="st0 st4">A</text>
	<text transform="matrix(11.5869 0 0 1 210.3516 457.8156)" class="st0 st5">S</text>
	<text transform="matrix(5.9935 0 0 1 211.3047 454.9406)" class="st0 st6">T</text>
	<text transform="matrix(4.5075 0 0 1 209.2656 450.5656)" class="st0 st7">R</text>
	<text transform="matrix(35.6396 0 0 1 228.5703 470.0422)" class="st0 st8">T</text>
	<text transform="matrix(39.0275 0 0 1 227.625 468.5891)" class="st0 st9">S</text>
	<text transform="matrix(45.4904 0 0 1 226.2734 467.1516)" class="st0 st8">L</text>
	<text transform="matrix(39.2865 0 0 1 226.375 465.4719)" class="st0 st8">E</text>
	<text transform="matrix(32.4093 0 0 1 228.5938 464.0187)" class="st0 st8">A</text>
	<text transform="matrix(0.2214 0 0 1 226.3984 462.3391)" class="st0 st10">P</text>
	<text transform="matrix(1 0 0 1 245.5859 466.6906)" class="st0 st11">V</text>
	<text transform="matrix(1 0 0 1 251.9141 465.8781)" class="st0 st11">I</text>
	<text transform="matrix(64.3325 0 0 1 243.6406 464.8312)" class="st0 st12">E</text>
	<text transform="matrix(24.9824 0 0 1 244.5312 463.3469)" class="st0 st13">M</text>
	<text transform="matrix(19.8061 0 0 1 245.8594 461.6594)" class="st0 st14">T</text>
	<text transform="matrix(21.6772 0 0 1 244.9141 459.7687)" class="st0 st15">S</text>
	<text transform="matrix(14.119 0 0 1 245.0703 457.6516)" class="st0 st16">G</text>
	<text transform="matrix(10.8289 0 0 1 245.8594 455.3859)" class="st0 st17">A</text>
	<text transform="matrix(4.2508 0 0 1 243.8203 452.6516)" class="st0 st18">R</text>
	<text transform="matrix(1 0 0 1 261.4297 464.7062)" class="st0 st11">K</text>
	<text transform="matrix(45.4422 0 0 1 261.0938 463.5969)" class="st0 st19">R</text>
	<text transform="matrix(43.3646 0 0 1 262.3438 462.1516)" class="st0 st20">G</text>
	<text transform="matrix(50.2565 0 0 1 260.9297 460.7219)" class="st0 st19">E</text>
	<text transform="matrix(33.9077 0 0 1 260.9609 459.2922)" class="st0 st21">P</text>
	<text transform="matrix(39.6322 0 0 1 260.8281 457.6672)" class="st0 st21">L</text>
	<text transform="matrix(1 0 0 1 279.4609 467.6672)" class="st0 st11">S</text>
	<text transform="matrix(1 0 0 1 279.0703 466.6125)" class="st0 st11">M</text>
	<text transform="matrix(78.3569 0 0 1 278.3672 465.5656)" class="st0 st22">R</text>
	<text transform="matrix(1 0 0 1 278.1172 464.4953)" class="st0 st23">L</text>
	<text transform="matrix(45.6277 0 0 1 286.4688 463.1906)" class="st0 st24">I</text>
	<text transform="matrix(36.9641 0 0 1 280.1484 461.8781)" class="st0 st25">V</text>
	<text transform="matrix(25.1942 0 0 1 279.6094 460.2844)" class="st0 st26">G</text>
	<text transform="matrix(25.875 0 0 1 279.6797 458.6906)" class="st0 st26">C</text>
	<text transform="matrix(19.8867 0 0 1 280.4062 456.8781)" class="st0 st27">T</text>
	<text transform="matrix(21.7151 0 0 1 278.2266 454.7766)" class="st0 st27">P</text>
	<text transform="matrix(99.0917 0 0 1 295.4922 462.3156)" class="st0 st28">P</text>
	<text transform="matrix(26.7865 0 0 1 296.8828 461.0578)" class="st0 st29">G</text>
	<text transform="matrix(16.7118 0 0 1 297.6797 459.3391)" class="st0 st30">T</text>
	<text transform="matrix(6.4102 0 0 1 297.4219 457.0969)" class="st0 st31">V</text>
	<text transform="matrix(1 0 0 1 312.6016 466.0187)" class="st0 st32">F</text>
	<text transform="matrix(1 0 0 1 312.7422 464.8859)" class="st0 st32">E</text>
	<text transform="matrix(1 0 0 1 314.9609 463.9953)" class="st0 st32">A</text>
	<text transform="matrix(34.6409 0 0 1 313.2812 462.8781)" class="st0 st33">K</text>
	<text transform="matrix(33.5654 0 0 1 314.1562 461.1672)" class="st0 st34">G</text>
	<text transform="matrix(24.3069 0 0 1 314.9531 459.7219)" class="st0 st35">T</text>
	<text transform="matrix(16.247 0 0 1 312.7734 457.9875)" class="st0 st36">P</text>
	<text transform="matrix(8.3602 0 0 1 312.9141 455.4562)" class="st0 st37">R</text>
	<text transform="matrix(1 0 0 1 330.1953 464.7687)" class="st0 st38">R</text>
	<text transform="matrix(75.1527 0 0 1 332.2266 463.8625)" class="st0 st39">T</text>
	<text transform="matrix(87.8306 0 0 1 329.8672 462.5344)" class="st0 st39">F</text>
	<text transform="matrix(28.4798 0 0 1 329.9297 461.1906)" class="st0 st40">L</text>
	<text transform="matrix(24.5958 0 0 1 330.0234 459.3156)" class="st0 st40">E</text>
	<text transform="matrix(20.2911 0 0 1 332.2344 457.4328)" class="st0 st40">A</text>
	<text transform="matrix(1 0 0 1 348.5547 463.3781)" class="st0 st41">S</text>
	<text transform="matrix(1 0 0 1 347.7344 462.2297)" class="st0 st42">N</text>
	<text transform="matrix(39.7584 0 0 1 347.1953 461.0891)" class="st0 st43">L</text>
	<text transform="matrix(16.249 0 0 1 347.3203 459.4719)" class="st0 st44">P</text>
	<text transform="matrix(10.7748 0 0 1 347.3047 456.9406)" class="st0 st45">E</text>
	<text transform="matrix(1 0 0 1 365.0781 467.6906)" class="st0 st46">K</text>
	<text transform="matrix(25.4859 0 0 1 364.7422 466.5031)" class="st0 st47">R</text>
	<text transform="matrix(9.253 0 0 1 366.7891 464.8547)" class="st0 st48">A</text>
	<text transform="matrix(6.603 0 0 1 365.4453 461.7922)" class="st0 st49">M</text>
	<text transform="matrix(5.9002 0 0 1 366.5156 458.2531)" class="st0 st50">V</text>
	<text transform="matrix(3.6895 0 0 1 373.0703 454.0031)" class="st0 st51">I</text>
	<text transform="matrix(4.7432 0 0 1 364.4141 450.0031)" class="st0 st52">F</text>
	<text transform="matrix(1.8478 0 0 1 364.4766 444.1047)" class="st0 st53">L</text>
</g>
</svg>
