<?xml version="1.0" encoding="utf-8"?>
<!-- Generator: Adobe Illustrator 24.3.0, SVG Export Plug-In . SVG Version: 6.00 Build 0)  -->
<svg version="1.1" id="Layer_1" xmlns="http://www.w3.org/2000/svg" xmlns:xlink="http://www.w3.org/1999/xlink" x="0px" y="0px"
	 viewBox="0 0 595.28 841.89" style="enable-background:new 0 0 595.28 841.89;" xml:space="preserve">
<style type="text/css">
	.st0{font-family:'Helvetica-Narrow-Bold';}
	.st1{font-size:170.4154px;}
	.st2{font-size:161.8503px;}
	.st3{font-size:170.4153px;}
</style>
<g>
	<text transform="matrix(0.1492 0 0 1 212 471.5285)" class="st0 st1">A</text>
	<text transform="matrix(0.1792 0 0 1 227.0859 471.5285)" class="st0 st1">P</text>
	<text transform="matrix(0.1492 0 0 1 246.5469 471.5285)" class="st0 st1">A</text>
	<text transform="matrix(0.1046 0 0 1 263.8906 471.5285)" class="st0 st1">W</text>
	<text transform="matrix(0.1799 0 0 1 280.1328 468.1301)" class="st0 st2">S</text>
	<text transform="matrix(0.1386 0 0 1 297.0234 471.5363)" class="st0 st3">M</text>
	<text transform="matrix(0.1641 0 0 1 315.625 471.5285)" class="st0 st1">T</text>
	<text transform="matrix(0.1636 0 0 1 330.8672 471.5363)" class="st0 st3">R</text>
	<text transform="matrix(0.1691 0 0 1 348.4062 471.5285)" class="st0 st1">N</text>
	<text transform="matrix(0.2095 0 0 1 365.1562 471.5285)" class="st0 st1">L</text>
</g>
</svg>
