<?xml version="1.0" encoding="utf-8"?>
<!-- Generator: Adobe Illustrator 24.3.0, SVG Export Plug-In . SVG Version: 6.00 Build 0)  -->
<svg version="1.1" id="Layer_1" xmlns="http://www.w3.org/2000/svg" xmlns:xlink="http://www.w3.org/1999/xlink" x="0px" y="0px"
	 viewBox="0 0 595.28 841.89" style="enable-background:new 0 0 595.28 841.89;" xml:space="preserve">
<style type="text/css">
	.st0{font-family:'Helvetica-Narrow-Bold';}
	.st1{font-size:0.2205px;}
	.st2{font-size:0.7574px;}
	.st3{font-size:5.06px;}
	.st4{font-size:6.1436px;}
	.st5{font-size:0.1492px;}
	.st6{font-size:0.1577px;}
	.st7{font-size:0.9317px;}
	.st8{font-size:1.3187px;}
	.st9{font-size:1.7093px;}
	.st10{font-size:2.4833px;}
	.st11{font-size:0.2606px;}
	.st12{font-size:0.6895px;}
	.st13{font-size:0.6914px;}
	.st14{font-size:1.109px;}
	.st15{font-size:1.3762px;}
	.st16{font-size:1.9408px;}
	.st17{font-size:0.2254px;}
	.st18{font-size:0.5464px;}
	.st19{font-size:0.871px;}
	.st20{font-size:1.5165px;}
	.st21{font-size:0.1176px;}
	.st22{font-size:0.0696px;}
	.st23{font-size:0.0698px;}
	.st24{font-size:0.0663px;}
	.st25{font-size:2.2628px;}
	.st26{font-size:2.6278px;}
	.st27{font-size:0.2383px;}
	.st28{font-size:0.2527px;}
	.st29{font-size:0.6653px;}
	.st30{font-size:1.0771px;}
	.st31{font-size:3.1333px;}
	.st32{font-size:0.2715px;}
	.st33{font-size:0.8242px;}
	.st34{font-size:0.8241px;}
	.st35{font-size:1.9369px;}
	.st36{font-size:2.4895px;}
	.st37{font-size:6.5807px;}
	.st38{font-size:0.0731px;}
	.st39{font-size:0.0694px;}
	.st40{font-size:0.8066px;}
	.st41{font-size:3.0032px;}
	.st42{font-size:5.2035px;}
	.st43{font-size:7.0297px;}
	.st44{font-size:8.881px;}
	.st45{font-size:1.0546px;}
	.st46{font-size:1.054px;}
	.st47{font-size:3.4995px;}
	.st48{font-size:5.9443px;}
	.st49{font-size:123.3332px;}
</style>
<g>
	<text transform="matrix(80.8426 0 0 1 211.375 464.6516)" class="st0 st1">W</text>
	<text transform="matrix(1 0 0 1 211.3125 463.3)" class="st0 st1">T</text>
	<text transform="matrix(1 0 0 1 209.4219 462.175)" class="st0 st1">H</text>
	<text transform="matrix(34.3274 0 0 1 211.0234 461.0578)" class="st0 st2">V</text>
	<text transform="matrix(36.7992 0 0 1 209.2656 459.6516)" class="st0 st2">R</text>
	<text transform="matrix(7.0543 0 0 1 209 458.0031)" class="st0 st3">L</text>
	<text transform="matrix(2.6495 0 0 1 217.3594 453.3)" class="st0 st4">I</text>
	<text transform="matrix(1 0 0 1 227.7969 465.175)" class="st0 st5">G</text>
	<text transform="matrix(1 0 0 1 226.3672 463.9172)" class="st0 st6">E</text>
	<text transform="matrix(38.3112 0 0 1 226.2656 462.8781)" class="st0 st7">L</text>
	<text transform="matrix(17.9143 0 0 1 227.25 461.2141)" class="st0 st8">M</text>
	<text transform="matrix(16.0041 0 0 1 226.8828 459.2453)" class="st0 st9">K</text>
	<text transform="matrix(11.2246 0 0 1 226.5391 456.9484)" class="st0 st10">R</text>
	<text transform="matrix(96.6945 0 0 1 245.0625 466.5187)" class="st0 st11">G</text>
	<text transform="matrix(51.7722 0 0 1 243.5547 465.3391)" class="st0 st12">L</text>
	<text transform="matrix(39.6773 0 0 1 244.1406 463.7844)" class="st0 st12">K</text>
	<text transform="matrix(23.5438 0 0 1 251.9062 462.2219)" class="st0 st13">I</text>
	<text transform="matrix(44.7115 0 0 1 243.6562 460.6828)" class="st0 st12">E</text>
	<text transform="matrix(21.3012 0 0 1 244.5234 459.3625)" class="st0 st14">M</text>
	<text transform="matrix(16.922 0 0 1 245.3516 457.3781)" class="st0 st15">Q</text>
	<text transform="matrix(14.3617 0 0 1 243.8125 455.425)" class="st0 st16">R</text>
	<text transform="matrix(1 0 0 1 260.9219 464.8391)" class="st0 st17">E</text>
	<text transform="matrix(65.3227 0 0 1 260.8203 463.7141)" class="st0 st18">L</text>
	<text transform="matrix(32.1088 0 0 1 263.125 462.1359)" class="st0 st19">T</text>
	<text transform="matrix(32.0011 0 0 1 261.0859 460.5656)" class="st0 st19">R</text>
	<text transform="matrix(18.0382 0 0 1 261.4219 458.9953)" class="st0 st20">K</text>
	<text transform="matrix(1 0 0 1 279.4453 460.9562)" class="st0 st21">S</text>
	<text transform="matrix(1 0 0 1 297.6875 464.7219)" class="st0 st22">T</text>
	<text transform="matrix(1 0 0 1 295.375 463.8234)" class="st0 st22">L</text>
	<text transform="matrix(1 0 0 1 303.7344 462.6828)" class="st0 st23">I</text>
	<text transform="matrix(1 0 0 1 296.875 461.7844)" class="st0 st24">G</text>
	<text transform="matrix(11.4906 0 0 1 297.4141 460.6437)" class="st0 st25">V</text>
	<text transform="matrix(10.4102 0 0 1 295.9766 458.0344)" class="st0 st26">K</text>
	<text transform="matrix(1 0 0 1 313.9922 466.2687)" class="st0 st27">S</text>
	<text transform="matrix(1 0 0 1 312.6406 465.1125)" class="st0 st28">L</text>
	<text transform="matrix(1 0 0 1 314.1484 463.9406)" class="st0 st27">G</text>
	<text transform="matrix(39.084 0 0 1 314.6719 462.5422)" class="st0 st29">V</text>
	<text transform="matrix(42.0376 0 0 1 314.9531 461.2766)" class="st0 st29">T</text>
	<text transform="matrix(41.8982 0 0 1 312.9062 459.7609)" class="st0 st29">R</text>
	<text transform="matrix(15.1114 0 0 1 321.0078 458.2453)" class="st0 st30">I</text>
	<text transform="matrix(8.1165 0 0 1 314.9531 456.3859)" class="st0 st31">A</text>
	<text transform="matrix(65.6721 0 0 1 332.2969 466.6594)" class="st0 st32">W</text>
	<text transform="matrix(1 0 0 1 330.0391 465.4641)" class="st0 st32">P</text>
	<text transform="matrix(87.0031 0 0 1 330.8906 464.2844)" class="st0 st32">M</text>
	<text transform="matrix(33.1916 0 0 1 330.5312 463.0891)" class="st0 st33">K</text>
	<text transform="matrix(39.6582 0 0 1 329.8594 461.5891)" class="st0 st34">F</text>
	<text transform="matrix(37.4045 0 0 1 330.0156 460.0734)" class="st0 st34">E</text>
	<text transform="matrix(13.4245 0 0 1 331.9609 458.3234)" class="st0 st35">V</text>
	<text transform="matrix(10.2153 0 0 1 332.2266 455.9562)" class="st0 st36">A</text>
	<text transform="matrix(3.8289 0 0 1 331.4219 453.1359)" class="st0 st37">G</text>
	<text transform="matrix(1 0 0 1 348.1562 466.1203)" class="st0 st38">M</text>
	<text transform="matrix(1 0 0 1 348.7109 464.9875)" class="st0 st39">G</text>
	<text transform="matrix(1 0 0 1 347.6484 464.0812)" class="st0 st38">D</text>
	<text transform="matrix(31.4342 0 0 1 349.3906 462.925)" class="st0 st40">Y</text>
	<text transform="matrix(11.8853 0 0 1 347.1953 461.4484)" class="st0 st41">L</text>
	<text transform="matrix(4.9968 0 0 1 349.2344 458.2609)" class="st0 st42">V</text>
	<text transform="matrix(4.1421 0 0 1 348.5391 453.4328)" class="st0 st43">S</text>
	<text transform="matrix(1.8328 0 0 1 355.7969 447.1984)" class="st0 st44">I</text>
	<text transform="matrix(24.6543 0 0 1 366.5078 470.2219)" class="st0 st45">V</text>
	<text transform="matrix(15.4436 0 0 1 373.0703 468.6359)" class="st0 st46">I</text>
	<text transform="matrix(7.9915 0 0 1 366.7656 466.8078)" class="st0 st47">T</text>
	<text transform="matrix(3.9741 0 0 1 365.4375 463.3781)" class="st0 st48">M</text>
	<text transform="matrix(0.2894 0 0 1 364.4688 458.1203)" class="st0 st49">L</text>
</g>
</svg>
