<?xml version="1.0" encoding="utf-8"?>
<!-- Generator: Adobe Illustrator 24.3.0, SVG Export Plug-In . SVG Version: 6.00 Build 0)  -->
<svg version="1.1" id="Layer_1" xmlns="http://www.w3.org/2000/svg" xmlns:xlink="http://www.w3.org/1999/xlink" x="0px" y="0px"
	 viewBox="0 0 595.28 841.89" style="enable-background:new 0 0 595.28 841.89;" xml:space="preserve">
<style type="text/css">
	.st0{font-family:'Helvetica-Narrow-Bold';}
	.st1{font-size:14.5928px;}
	.st2{font-size:13.8788px;}
	.st3{font-size:48.8821px;}
	.st4{font-size:22.937px;}
	.st5{font-size:120.246px;}
	.st6{font-size:13.1239px;}
	.st7{font-size:14.5327px;}
	.st8{font-size:30.4591px;}
	.st9{font-size:30.5002px;}
	.st10{font-size:10.1154px;}
	.st11{font-size:9.6077px;}
	.st12{font-size:10.1155px;}
	.st13{font-size:30.4592px;}
	.st14{font-size:12.324px;}
	.st15{font-size:11.7041px;}
	.st16{font-size:12.3241px;}
	.st17{font-size:26.042px;}
	.st18{font-size:26.0419px;}
	.st19{font-size:9.1338px;}
	.st20{font-size:9.6076px;}
	.st21{font-size:15.3648px;}
	.st22{font-size:15.3857px;}
</style>
<g>
	<text transform="matrix(1.9953 0 0 1 211 473.6457)" class="st0 st1">S</text>
	<text transform="matrix(1.6779 0 0 1 211.4688 461.3254)" class="st0 st2">Q</text>
	<text transform="matrix(1.7267 0 0 1 211.1641 449.7863)" class="st0 st1">G</text>
	<text transform="matrix(0.5721 0 0 1 211.9531 438.0051)" class="st0 st3">T</text>
	<text transform="matrix(1.1053 0 0 1 229.1406 473.9582)" class="st0 st4">Y</text>
	<text transform="matrix(0.2564 0 0 1 227.0312 456.5363)" class="st0 st5">E</text>
	<text transform="matrix(1.7745 0 0 1 246.0156 473.1926)" class="st0 st6">Q</text>
	<text transform="matrix(2.1013 0 0 1 244.3203 462.5988)" class="st0 st7">P</text>
	<text transform="matrix(0.8536 0 0 1 246.25 451.2551)" class="st0 st8">V</text>
	<text transform="matrix(0.5337 0 0 1 252.5703 428.3254)" class="st0 st9">I</text>
	<text transform="matrix(2.5064 0 0 1 263.6875 473.9504)" class="st0 st10">Y</text>
	<text transform="matrix(3.0307 0 0 1 262.8281 465.6301)" class="st0 st11">S</text>
	<text transform="matrix(2.7555 0 0 1 261.7422 457.466)" class="st0 st10">R</text>
	<text transform="matrix(2.8482 0 0 1 261.9219 449.341)" class="st0 st12">H</text>
	<text transform="matrix(3.0475 0 0 1 261.5781 440.9738)" class="st0 st12">E</text>
	<text transform="matrix(2.5141 0 0 1 263.7891 432.8488)" class="st0 st10">A</text>
	<text transform="matrix(1.7745 0 0 1 280.5625 473.1926)" class="st0 st6">Q</text>
	<text transform="matrix(1.918 0 0 1 279.2109 462.5988)" class="st0 st7">D</text>
	<text transform="matrix(0.9182 0 0 1 281.0547 451.2551)" class="st0 st8">T</text>
	<text transform="matrix(0.8349 0 0 1 281.0625 428.3254)" class="st0 st13">A</text>
	<text transform="matrix(2.5064 0 0 1 298.2344 473.9504)" class="st0 st10">Y</text>
	<text transform="matrix(2.5704 0 0 1 298.0703 465.8254)" class="st0 st10">V</text>
	<text transform="matrix(3.5287 0 0 1 296.0312 457.466)" class="st0 st10">L</text>
	<text transform="matrix(2.8482 0 0 1 296.4688 449.341)" class="st0 st12">H</text>
	<text transform="matrix(3.2311 0 0 1 295.9688 440.9738)" class="st0 st12">F</text>
	<text transform="matrix(3.0475 0 0 1 296.125 432.8488)" class="st0 st12">E</text>
	<text transform="matrix(2.1098 0 0 1 315.3438 473.9504)" class="st0 st14">V</text>
	<text transform="matrix(2.4878 0 0 1 314.6484 464.0988)" class="st0 st15">S</text>
	<text transform="matrix(2.8963 0 0 1 313.3047 454.4894)" class="st0 st16">L</text>
	<text transform="matrix(2.0636 0 0 1 315.6094 444.6223)" class="st0 st14">A</text>
	<text transform="matrix(1.1726 0 0 1 313.4219 434.7707)" class="st0 st17">P</text>
	<text transform="matrix(2.2692 0 0 1 332.875 473.9504)" class="st0 st14">T</text>
	<text transform="matrix(2.4779 0 0 1 330.6953 464.341)" class="st0 st16">P</text>
	<text transform="matrix(1.9168 0 0 1 331.5469 454.4894)" class="st0 st16">M</text>
	<text transform="matrix(2.8963 0 0 1 330.5781 444.6223)" class="st0 st14">L</text>
	<text transform="matrix(1.255 0 0 1 330.5156 434.7707)" class="st0 st18">F</text>
	<text transform="matrix(2.7647 0 0 1 350.1484 473.9504)" class="st0 st10">T</text>
	<text transform="matrix(3.0307 0 0 1 349.2031 465.6301)" class="st0 st11">S</text>
	<text transform="matrix(2.5496 0 0 1 349.6562 456.9269)" class="st0 st19">Q</text>
	<text transform="matrix(3.0189 0 0 1 347.9688 449.341)" class="st0 st12">P</text>
	<text transform="matrix(2.6226 0 0 1 349.3594 440.7863)" class="st0 st20">G</text>
	<text transform="matrix(3.0475 0 0 1 347.9531 432.8488)" class="st0 st10">E</text>
	<text transform="matrix(1.6923 0 0 1 367.1562 473.9504)" class="st0 st21">V</text>
	<text transform="matrix(1.0579 0 0 1 373.7266 462.1301)" class="st0 st22">I</text>
	<text transform="matrix(1.6552 0 0 1 367.4375 450.0676)" class="st0 st21">A</text>
	<text transform="matrix(0.7302 0 0 1 365.125 438.0051)" class="st0 st3">L</text>
</g>
</svg>
