<?xml version="1.0" encoding="utf-8"?>
<!-- Generator: Adobe Illustrator 24.3.0, SVG Export Plug-In . SVG Version: 6.00 Build 0)  -->
<svg version="1.1" id="Layer_1" xmlns="http://www.w3.org/2000/svg" xmlns:xlink="http://www.w3.org/1999/xlink" x="0px" y="0px"
	 viewBox="0 0 595.28 841.89" style="enable-background:new 0 0 595.28 841.89;" xml:space="preserve">
<style type="text/css">
	.st0{font-family:'Helvetica-Narrow-Bold';}
	.st1{font-size:170.416px;}
	.st2{letter-spacing:-16.41;}
	.st3{font-size:34.8742px;}
	.st4{font-size:34.9239px;}
	.st5{font-size:43.7089px;}
	.st6{font-size:88.8083px;}
	.st7{font-size:34.8743px;}
</style>
<g>
	<text transform="matrix(0.1828 0 0 1 211 471.529)" class="st0 st1 st2">RR</text>
	<text transform="matrix(0.8935 0 0 1 249.3828 471.529)" class="st0 st3">R</text>
	<text transform="matrix(0.877 0 0 1 249.7734 445.6149)" class="st0 st3">K</text>
	<text transform="matrix(0.521 0 0 1 258.5938 419.4587)" class="st0 st4">I</text>
	<text transform="matrix(0.6484 0 0 1 270.7578 471.5368)" class="st0 st5">Y</text>
	<text transform="matrix(0.2244 0 0 1 270.9453 439.1618)" class="st0 st6">W</text>
	<text transform="matrix(0.7129 0 0 1 287.9922 471.5368)" class="st0 st5">D</text>
	<text transform="matrix(0.3509 0 0 1 287.7734 439.1618)" class="st0 st6">R</text>
	<text transform="matrix(0.913 0 0 1 306.6719 471.5368)" class="st0 st5">L</text>
	<text transform="matrix(0.3509 0 0 1 306.9688 439.1618)" class="st0 st6">R</text>
	<text transform="matrix(0.5715 0 0 1 328.5234 471.529)" class="st0 st3">W</text>
	<text transform="matrix(1.1442 0 0 1 325.8672 445.6149)" class="st0 st3">L</text>
	<text transform="matrix(0.521 0 0 1 335.375 419.4587)" class="st0 st4">I</text>
	<text transform="matrix(0.8965 0 0 1 347.6328 471.529)" class="st0 st3">T</text>
	<text transform="matrix(0.9235 0 0 1 345.5547 445.6149)" class="st0 st3">H</text>
	<text transform="matrix(0.9882 0 0 1 345.1641 419.4509)" class="st0 st7">E</text>
	<text transform="matrix(0.665 0 0 1 366.5391 471.5368)" class="st0 st5">V</text>
	<text transform="matrix(0.4493 0 0 1 364.2578 439.1618)" class="st0 st6">L</text>
</g>
</svg>
