<?xml version="1.0" encoding="utf-8"?>
<!-- Generator: Adobe Illustrator 24.3.0, SVG Export Plug-In . SVG Version: 6.00 Build 0)  -->
<svg version="1.1" id="Layer_1" xmlns="http://www.w3.org/2000/svg" xmlns:xlink="http://www.w3.org/1999/xlink" x="0px" y="0px"
	 viewBox="0 0 595.28 841.89" style="enable-background:new 0 0 595.28 841.89;" xml:space="preserve">
<style type="text/css">
	.st0{font-family:'Helvetica-Narrow-Bold';}
	.st1{font-size:0.289px;}
	.st2{font-size:1.8726px;}
	.st3{font-size:1.9719px;}
	.st4{font-size:1.9718px;}
	.st5{font-size:3.2987px;}
	.st6{font-size:3.6547px;}
	.st7{font-size:3.4707px;}
	.st8{font-size:3.6548px;}
	.st9{font-size:4.6872px;}
	.st10{font-size:5.1908px;}
	.st11{font-size:136.8478px;}
	.st12{font-size:0.9559px;}
	.st13{font-size:0.9586px;}
	.st14{font-size:2.129px;}
	.st15{font-size:0.2891px;}
	.st16{font-size:5.3339px;}
	.st17{font-size:2.1349px;}
	.st18{font-size:2.0247px;}
	.st19{font-size:0.5684px;}
	.st20{font-size:0.57px;}
	.st21{font-size:0.5404px;}
	.st22{font-size:0.5685px;}
	.st23{font-size:2.5307px;}
	.st24{font-size:4.4966px;}
	.st25{font-size:6.4589px;}
	.st26{font-size:1.2568px;}
	.st27{font-size:1.1927px;}
	.st28{font-size:2.5802px;}
	.st29{font-size:2.5838px;}
	.st30{font-size:2.4526px;}
	.st31{font-size:1.2566px;}
	.st32{font-size:2.5803px;}
	.st33{font-size:0.0623px;}
	.st34{font-size:0.0597px;}
	.st35{font-size:1.5184px;}
	.st36{font-size:1.519px;}
	.st37{font-size:4.2053px;}
	.st38{font-size:3.9978px;}
	.st39{font-size:2.442px;}
	.st40{font-size:2.4452px;}
	.st41{font-size:17.7745px;}
	.st42{font-size:21.6067px;}
	.st43{font-size:33.107px;}
</style>
<g>
	<text transform="matrix(89.9642 0 0 1 211.0312 470.737)" class="st0 st1">V</text>
	<text transform="matrix(96.7626 0 0 1 211.3203 469.7604)" class="st0 st1">T</text>
	<text transform="matrix(81.7358 0 0 1 209.9922 468.5495)" class="st0 st1">M</text>
	<text transform="matrix(15.5492 0 0 1 210.3516 467.2917)" class="st0 st2">S</text>
	<text transform="matrix(14.1354 0 0 1 209.2734 464.9011)" class="st0 st3">R</text>
	<text transform="matrix(18.1021 0 0 1 209 462.4714)" class="st0 st4">L</text>
	<text transform="matrix(12.8969 0 0 1 211.3203 460.0339)" class="st0 st3">A</text>
	<text transform="matrix(7.0597 0 0 1 210.8203 457.4167)" class="st0 st5">Q</text>
	<text transform="matrix(7.485 0 0 1 209.6094 453.9636)" class="st0 st6">K</text>
	<text transform="matrix(7.26 0 0 1 210.5156 450.2526)" class="st0 st7">G</text>
	<text transform="matrix(8.4347 0 0 1 209.1016 446.6667)" class="st0 st8">E</text>
	<text transform="matrix(4.9684 0 0 1 228.0938 470.4636)" class="st0 st9">Q</text>
	<text transform="matrix(5.27 0 0 1 226.8906 466.0807)" class="st0 st10">K</text>
	<text transform="matrix(0.2253 0 0 1 226.3828 461.4323)" class="st0 st11">E</text>
	<text transform="matrix(27.2011 0 0 1 245.5859 464.2057)" class="st0 st12">V</text>
	<text transform="matrix(16.9806 0 0 1 251.9141 462.5182)" class="st0 st13">I</text>
	<text transform="matrix(32.2476 0 0 1 243.6641 460.8151)" class="st0 st12">E</text>
	<text transform="matrix(13.136 0 0 1 245.8516 459.1276)" class="st0 st14">T</text>
	<text transform="matrix(13.0922 0 0 1 243.8203 456.4636)" class="st0 st14">R</text>
	<text transform="matrix(15.3517 0 0 1 243.5 454.0495)" class="st0 st14">F</text>
	<text transform="matrix(61.6859 0 0 1 263.2109 470.737)" class="st0 st1">W</text>
	<text transform="matrix(89.9644 0 0 1 262.8672 469.7604)" class="st0 st1">V</text>
	<text transform="matrix(96.4422 0 0 1 261.0938 468.5495)" class="st0 st1">R</text>
	<text transform="matrix(99.6676 0 0 1 261.3672 467.3307)" class="st0 st15">N</text>
	<text transform="matrix(94.6505 0 0 1 261.4297 466.1198)" class="st0 st1">K</text>
	<text transform="matrix(1 0 0 1 260.7891 464.9011)" class="st0 st1">F</text>
	<text transform="matrix(96.4422 0 0 1 261.2891 463.6901)" class="st0 st1">D</text>
	<text transform="matrix(8.3556 0 0 1 260.9531 462.4714)" class="st0 st6">P</text>
	<text transform="matrix(7.26 0 0 1 262.3359 458.7526)" class="st0 st7">G</text>
	<text transform="matrix(8.4346 0 0 1 260.9297 455.1823)" class="st0 st8">E</text>
	<text transform="matrix(6.9584 0 0 1 263.1406 451.5339)" class="st0 st8">A</text>
	<text transform="matrix(6.692 0 0 1 260.8281 447.8854)" class="st0 st16">L</text>
	<text transform="matrix(37.3417 0 0 1 278.1172 464.2057)" class="st0 st12">L</text>
	<text transform="matrix(34.1908 0 0 1 278.0391 462.5182)" class="st0 st12">F</text>
	<text transform="matrix(29.1584 0 0 1 278.5625 460.8151)" class="st0 st12">D</text>
	<text transform="matrix(13.136 0 0 1 280.3984 459.1276)" class="st0 st14">T</text>
	<text transform="matrix(7.6242 0 0 1 286.4688 456.4714)" class="st0 st17">I</text>
	<text transform="matrix(12.7811 0 0 1 279.6797 454.0104)" class="st0 st18">C</text>
	<text transform="matrix(41.5589 0 0 1 296.3438 470.737)" class="st0 st19">M</text>
	<text transform="matrix(28.5568 0 0 1 303.7422 469.362)" class="st0 st20">I</text>
	<text transform="matrix(50.6849 0 0 1 295.8047 467.9714)" class="st0 st19">H</text>
	<text transform="matrix(46.6257 0 0 1 296.8828 466.5886)" class="st0 st21">G</text>
	<text transform="matrix(47.8856 0 0 1 296.9531 465.2136)" class="st0 st21">C</text>
	<text transform="matrix(44.7364 0 0 1 297.6797 463.8464)" class="st0 st22">A</text>
	<text transform="matrix(12.067 0 0 1 295.4922 462.4714)" class="st0 st23">P</text>
	<text transform="matrix(6.1987 0 0 1 295.8359 459.4714)" class="st0 st24">D</text>
	<text transform="matrix(4.0257 0 0 1 297.4219 455.3307)" class="st0 st25">V</text>
	<text transform="matrix(5.5264 0 0 1 295.3828 449.8229)" class="st0 st25">L</text>
	<text transform="matrix(5.0603 0 0 1 295.3125 444.0651)" class="st0 st25">F</text>
	<text transform="matrix(20.6886 0 0 1 314.6953 465.0807)" class="st0 st26">V</text>
	<text transform="matrix(24.4124 0 0 1 314 463.1745)" class="st0 st27">S</text>
	<text transform="matrix(24.528 0 0 1 312.75 461.3151)" class="st0 st26">E</text>
	<text transform="matrix(20.2351 0 0 1 314.9609 459.4323)" class="st0 st26">A</text>
	<text transform="matrix(10.8386 0 0 1 314.9453 457.5495)" class="st0 st28">T</text>
	<text transform="matrix(6.2996 0 0 1 321.0156 454.7136)" class="st0 st29">I</text>
	<text transform="matrix(10.2734 0 0 1 314.1562 451.8464)" class="st0 st30">G</text>
	<text transform="matrix(22.252 0 0 1 332.2266 465.0807)" class="st0 st26">T</text>
	<text transform="matrix(28.4012 0 0 1 329.9297 463.1979)" class="st0 st26">L</text>
	<text transform="matrix(12.953 0 0 1 338.2891 461.3151)" class="st0 st31">I</text>
	<text transform="matrix(26.0058 0 0 1 329.8672 459.4323)" class="st0 st26">F</text>
	<text transform="matrix(10.0771 0 0 1 331.9688 457.5495)" class="st0 st28">V</text>
	<text transform="matrix(10.8027 0 0 1 330.1875 454.7214)" class="st0 st28">R</text>
	<text transform="matrix(10.6018 0 0 1 330.5391 451.8932)" class="st0 st32">K</text>
	<text transform="matrix(1 0 0 1 349.5781 470.737)" class="st0 st33">W</text>
	<text transform="matrix(1 0 0 1 349.5234 469.8464)" class="st0 st33">T</text>
	<text transform="matrix(1 0 0 1 348.1641 468.7214)" class="st0 st33">M</text>
	<text transform="matrix(1 0 0 1 347.6328 467.8307)" class="st0 st33">H</text>
	<text transform="matrix(1 0 0 1 348.7188 466.6979)" class="st0 st34">G</text>
	<text transform="matrix(1 0 0 1 347.6562 465.5729)" class="st0 st33">D</text>
	<text transform="matrix(1 0 0 1 349.5 464.6823)" class="st0 st33">A</text>
	<text transform="matrix(18.3572 0 0 1 347.4688 463.5495)" class="st0 st35">R</text>
	<text transform="matrix(18.9743 0 0 1 347.7344 461.5339)" class="st0 st35">N</text>
	<text transform="matrix(23.508 0 0 1 347.2031 459.2761)" class="st0 st35">L</text>
	<text transform="matrix(10.7159 0 0 1 355.8047 457.2526)" class="st0 st36">I</text>
	<text transform="matrix(6.9241 0 0 1 348.5469 455.1432)" class="st0 st37">S</text>
	<text transform="matrix(5.8251 0 0 1 349.0078 450.7214)" class="st0 st38">Q</text>
	<text transform="matrix(14.6169 0 0 1 364.4688 470.7292)" class="st0 st39">L</text>
	<text transform="matrix(6.6569 0 0 1 373.0781 468.112)" class="st0 st40">I</text>
	<text transform="matrix(11.7977 0 0 1 364.9141 465.237)" class="st0 st39">H</text>
	<text transform="matrix(1.4264 0 0 1 366.6875 462.6276)" class="st0 st41">Y</text>
	<text transform="matrix(1.5127 0 0 1 364.4141 448.7761)" class="st0 st42">F</text>
	<text transform="matrix(0.5385 0 0 1 366.8516 432.3151)" class="st0 st43">W</text>
</g>
</svg>
