<?xml version="1.0" encoding="utf-8"?>
<!-- Generator: Adobe Illustrator 24.3.0, SVG Export Plug-In . SVG Version: 6.00 Build 0)  -->
<svg version="1.1" id="Layer_1" xmlns="http://www.w3.org/2000/svg" xmlns:xlink="http://www.w3.org/1999/xlink" x="0px" y="0px"
	 viewBox="0 0 595.28 841.89" style="enable-background:new 0 0 595.28 841.89;" xml:space="preserve">
<style type="text/css">
	.st0{font-family:'Helvetica-Narrow-Bold';}
	.st1{font-size:0.1355px;}
	.st2{font-size:0.3381px;}
	.st3{font-size:0.8478px;}
	.st4{font-size:0.9994px;}
	.st5{font-size:1.5272px;}
	.st6{font-size:5.1804px;}
	.st7{font-size:19.0609px;}
	.st8{font-size:98.6797px;}
	.st9{font-size:0.3651px;}
	.st10{font-size:0.6012px;}
	.st11{font-size:0.8341px;}
	.st12{font-size:0.834px;}
	.st13{font-size:1.0686px;}
	.st14{font-size:1.2379px;}
	.st15{font-size:0.1128px;}
	.st16{font-size:1.0605px;}
	.st17{font-size:10px;}
	.st18{font-size:0.0508px;}
	.st19{font-size:0.8142px;}
	.st20{font-size:0.2272px;}
	.st21{font-size:0.1474px;}
	.st22{font-size:0.918px;}
	.st23{font-size:1.4008px;}
	.st24{font-size:0.3391px;}
	.st25{font-size:0.5901px;}
	.st26{font-size:0.94px;}
	.st27{font-size:1.4039px;}
	.st28{font-size:1.6394px;}
	.st29{font-size:0.2785px;}
	.st30{font-size:0.517px;}
	.st31{font-size:0.6039px;}
	.st32{font-size:0.9957px;}
	.st33{font-size:1.2313px;}
	.st34{font-size:1.4707px;}
	.st35{font-size:0.1148px;}
	.st36{font-size:2.1227px;}
	.st37{font-size:2.6256px;}
	.st38{font-size:21.2102px;}
	.st39{font-size:23.7541px;}
	.st40{font-size:30.7539px;}
</style>
<g>
	<text transform="matrix(1 0 0 1 211.3125 466.2429)" class="st0 st1">T</text>
	<text transform="matrix(74.9982 0 0 1 211.2031 465.2507)" class="st0 st2">Y</text>
	<text transform="matrix(30.6683 0 0 1 211.0391 463.9616)" class="st0 st3">V</text>
	<text transform="matrix(42.1016 0 0 1 209 462.4147)" class="st0 st3">L</text>
	<text transform="matrix(29.135 0 0 1 210.3594 460.6179)" class="st0 st4">S</text>
	<text transform="matrix(15.4684 0 0 1 227.2656 471.8991)" class="st0 st5">M</text>
	<text transform="matrix(3.4415 0 0 1 228.6719 469.86)" class="st0 st6">W</text>
	<text transform="matrix(1.7147 0 0 1 226.2266 465.2194)" class="st0 st7">F</text>
	<text transform="matrix(0.2569 0 0 1 228.5 450.485)" class="st0 st8">Y</text>
	<text transform="matrix(74.9348 0 0 1 244.1562 466.6491)" class="st0 st9">K</text>
	<text transform="matrix(27.0742 0 0 1 251.9219 465.321)" class="st0 st10">I</text>
	<text transform="matrix(34.542 0 0 1 244.0781 463.8913)" class="st0 st11">N</text>
	<text transform="matrix(42.7972 0 0 1 243.5703 462.3835)" class="st0 st12">L</text>
	<text transform="matrix(30.5865 0 0 1 243.5078 460.6179)" class="st0 st13">F</text>
	<text transform="matrix(23.5209 0 0 1 244.9219 458.9772)" class="st0 st14">S</text>
	<text transform="matrix(1 0 0 1 262.875 464.7819)" class="st0 st15">V</text>
	<text transform="matrix(33.6584 0 0 1 260.8438 463.5866)" class="st0 st16">L</text>
	<text transform="matrix(1 0 0 1 279.4609 464.7038)" class="st0 st17">S</text>
	<text transform="matrix(1 0 0 1 278.6406 463.8366)" class="st0 st18">N</text>
	<text transform="matrix(40.1443 0 0 1 278.0469 462.7194)" class="st0 st19">F</text>
	<text transform="matrix(71.6367 0 0 1 303.75 463.3757)" class="st0 st20">I</text>
	<text transform="matrix(1 0 0 1 312.6562 464.5085)" class="st0 st21">L</text>
	<text transform="matrix(29.7978 0 0 1 313.2891 463.2585)" class="st0 st22">K</text>
	<text transform="matrix(11.6196 0 0 1 321.0234 461.6257)" class="st0 st23">I</text>
	<text transform="matrix(85.8656 0 0 1 331.2812 465.6413)" class="st0 st24">S</text>
	<text transform="matrix(27.5856 0 0 1 338.2969 464.3444)" class="st0 st25">I</text>
	<text transform="matrix(34.7702 0 0 1 329.875 462.9382)" class="st0 st26">F</text>
	<text transform="matrix(25.426 0 0 1 329.9375 461.2663)" class="st0 st27">L</text>
	<text transform="matrix(15.4647 0 0 1 332.1406 459.4147)" class="st0 st28">Y</text>
	<text transform="matrix(58.4488 0 0 1 355.8125 466.5241)" class="st0 st29">I</text>
	<text transform="matrix(55.722 0 0 1 347.7422 465.321)" class="st0 st30">N</text>
	<text transform="matrix(48.2169 0 0 1 348.5625 463.7663)" class="st0 st31">S</text>
	<text transform="matrix(28.0868 0 0 1 349.5156 462.3054)" class="st0 st32">T</text>
	<text transform="matrix(21.1164 0 0 1 349.2422 460.7975)" class="st0 st33">V</text>
	<text transform="matrix(24.2712 0 0 1 347.2109 458.7116)" class="st0 st34">L</text>
	<text transform="matrix(1 0 0 1 366.6875 471.6569)" class="st0 st35">Y</text>
	<text transform="matrix(8.3991 0 0 1 366.8594 470.6882)" class="st0 st36">W</text>
	<text transform="matrix(8.9974 0 0 1 365.4531 468.0397)" class="st0 st37">M</text>
	<text transform="matrix(1.6829 0 0 1 364.4844 465.1491)" class="st0 st38">L</text>
	<text transform="matrix(0.6852 0 0 1 373.0859 449.0085)" class="st0 st39">I</text>
	<text transform="matrix(1.0628 0 0 1 364.4219 430.946)" class="st0 st40">F</text>
</g>
</svg>
