<?xml version="1.0" encoding="utf-8"?>
<!-- Generator: Adobe Illustrator 24.3.0, SVG Export Plug-In . SVG Version: 6.00 Build 0)  -->
<svg version="1.1" id="Layer_1" xmlns="http://www.w3.org/2000/svg" xmlns:xlink="http://www.w3.org/1999/xlink" x="0px" y="0px"
	 viewBox="0 0 595.28 841.89" style="enable-background:new 0 0 595.28 841.89;" xml:space="preserve">
<style type="text/css">
	.st0{font-family:'Helvetica-Narrow-Bold';}
	.st1{font-size:10px;}
	.st2{font-size:0.3681px;}
	.st3{font-size:0.4489px;}
	.st4{font-size:0.6461px;}
	.st5{font-size:1.1073px;}
	.st6{font-size:0.2962px;}
	.st7{font-size:2.993px;}
	.st8{font-size:3.331px;}
	.st9{font-size:129.5445px;}
	.st10{font-size:0.2031px;}
	.st11{font-size:0.438px;}
	.st12{font-size:3.3352px;}
	.st13{font-size:3.4863px;}
	.st14{font-size:4.7064px;}
	.st15{font-size:4.8576px;}
	.st16{font-size:7.7654px;}
	.st17{font-size:27.2722px;}
</style>
<g>
	<text transform="matrix(1 0 0 1 211.5625 463.8351)" class="st0 st1">A</text>
	<text transform="matrix(1 0 0 1 209 462.7258)" class="st0 st2">L</text>
	<text transform="matrix(40.5408 0 0 1 218.5 461.6398)" class="st0 st3">I</text>
	<text transform="matrix(48.2281 0 0 1 209.2812 460.1945)" class="st0 st4">R</text>
	<text transform="matrix(29.3967 0 0 1 210.5 458.6867)" class="st0 st5">S</text>
	<text transform="matrix(1 0 0 1 230.7656 467.1555)" class="st0 st6">T</text>
	<text transform="matrix(9.7116 0 0 1 230.4688 465.9289)" class="st0 st7">V</text>
	<text transform="matrix(8.5356 0 0 1 230.7734 462.7492)" class="st0 st8">A</text>
	<text transform="matrix(0.2635 0 0 1 228.3203 459.3195)" class="st0 st9">P</text>
	<text transform="matrix(1 0 0 1 247.6562 462.5148)" class="st0 st10">R</text>
	<text transform="matrix(71.3768 0 0 1 365.0938 466.5226)" class="st0 st11">T</text>
	<text transform="matrix(10.9554 0 0 1 362.4688 465.093)" class="st0 st12">F</text>
	<text transform="matrix(8.1554 0 0 1 365.125 461.8976)" class="st0 st13">A</text>
	<text transform="matrix(5.6114 0 0 1 363.625 458.257)" class="st0 st14">M</text>
	<text transform="matrix(5.9838 0 0 1 364.8281 453.8195)" class="st0 st15">V</text>
	<text transform="matrix(2.3433 0 0 1 372.0469 449.3976)" class="st0 st16">I</text>
	<text transform="matrix(1.4632 0 0 1 362.5469 442.7492)" class="st0 st17">L</text>
</g>
</svg>
