<?xml version="1.0" encoding="utf-8"?>
<!-- Generator: Adobe Illustrator 24.3.0, SVG Export Plug-In . SVG Version: 6.00 Build 0)  -->
<svg version="1.1" id="Layer_1" xmlns="http://www.w3.org/2000/svg" xmlns:xlink="http://www.w3.org/1999/xlink" x="0px" y="0px"
	 viewBox="0 0 595.28 841.89" style="enable-background:new 0 0 595.28 841.89;" xml:space="preserve">
<style type="text/css">
	.st0{font-family:'Helvetica-Narrow-Bold';}
	.st1{font-size:5.4748px;}
	.st2{font-size:5.7613px;}
	.st3{font-size:5.7612px;}
	.st4{font-size:27.2303px;}
	.st5{font-size:13.9238px;}
	.st6{font-size:136.4549px;}
	.st7{font-size:4.1741px;}
	.st8{font-size:3.9633px;}
	.st9{font-size:4.174px;}
	.st10{font-size:9.7383px;}
	.st11{font-size:5.2693px;}
	.st12{font-size:5.2767px;}
	.st13{font-size:5.0035px;}
	.st14{font-size:11.3304px;}
	.st15{font-size:18.5885px;}
	.st16{font-size:4.4739px;}
	.st17{font-size:4.2477px;}
	.st18{font-size:4.0396px;}
	.st19{font-size:16.2022px;}
	.st20{font-size:7.6519px;}
	.st21{font-size:25.7436px;}
	.st22{font-size:34.7895px;}
	.st23{font-size:3.7686px;}
	.st24{font-size:7.6623px;}
	.st25{font-size:24.452px;}
	.st26{font-size:6.0611px;}
	.st27{font-size:13.5198px;}
	.st28{font-size:13.5355px;}
	.st29{font-size:20.9748px;}
</style>
<g>
	<text transform="matrix(5.9458 0 0 1 212.5781 472.9391)" class="st0 st1">S</text>
	<text transform="matrix(5.5899 0 0 1 211.5625 468.0563)" class="st0 st2">H</text>
	<text transform="matrix(5.1449 0 0 1 212.75 462.7126)" class="st0 st1">G</text>
	<text transform="matrix(6.3422 0 0 1 211 457.8376)" class="st0 st2">F</text>
	<text transform="matrix(5.4087 0 0 1 211.5781 452.5876)" class="st0 st3">D</text>
	<text transform="matrix(4.9351 0 0 1 213.6484 447.6032)" class="st0 st3">A</text>
	<text transform="matrix(1.2656 0 0 1 211.1797 442.3688)" class="st0 st4">E</text>
	<text transform="matrix(2.8659 0 0 1 230.2734 473.0485)" class="st0 st5">L</text>
	<text transform="matrix(0.2526 0 0 1 230.3672 462.1032)" class="st0 st6">E</text>
	<text transform="matrix(6.9637 0 0 1 251.7344 473.0563)" class="st0 st7">V</text>
	<text transform="matrix(8.2133 0 0 1 250.9688 469.0641)" class="st0 st8">S</text>
	<text transform="matrix(7.4653 0 0 1 249.75 465.2282)" class="st0 st9">R</text>
	<text transform="matrix(7.7155 0 0 1 250.0469 461.072)" class="st0 st7">N</text>
	<text transform="matrix(9.5601 0 0 1 249.4688 457.1657)" class="st0 st7">L</text>
	<text transform="matrix(6.8117 0 0 1 252.0391 453.2516)" class="st0 st9">A</text>
	<text transform="matrix(2.9105 0 0 1 251.9297 449.1032)" class="st0 st10">Y</text>
	<text transform="matrix(2.7119 0 0 1 250.5391 441.2829)" class="st0 st10">M</text>
	<text transform="matrix(5.3789 0 0 1 271.125 473.0563)" class="st0 st11">Y</text>
	<text transform="matrix(5.9135 0 0 1 268.9453 468.2907)" class="st0 st11">R</text>
	<text transform="matrix(5.0119 0 0 1 269.7344 463.5251)" class="st0 st11">M</text>
	<text transform="matrix(3.4485 0 0 1 278.1562 458.7595)" class="st0 st12">I</text>
	<text transform="matrix(5.6297 0 0 1 270.3281 453.9001)" class="st0 st13">G</text>
	<text transform="matrix(2.873 0 0 1 270.1562 448.9938)" class="st0 st14">S</text>
	<text transform="matrix(2.1467 0 0 1 268.6484 439.697)" class="st0 st15">L</text>
	<text transform="matrix(4.4553 0 0 1 290.5 473.0485)" class="st0 st16">W</text>
	<text transform="matrix(6.4969 0 0 1 290.125 468.947)" class="st0 st16">V</text>
	<text transform="matrix(7.6635 0 0 1 289.3516 464.7595)" class="st0 st17">S</text>
	<text transform="matrix(6.4439 0 0 1 289.875 460.2673)" class="st0 st18">Q</text>
	<text transform="matrix(7.1984 0 0 1 288.4375 456.4001)" class="st0 st16">N</text>
	<text transform="matrix(6.836 0 0 1 288.5234 452.0641)" class="st0 st16">K</text>
	<text transform="matrix(7.7032 0 0 1 287.9531 447.947)" class="st0 st16">E</text>
	<text transform="matrix(1.9232 0 0 1 288.1406 443.6188)" class="st0 st19">R</text>
	<text transform="matrix(4.2088 0 0 1 307.625 473.0485)" class="st0 st20">N</text>
	<text transform="matrix(3.9968 0 0 1 307.7188 466.7751)" class="st0 st20">K</text>
	<text transform="matrix(4.5038 0 0 1 307.1484 460.2751)" class="st0 st20">E</text>
	<text transform="matrix(1.1291 0 0 1 309.3203 453.7595)" class="st0 st21">V</text>
	<text transform="matrix(0.8173 0 0 1 309.625 434.2438)" class="st0 st22">A</text>
	<text transform="matrix(4.7753 0 0 1 328.8906 473.0563)" class="st0 st7">W</text>
	<text transform="matrix(8.2133 0 0 1 327.7344 469.0641)" class="st0 st8">S</text>
	<text transform="matrix(6.9074 0 0 1 328.25 465.0095)" class="st0 st23">Q</text>
	<text transform="matrix(8.1788 0 0 1 326.3672 461.072)" class="st0 st7">P</text>
	<text transform="matrix(6.3271 0 0 1 327.3125 457.1657)" class="st0 st7">M</text>
	<text transform="matrix(8.7538 0 0 1 326.1562 453.2516)" class="st0 st9">F</text>
	<text transform="matrix(2.9105 0 0 1 328.7031 449.1032)" class="st0 st10">Y</text>
	<text transform="matrix(3.5389 0 0 1 326.3359 441.2829)" class="st0 st10">E</text>
	<text transform="matrix(4.0723 0 0 1 345.7188 473.0485)" class="st0 st20">R</text>
	<text transform="matrix(3.4514 0 0 1 346.5078 466.7751)" class="st0 st20">M</text>
	<text transform="matrix(2.3749 0 0 1 354.9297 460.2751)" class="st0 st24">I</text>
	<text transform="matrix(1.152 0 0 1 347.1094 453.3063)" class="st0 st25">G</text>
	<text transform="matrix(0.8987 0 0 1 348 434.2438)" class="st0 st22">T</text>
	<text transform="matrix(3.2885 0 0 1 367.2812 473.0485)" class="st0 st26">W</text>
	<text transform="matrix(4.7957 0 0 1 366.9062 467.8688)" class="st0 st26">V</text>
	<text transform="matrix(6.0285 0 0 1 364.5469 462.447)" class="st0 st26">F</text>
	<text transform="matrix(2.9516 0 0 1 364.625 457.0095)" class="st0 st27">L</text>
	<text transform="matrix(1.3444 0 0 1 374.125 446.4079)" class="st0 st28">I</text>
	<text transform="matrix(1.3513 0 0 1 367.0859 435.7907)" class="st0 st29">Y</text>
</g>
</svg>
