<?xml version="1.0" encoding="utf-8"?>
<!-- Generator: Adobe Illustrator 24.3.0, SVG Export Plug-In . SVG Version: 6.00 Build 0)  -->
<svg version="1.1" id="Layer_1" xmlns="http://www.w3.org/2000/svg" xmlns:xlink="http://www.w3.org/1999/xlink" x="0px" y="0px"
	 viewBox="0 0 595.28 841.89" style="enable-background:new 0 0 595.28 841.89;" xml:space="preserve">
<style type="text/css">
	.st0{font-family:'Helvetica-Narrow-Bold';}
	.st1{font-size:8.8325px;}
	.st2{font-size:8.8326px;}
	.st3{font-size:17.2099px;}
	.st4{font-size:10.4553px;}
	.st5{font-size:22.3008px;}
	.st6{font-size:8.3879px;}
	.st7{font-size:8.8425px;}
	.st8{font-size:19.0553px;}
	.st9{font-size:7.2097px;}
	.st10{font-size:7.2098px;}
	.st11{font-size:6.5092px;}
	.st12{font-size:7.2189px;}
	.st13{font-size:7.9751px;}
	.st14{font-size:11.0649px;}
	.st15{font-size:11.065px;}
	.st16{font-size:35.9825px;}
</style>
<g>
	<text transform="matrix(3.2089 0 0 1 212.3438 452.5622)" class="st0 st1">Y</text>
	<text transform="matrix(3.5279 0 0 1 210.1641 445.3278)" class="st0 st1">R</text>
	<text transform="matrix(3.8651 0 0 1 210 438.0856)" class="st0 st2">P</text>
	<text transform="matrix(2.99 0 0 1 210.9453 430.6013)" class="st0 st1">M</text>
	<text transform="matrix(3.4626 0 0 1 210.5469 423.3669)" class="st0 st1">K</text>
	<text transform="matrix(1.5126 0 0 1 211.8906 414.8825)" class="st0 st3">Q</text>
	<text transform="matrix(3.2652 0 0 1 229.1953 452.57)" class="st0 st4">P</text>
	<text transform="matrix(3.4948 0 0 1 228.9922 444.195)" class="st0 st4">F</text>
	<text transform="matrix(2.9803 0 0 1 229.5703 435.5856)" class="st0 st4">D</text>
	<text transform="matrix(1.2709 0 0 1 231.5312 427.2106)" class="st0 st5">Y</text>
	<text transform="matrix(1.2749 0 0 1 231.6406 410.2263)" class="st0 st5">A</text>
	<text transform="matrix(3.2909 0 0 1 250.5312 452.5622)" class="st0 st1">V</text>
	<text transform="matrix(3.8809 0 0 1 249.7656 445.1481)" class="st0 st6">S</text>
	<text transform="matrix(4.5179 0 0 1 248.2578 438.0778)" class="st0 st1">L</text>
	<text transform="matrix(3.4626 0 0 1 248.9375 430.6091)" class="st0 st2">K</text>
	<text transform="matrix(2.0579 0 0 1 257.7656 423.3669)" class="st0 st7">I</text>
	<text transform="matrix(1.6353 0 0 1 248.7656 415.8825)" class="st0 st8">D</text>
	<text transform="matrix(4.3365 0 0 1 270.0156 452.5622)" class="st0 st9">T</text>
	<text transform="matrix(4.322 0 0 1 267.7422 446.4606)" class="st0 st10">R</text>
	<text transform="matrix(3.9991 0 0 1 269.4688 439.9606)" class="st0 st11">Q</text>
	<text transform="matrix(4.7351 0 0 1 267.5859 434.2341)" class="st0 st9">P</text>
	<text transform="matrix(4.7801 0 0 1 267.5547 427.8825)" class="st0 st10">E</text>
	<text transform="matrix(4.322 0 0 1 267.9609 421.7731)" class="st0 st10">D</text>
	<text transform="matrix(3.9436 0 0 1 270.0312 415.6559)" class="st0 st10">A</text>
	<text transform="matrix(3.9312 0 0 1 289.1094 452.57)" class="st0 st10">Y</text>
	<text transform="matrix(4.0316 0 0 1 288.9219 446.4606)" class="st0 st9">V</text>
	<text transform="matrix(5.5348 0 0 1 286.6484 440.3434)" class="st0 st9">L</text>
	<text transform="matrix(2.5207 0 0 1 296.1484 434.2341)" class="st0 st12">I</text>
	<text transform="matrix(5.068 0 0 1 286.5703 427.8825)" class="st0 st9">F</text>
	<text transform="matrix(4.7801 0 0 1 286.75 421.7731)" class="st0 st10">E</text>
	<text transform="matrix(3.9436 0 0 1 289.2188 415.6559)" class="st0 st10">A</text>
	<text transform="matrix(3.5279 0 0 1 306.125 452.5622)" class="st0 st1">R</text>
	<text transform="matrix(3.2641 0 0 1 307.8594 444.8669)" class="st0 st13">Q</text>
	<text transform="matrix(3.3581 0 0 1 307.5234 437.9216)" class="st0 st6">G</text>
	<text transform="matrix(3.9018 0 0 1 305.9453 430.6013)" class="st0 st1">E</text>
	<text transform="matrix(3.219 0 0 1 308.4141 423.3669)" class="st0 st2">A</text>
	<text transform="matrix(1.5254 0 0 1 308.1094 415.8825)" class="st0 st8">V</text>
	<text transform="matrix(2.7646 0 0 1 327.6875 452.5622)" class="st0 st9">W</text>
	<text transform="matrix(3.9992 0 0 1 327.0469 446.0778)" class="st0 st11">Q</text>
	<text transform="matrix(5.5348 0 0 1 325.0312 440.3434)" class="st0 st9">L</text>
	<text transform="matrix(4.242 0 0 1 325.7109 434.2341)" class="st0 st9">K</text>
	<text transform="matrix(4.4669 0 0 1 325.5234 427.8825)" class="st0 st10">H</text>
	<text transform="matrix(4.7801 0 0 1 325.1328 421.7731)" class="st0 st10">E</text>
	<text transform="matrix(3.9436 0 0 1 327.6094 415.6559)" class="st0 st10">A</text>
	<text transform="matrix(3.2089 0 0 1 346.6875 452.5622)" class="st0 st1">Y</text>
	<text transform="matrix(3.2909 0 0 1 346.5 445.3278)" class="st0 st1">V</text>
	<text transform="matrix(3.6462 0 0 1 344.8125 438.0778)" class="st0 st1">N</text>
	<text transform="matrix(3.6462 0 0 1 344.7109 430.6013)" class="st0 st1">H</text>
	<text transform="matrix(3.4489 0 0 1 345.9844 423.2106)" class="st0 st6">C</text>
	<text transform="matrix(2.0941 0 0 1 344.2266 415.8825)" class="st0 st8">L</text>
	<text transform="matrix(2.5615 0 0 1 365.8828 452.57)" class="st0 st14">Y</text>
	<text transform="matrix(1.8014 0 0 1 366.0781 443.7888)" class="st0 st15">W</text>
	<text transform="matrix(2.6269 0 0 1 365.7031 434.7888)" class="st0 st15">V</text>
	<text transform="matrix(3.3022 0 0 1 363.3438 425.7731)" class="st0 st14">F</text>
	<text transform="matrix(1.109 0 0 1 363.4219 417.0075)" class="st0 st16">L</text>
</g>
</svg>
