<?xml version="1.0" encoding="utf-8"?>
<!-- Generator: Adobe Illustrator 24.3.0, SVG Export Plug-In . SVG Version: 6.00 Build 0)  -->
<svg version="1.1" id="Layer_1" xmlns="http://www.w3.org/2000/svg" xmlns:xlink="http://www.w3.org/1999/xlink" x="0px" y="0px"
	 viewBox="0 0 595.28 841.89" style="enable-background:new 0 0 595.28 841.89;" xml:space="preserve">
<style type="text/css">
	.st0{font-family:'Helvetica-Narrow-Bold';}
	.st1{font-size:0.5638px;}
	.st2{font-size:5.5134px;}
	.st3{font-size:7.1764px;}
	.st4{font-size:30.8413px;}
	.st5{font-size:62.69px;}
	.st6{font-size:0.0836px;}
	.st7{font-size:0.0537px;}
	.st8{font-size:0.0974px;}
	.st9{font-size:0.117px;}
	.st10{font-size:1.8185px;}
	.st11{font-size:2.5758px;}
	.st12{font-size:7.014px;}
	.st13{font-size:16.179px;}
	.st14{font-size:22.7913px;}
	.st15{font-size:23.8632px;}
</style>
<g>
	<text transform="matrix(54.2437 0 0 1 210 455.1349)" class="st0 st1">K</text>
	<text transform="matrix(4.7901 0 0 1 229.5859 463.5568)" class="st0 st2">M</text>
	<text transform="matrix(2.7775 0 0 1 231.1641 458.674)" class="st0 st3">W</text>
	<text transform="matrix(1.1847 0 0 1 228.4375 452.6115)" class="st0 st4">F</text>
	<text transform="matrix(0.4521 0 0 1 230.9766 429.3615)" class="st0 st5">Y</text>
	<text transform="matrix(1 0 0 1 295.5938 456.2834)" class="st0 st6">I</text>
	<text transform="matrix(1 0 0 1 325.0703 456.6193)" class="st0 st7">N</text>
	<text transform="matrix(1 0 0 1 345.1797 456.0412)" class="st0 st8">S</text>
	<text transform="matrix(1 0 0 1 343.6797 454.8693)" class="st0 st9">L</text>
	<text transform="matrix(10.9607 0 0 1 365.5234 463.549)" class="st0 st10">W</text>
	<text transform="matrix(10.2532 0 0 1 363.9453 461.3381)" class="st0 st11">M</text>
	<text transform="matrix(4.0409 0 0 1 365.3281 458.5256)" class="st0 st12">Y</text>
	<text transform="matrix(2.2584 0 0 1 362.7891 452.4474)" class="st0 st13">F</text>
	<text transform="matrix(1.7509 0 0 1 362.8672 439.9318)" class="st0 st14">L</text>
	<text transform="matrix(0.7625 0 0 1 372.3672 422.4865)" class="st0 st15">I</text>
</g>
</svg>
