<?xml version="1.0" encoding="utf-8"?>
<!-- Generator: Adobe Illustrator 24.3.0, SVG Export Plug-In . SVG Version: 6.00 Build 0)  -->
<svg version="1.1" id="Layer_1" xmlns="http://www.w3.org/2000/svg" xmlns:xlink="http://www.w3.org/1999/xlink" x="0px" y="0px"
	 viewBox="0 0 595.28 841.89" style="enable-background:new 0 0 595.28 841.89;" xml:space="preserve">
<style type="text/css">
	.st0{font-family:'Helvetica-Narrow-Bold';}
	.st1{font-size:15.3655px;}
	.st2{font-size:48.8843px;}
	.st3{font-size:12.3246px;}
	.st4{font-size:12.3247px;}
	.st5{font-size:11.7046px;}
	.st6{font-size:26.0396px;}
	.st7{font-size:11.7047px;}
	.st8{font-size:9.6081px;}
	.st9{font-size:10.1159px;}
	.st10{font-size:24.7327px;}
	.st11{font-size:14.5333px;}
	.st12{font-size:30.4569px;}
</style>
<g>
	<text transform="matrix(1.8917 0 0 1 211.9844 457.7673)" class="st0 st1">V</text>
	<text transform="matrix(2.0279 0 0 1 210 445.947)" class="st0 st1">R</text>
	<text transform="matrix(1.8504 0 0 1 212.2812 433.8845)" class="st0 st1">A</text>
	<text transform="matrix(0.6256 0 0 1 210.3828 421.8063)" class="st0 st2">K</text>
	<text transform="matrix(2.2997 0 0 1 231.3672 457.7673)" class="st0 st3">Y</text>
	<text transform="matrix(1.6173 0 0 1 231.5547 448.1579)" class="st0 st4">W</text>
	<text transform="matrix(2.7811 0 0 1 230.4062 438.0485)" class="st0 st5">S</text>
	<text transform="matrix(2.3069 0 0 1 231.4766 428.4391)" class="st0 st4">A</text>
	<text transform="matrix(1.5325 0 0 1 228.8984 418.5876)" class="st0 st6">L</text>
	<text transform="matrix(2.7811 0 0 1 249.6016 457.5251)" class="st0 st7">S</text>
	<text transform="matrix(2.6131 0 0 1 248.6797 448.1579)" class="st0 st4">N</text>
	<text transform="matrix(2.4815 0 0 1 248.7734 438.2907)" class="st0 st4">K</text>
	<text transform="matrix(2.9647 0 0 1 248.0234 428.4391)" class="st0 st4">F</text>
	<text transform="matrix(1.1967 0 0 1 248.3828 418.5876)" class="st0 st6">R</text>
	<text transform="matrix(3.388 0 0 1 268.7891 457.572)" class="st0 st8">S</text>
	<text transform="matrix(3.0803 0 0 1 267.5781 449.6423)" class="st0 st9">R</text>
	<text transform="matrix(3.3748 0 0 1 267.4219 441.2829)" class="st0 st9">P</text>
	<text transform="matrix(3.1836 0 0 1 267.875 433.1579)" class="st0 st9">N</text>
	<text transform="matrix(3.9447 0 0 1 267.2891 424.7907)" class="st0 st9">L</text>
	<text transform="matrix(2.8106 0 0 1 269.8672 416.6657)" class="st0 st9">A</text>
	<text transform="matrix(1.9704 0 0 1 289.1328 457.7751)" class="st0 st9">W</text>
	<text transform="matrix(2.8734 0 0 1 288.7578 449.6501)" class="st0 st9">V</text>
	<text transform="matrix(3.0907 0 0 1 289.0469 441.2829)" class="st0 st9">T</text>
	<text transform="matrix(3.388 0 0 1 287.9844 432.9548)" class="st0 st8">S</text>
	<text transform="matrix(2.9317 0 0 1 288.1641 424.6032)" class="st0 st8">G</text>
	<text transform="matrix(3.612 0 0 1 286.4062 416.6657)" class="st0 st9">F</text>
	<text transform="matrix(1.9704 0 0 1 308.3359 457.7751)" class="st0 st9">W</text>
	<text transform="matrix(3.0803 0 0 1 305.9609 449.6423)" class="st0 st9">R</text>
	<text transform="matrix(3.1836 0 0 1 306.2578 441.2829)" class="st0 st9">N</text>
	<text transform="matrix(2.6107 0 0 1 306.75 433.1579)" class="st0 st9">M</text>
	<text transform="matrix(3.9447 0 0 1 305.6797 424.7907)" class="st0 st9">L</text>
	<text transform="matrix(2.9317 0 0 1 307.3594 416.4782)" class="st0 st8">G</text>
	<text transform="matrix(2.2997 0 0 1 327.3359 457.7673)" class="st0 st3">Y</text>
	<text transform="matrix(2.5368 0 0 1 327.4297 448.1579)" class="st0 st4">T</text>
	<text transform="matrix(2.4815 0 0 1 325.5469 438.2907)" class="st0 st4">K</text>
	<text transform="matrix(2.4716 0 0 1 326.6328 428.2126)" class="st0 st5">C</text>
	<text transform="matrix(1.5324 0 0 1 324.8672 418.5876)" class="st0 st6">L</text>
	<text transform="matrix(1.6173 0 0 1 346.7188 457.7673)" class="st0 st3">W</text>
	<text transform="matrix(2.5368 0 0 1 346.625 448.1579)" class="st0 st4">T</text>
	<text transform="matrix(3.2378 0 0 1 344.0625 438.2907)" class="st0 st4">L</text>
	<text transform="matrix(2.4815 0 0 1 344.7422 428.4391)" class="st0 st4">K</text>
	<text transform="matrix(1.3162 0 0 1 345.5625 418.0563)" class="st0 st10">S</text>
	<text transform="matrix(1.9502 0 0 1 365.7188 457.7751)" class="st0 st11">Y</text>
	<text transform="matrix(2.1044 0 0 1 363.9297 446.4313)" class="st0 st11">K</text>
	<text transform="matrix(0.9544 0 0 1 365.5391 435.072)" class="st0 st12">V</text>
	<text transform="matrix(0.9335 0 0 1 365.8359 412.1423)" class="st0 st12">A</text>
</g>
</svg>
