<?xml version="1.0" encoding="utf-8"?>
<!-- Generator: Adobe Illustrator 24.3.0, SVG Export Plug-In . SVG Version: 6.00 Build 0)  -->
<svg version="1.1" id="Layer_1" xmlns="http://www.w3.org/2000/svg" xmlns:xlink="http://www.w3.org/1999/xlink" x="0px" y="0px"
	 viewBox="0 0 595.28 841.89" style="enable-background:new 0 0 595.28 841.89;" xml:space="preserve">
<style type="text/css">
	.st0{font-family:'Helvetica-Narrow-Bold';}
	.st1{font-size:0.2252px;}
	.st2{font-size:0.4933px;}
	.st3{font-size:1.033px;}
	.st4{font-size:1.7472px;}
	.st5{font-size:2.3804px;}
	.st6{font-size:3.1882px;}
	.st7{font-size:9.3894px;}
	.st8{font-size:0.1865px;}
	.st9{font-size:0.1866px;}
	.st10{font-size:0.5806px;}
	.st11{font-size:0.9748px;}
	.st12{font-size:1.3726px;}
	.st13{font-size:2.161px;}
	.st14{font-size:10.8474px;}
	.st15{font-size:18.7454px;}
	.st16{font-size:0.1279px;}
	.st17{font-size:0.5139px;}
	.st18{font-size:0.9537px;}
	.st19{font-size:2.0608px;}
	.st20{font-size:0.2858px;}
	.st21{font-size:0.8467px;}
	.st22{font-size:1.4031px;}
	.st23{font-size:3.0827px;}
	.st24{font-size:20.9852px;}
	.st25{font-size:32.1767px;}
	.st26{font-size:0.1981px;}
	.st27{font-size:0.2827px;}
	.st28{font-size:0.5582px;}
	.st29{font-size:0.8931px;}
	.st30{font-size:1.4997px;}
	.st31{font-size:1.8049px;}
	.st32{font-size:0.7348px;}
	.st33{font-size:0.6975px;}
	.st34{font-size:1.801px;}
	.st35{font-size:2.8636px;}
	.st36{font-size:4.4591px;}
	.st37{font-size:5.5253px;}
	.st38{font-size:8.7298px;}
	.st39{font-size:33.191px;}
</style>
<g>
	<text transform="matrix(1 0 0 1 219.2812 445.2277)" class="st0 st1">R</text>
	<text transform="matrix(53.5394 0 0 1 220.0703 444.1027)" class="st0 st2">M</text>
	<text transform="matrix(28.1392 0 0 1 221.2656 442.5871)" class="st0 st3">V</text>
	<text transform="matrix(18.6315 0 0 1 220.5 440.7512)" class="st0 st4">S</text>
	<text transform="matrix(14.3416 0 0 1 219.125 438.5402)" class="st0 st5">P</text>
	<text transform="matrix(8.9179 0 0 1 221.5781 435.7746)" class="st0 st6">A</text>
	<text transform="matrix(4.2499 0 0 1 219 432.548)" class="st0 st7">L</text>
	<text transform="matrix(1 0 0 1 240.4609 445.9074)" class="st0 st8">V</text>
	<text transform="matrix(1 0 0 1 240.7656 444.6027)" class="st0 st9">A</text>
	<text transform="matrix(53.8471 0 0 1 240.7656 443.5324)" class="st0 st10">T</text>
	<text transform="matrix(40.9363 0 0 1 238.1875 442.134)" class="st0 st11">L</text>
	<text transform="matrix(23.4626 0 0 1 238.7734 440.4152)" class="st0 st12">N</text>
	<text transform="matrix(12.2213 0 0 1 239.2578 438.3683)" class="st0 st13">M</text>
	<text transform="matrix(2.8726 0 0 1 238.4766 435.9074)" class="st0 st14">R</text>
	<text transform="matrix(1.6315 0 0 1 238.8672 427.2043)" class="st0 st15">K</text>
	<text transform="matrix(1 0 0 1 257.3828 444.3058)" class="st0 st16">L</text>
	<text transform="matrix(54.812 0 0 1 259.0703 443.0871)" class="st0 st17">G</text>
	<text transform="matrix(32.069 0 0 1 258.0703 441.7433)" class="st0 st18">K</text>
	<text transform="matrix(15.1206 0 0 1 257.6719 440.0715)" class="st0 st19">R</text>
	<text transform="matrix(1 0 0 1 276.5078 446.2277)" class="st0 st20">F</text>
	<text transform="matrix(1 0 0 1 277.0938 445.0168)" class="st0 st20">D</text>
	<text transform="matrix(21.4903 0 0 1 286.0781 443.8058)" class="st0 st21">I</text>
	<text transform="matrix(22.9533 0 0 1 277.0625 442.0402)" class="st0 st22">H</text>
	<text transform="matrix(12.9447 0 0 1 276.5781 440.1808)" class="st0 st23">L</text>
	<text transform="matrix(1.4574 0 0 1 277.25 436.8762)" class="st0 st24">K</text>
	<text transform="matrix(0.9684 0 0 1 276.8672 420.8215)" class="st0 st25">R</text>
	<text transform="matrix(1 0 0 1 314.9453 443.1418)" class="st0 st26">L</text>
	<text transform="matrix(1 0 0 1 334.2812 444.8371)" class="st0 st27">P</text>
	<text transform="matrix(58.3156 0 0 1 335.6641 443.6105)" class="st0 st28">S</text>
	<text transform="matrix(38.589 0 0 1 334.2578 442.2121)" class="st0 st29">E</text>
	<text transform="matrix(18.9586 0 0 1 336.7344 440.6262)" class="st0 st30">A</text>
	<text transform="matrix(17.3219 0 0 1 336.7188 438.384)" class="st0 st31">T</text>
	<text transform="matrix(41.6224 0 0 1 354.0234 448.9308)" class="st0 st32">K</text>
	<text transform="matrix(40.3847 0 0 1 355.0156 447.548)" class="st0 st33">G</text>
	<text transform="matrix(20.2883 0 0 1 353.2734 445.9387)" class="st0 st34">F</text>
	<text transform="matrix(9.9288 0 0 1 355.9297 443.759)" class="st0 st35">A</text>
	<text transform="matrix(5.9227 0 0 1 354.4297 440.5246)" class="st0 st36">M</text>
	<text transform="matrix(5.2607 0 0 1 355.625 436.4465)" class="st0 st37">V</text>
	<text transform="matrix(2.0844 0 0 1 362.8516 431.5558)" class="st0 st38">I</text>
	<text transform="matrix(1.2023 0 0 1 353.3516 424.2355)" class="st0 st39">L</text>
</g>
</svg>
