<?xml version="1.0" encoding="utf-8"?>
<!-- Generator: Adobe Illustrator 24.3.0, SVG Export Plug-In . SVG Version: 6.00 Build 0)  -->
<svg version="1.1" id="Layer_1" xmlns="http://www.w3.org/2000/svg" xmlns:xlink="http://www.w3.org/1999/xlink" x="0px" y="0px"
	 viewBox="0 0 595.28 841.89" style="enable-background:new 0 0 595.28 841.89;" xml:space="preserve">
<style type="text/css">
	.st0{font-family:'Helvetica-Narrow-Bold';}
	.st1{font-size:64.6365px;}
	.st2{font-size:64.6367px;}
	.st3{font-size:170.416px;}
	.st4{font-size:61.3873px;}
	.st5{font-size:64.7254px;}
	.st6{font-size:161.8502px;}
</style>
<g>
	<text transform="matrix(0.4497 0 0 1 212.1875 471.529)" class="st0 st1">V</text>
	<text transform="matrix(0.4086 0 0 1 211 424.2321)" class="st0 st2">M</text>
	<text transform="matrix(0.2342 0 0 1 229.1094 471.529)" class="st0 st3">L</text>
	<text transform="matrix(0.4982 0 0 1 248.8906 471.529)" class="st0 st1">N</text>
	<text transform="matrix(0.4589 0 0 1 249.9922 423.0681)" class="st0 st4">G</text>
	<text transform="matrix(0.5282 0 0 1 267.6328 471.529)" class="st0 st1">P</text>
	<text transform="matrix(0.2811 0 0 1 277 424.2399)" class="st0 st5">I</text>
	<text transform="matrix(0.5282 0 0 1 286.8281 471.529)" class="st0 st1">P</text>
	<text transform="matrix(0.2811 0 0 1 296.1953 424.2399)" class="st0 st5">I</text>
	<text transform="matrix(0.2011 0 0 1 307.3906 468.1306)" class="st0 st6">S</text>
	<text transform="matrix(0.2811 0 0 1 334.5859 471.529)" class="st0 st5">I</text>
	<text transform="matrix(0.4589 0 0 1 326.7656 423.0681)" class="st0 st4">G</text>
	<text transform="matrix(0.4982 0 0 1 344.8594 471.529)" class="st0 st1">N</text>
	<text transform="matrix(0.4982 0 0 1 344.7656 424.2321)" class="st0 st2">H</text>
	<text transform="matrix(0.1706 0 0 1 365.7422 471.5368)" class="st0 st3">V</text>
</g>
</svg>
