<?xml version="1.0" encoding="utf-8"?>
<!-- Generator: Adobe Illustrator 24.3.0, SVG Export Plug-In . SVG Version: 6.00 Build 0)  -->
<svg version="1.1" id="Layer_1" xmlns="http://www.w3.org/2000/svg" xmlns:xlink="http://www.w3.org/1999/xlink" x="0px" y="0px"
	 viewBox="0 0 595.28 841.89" style="enable-background:new 0 0 595.28 841.89;" xml:space="preserve">
<style type="text/css">
	.st0{font-family:'Helvetica-Narrow-Bold';}
	.st1{font-size:0.525px;}
	.st2{font-size:0.0858px;}
	.st3{font-size:0.8261px;}
	.st4{font-size:1.809px;}
	.st5{font-size:4.0267px;}
	.st6{font-size:5.0119px;}
	.st7{font-size:10.3745px;}
	.st8{font-size:11.1667px;}
	.st9{font-size:0.1508px;}
	.st10{font-size:0.3212px;}
	.st11{font-size:1.8655px;}
	.st12{font-size:2.8938px;}
	.st13{font-size:3.8864px;}
	.st14{font-size:7.8645px;}
	.st15{font-size:0.3265px;}
	.st16{font-size:10px;}
	.st17{font-size:0.8736px;}
	.st18{font-size:0.1258px;}
	.st19{font-size:1.4641px;}
	.st20{font-size:1.7336px;}
	.st21{font-size:0.2609px;}
	.st22{font-size:0.9375px;}
	.st23{font-size:0.1705px;}
	.st24{font-size:0.1706px;}
	.st25{font-size:147.9765px;}
</style>
<g>
	<text transform="matrix(62.2603 0 0 1 211 462.5671)" class="st0 st1">F</text>
	<text transform="matrix(1 0 0 1 230.6406 465.528)" class="st0 st2">A</text>
	<text transform="matrix(19.704 0 0 1 236.6875 464.5983)" class="st0 st3">I</text>
	<text transform="matrix(13.0585 0 0 1 229.3047 462.8561)" class="st0 st4">M</text>
	<text transform="matrix(8.8645 0 0 1 228.3281 460.653)" class="st0 st5">L</text>
	<text transform="matrix(5.1879 0 0 1 230.3672 456.7155)" class="st0 st6">V</text>
	<text transform="matrix(2.8067 0 0 1 229.6797 451.864)" class="st0 st7">S</text>
	<text transform="matrix(2.5044 0 0 1 230.625 443.2702)" class="st0 st8">T</text>
	<text transform="matrix(1 0 0 1 253.9609 463.4968)" class="st0 st9">I</text>
	<text transform="matrix(1 0 0 1 245.5547 462.2311)" class="st0 st10">F</text>
	<text transform="matrix(16.5245 0 0 1 245.6953 460.9733)" class="st0 st11">E</text>
	<text transform="matrix(8.7882 0 0 1 247.9062 458.6999)" class="st0 st12">A</text>
	<text transform="matrix(7.4921 0 0 1 246.9531 455.5827)" class="st0 st13">S</text>
	<text transform="matrix(3.5442 0 0 1 246.0625 451.6296)" class="st0 st14">D</text>
	<text transform="matrix(85.3722 0 0 1 280.6094 460.9343)" class="st0 st15">D</text>
	<text transform="matrix(1 0 0 1 305.7891 461.864)" class="st0 st16">I</text>
	<text transform="matrix(40.857 0 0 1 314.6953 461.8561)" class="st0 st17">L</text>
	<text transform="matrix(1 0 0 1 332.0703 462.1374)" class="st0 st18">E</text>
	<text transform="matrix(24.3804 0 0 1 331.9766 461.1608)" class="st0 st19">L</text>
	<text transform="matrix(9.3891 0 0 1 340.3359 459.2155)" class="st0 st20">I</text>
	<text transform="matrix(1 0 0 1 349.7812 463.028)" class="st0 st21">N</text>
	<text transform="matrix(1 0 0 1 349.3359 461.8561)" class="st0 st21">E</text>
	<text transform="matrix(38.0723 0 0 1 349.2422 460.6843)" class="st0 st22">L</text>
	<text transform="matrix(1 0 0 1 366.7812 466.8327)" class="st0 st23">R</text>
	<text transform="matrix(1 0 0 1 366.5234 465.7858)" class="st0 st24">L</text>
	<text transform="matrix(0.1713 0 0 1 368.7344 464.7468)" class="st0 st25">Y</text>
</g>
</svg>
