<?xml version="1.0" encoding="utf-8"?>
<!-- Generator: Adobe Illustrator 24.3.0, SVG Export Plug-In . SVG Version: 6.00 Build 0)  -->
<svg version="1.1" id="Layer_1" xmlns="http://www.w3.org/2000/svg" xmlns:xlink="http://www.w3.org/1999/xlink" x="0px" y="0px"
	 viewBox="0 0 595.28 841.89" style="enable-background:new 0 0 595.28 841.89;" xml:space="preserve">
<style type="text/css">
	.st0{font-family:'Helvetica-Narrow-Bold';}
	.st1{font-size:0.2335px;}
	.st2{font-size:0.3977px;}
	.st3{font-size:0.5598px;}
	.st4{font-size:0.5582px;}
	.st5{font-size:0.883px;}
	.st6{font-size:1.3719px;}
	.st7{font-size:0.9921px;}
	.st8{font-size:6.9495px;}
	.st9{font-size:130.8741px;}
	.st10{font-size:0.1938px;}
	.st11{font-size:0.3265px;}
	.st12{font-size:1.1184px;}
	.st13{font-size:0.1017px;}
	.st14{font-size:0.4244px;}
	.st15{font-size:0.2692px;}
	.st16{font-size:0.2831px;}
	.st17{font-size:0.4462px;}
	.st18{font-size:0.4936px;}
	.st19{font-size:0.7921px;}
	.st20{font-size:1.0676px;}
	.st21{font-size:0.4091px;}
	.st22{font-size:1.008px;}
	.st23{font-size:1.4099px;}
	.st24{font-size:1.8073px;}
	.st25{font-size:2.0963px;}
	.st26{font-size:3.0419px;}
	.st27{font-size:4.3093px;}
	.st28{font-size:11.9285px;}
	.st29{font-size:12.5472px;}
	.st30{font-size:31.5578px;}
</style>
<g>
	<text transform="matrix(1 0 0 1 211.2422 464.1745)" class="st0 st1">Y</text>
	<text transform="matrix(72.4439 0 0 1 209.4766 463.0417)" class="st0 st2">H</text>
	<text transform="matrix(29.0756 0 0 1 217.4141 461.9245)" class="st0 st3">I</text>
	<text transform="matrix(58.5489 0 0 1 209 460.3073)" class="st0 st4">F</text>
	<text transform="matrix(40.4259 0 0 1 209.0391 458.9557)" class="st0 st5">L</text>
	<text transform="matrix(20.3176 0 0 1 209.3203 457.362)" class="st0 st6">R</text>
	<text transform="matrix(26.2081 0 0 1 228.375 467.1432)" class="st0 st7">V</text>
	<text transform="matrix(3.6594 0 0 1 228.6406 465.4089)" class="st0 st8">A</text>
	<text transform="matrix(0.2333 0 0 1 226.4531 459.4323)" class="st0 st9">P</text>
	<text transform="matrix(1 0 0 1 243.6094 462.3229)" class="st0 st10">L</text>
	<text transform="matrix(77.9028 0 0 1 245.9062 461.0026)" class="st0 st11">A</text>
	<text transform="matrix(24.922 0 0 1 243.8672 459.9792)" class="st0 st12">R</text>
	<text transform="matrix(1 0 0 1 263.0703 462.9948)" class="st0 st13">Y</text>
	<text transform="matrix(1 0 0 1 260.875 462.0495)" class="st0 st13">L</text>
	<text transform="matrix(68.6148 0 0 1 262.2344 460.8464)" class="st0 st14">S</text>
	<text transform="matrix(1 0 0 1 279.5 462.8932)" class="st0 st15">S</text>
	<text transform="matrix(1 0 0 1 278.1641 461.6979)" class="st0 st16">L</text>
	<text transform="matrix(65.2618 0 0 1 296.7734 460.862)" class="st0 st17">S</text>
	<text transform="matrix(58.9851 0 0 1 331.3203 462.362)" class="st0 st18">S</text>
	<text transform="matrix(35.3066 0 0 1 332.2734 461.0651)" class="st0 st19">T</text>
	<text transform="matrix(33.4335 0 0 1 329.9766 459.362)" class="st0 st20">L</text>
	<text transform="matrix(79.8872 0 0 1 347.2031 463.9011)" class="st0 st21">F</text>
	<text transform="matrix(16.1473 0 0 1 355.8516 462.7604)" class="st0 st22">I</text>
	<text transform="matrix(21.6595 0 0 1 347.3672 461.0026)" class="st0 st23">P</text>
	<text transform="matrix(18.0378 0 0 1 349.5547 458.8932)" class="st0 st23">A</text>
	<text transform="matrix(19.7497 0 0 1 347.25 457.0261)" class="st0 st24">L</text>
	<text transform="matrix(13.8902 0 0 1 348.5938 454.5573)" class="st0 st25">S</text>
	<text transform="matrix(7.7659 0 0 1 365.4922 468.3542)" class="st0 st26">M</text>
	<text transform="matrix(7.5845 0 0 1 364.4609 465.1042)" class="st0 st27">F</text>
	<text transform="matrix(5.9015 0 0 1 366.8359 461.237)" class="st0 st27">A</text>
	<text transform="matrix(1.3646 0 0 1 373.125 457.1276)" class="st0 st28">I</text>
	<text transform="matrix(2.0723 0 0 1 366.5625 447.3776)" class="st0 st29">V</text>
	<text transform="matrix(1.1311 0 0 1 364.5234 437.4401)" class="st0 st30">L</text>
</g>
</svg>
