<?xml version="1.0" encoding="utf-8"?>
<!-- Generator: Adobe Illustrator 24.3.0, SVG Export Plug-In . SVG Version: 6.00 Build 0)  -->
<svg version="1.1" id="Layer_1" xmlns="http://www.w3.org/2000/svg" xmlns:xlink="http://www.w3.org/1999/xlink" x="0px" y="0px"
	 viewBox="0 0 595.28 841.89" style="enable-background:new 0 0 595.28 841.89;" xml:space="preserve">
<style type="text/css">
	.st0{font-family:'Helvetica-Narrow-Bold';}
	.st1{font-size:10.1159px;}
	.st2{font-size:9.6081px;}
	.st3{font-size:43.7089px;}
	.st4{font-size:88.8083px;}
	.st5{font-size:11.7047px;}
	.st6{font-size:12.3246px;}
	.st7{font-size:12.3247px;}
	.st8{font-size:26.0396px;}
	.st9{font-size:11.7046px;}
	.st10{font-size:12.3407px;}
	.st11{font-size:17.5976px;}
	.st12{font-size:36.5423px;}
	.st13{font-size:55.5104px;}
</style>
<g>
	<text transform="matrix(2.8018 0 0 1 213.5391 469.5978)" class="st0 st1">Y</text>
	<text transform="matrix(2.8734 0 0 1 213.3438 461.4728)" class="st0 st1">V</text>
	<text transform="matrix(2.6107 0 0 1 212.1484 453.1057)" class="st0 st1">M</text>
	<text transform="matrix(2.9317 0 0 1 212.75 444.7932)" class="st0 st2">G</text>
	<text transform="matrix(3.612 0 0 1 211 436.6135)" class="st0 st1">F</text>
	<text transform="matrix(2.8106 0 0 1 213.6484 428.4885)" class="st0 st1">A</text>
	<text transform="matrix(0.6042 0 0 1 231.3438 469.5978)" class="st0 st3">M</text>
	<text transform="matrix(0.4493 0 0 1 230.2656 437.2228)" class="st0 st4">L</text>
	<text transform="matrix(2.7811 0 0 1 250.9688 469.3478)" class="st0 st5">S</text>
	<text transform="matrix(2.1428 0 0 1 250.5312 459.9807)" class="st0 st6">M</text>
	<text transform="matrix(3.2378 0 0 1 249.4609 450.1135)" class="st0 st7">L</text>
	<text transform="matrix(2.3069 0 0 1 252.0391 440.2619)" class="st0 st7">A</text>
	<text transform="matrix(1.311 0 0 1 249.5938 430.4103)" class="st0 st8">P</text>
	<text transform="matrix(3.388 0 0 1 270.1562 469.3947)" class="st0 st2">S</text>
	<text transform="matrix(3.0803 0 0 1 268.9453 461.465)" class="st0 st1">R</text>
	<text transform="matrix(3.3748 0 0 1 268.7891 453.1057)" class="st0 st1">P</text>
	<text transform="matrix(2.9317 0 0 1 270.3438 444.7932)" class="st0 st2">G</text>
	<text transform="matrix(3.4068 0 0 1 268.7578 436.6135)" class="st0 st1">E</text>
	<text transform="matrix(3.0803 0 0 1 269.1641 428.4885)" class="st0 st1">D</text>
	<text transform="matrix(2.2997 0 0 1 290.3125 469.59)" class="st0 st6">Y</text>
	<text transform="matrix(1.6173 0 0 1 290.5078 459.9807)" class="st0 st7">W</text>
	<text transform="matrix(2.3584 0 0 1 290.125 450.1135)" class="st0 st7">V</text>
	<text transform="matrix(2.3069 0 0 1 290.4297 440.2619)" class="st0 st7">A</text>
	<text transform="matrix(1.5325 0 0 1 287.8516 430.4103)" class="st0 st8">L</text>
	<text transform="matrix(2.2997 0 0 1 309.5078 469.59)" class="st0 st6">Y</text>
	<text transform="matrix(2.3584 0 0 1 309.3203 459.9807)" class="st0 st7">V</text>
	<text transform="matrix(2.1428 0 0 1 308.125 450.1135)" class="st0 st7">M</text>
	<text transform="matrix(2.4066 0 0 1 308.7266 440.0353)" class="st0 st9">G</text>
	<text transform="matrix(1.5324 0 0 1 307.0469 430.4103)" class="st0 st8">L</text>
	<text transform="matrix(2.5368 0 0 1 328.7969 469.59)" class="st0 st6">T</text>
	<text transform="matrix(1.4745 0 0 1 335.7422 459.9807)" class="st0 st10">I</text>
	<text transform="matrix(2.9647 0 0 1 326.1562 450.1135)" class="st0 st7">F</text>
	<text transform="matrix(2.7963 0 0 1 326.3438 440.2619)" class="st0 st7">E</text>
	<text transform="matrix(1.0919 0 0 1 328.8125 430.4103)" class="st0 st8">A</text>
	<text transform="matrix(2.5283 0 0 1 345.7188 469.59)" class="st0 st6">R</text>
	<text transform="matrix(2.4815 0 0 1 346.1094 459.9807)" class="st0 st6">K</text>
	<text transform="matrix(1.4745 0 0 1 354.9375 450.1291)" class="st0 st10">I</text>
	<text transform="matrix(2.4716 0 0 1 347.1875 440.0353)" class="st0 st9">C</text>
	<text transform="matrix(1.2368 0 0 1 345.9219 430.4103)" class="st0 st8">H</text>
	<text transform="matrix(1.0341 0 0 1 374.125 469.5978)" class="st0 st11">I</text>
	<text transform="matrix(0.7954 0 0 1 366.9062 456.0353)" class="st0 st12">V</text>
	<text transform="matrix(0.7189 0 0 1 364.625 428.926)" class="st0 st13">L</text>
</g>
</svg>
