<?xml version="1.0" encoding="utf-8"?>
<!-- Generator: Adobe Illustrator 24.3.0, SVG Export Plug-In . SVG Version: 6.00 Build 0)  -->
<svg version="1.1" id="Layer_1" xmlns="http://www.w3.org/2000/svg" xmlns:xlink="http://www.w3.org/1999/xlink" x="0px" y="0px"
	 viewBox="0 0 595.28 841.89" style="enable-background:new 0 0 595.28 841.89;" xml:space="preserve">
<style type="text/css">
	.st0{font-family:'Helvetica-Narrow-Bold';}
	.st1{font-size:0.467px;}
	.st2{font-size:1.0294px;}
	.st3{font-size:2.3241px;}
	.st4{font-size:3.5646px;}
	.st5{font-size:5.4218px;}
	.st6{font-size:0.4284px;}
	.st7{font-size:0.4518px;}
	.st8{font-size:1.0657px;}
	.st9{font-size:1.0658px;}
	.st10{font-size:1.6797px;}
	.st11{font-size:2.2937px;}
	.st12{font-size:6.5989px;}
	.st13{font-size:10px;}
	.st14{font-size:0.4034px;}
	.st15{font-size:0.7636px;}
	.st16{font-size:1.4839px;}
	.st17{font-size:0.4693px;}
	.st18{font-size:0.8723px;}
	.st19{font-size:0.9641px;}
	.st20{font-size:0.9642px;}
	.st21{font-size:1.9095px;}
	.st22{font-size:2.7073px;}
	.st23{font-size:0.1254px;}
	.st24{font-size:0.6959px;}
	.st25{font-size:0.1587px;}
	.st26{font-size:0.4768px;}
	.st27{font-size:0.3366px;}
	.st28{font-size:0.3043px;}
	.st29{font-size:0.7692px;}
	.st30{font-size:1.2018px;}
	.st31{font-size:2.9323px;}
	.st32{font-size:0.3877px;}
	.st33{font-size:0.4066px;}
	.st34{font-size:0.8558px;}
	.st35{font-size:1.3051px;}
	.st36{font-size:1.7543px;}
	.st37{font-size:2.2071px;}
	.st38{font-size:0.4687px;}
	.st39{font-size:1.4px;}
	.st40{font-size:3.7246px;}
	.st41{font-size:0.0872px;}
	.st42{font-size:1.5646px;}
	.st43{font-size:3.0421px;}
	.st44{font-size:3.0469px;}
	.st45{font-size:4.5195px;}
	.st46{font-size:11.9138px;}
	.st47{font-size:37.0479px;}
</style>
<g>
	<text transform="matrix(55.6822 0 0 1 211.0859 446.9152)" class="st0 st1">V</text>
	<text transform="matrix(59.6917 0 0 1 209.3281 445.6808)" class="st0 st1">R</text>
	<text transform="matrix(50.5893 0 0 1 210.0469 444.2199)" class="st0 st1">M</text>
	<text transform="matrix(28.2863 0 0 1 210.4062 442.9699)" class="st0 st2">S</text>
	<text transform="matrix(24.4776 0 0 1 210.5703 441.0949)" class="st0 st2">G</text>
	<text transform="matrix(7.671 0 0 1 211.4375 439.4777)" class="st0 st3">W</text>
	<text transform="matrix(9.169 0 0 1 209 436.7746)" class="st0 st4">F</text>
	<text transform="matrix(4.6762 0 0 1 211.2734 433.0168)" class="st0 st5">Y</text>
	<text transform="matrix(67.9676 0 0 1 227.6797 446.5871)" class="st0 st6">S</text>
	<text transform="matrix(52.2848 0 0 1 227.3125 445.134)" class="st0 st7">M</text>
	<text transform="matrix(63.7715 0 0 1 226.7656 443.9308)" class="st0 st7">H</text>
	<text transform="matrix(23.7895 0 0 1 228.5469 442.4777)" class="st0 st8">Y</text>
	<text transform="matrix(33.4912 0 0 1 226.3359 440.8683)" class="st0 st9">L</text>
	<text transform="matrix(18.1799 0 0 1 226.4531 439.0246)" class="st0 st10">P</text>
	<text transform="matrix(7.7726 0 0 1 228.7188 436.7668)" class="st0 st11">W</text>
	<text transform="matrix(4.9529 0 0 1 226.2734 434.1105)" class="st0 st12">F</text>
	<text transform="matrix(1 0 0 1 244.5859 444.8215)" class="st0 st13">M</text>
	<text transform="matrix(1 0 0 1 245.9141 443.9621)" class="st0 st13">A</text>
	<text transform="matrix(81.0163 0 0 1 243.5625 442.8527)" class="st0 st14">F</text>
	<text transform="matrix(39.9927 0 0 1 243.7266 441.4777)" class="st0 st15">P</text>
	<text transform="matrix(18.784 0 0 1 243.875 440.0558)" class="st0 st16">R</text>
	<text transform="matrix(1 0 0 1 261.4219 446.5715)" class="st0 st13">N</text>
	<text transform="matrix(53.6929 0 0 1 262.3906 445.4933)" class="st0 st17">G</text>
	<text transform="matrix(26.6967 0 0 1 262.6797 444.1808)" class="st0 st18">Q</text>
	<text transform="matrix(31.9735 0 0 1 260.9844 442.5246)" class="st0 st19">E</text>
	<text transform="matrix(26.3764 0 0 1 263.1875 440.8215)" class="st0 st20">A</text>
	<text transform="matrix(15.9922 0 0 1 261.0078 439.1105)" class="st0 st21">P</text>
	<text transform="matrix(10.7552 0 0 1 262.2344 436.7121)" class="st0 st22">S</text>
	<text transform="matrix(1 0 0 1 280.4609 445.8683)" class="st0 st23">T</text>
	<text transform="matrix(1 0 0 1 278.1719 444.884)" class="st0 st23">L</text>
	<text transform="matrix(1 0 0 1 278.5859 443.6652)" class="st0 st23">H</text>
	<text transform="matrix(1 0 0 1 280.4609 442.6808)" class="st0 st23">A</text>
	<text transform="matrix(41.8446 0 0 1 279.5078 441.4465)" class="st0 st24">S</text>
	<text transform="matrix(1 0 0 1 297.0078 443.4933)" class="st0 st25">C</text>
	<text transform="matrix(64.0521 0 0 1 295.5469 442.4621)" class="st0 st26">P</text>
	<text transform="matrix(53.342 0 0 1 297.7344 440.9777)" class="st0 st26">A</text>
	<text transform="matrix(75.3241 0 0 1 314.9062 446.7512)" class="st0 st27">Y</text>
	<text transform="matrix(76.5251 0 0 1 314.5156 445.4387)" class="st0 st28">Q</text>
	<text transform="matrix(90.7105 0 0 1 312.8281 444.173)" class="st0 st27">P</text>
	<text transform="matrix(91.5692 0 0 1 312.7969 442.8918)" class="st0 st27">E</text>
	<text transform="matrix(33.0612 0 0 1 315.0156 441.8449)" class="st0 st29">A</text>
	<text transform="matrix(23.2695 0 0 1 315.0078 440.1887)" class="st0 st30">T</text>
	<text transform="matrix(12.1729 0 0 1 312.7031 438.384)" class="st0 st31">L</text>
	<text transform="matrix(75.0955 0 0 1 331.3281 445.6183)" class="st0 st32">S</text>
	<text transform="matrix(80.377 0 0 1 329.9219 444.2512)" class="st0 st33">F</text>
	<text transform="matrix(32.6767 0 0 1 332.2812 442.8605)" class="st0 st34">T</text>
	<text transform="matrix(27.351 0 0 1 329.9844 441.3058)" class="st0 st35">L</text>
	<text transform="matrix(14.497 0 0 1 332.2891 439.3527)" class="st0 st36">A</text>
	<text transform="matrix(13.8359 0 0 1 330.0938 437.2355)" class="st0 st37">P</text>
	<text transform="matrix(1 0 0 1 347.5312 447.3137)" class="st0 st13">R</text>
	<text transform="matrix(1 0 0 1 347.3672 446.2746)" class="st0 st13">P</text>
	<text transform="matrix(1 0 0 1 347.8594 445.4699)" class="st0 st13">K</text>
	<text transform="matrix(1 0 0 1 355.8594 444.423)" class="st0 st13">I</text>
	<text transform="matrix(1 0 0 1 347.3438 443.384)" class="st0 st13">E</text>
	<text transform="matrix(55.4709 0 0 1 349.2812 442.3371)" class="st0 st38">V</text>
	<text transform="matrix(54.2551 0 0 1 349.5547 441.0949)" class="st0 st38">A</text>
	<text transform="matrix(18.1091 0 0 1 349.4688 439.634)" class="st0 st39">Y</text>
	<text transform="matrix(9.5835 0 0 1 347.2578 437.7746)" class="st0 st40">L</text>
	<text transform="matrix(1 0 0 1 366.7422 451.259)" class="st0 st41">Y</text>
	<text transform="matrix(1 0 0 1 366.8281 450.3371)" class="st0 st41">T</text>
	<text transform="matrix(1 0 0 1 366.8438 449.173)" class="st0 st41">A</text>
	<text transform="matrix(17.8145 0 0 1 364.7969 448.2433)" class="st0 st42">R</text>
	<text transform="matrix(17.4836 0 0 1 365.1406 446.1652)" class="st0 st42">K</text>
	<text transform="matrix(8.5472 0 0 1 366.5703 443.8293)" class="st0 st43">V</text>
	<text transform="matrix(5.3422 0 0 1 373.125 440.8293)" class="st0 st44">I</text>
	<text transform="matrix(5.227 0 0 1 365.5 437.5793)" class="st0 st45">M</text>
	<text transform="matrix(2.7434 0 0 1 364.4688 433.3996)" class="st0 st46">F</text>
	<text transform="matrix(0.9635 0 0 1 364.5312 423.8996)" class="st0 st47">L</text>
</g>
</svg>
