<?xml version="1.0" encoding="utf-8"?>
<!-- Generator: Adobe Illustrator 24.3.0, SVG Export Plug-In . SVG Version: 6.00 Build 0)  -->
<svg version="1.1" id="Layer_1" xmlns="http://www.w3.org/2000/svg" xmlns:xlink="http://www.w3.org/1999/xlink" x="0px" y="0px"
	 viewBox="0 0 595.28 841.89" style="enable-background:new 0 0 595.28 841.89;" xml:space="preserve">
<style type="text/css">
	.st0{font-family:'Helvetica-Narrow-Bold';}
	.st1{font-size:170.4154px;}
	.st2{font-size:161.8499px;}
	.st3{font-size:170.4153px;}
	.st4{font-size:170.6529px;}
</style>
<g>
	<text transform="matrix(0.1641 0 0 1 215.0278 471.7194)" class="st0 st1">T</text>
	<text transform="matrix(0.1792 0 0 1 230.1294 471.7194)" class="st0 st1">P</text>
	<text transform="matrix(0.1691 0 0 1 247.7153 471.7194)" class="st0 st1">H</text>
	<text transform="matrix(0.1599 0 0 1 266.1294 468.6491)" class="st0 st2">C</text>
	<text transform="matrix(0.1492 0 0 1 284.1372 471.7194)" class="st0 st1">A</text>
	<text transform="matrix(0.2095 0 0 1 299.106 471.7194)" class="st0 st1">L</text>
	<text transform="matrix(0.1386 0 0 1 317.3403 471.7272)" class="st0 st3">M</text>
	<text transform="matrix(0.1636 0 0 1 334.106 471.7272)" class="st0 st3">D</text>
	<text transform="matrix(0.1599 0 0 1 352.4966 468.6491)" class="st0 st2">C</text>
	<text transform="matrix(0.0954 0 0 1 376.8013 471.7272)" class="st0 st4">I</text>
</g>
</svg>
