<?xml version="1.0" encoding="utf-8"?>
<!-- Generator: Adobe Illustrator 24.3.0, SVG Export Plug-In . SVG Version: 6.00 Build 0)  -->
<svg version="1.1" id="Layer_1" xmlns="http://www.w3.org/2000/svg" xmlns:xlink="http://www.w3.org/1999/xlink" x="0px" y="0px"
	 viewBox="0 0 595.28 841.89" style="enable-background:new 0 0 595.28 841.89;" xml:space="preserve">
<style type="text/css">
	.st0{font-family:'Helvetica-Narrow-Bold';}
	.st1{font-size:0.0739px;}
	.st2{font-size:0.0742px;}
	.st3{font-size:0.4409px;}
	.st4{font-size:1.1748px;}
	.st5{font-size:2.6389px;}
	.st6{font-size:3.7397px;}
	.st7{font-size:4.1067px;}
	.st8{font-size:0.4799px;}
	.st9{font-size:1.4204px;}
	.st10{font-size:1.4205px;}
	.st11{font-size:1.3474px;}
	.st12{font-size:4.231px;}
	.st13{font-size:4.0181px;}
	.st14{font-size:5.1679px;}
	.st15{font-size:51.0929px;}
	.st16{font-size:0.2205px;}
	.st17{font-size:0.2087px;}
	.st18{font-size:0.3812px;}
	.st19{font-size:0.1305px;}
	.st20{font-size:0.058px;}
	.st21{font-size:0.6384px;}
	.st22{font-size:0.1455px;}
	.st23{font-size:0.5387px;}
	.st24{font-size:1.3125px;}
	.st25{font-size:0.2264px;}
	.st26{font-size:0.227px;}
	.st27{font-size:0.4135px;}
	.st28{font-size:0.9171px;}
	.st29{font-size:1.0916px;}
	.st30{font-size:2.0744px;}
	.st31{font-size:0.0511px;}
	.st32{font-size:0.0512px;}
	.st33{font-size:0.534px;}
	.st34{font-size:0.7736px;}
	.st35{font-size:1.016px;}
	.st36{font-size:2.9373px;}
	.st37{font-size:0.4278px;}
	.st38{font-size:0.6881px;}
	.st39{font-size:1.4688px;}
	.st40{font-size:3.2904px;}
	.st41{font-size:0.1986px;}
	.st42{font-size:0.5163px;}
	.st43{font-size:0.834px;}
	.st44{font-size:2.7441px;}
	.st45{font-size:4.972px;}
</style>
<g>
	<text transform="matrix(1 0 0 1 209.3281 453.655)" class="st0 st1">R</text>
	<text transform="matrix(1 0 0 1 217.4219 452.7565)" class="st0 st2">I</text>
	<text transform="matrix(1 0 0 1 209.1641 451.6081)" class="st0 st1">E</text>
	<text transform="matrix(1 0 0 1 211.375 450.7018)" class="st0 st1">A</text>
	<text transform="matrix(65.35 0 0 1 209.4844 449.5534)" class="st0 st3">H</text>
	<text transform="matrix(23.8053 0 0 1 211.3672 448.1237)" class="st0 st4">T</text>
	<text transform="matrix(9.6076 0 0 1 211.2656 446.3581)" class="st0 st5">Y</text>
	<text transform="matrix(6.3168 0 0 1 210.0312 443.444)" class="st0 st6">M</text>
	<text transform="matrix(8.7397 0 0 1 209 439.6706)" class="st0 st6">F</text>
	<text transform="matrix(8.6919 0 0 1 209.0625 436.1472)" class="st0 st7">L</text>
	<text transform="matrix(54.1827 0 0 1 228.3828 454.1159)" class="st0 st8">V</text>
	<text transform="matrix(58.084 0 0 1 226.6172 452.8659)" class="st0 st8">R</text>
	<text transform="matrix(16.631 0 0 1 227.3125 451.3737)" class="st0 st9">M</text>
	<text transform="matrix(19.2581 0 0 1 226.9453 449.4987)" class="st0 st10">K</text>
	<text transform="matrix(18.7006 0 0 1 227.8438 447.3503)" class="st0 st11">G</text>
	<text transform="matrix(6.6098 0 0 1 228.6406 445.2565)" class="st0 st12">T</text>
	<text transform="matrix(7.2465 0 0 1 227.6875 441.1862)" class="st0 st13">S</text>
	<text transform="matrix(4.921 0 0 1 228.6484 437.2722)" class="st0 st14">A</text>
	<text transform="matrix(0.5977 0 0 1 226.4609 432.655)" class="st0 st15">P</text>
	<text transform="matrix(73.8346 0 0 1 251.9688 449.069)" class="st0 st16">I</text>
	<text transform="matrix(1 0 0 1 245.125 447.944)" class="st0 st17">G</text>
	<text transform="matrix(68.2033 0 0 1 245.6406 446.8268)" class="st0 st18">V</text>
	<text transform="matrix(1 0 0 1 262.2344 448.9831)" class="st0 st19">S</text>
	<text transform="matrix(1 0 0 1 280.2031 450.1237)" class="st0 st20">V</text>
	<text transform="matrix(1 0 0 1 278.1719 449.2409)" class="st0 st20">L</text>
	<text transform="matrix(25.4969 0 0 1 286.5234 448.1081)" class="st0 st21">I</text>
	<text transform="matrix(1 0 0 1 296.7812 448.0143)" class="st0 st22">S</text>
	<text transform="matrix(51.9117 0 0 1 297.7344 446.7643)" class="st0 st23">T</text>
	<text transform="matrix(19.3759 0 0 1 297.7344 445.4206)" class="st0 st24">A</text>
	<text transform="matrix(1 0 0 1 312.8281 450.5612)" class="st0 st25">P</text>
	<text transform="matrix(71.6901 0 0 1 321.0703 449.4362)" class="st0 st26">I</text>
	<text transform="matrix(56.322 0 0 1 314.5156 448.2956)" class="st0 st27">Q</text>
	<text transform="matrix(38.9193 0 0 1 312.7031 447.1081)" class="st0 st28">L</text>
	<text transform="matrix(23.0821 0 0 1 314.2109 445.2018)" class="st0 st29">G</text>
	<text transform="matrix(13.4815 0 0 1 315.0078 443.4909)" class="st0 st30">T</text>
	<text transform="matrix(1 0 0 1 332.0156 450.2409)" class="st0 st31">V</text>
	<text transform="matrix(1 0 0 1 332.2656 449.1393)" class="st0 st32">T</text>
	<text transform="matrix(47.6283 0 0 1 332.2812 448.2565)" class="st0 st33">A</text>
	<text transform="matrix(36.0317 0 0 1 330.25 446.694)" class="st0 st34">R</text>
	<text transform="matrix(16.0204 0 0 1 338.3438 445.2643)" class="st0 st35">I</text>
	<text transform="matrix(12.1521 0 0 1 329.9766 443.4909)" class="st0 st36">L</text>
	<text transform="matrix(55.222 0 0 1 348.2188 450.4128)" class="st0 st37">M</text>
	<text transform="matrix(37.7877 0 0 1 349.2812 448.9987)" class="st0 st38">V</text>
	<text transform="matrix(41.8704 0 0 1 347.7891 447.4518)" class="st0 st38">N</text>
	<text transform="matrix(44.8003 0 0 1 347.3438 446.1472)" class="st0 st38">E</text>
	<text transform="matrix(24.3017 0 0 1 347.2578 444.5925)" class="st0 st39">L</text>
	<text transform="matrix(7.7289 0 0 1 349.5625 442.405)" class="st0 st40">A</text>
	<text transform="matrix(1 0 0 1 365.1328 449.8972)" class="st0 st41">K</text>
	<text transform="matrix(53.9904 0 0 1 364.9922 448.8112)" class="st0 st42">D</text>
	<text transform="matrix(42.7977 0 0 1 364.5156 447.5143)" class="st0 st43">L</text>
	<text transform="matrix(9.2392 0 0 1 366.7422 445.7565)" class="st0 st44">Y</text>
	<text transform="matrix(8.6086 0 0 1 365.5 442.9362)" class="st0 st44">M</text>
	<text transform="matrix(6.5736 0 0 1 364.4688 439.8737)" class="st0 st45">F</text>
</g>
</svg>
