<?xml version="1.0" encoding="utf-8"?>
<!-- Generator: Adobe Illustrator 24.3.0, SVG Export Plug-In . SVG Version: 6.00 Build 0)  -->
<svg version="1.1" id="Layer_1" xmlns="http://www.w3.org/2000/svg" xmlns:xlink="http://www.w3.org/1999/xlink" x="0px" y="0px"
	 viewBox="0 0 595.28 841.89" style="enable-background:new 0 0 595.28 841.89;" xml:space="preserve">
<style type="text/css">
	.st0{font-family:'Helvetica-Narrow-Bold';}
	.st1{font-size:0.0898px;}
	.st2{font-size:0.2403px;}
	.st3{font-size:0.283px;}
	.st4{font-size:0.5832px;}
	.st5{font-size:1.7142px;}
	.st6{font-size:3.8171px;}
	.st7{font-size:5.898px;}
	.st8{font-size:5.6763px;}
	.st9{font-size:9.8494px;}
	.st10{font-size:13.1898px;}
	.st11{font-size:15.3942px;}
	.st12{font-size:0.2498px;}
	.st13{font-size:0.3144px;}
	.st14{font-size:0.6777px;}
	.st15{font-size:11.8021px;}
	.st16{font-size:20.1464px;}
	.st17{font-size:76.5567px;}
</style>
<g>
	<text transform="matrix(1 0 0 1 211 460.9601)" class="st0 st1">L</text>
	<text transform="matrix(1 0 0 1 213.5625 459.7961)" class="st0 st2">A</text>
	<text transform="matrix(64.2948 0 0 1 220.5 458.6476)" class="st0 st3">I</text>
	<text transform="matrix(52.4399 0 0 1 211.6797 457.4445)" class="st0 st4">K</text>
	<text transform="matrix(18.9895 0 0 1 212.5 456.0148)" class="st0 st5">S</text>
	<text transform="matrix(6.8197 0 0 1 232.2031 465.1398)" class="st0 st6">Q</text>
	<text transform="matrix(6.1951 0 0 1 230.1172 461.3742)" class="st0 st7">F</text>
	<text transform="matrix(5.7347 0 0 1 231.6953 455.8273)" class="st0 st8">S</text>
	<text transform="matrix(3.1743 0 0 1 232.7578 450.6398)" class="st0 st9">T</text>
	<text transform="matrix(2.2037 0 0 1 232.4688 442.6633)" class="st0 st10">V</text>
	<text transform="matrix(2.5922 0 0 1 230.1953 432.2805)" class="st0 st11">L</text>
	<text transform="matrix(72.8348 0 0 1 335.6641 461.0305)" class="st0 st12">I</text>
	<text transform="matrix(1 0 0 1 326.0781 459.8742)" class="st0 st13">F</text>
	<text transform="matrix(58.8794 0 0 1 326.1406 458.6164)" class="st0 st14">L</text>
	<text transform="matrix(2.4015 0 0 1 367.0078 464.8898)" class="st0 st15">Y</text>
	<text transform="matrix(1.5467 0 0 1 364.8359 455.2961)" class="st0 st16">R</text>
	<text transform="matrix(0.3995 0 0 1 365.2188 439.968)" class="st0 st17">K</text>
</g>
</svg>
