<?xml version="1.0" encoding="utf-8"?>
<!-- Generator: Adobe Illustrator 24.3.0, SVG Export Plug-In . SVG Version: 6.00 Build 0)  -->
<svg version="1.1" id="Layer_1" xmlns="http://www.w3.org/2000/svg" xmlns:xlink="http://www.w3.org/1999/xlink" x="0px" y="0px"
	 viewBox="0 0 595.28 841.89" style="enable-background:new 0 0 595.28 841.89;" xml:space="preserve">
<style type="text/css">
	.st0{font-family:'Helvetica-Narrow-Bold';}
	.st1{font-size:1.8274px;}
	.st2{font-size:1.8273px;}
	.st3{font-size:5.0486px;}
	.st4{font-size:4.7939px;}
	.st5{font-size:4.5579px;}
	.st6{font-size:17.9297px;}
	.st7{font-size:5.7286px;}
	.st8{font-size:12.8686px;}
	.st9{font-size:98.3023px;}
	.st10{font-size:1.1222px;}
	.st11{font-size:1.2417px;}
	.st12{font-size:1.2419px;}
	.st13{font-size:0.2611px;}
	.st14{font-size:0.2603px;}
	.st15{font-size:0.9394px;}
	.st16{font-size:0.8927px;}
	.st17{font-size:0.9395px;}
	.st18{font-size:3.2745px;}
	.st19{font-size:5.6024px;}
	.st20{font-size:5.6023px;}
	.st21{font-size:0.8458px;}
	.st22{font-size:0.8047px;}
	.st23{font-size:0.8482px;}
	.st24{font-size:3.0854px;}
	.st25{font-size:5.3249px;}
	.st26{font-size:5.325px;}
	.st27{font-size:0.2613px;}
	.st28{font-size:0.2496px;}
	.st29{font-size:1.9165px;}
	.st30{font-size:1.8225px;}
	.st31{font-size:3.5715px;}
	.st32{font-size:1.9164px;}
	.st33{font-size:1.18px;}
	.st34{font-size:1.2429px;}
	.st35{font-size:1.2464px;}
	.st36{font-size:3.8796px;}
	.st37{font-size:3.6872px;}
	.st38{font-size:6.5163px;}
	.st39{font-size:8.266px;}
	.st40{font-size:3.5191px;}
	.st41{font-size:8.4284px;}
	.st42{font-size:8.4283px;}
	.st43{font-size:13.3376px;}
	.st44{font-size:42.8007px;}
</style>
<g>
	<text transform="matrix(9.7564 0 0 1 212.3828 470.4352)" class="st0 st1">W</text>
	<text transform="matrix(14.2289 0 0 1 212.0391 468.2087)" class="st0 st1">V</text>
	<text transform="matrix(15.3043 0 0 1 212.3047 465.9821)" class="st0 st2">T</text>
	<text transform="matrix(19.5331 0 0 1 210 463.5134)" class="st0 st1">L</text>
	<text transform="matrix(5.0219 0 0 1 212.2188 461.2946)" class="st0 st3">Y</text>
	<text transform="matrix(6.0739 0 0 1 211.3594 456.5134)" class="st0 st4">S</text>
	<text transform="matrix(5.1093 0 0 1 211.8125 451.8884)" class="st0 st5">Q</text>
	<text transform="matrix(6.106 0 0 1 210.1016 447.4665)" class="st0 st3">E</text>
	<text transform="matrix(1.4184 0 0 1 212.3203 442.779)" class="st0 st6">A</text>
	<text transform="matrix(4.8657 0 0 1 227.7422 470.4274)" class="st0 st7">D</text>
	<text transform="matrix(4.4394 0 0 1 229.5938 465.4821)" class="st0 st7">A</text>
	<text transform="matrix(1.2649 0 0 1 235.6484 460.3024)" class="st0 st8">I</text>
	<text transform="matrix(0.3136 0 0 1 227.3828 450.1696)" class="st0 st9">E</text>
	<text transform="matrix(20.7516 0 0 1 246.3516 461.0524)" class="st0 st10">Q</text>
	<text transform="matrix(13.1085 0 0 1 252.9141 459.2556)" class="st0 st11">I</text>
	<text transform="matrix(24.8214 0 0 1 244.6484 457.3884)" class="st0 st12">E</text>
	<text transform="matrix(20.4773 0 0 1 246.8594 455.529)" class="st0 st12">A</text>
	<text transform="matrix(62.3442 0 0 1 270.1953 462.2165)" class="st0 st13">I</text>
	<text transform="matrix(97.6838 0 0 1 264.1328 461.0446)" class="st0 st14">A</text>
	<text transform="matrix(27.6773 0 0 1 281.1484 470.4274)" class="st0 st15">V</text>
	<text transform="matrix(32.6174 0 0 1 280.4531 468.7477)" class="st0 st16">S</text>
	<text transform="matrix(32.5059 0 0 1 279.2188 467.0993)" class="st0 st15">P</text>
	<text transform="matrix(30.6676 0 0 1 279.6328 465.4274)" class="st0 st15">N</text>
	<text transform="matrix(25.1458 0 0 1 280.0781 463.7556)" class="st0 st15">M</text>
	<text transform="matrix(37.9938 0 0 1 279.1172 462.0915)" class="st0 st17">L</text>
	<text transform="matrix(32.8136 0 0 1 279.1953 460.4274)" class="st0 st15">E</text>
	<text transform="matrix(4.9709 0 0 1 287.4609 458.7556)" class="st0 st18">I</text>
	<text transform="matrix(4.9919 0 0 1 281.3984 455.4274)" class="st0 st19">T</text>
	<text transform="matrix(4.8829 0 0 1 279.7109 450.4196)" class="st0 st20">K</text>
	<text transform="matrix(4.5394 0 0 1 281.4141 445.4196)" class="st0 st19">A</text>
	<text transform="matrix(30.7424 0 0 1 298.4219 470.4352)" class="st0 st21">V</text>
	<text transform="matrix(33.0632 0 0 1 298.6953 468.904)" class="st0 st21">T</text>
	<text transform="matrix(36.186 0 0 1 297.7266 467.3415)" class="st0 st22">S</text>
	<text transform="matrix(19.1913 0 0 1 304.7422 465.8259)" class="st0 st23">I</text>
	<text transform="matrix(31.3123 0 0 1 297.8828 464.0446)" class="st0 st22">G</text>
	<text transform="matrix(30.0674 0 0 1 298.6797 462.5134)" class="st0 st21">A</text>
	<text transform="matrix(8.2173 0 0 1 298.5859 460.9821)" class="st0 st24">Y</text>
	<text transform="matrix(10.5932 0 0 1 296.3203 457.6696)" class="st0 st24">F</text>
	<text transform="matrix(9.0341 0 0 1 296.8359 454.3649)" class="st0 st24">D</text>
	<text transform="matrix(5.7348 0 0 1 296.4922 451.2946)" class="st0 st25">P</text>
	<text transform="matrix(5.789 0 0 1 296.4688 446.4509)" class="st0 st26">E</text>
	<text transform="matrix(68.229 0 0 1 316.0234 470.4352)" class="st0 st27">W</text>
	<text transform="matrix(99.507 0 0 1 315.6797 469.2556)" class="st0 st27">V</text>
	<text transform="matrix(1 0 0 1 314.1641 468.0837)" class="st0 st27">N</text>
	<text transform="matrix(1 0 0 1 313.6484 466.904)" class="st0 st27">L</text>
	<text transform="matrix(1 0 0 1 314.2812 465.7321)" class="st0 st27">K</text>
	<text transform="matrix(1 0 0 1 315.1562 464.5446)" class="st0 st28">G</text>
	<text transform="matrix(1 0 0 1 313.6016 463.3727)" class="st0 st27">F</text>
	<text transform="matrix(1 0 0 1 313.7422 462.1931)" class="st0 st27">E</text>
	<text transform="matrix(1 0 0 1 314.1172 461.0134)" class="st0 st27">D</text>
	<text transform="matrix(13.2293 0 0 1 315.8594 459.8415)" class="st0 st29">Y</text>
	<text transform="matrix(14.5927 0 0 1 315.9531 457.4899)" class="st0 st29">T</text>
	<text transform="matrix(15.9766 0 0 1 315 455.0915)" class="st0 st30">S</text>
	<text transform="matrix(7.1206 0 0 1 315.9609 452.779)" class="st0 st31">A</text>
	<text transform="matrix(68.2291 0 0 1 333.3047 470.4352)" class="st0 st27">W</text>
	<text transform="matrix(1 0 0 1 333.2266 469.2556)" class="st0 st27">T</text>
	<text transform="matrix(1 0 0 1 332.2734 468.0759)" class="st0 st28">S</text>
	<text transform="matrix(1 0 0 1 331.0469 466.904)" class="st0 st27">P</text>
	<text transform="matrix(1 0 0 1 331.4375 465.7321)" class="st0 st27">N</text>
	<text transform="matrix(90.4057 0 0 1 331.8984 464.5446)" class="st0 st27">M</text>
	<text transform="matrix(1 0 0 1 331.5391 463.3727)" class="st0 st27">K</text>
	<text transform="matrix(1 0 0 1 331.0234 462.1931)" class="st0 st27">E</text>
	<text transform="matrix(97.326 0 0 1 333.2266 461.0134)" class="st0 st27">A</text>
	<text transform="matrix(13.5674 0 0 1 332.9688 459.8415)" class="st0 st29">V</text>
	<text transform="matrix(18.6256 0 0 1 330.9297 457.4899)" class="st0 st32">L</text>
	<text transform="matrix(17.0547 0 0 1 330.8672 455.1384)" class="st0 st32">F</text>
	<text transform="matrix(7.8044 0 0 1 331.1953 452.779)" class="st0 st31">R</text>
	<text transform="matrix(24.6751 0 0 1 349.5469 470.404)" class="st0 st33">S</text>
	<text transform="matrix(22.4263 0 0 1 348.4688 468.5602)" class="st0 st34">R</text>
	<text transform="matrix(13.0596 0 0 1 356.8047 466.7009)" class="st0 st35">I</text>
	<text transform="matrix(23.1802 0 0 1 348.6328 464.8337)" class="st0 st34">H</text>
	<text transform="matrix(24.8022 0 0 1 348.2891 462.9665)" class="st0 st34">E</text>
	<text transform="matrix(7.4261 0 0 1 348.7344 461.0993)" class="st0 st36">N</text>
	<text transform="matrix(9.2005 0 0 1 348.2031 457.3727)" class="st0 st36">L</text>
	<text transform="matrix(6.8336 0 0 1 349.7109 453.3259)" class="st0 st37">G</text>
	<text transform="matrix(4.2917 0 0 1 350.5 449.654)" class="st0 st38">T</text>
	<text transform="matrix(2.8173 0 0 1 350.0078 443.5837)" class="st0 st39">Q</text>
	<text transform="matrix(7.3887 0 0 1 367.5156 470.4274)" class="st0 st40">V</text>
	<text transform="matrix(7.9469 0 0 1 367.7734 466.9821)" class="st0 st40">T</text>
	<text transform="matrix(3.0081 0 0 1 367.6797 463.529)" class="st0 st41">Y</text>
	<text transform="matrix(4.2351 0 0 1 365.4766 456.3884)" class="st0 st42">L</text>
	<text transform="matrix(2.4505 0 0 1 365.4141 449.4899)" class="st0 st43">F</text>
	<text transform="matrix(0.4165 0 0 1 367.8516 438.8962)" class="st0 st44">W</text>
</g>
</svg>
