<?xml version="1.0" encoding="utf-8"?>
<!-- Generator: Adobe Illustrator 24.3.0, SVG Export Plug-In . SVG Version: 6.00 Build 0)  -->
<svg version="1.1" id="Layer_1" xmlns="http://www.w3.org/2000/svg" xmlns:xlink="http://www.w3.org/1999/xlink" x="0px" y="0px"
	 viewBox="0 0 595.28 841.89" style="enable-background:new 0 0 595.28 841.89;" xml:space="preserve">
<style type="text/css">
	.st0{font-family:'Helvetica-Narrow-Bold';}
	.st1{font-size:1.845px;}
	.st2{font-size:1.8449px;}
	.st3{font-size:5.0837px;}
	.st4{font-size:24.5127px;}
	.st5{font-size:2.8679px;}
	.st6{font-size:2.8722px;}
	.st7{font-size:6.7682px;}
	.st8{font-size:7.1296px;}
	.st9{font-size:11.3876px;}
	.st10{font-size:35.0927px;}
	.st11{font-size:2.0307px;}
	.st12{font-size:2.2463px;}
	.st13{font-size:5.8863px;}
	.st14{font-size:5.8864px;}
	.st15{font-size:12.5058px;}
	.st16{font-size:24.0906px;}
	.st17{font-size:1.6698px;}
	.st18{font-size:1.6707px;}
	.st19{font-size:1.6697px;}
	.st20{font-size:1.5861px;}
	.st21{font-size:1.5862px;}
	.st22{font-size:4.7334px;}
	.st23{font-size:7.797px;}
	.st24{font-size:20.044px;}
	.st25{font-size:1.3504px;}
	.st26{font-size:4.0948px;}
	.st27{font-size:3.6971px;}
	.st28{font-size:4.0947px;}
	.st29{font-size:6.839px;}
	.st30{font-size:6.4958px;}
	.st31{font-size:9.5833px;}
	.st32{font-size:2.5071px;}
	.st33{font-size:2.5072px;}
	.st34{font-size:6.415px;}
	.st35{font-size:14.2028px;}
	.st36{font-size:29.7994px;}
	.st37{font-size:2.1477px;}
	.st38{font-size:2.0415px;}
	.st39{font-size:5.6892px;}
	.st40{font-size:8.7678px;}
	.st41{font-size:24.3313px;}
	.st42{font-size:1.3084px;}
	.st43{font-size:4.007px;}
	.st44{font-size:6.7093px;}
	.st45{font-size:12.1293px;}
	.st46{font-size:1.2264px;}
	.st47{font-size:3.843px;}
	.st48{font-size:3.6508px;}
	.st49{font-size:6.4596px;}
	.st50{font-size:11.6964px;}
	.st51{font-size:3.0633px;}
	.st52{font-size:3.3946px;}
	.st53{font-size:3.222px;}
	.st54{font-size:8.1794px;}
	.st55{font-size:51.2495px;}
</style>
<g>
	<text transform="matrix(13.7421 0 0 1 212.2656 456.1608)" class="st0 st1">Y</text>
	<text transform="matrix(15.108 0 0 1 210.3281 453.9186)" class="st0 st1">R</text>
	<text transform="matrix(15.6159 0 0 1 210.5938 451.6686)" class="st0 st1">N</text>
	<text transform="matrix(12.8042 0 0 1 211.0312 449.4108)" class="st0 st1">M</text>
	<text transform="matrix(19.3472 0 0 1 210.0547 446.9186)" class="st0 st1">L</text>
	<text transform="matrix(15.6159 0 0 1 210.5 444.6765)" class="st0 st1">H</text>
	<text transform="matrix(13.7846 0 0 1 212.375 442.4186)" class="st0 st2">A</text>
	<text transform="matrix(5.381 0 0 1 210.6719 439.9343)" class="st0 st3">K</text>
	<text transform="matrix(6.4292 0 0 1 210 435.4343)" class="st0 st3">F</text>
	<text transform="matrix(1.1409 0 0 1 212.3594 430.6921)" class="st0 st4">T</text>
	<text transform="matrix(10.6482 0 0 1 227.4531 456.1686)" class="st0 st5">P</text>
	<text transform="matrix(9.5385 0 0 1 227.9453 453.1686)" class="st0 st5">K</text>
	<text transform="matrix(5.6671 0 0 1 235.7031 450.1686)" class="st0 st6">I</text>
	<text transform="matrix(3.7228 0 0 1 228.8438 447.0515)" class="st0 st7">G</text>
	<text transform="matrix(3.567 0 0 1 229.6484 440.9343)" class="st0 st8">A</text>
	<text transform="matrix(2.4558 0 0 1 229.6328 434.9421)" class="st0 st9">T</text>
	<text transform="matrix(0.8297 0 0 1 228.6797 424.9655)" class="st0 st10">S</text>
	<text transform="matrix(11.4681 0 0 1 246.4219 456.0515)" class="st0 st11">Q</text>
	<text transform="matrix(12.8255 0 0 1 245.1328 453.5827)" class="st0 st12">N</text>
	<text transform="matrix(15.8904 0 0 1 244.6094 450.9811)" class="st0 st12">L</text>
	<text transform="matrix(14.5501 0 0 1 244.5547 448.403)" class="st0 st12">F</text>
	<text transform="matrix(4.4172 0 0 1 246.6484 445.8171)" class="st0 st13">V</text>
	<text transform="matrix(4.7353 0 0 1 244.875 440.6452)" class="st0 st14">R</text>
	<text transform="matrix(2.3283 0 0 1 245.9609 435.1999)" class="st0 st15">S</text>
	<text transform="matrix(1.1609 0 0 1 246.9062 424.8718)" class="st0 st16">T</text>
	<text transform="matrix(14.1474 0 0 1 262.8594 456.1608)" class="st0 st17">M</text>
	<text transform="matrix(9.7426 0 0 1 270.25 454.1686)" class="st0 st18">I</text>
	<text transform="matrix(17.2544 0 0 1 262.3203 451.9343)" class="st0 st19">H</text>
	<text transform="matrix(15.8859 0 0 1 263.3906 449.6686)" class="st0 st20">G</text>
	<text transform="matrix(18.4618 0 0 1 261.9766 447.4499)" class="st0 st19">E</text>
	<text transform="matrix(16.6929 0 0 1 262.3438 445.2155)" class="st0 st17">D</text>
	<text transform="matrix(16.3148 0 0 1 263.4531 442.9499)" class="st0 st21">C</text>
	<text transform="matrix(6.4515 0 0 1 262.0078 440.9733)" class="st0 st22">P</text>
	<text transform="matrix(3.5749 0 0 1 262.1484 436.5046)" class="st0 st23">R</text>
	<text transform="matrix(1.7808 0 0 1 261.8906 429.7936)" class="st0 st24">L</text>
	<text transform="matrix(18.7746 0 0 1 281.3672 456.1608)" class="st0 st25">Y</text>
	<text transform="matrix(19.2543 0 0 1 281.2031 454.3874)" class="st0 st25">V</text>
	<text transform="matrix(20.6407 0 0 1 279.6172 452.364)" class="st0 st25">D</text>
	<text transform="matrix(6.8297 0 0 1 281.4609 450.3483)" class="st0 st26">T</text>
	<text transform="matrix(6.2989 0 0 1 280.9688 446.3249)" class="st0 st27">Q</text>
	<text transform="matrix(8.7172 0 0 1 279.1562 442.5124)" class="st0 st28">L</text>
	<text transform="matrix(4.4652 0 0 1 279.2812 438.4655)" class="st0 st29">P</text>
	<text transform="matrix(3.879 0 0 1 280.6641 432.528)" class="st0 st30">G</text>
	<text transform="matrix(2.6537 0 0 1 281.4688 426.8249)" class="st0 st31">A</text>
	<text transform="matrix(11.4914 0 0 1 296.9609 456.1686)" class="st0 st32">N</text>
	<text transform="matrix(10.9109 0 0 1 297.0391 453.4499)" class="st0 st33">K</text>
	<text transform="matrix(13.0364 0 0 1 296.375 450.7311)" class="st0 st32">F</text>
	<text transform="matrix(11.1177 0 0 1 296.8906 447.7702)" class="st0 st32">D</text>
	<text transform="matrix(10.1436 0 0 1 298.7422 445.0436)" class="st0 st32">A</text>
	<text transform="matrix(2.5374 0 0 1 304.7969 442.3327)" class="st0 st34">I</text>
	<text transform="matrix(2.5132 0 0 1 296.4375 436.6608)" class="st0 st35">L</text>
	<text transform="matrix(1.0345 0 0 1 296.5312 425.5436)" class="st0 st36">E</text>
	<text transform="matrix(13.0214 0 0 1 316 456.1608)" class="st0 st37">T</text>
	<text transform="matrix(12.9782 0 0 1 313.9688 453.7155)" class="st0 st37">R</text>
	<text transform="matrix(14.2187 0 0 1 313.8203 451.2702)" class="st0 st37">P</text>
	<text transform="matrix(12.7371 0 0 1 314.3203 448.5827)" class="st0 st37">K</text>
	<text transform="matrix(12.6757 0 0 1 315.2812 446.1061)" class="st0 st38">C</text>
	<text transform="matrix(11.8412 0 0 1 316.0156 443.4577)" class="st0 st37">A</text>
	<text transform="matrix(3.1337 0 0 1 316.0859 441.0124)" class="st0 st39">W</text>
	<text transform="matrix(2.8738 0 0 1 315.2109 435.7233)" class="st0 st40">G</text>
	<text transform="matrix(0.9571 0 0 1 315.5156 426.8952)" class="st0 st41">Q</text>
	<text transform="matrix(22.0201 0 0 1 331.5 456.1686)" class="st0 st42">N</text>
	<text transform="matrix(18.0546 0 0 1 331.9531 454.4421)" class="st0 st42">M</text>
	<text transform="matrix(27.2805 0 0 1 330.9844 452.489)" class="st0 st42">L</text>
	<text transform="matrix(24.9806 0 0 1 330.9219 450.5358)" class="st0 st42">F</text>
	<text transform="matrix(21.304 0 0 1 331.4453 448.5749)" class="st0 st42">D</text>
	<text transform="matrix(19.4366 0 0 1 333.2891 446.6061)" class="st0 st42">A</text>
	<text transform="matrix(6.8269 0 0 1 331.5938 444.653)" class="st0 st43">K</text>
	<text transform="matrix(3.7789 0 0 1 333.1875 440.739)" class="st0 st44">Y</text>
	<text transform="matrix(3.8754 0 0 1 333.0234 434.864)" class="st0 st44">V</text>
	<text transform="matrix(1.342 0 0 1 339.3438 429.2311)" class="st0 st45">I</text>
	<text transform="matrix(23.491 0 0 1 348.7891 456.1608)" class="st0 st46">N</text>
	<text transform="matrix(19.2614 0 0 1 349.2188 454.3249)" class="st0 st46">M</text>
	<text transform="matrix(29.1052 0 0 1 348.2578 452.489)" class="st0 st46">L</text>
	<text transform="matrix(23.492 0 0 1 348.6875 450.653)" class="st0 st46">H</text>
	<text transform="matrix(22.727 0 0 1 348.7109 448.8093)" class="st0 st46">D</text>
	<text transform="matrix(6.5974 0 0 1 350.4688 446.9733)" class="st0 st47">Y</text>
	<text transform="matrix(6.7659 0 0 1 350.2891 443.0593)" class="st0 st47">V</text>
	<text transform="matrix(6.9017 0 0 1 349.7656 439.3093)" class="st0 st48">G</text>
	<text transform="matrix(2.76 0 0 1 350.6328 435.6999)" class="st0 st49">W</text>
	<text transform="matrix(2.1743 0 0 1 350.5625 429.9421)" class="st0 st50">A</text>
	<text transform="matrix(7.6023 0 0 1 367.3438 455.9811)" class="st0 st51">Q</text>
	<text transform="matrix(9.6282 0 0 1 365.4688 452.903)" class="st0 st52">F</text>
	<text transform="matrix(8.0317 0 0 1 367.1094 449.3249)" class="st0 st53">C</text>
	<text transform="matrix(7.4917 0 0 1 367.8438 445.8718)" class="st0 st52">A</text>
	<text transform="matrix(3.0997 0 0 1 367.7344 442.5983)" class="st0 st54">Y</text>
	<text transform="matrix(3.4078 0 0 1 365.7969 435.5749)" class="st0 st54">R</text>
	<text transform="matrix(0.3479 0 0 1 367.9062 428.7858)" class="st0 st55">W</text>
</g>
</svg>
