<?xml version="1.0" encoding="utf-8"?>
<!-- Generator: Adobe Illustrator 24.3.0, SVG Export Plug-In . SVG Version: 6.00 Build 0)  -->
<svg version="1.1" id="Layer_1" xmlns="http://www.w3.org/2000/svg" xmlns:xlink="http://www.w3.org/1999/xlink" x="0px" y="0px"
	 viewBox="0 0 595.28 841.89" style="enable-background:new 0 0 595.28 841.89;" xml:space="preserve">
<style type="text/css">
	.st0{font-family:'Helvetica-Narrow-Bold';}
	.st1{font-size:6.4168px;}
	.st2{font-size:6.0938px;}
	.st3{font-size:14.2489px;}
	.st4{font-size:10.146px;}
	.st5{font-size:9.635px;}
	.st6{font-size:10.1597px;}
	.st7{font-size:44.7585px;}
	.st8{font-size:13.5148px;}
	.st9{font-size:6.4274px;}
	.st10{font-size:14.2275px;}
	.st11{font-size:8.1289px;}
	.st12{font-size:8.1406px;}
	.st13{font-size:27.1745px;}
	.st14{font-size:7.6598px;}
	.st15{font-size:7.6599px;}
	.st16{font-size:15.872px;}
	.st17{font-size:16.7137px;}
	.st18{font-size:11.0967px;}
	.st19{font-size:11.0841px;}
	.st20{font-size:36.0326px;}
</style>
<g>
	<text transform="matrix(4.417 0 0 1 212.5469 457.7448)" class="st0 st1">Y</text>
	<text transform="matrix(3.1063 0 0 1 212.7266 452.2917)" class="st0 st1">W</text>
	<text transform="matrix(5.3418 0 0 1 211.5781 446.4636)" class="st0 st2">S</text>
	<text transform="matrix(6.2188 0 0 1 210.0703 441.1354)" class="st0 st1">L</text>
	<text transform="matrix(5.0189 0 0 1 210.5625 435.4323)" class="st0 st1">H</text>
	<text transform="matrix(5.6943 0 0 1 210 429.737)" class="st0 st1">F</text>
	<text transform="matrix(1.2771 0 0 1 219.5781 424.2761)" class="st0 st3">I</text>
	<text transform="matrix(2.8648 0 0 1 231.5469 457.7448)" class="st0 st4">V</text>
	<text transform="matrix(3.3785 0 0 1 230.7734 449.3776)" class="st0 st5">S</text>
	<text transform="matrix(2.603 0 0 1 230.3438 441.4089)" class="st0 st4">M</text>
	<text transform="matrix(1.7911 0 0 1 238.7656 433.0026)" class="st0 st6">I</text>
	<text transform="matrix(0.8915 0 0 1 229.2734 424.8229)" class="st0 st7">L</text>
	<text transform="matrix(3.1063 0 0 1 251.1172 457.7448)" class="st0 st1">W</text>
	<text transform="matrix(4.1157 0 0 1 249.5312 452.2917)" class="st0 st1">M</text>
	<text transform="matrix(6.2187 0 0 1 248.4609 446.5886)" class="st0 st1">L</text>
	<text transform="matrix(4.7661 0 0 1 249.1328 441.1354)" class="st0 st1">K</text>
	<text transform="matrix(5.6943 0 0 1 248.3828 435.4323)" class="st0 st1">F</text>
	<text transform="matrix(4.4309 0 0 1 251.0391 429.737)" class="st0 st1">A</text>
	<text transform="matrix(2.4086 0 0 1 249.9688 423.9948)" class="st0 st8">S</text>
	<text transform="matrix(4.8723 0 0 1 270.2188 457.7448)" class="st0 st1">T</text>
	<text transform="matrix(5.3202 0 0 1 267.7891 452.2917)" class="st0 st1">P</text>
	<text transform="matrix(6.2187 0 0 1 267.6484 446.5886)" class="st0 st1">L</text>
	<text transform="matrix(2.8312 0 0 1 277.1641 441.1354)" class="st0 st9">I</text>
	<text transform="matrix(5.3708 0 0 1 267.7578 435.4323)" class="st0 st1">E</text>
	<text transform="matrix(4.8561 0 0 1 268.1641 429.737)" class="st0 st1">D</text>
	<text transform="matrix(2.0842 0 0 1 269.3359 424.0261)" class="st0 st8">G</text>
	<text transform="matrix(4.417 0 0 1 289.3125 457.7448)" class="st0 st1">Y</text>
	<text transform="matrix(4.8723 0 0 1 289.4062 452.2917)" class="st0 st1">T</text>
	<text transform="matrix(5.3202 0 0 1 286.9844 446.5886)" class="st0 st1">P</text>
	<text transform="matrix(6.2187 0 0 1 286.8516 441.1354)" class="st0 st1">L</text>
	<text transform="matrix(5.0189 0 0 1 287.3359 435.4401)" class="st0 st1">H</text>
	<text transform="matrix(5.3707 0 0 1 286.9531 429.737)" class="st0 st1">E</text>
	<text transform="matrix(2.1902 0 0 1 287.1406 424.2761)" class="st0 st10">R</text>
	<text transform="matrix(3.8333 0 0 1 306.3281 457.737)" class="st0 st11">R</text>
	<text transform="matrix(4.1997 0 0 1 306.1719 451.0261)" class="st0 st11">P</text>
	<text transform="matrix(2.2353 0 0 1 315.5469 444.0729)" class="st0 st12">I</text>
	<text transform="matrix(3.9618 0 0 1 306.5312 437.3542)" class="st0 st11">H</text>
	<text transform="matrix(3.4977 0 0 1 308.6172 430.4011)" class="st0 st11">A</text>
	<text transform="matrix(1.0696 0 0 1 308.3203 423.6979)" class="st0 st13">V</text>
	<text transform="matrix(4.5298 0 0 1 327.5156 457.7448)" class="st0 st1">V</text>
	<text transform="matrix(5.3418 0 0 1 326.7422 452.1589)" class="st0 st2">S</text>
	<text transform="matrix(5.3202 0 0 1 325.3672 446.5886)" class="st0 st1">P</text>
	<text transform="matrix(6.2187 0 0 1 325.2344 441.1354)" class="st0 st1">L</text>
	<text transform="matrix(4.7662 0 0 1 325.9141 435.4323)" class="st0 st1">K</text>
	<text transform="matrix(4.8561 0 0 1 325.75 429.737)" class="st0 st1">D</text>
	<text transform="matrix(2.2636 0 0 1 325.7188 424.2761)" class="st0 st10">H</text>
	<text transform="matrix(3.7002 0 0 1 346.8984 457.7448)" class="st0 st14">Y</text>
	<text transform="matrix(4.0816 0 0 1 347 451.4557)" class="st0 st15">T</text>
	<text transform="matrix(3.9927 0 0 1 345.1094 444.9479)" class="st0 st15">K</text>
	<text transform="matrix(4.4992 0 0 1 344.5312 438.4167)" class="st0 st15">E</text>
	<text transform="matrix(1.7747 0 0 1 346.1094 431.5964)" class="st0 st16">G</text>
	<text transform="matrix(2.1862 0 0 1 344.3594 418.862)" class="st0 st17">F</text>
	<text transform="matrix(1.6398 0 0 1 373.125 457.7448)" class="st0 st18">I</text>
	<text transform="matrix(2.5651 0 0 1 366.2031 448.9479)" class="st0 st19">A</text>
	<text transform="matrix(0.8067 0 0 1 365.8984 439.9167)" class="st0 st20">V</text>
	<text transform="matrix(1.1075 0 0 1 363.625 413.0495)" class="st0 st20">L</text>
</g>
</svg>
