<?xml version="1.0" encoding="utf-8"?>
<!-- Generator: Adobe Illustrator 24.3.0, SVG Export Plug-In . SVG Version: 6.00 Build 0)  -->
<svg version="1.1" id="Layer_1" xmlns="http://www.w3.org/2000/svg" xmlns:xlink="http://www.w3.org/1999/xlink" x="0px" y="0px"
	 viewBox="0 0 595.28 841.89" style="enable-background:new 0 0 595.28 841.89;" xml:space="preserve">
<style type="text/css">
	.st0{font-family:'Helvetica-Narrow-Bold';}
	.st1{font-size:6.2267px;}
	.st2{font-size:6.5564px;}
	.st3{font-size:6.5563px;}
	.st4{font-size:14.5065px;}
	.st5{font-size:30.4104px;}
	.st6{font-size:12.124px;}
	.st7{font-size:10.9475px;}
	.st8{font-size:106.7341px;}
	.st9{font-size:6.0644px;}
	.st10{font-size:6.0645px;}
	.st11{font-size:5.759px;}
	.st12{font-size:13.5192px;}
	.st13{font-size:13.5191px;}
	.st14{font-size:20.9738px;}
	.st15{font-size:30.4514px;}
	.st16{font-size:9.0894px;}
	.st17{font-size:9.0895px;}
	.st18{font-size:30.0487px;}
	.st19{font-size:51.0808px;}
	.st20{font-size:5.2691px;}
	.st21{font-size:4.7577px;}
	.st22{font-size:5.2765px;}
	.st23{font-size:11.3298px;}
	.st24{font-size:18.5876px;}
	.st25{font-size:6.0433px;}
	.st26{font-size:6.3643px;}
	.st27{font-size:6.3711px;}
	.st28{font-size:21.8733px;}
	.st29{font-size:20.773px;}
	.st30{font-size:6.5673px;}
	.st31{font-size:4.9692px;}
	.st32{font-size:4.9693px;}
	.st33{font-size:11.3287px;}
	.st34{font-size:11.3286px;}
	.st35{font-size:10.7575px;}
	.st36{font-size:7.3517px;}
	.st37{font-size:16.0972px;}
	.st38{font-size:16.0973px;}
	.st39{font-size:33.5884px;}
</style>
<g>
	<text transform="matrix(4.6762 0 0 1 211.4062 471.4767)" class="st0 st1">S</text>
	<text transform="matrix(5.4443 0 0 1 210.0625 465.9455)" class="st0 st2">L</text>
	<text transform="matrix(4.0466 0 0 1 211.5703 460.1721)" class="st0 st1">G</text>
	<text transform="matrix(4.9851 0 0 1 210 454.6408)" class="st0 st3">F</text>
	<text transform="matrix(1.9215 0 0 1 210.3281 448.9767)" class="st0 st4">R</text>
	<text transform="matrix(0.8995 0 0 1 210.6719 437.4221)" class="st0 st5">K</text>
	<text transform="matrix(2.1446 0 0 1 229.375 471.6017)" class="st0 st6">V</text>
	<text transform="matrix(2.1272 0 0 1 229.1406 461.4064)" class="st0 st7">Q</text>
	<text transform="matrix(0.2611 0 0 1 227.6016 452.2267)" class="st0 st8">R</text>
	<text transform="matrix(4.5962 0 0 1 244.875 471.6096)" class="st0 st9">R</text>
	<text transform="matrix(5.0355 0 0 1 244.7344 466.4221)" class="st0 st10">P</text>
	<text transform="matrix(4.3753 0 0 1 246.1094 460.8908)" class="st0 st11">G</text>
	<text transform="matrix(1.7474 0 0 1 245.5781 455.5627)" class="st0 st12">M</text>
	<text transform="matrix(2.0618 0 0 1 245.0625 444.9611)" class="st0 st13">D</text>
	<text transform="matrix(0.85 0 0 1 246.9922 434.3439)" class="st0 st14">W</text>
	<text transform="matrix(4.2655 0 0 1 264.1797 471.6096)" class="st0 st3">T</text>
	<text transform="matrix(4.6762 0 0 1 263.2344 465.8205)" class="st0 st1">S</text>
	<text transform="matrix(4.6577 0 0 1 262.0078 460.2971)" class="st0 st2">P</text>
	<text transform="matrix(4.3943 0 0 1 262.3203 454.6408)" class="st0 st3">H</text>
	<text transform="matrix(1.8858 0 0 1 262.4922 448.9767)" class="st0 st4">K</text>
	<text transform="matrix(0.5345 0 0 1 270.25 437.4221)" class="st0 st15">I</text>
	<text transform="matrix(1.9614 0 0 1 281.5391 471.6096)" class="st0 st16">W</text>
	<text transform="matrix(2.7979 0 0 1 281.4688 464.2346)" class="st0 st17">A</text>
	<text transform="matrix(0.9276 0 0 1 279.4219 456.633)" class="st0 st18">R</text>
	<text transform="matrix(0.3187 0 0 1 287.5156 434.0314)" class="st0 st19">I</text>
	<text transform="matrix(5.29 0 0 1 296.6953 471.6017)" class="st0 st20">R</text>
	<text transform="matrix(4.8947 0 0 1 298.2422 466.5705)" class="st0 st21">Q</text>
	<text transform="matrix(4.4833 0 0 1 297.3984 462.0783)" class="st0 st20">M</text>
	<text transform="matrix(3.0848 0 0 1 304.7969 457.3127)" class="st0 st22">I</text>
	<text transform="matrix(6.2029 0 0 1 296.3672 452.5471)" class="st0 st20">F</text>
	<text transform="matrix(2.2239 0 0 1 297.9453 447.5705)" class="st0 st23">G</text>
	<text transform="matrix(1.9203 0 0 1 296.4375 438.2502)" class="st0 st24">L</text>
	<text transform="matrix(4.8182 0 0 1 315.0547 471.4846)" class="st0 st25">S</text>
	<text transform="matrix(4.2983 0 0 1 314.3125 466.2346)" class="st0 st26">K</text>
	<text transform="matrix(2.5549 0 0 1 322.0703 460.6174)" class="st0 st27">I</text>
	<text transform="matrix(4.8436 0 0 1 313.8047 455.0002)" class="st0 st26">E</text>
	<text transform="matrix(1.2743 0 0 1 313.9688 449.3752)" class="st0 st28">R</text>
	<text transform="matrix(1.213 0 0 1 315.2109 432.3752)" class="st0 st29">G</text>
	<text transform="matrix(4.6577 0 0 1 331.1016 471.6096)" class="st0 st3">P</text>
	<text transform="matrix(4.3943 0 0 1 331.5156 465.9455)" class="st0 st2">N</text>
	<text transform="matrix(4.1724 0 0 1 331.5938 460.2971)" class="st0 st2">K</text>
	<text transform="matrix(2.4785 0 0 1 339.3438 454.6408)" class="st0 st30">I</text>
	<text transform="matrix(1.9215 0 0 1 331.25 448.9767)" class="st0 st4">R</text>
	<text transform="matrix(1.1738 0 0 1 330.9844 437.4221)" class="st0 st5">L</text>
	<text transform="matrix(5.1021 0 0 1 350.4688 471.6017)" class="st0 st31">Y</text>
	<text transform="matrix(5.6092 0 0 1 348.5234 467.2736)" class="st0 st31">R</text>
	<text transform="matrix(5.7977 0 0 1 348.6953 462.7033)" class="st0 st32">H</text>
	<text transform="matrix(5.1178 0 0 1 350.5625 458.1252)" class="st0 st31">A</text>
	<text transform="matrix(2.5431 0 0 1 348.7812 453.5549)" class="st0 st33">N</text>
	<text transform="matrix(2.4147 0 0 1 348.8672 444.4064)" class="st0 st34">K</text>
	<text transform="matrix(2.3423 0 0 1 349.7656 435.0627)" class="st0 st35">G</text>
	<text transform="matrix(3.4487 0 0 1 367.7422 471.6096)" class="st0 st36">Y</text>
	<text transform="matrix(3.4592 0 0 1 367.8438 465.5314)" class="st0 st36">A</text>
	<text transform="matrix(1.7316 0 0 1 365.7969 459.2111)" class="st0 st37">R</text>
	<text transform="matrix(2.2174 0 0 1 365.5312 446.5705)" class="st0 st38">L</text>
	<text transform="matrix(0.8144 0 0 1 366.1406 433.9377)" class="st0 st39">K</text>
</g>
</svg>
