<?xml version="1.0" encoding="utf-8"?>
<!-- Generator: Adobe Illustrator 24.3.0, SVG Export Plug-In . SVG Version: 6.00 Build 0)  -->
<svg version="1.1" id="Layer_1" xmlns="http://www.w3.org/2000/svg" xmlns:xlink="http://www.w3.org/1999/xlink" x="0px" y="0px"
	 viewBox="0 0 595.28 841.89" style="enable-background:new 0 0 595.28 841.89;" xml:space="preserve">
<style type="text/css">
	.st0{font-family:'Helvetica-Narrow-Bold';}
	.st1{font-size:10px;}
	.st2{font-size:0.2046px;}
	.st3{font-size:1.0019px;}
	.st4{font-size:0.1914px;}
	.st5{font-size:0.192px;}
	.st6{font-size:0.9841px;}
	.st7{font-size:2.436px;}
	.st8{font-size:3.3585px;}
	.st9{font-size:3.1893px;}
	.st10{font-size:9.6925px;}
	.st11{font-size:43.7406px;}
	.st12{font-size:0.2161px;}
	.st13{font-size:0.3915px;}
	.st14{font-size:0.5564px;}
	.st15{font-size:0.5548px;}
	.st16{font-size:0.1108px;}
	.st17{font-size:0.5634px;}
	.st18{font-size:0.7142px;}
	.st19{font-size:0.0568px;}
	.st20{font-size:0.4057px;}
	.st21{font-size:0.8548px;}
	.st22{font-size:0.2053px;}
	.st23{font-size:2.3428px;}
	.st24{font-size:2.34px;}
	.st25{font-size:5.0064px;}
	.st26{font-size:7.6729px;}
	.st27{font-size:16.2041px;}
</style>
<g>
	<text transform="matrix(1 0 0 1 210.0781 446.8527)" class="st0 st1">M</text>
	<text transform="matrix(1 0 0 1 218.5 445.9855)" class="st0 st1">I</text>
	<text transform="matrix(1 0 0 1 211.4766 444.8762)" class="st0 st2">Y</text>
	<text transform="matrix(1 0 0 1 209.4688 443.798)" class="st0 st2">H</text>
	<text transform="matrix(39.8273 0 0 1 209 442.7043)" class="st0 st3">L</text>
	<text transform="matrix(1 0 0 1 229.2656 450.1808)" class="st0 st4">M</text>
	<text transform="matrix(94.799 0 0 1 237.6953 449.0949)" class="st0 st5">I</text>
	<text transform="matrix(1 0 0 1 228.125 447.7902)" class="st0 st4">F</text>
	<text transform="matrix(31.7688 0 0 1 230.7656 446.7199)" class="st0 st6">T</text>
	<text transform="matrix(13.3632 0 0 1 229.6953 444.9308)" class="st0 st7">S</text>
	<text transform="matrix(8.6548 0 0 1 230.4609 442.1887)" class="st0 st8">V</text>
	<text transform="matrix(8.832 0 0 1 229.875 438.6496)" class="st0 st9">G</text>
	<text transform="matrix(2.9334 0 0 1 230.7656 435.4933)" class="st0 st10">A</text>
	<text transform="matrix(0.7805 0 0 1 228.3203 427.5012)" class="st0 st11">P</text>
	<text transform="matrix(1 0 0 1 248.8906 446.0012)" class="st0 st12">S</text>
	<text transform="matrix(1 0 0 1 247.3828 444.8762)" class="st0 st13">L</text>
	<text transform="matrix(32.7045 0 0 1 256.8828 443.5168)" class="st0 st14">I</text>
	<text transform="matrix(51.2461 0 0 1 249.9688 442.1574)" class="st0 st15">A</text>
	<text transform="matrix(1 0 0 1 269.1562 445.4543)" class="st0 st16">A</text>
	<text transform="matrix(60.5975 0 0 1 266.7031 444.5012)" class="st0 st17">P</text>
	<text transform="matrix(55.8722 0 0 1 266.5781 443.1262)" class="st0 st18">L</text>
	<text transform="matrix(1 0 0 1 306.4844 445.5168)" class="st0 st1">S</text>
	<text transform="matrix(1 0 0 1 324.1406 445.8683)" class="st0 st19">L</text>
	<text transform="matrix(70.074 0 0 1 345.9375 444.5558)" class="st0 st20">A</text>
	<text transform="matrix(39.9387 0 0 1 343.4766 443.173)" class="st0 st21">P</text>
	<text transform="matrix(97.1044 0 0 1 365.2031 449.8527)" class="st0 st22">W</text>
	<text transform="matrix(1 0 0 1 364.8125 448.5168)" class="st0 st22">V</text>
	<text transform="matrix(7.7671 0 0 1 372.0469 447.423)" class="st0 st23">I</text>
	<text transform="matrix(12.1506 0 0 1 365.125 444.6965)" class="st0 st24">A</text>
	<text transform="matrix(5.2751 0 0 1 363.625 442.2121)" class="st0 st25">M</text>
	<text transform="matrix(7.9706 0 0 1 362.5469 437.5871)" class="st0 st25">L</text>
	<text transform="matrix(4.762 0 0 1 362.4688 432.9543)" class="st0 st26">F</text>
	<text transform="matrix(1.7491 0 0 1 365.0078 426.4152)" class="st0 st27">Y</text>
</g>
</svg>
