<?xml version="1.0" encoding="utf-8"?>
<!-- Generator: Adobe Illustrator 24.3.0, SVG Export Plug-In . SVG Version: 6.00 Build 0)  -->
<svg version="1.1" id="Layer_1" xmlns="http://www.w3.org/2000/svg" xmlns:xlink="http://www.w3.org/1999/xlink" x="0px" y="0px"
	 viewBox="0 0 595.28 841.89" style="enable-background:new 0 0 595.28 841.89;" xml:space="preserve">
<style type="text/css">
	.st0{font-family:'Helvetica-Narrow-Bold';}
	.st1{font-size:64.6335px;}
	.st2{font-size:64.6337px;}
	.st3{font-size:58.3756px;}
	.st4{font-size:61.3844px;}
	.st5{font-size:170.6529px;}
	.st6{font-size:170.4154px;}
</style>
<g>
	<text transform="matrix(0.3923 0 0 1 213.2734 471.7194)" class="st0 st1">Y</text>
	<text transform="matrix(0.5057 0 0 1 211 424.4304)" class="st0 st2">F</text>
	<text transform="matrix(0.3989 0 0 1 230.1406 468.3366)" class="st0 st3">Q</text>
	<text transform="matrix(0.4105 0 0 1 229.8438 423.2585)" class="st0 st4">G</text>
	<text transform="matrix(0.0954 0 0 1 253.9766 471.7272)" class="st0 st5">I</text>
	<text transform="matrix(0.5523 0 0 1 262.8906 471.7194)" class="st0 st1">L</text>
	<text transform="matrix(0.4769 0 0 1 262.9844 424.4304)" class="st0 st2">E</text>
	<text transform="matrix(0.4105 0 0 1 281.6641 470.5554)" class="st0 st4">G</text>
	<text transform="matrix(0.4769 0 0 1 280.2578 424.4304)" class="st0 st2">E</text>
	<text transform="matrix(0.1918 0 0 1 297.3672 471.7194)" class="st0 st6">F</text>
	<text transform="matrix(0.4023 0 0 1 316.75 471.7194)" class="st0 st1">V</text>
	<text transform="matrix(0.4105 0 0 1 316.2188 423.2585)" class="st0 st4">G</text>
	<text transform="matrix(0.4327 0 0 1 334.2812 471.7194)" class="st0 st1">T</text>
	<text transform="matrix(0.5057 0 0 1 331.9219 424.4304)" class="st0 st2">F</text>
	<text transform="matrix(0.4327 0 0 1 351.5469 471.7194)" class="st0 st1">T</text>
	<text transform="matrix(0.4105 0 0 1 350.7656 423.2585)" class="st0 st4">G</text>
	<text transform="matrix(0.4023 0 0 1 368.5703 471.7194)" class="st0 st1">V</text>
	<text transform="matrix(0.5523 0 0 1 366.5312 424.4304)" class="st0 st2">L</text>
</g>
</svg>
