<?xml version="1.0" encoding="utf-8"?>
<!-- Generator: Adobe Illustrator 24.3.0, SVG Export Plug-In . SVG Version: 6.00 Build 0)  -->
<svg version="1.1" id="Layer_1" xmlns="http://www.w3.org/2000/svg" xmlns:xlink="http://www.w3.org/1999/xlink" x="0px" y="0px"
	 viewBox="0 0 595.28 841.89" style="enable-background:new 0 0 595.28 841.89;" xml:space="preserve">
<style type="text/css">
	.st0{font-family:'Helvetica-Narrow-Bold';}
	.st1{font-size:15.3229px;}
	.st2{font-size:30.4233px;}
	.st3{font-size:65.4623px;}
	.st4{font-size:15.0178px;}
	.st5{font-size:16.6272px;}
	.st6{font-size:88.7079px;}
	.st7{font-size:8.3875px;}
	.st8{font-size:7.9748px;}
	.st9{font-size:8.8321px;}
	.st10{font-size:8.8421px;}
	.st11{font-size:8.8322px;}
	.st12{font-size:19.0544px;}
	.st13{font-size:7.2094px;}
	.st14{font-size:6.8474px;}
	.st15{font-size:6.8473px;}
	.st16{font-size:10.4548px;}
	.st17{font-size:9.9276px;}
	.st18{font-size:22.3291px;}
	.st19{font-size:22.2998px;}
	.st20{font-size:18.0983px;}
	.st21{font-size:12.0775px;}
	.st22{font-size:24.2627px;}
	.st23{font-size:25.5453px;}
	.st24{font-size:16.6517px;}
</style>
<g>
	<text transform="matrix(1.7853 0 0 1 210.6719 469.9748)" class="st0 st1">K</text>
	<text transform="matrix(0.8282 0 0 1 211.5703 457.631)" class="st0 st2">G</text>
	<text transform="matrix(0.4993 0 0 1 210 434.217)" class="st0 st3">F</text>
	<text transform="matrix(1.5507 0 0 1 229.1406 469.0998)" class="st0 st4">Q</text>
	<text transform="matrix(1.4207 0 0 1 228.3047 457.0529)" class="st0 st5">M</text>
	<text transform="matrix(0.4024 0 0 1 227.3438 444.1389)" class="st0 st6">L</text>
	<text transform="matrix(3.4715 0 0 1 245.9531 469.7873)" class="st0 st7">S</text>
	<text transform="matrix(2.9202 0 0 1 246.4219 462.2717)" class="st0 st8">Q</text>
	<text transform="matrix(3.4575 0 0 1 244.7266 455.4904)" class="st0 st9">P</text>
	<text transform="matrix(1.8409 0 0 1 252.9766 448.0139)" class="st0 st10">I</text>
	<text transform="matrix(3.7006 0 0 1 244.5469 440.7717)" class="st0 st11">F</text>
	<text transform="matrix(1.3646 0 0 1 246.6562 433.2873)" class="st0 st12">V</text>
	<text transform="matrix(3.6066 0 0 1 263.9219 469.967)" class="st0 st13">V</text>
	<text transform="matrix(4.2524 0 0 1 263.2344 463.717)" class="st0 st14">S</text>
	<text transform="matrix(4.2358 0 0 1 262.0078 457.7482)" class="st0 st13">P</text>
	<text transform="matrix(3.6798 0 0 1 263.3906 451.506)" class="st0 st15">G</text>
	<text transform="matrix(4.2759 0 0 1 261.9844 445.2873)" class="st0 st13">E</text>
	<text transform="matrix(3.8663 0 0 1 262.3438 439.1779)" class="st0 st13">D</text>
	<text transform="matrix(3.5275 0 0 1 264.1953 433.0607)" class="st0 st13">A</text>
	<text transform="matrix(3.1664 0 0 1 281.4609 469.9748)" class="st0 st9">T</text>
	<text transform="matrix(3.7006 0 0 1 279.1016 462.7326)" class="st0 st9">F</text>
	<text transform="matrix(3.1559 0 0 1 279.6172 455.4904)" class="st0 st9">D</text>
	<text transform="matrix(3.0853 0 0 1 280.7344 447.8498)" class="st0 st7">C</text>
	<text transform="matrix(2.8794 0 0 1 281.4688 440.7717)" class="st0 st9">A</text>
	<text transform="matrix(1.3646 0 0 1 281.2031 433.2873)" class="st0 st12">V</text>
	<text transform="matrix(2.487 0 0 1 298.4766 469.967)" class="st0 st16">V</text>
	<text transform="matrix(2.7557 0 0 1 296.9609 461.5998)" class="st0 st16">N</text>
	<text transform="matrix(2.5381 0 0 1 297.9375 452.8029)" class="st0 st17">G</text>
	<text transform="matrix(0.729 0 0 1 304.7969 444.6154)" class="st0 st18">I</text>
	<text transform="matrix(1.4657 0 0 1 296.3672 427.6467)" class="st0 st19">F</text>
	<text transform="matrix(2.0186 0 0 1 316.0859 469.9748)" class="st0 st9">W</text>
	<text transform="matrix(2.9439 0 0 1 315.75 462.7326)" class="st0 st9">V</text>
	<text transform="matrix(3.4716 0 0 1 315.0547 455.3107)" class="st0 st7">S</text>
	<text transform="matrix(4.0414 0 0 1 313.7109 448.0139)" class="st0 st9">L</text>
	<text transform="matrix(3.7006 0 0 1 313.6484 440.7717)" class="st0 st11">F</text>
	<text transform="matrix(1.3347 0 0 1 316.0156 433.2873)" class="st0 st12">A</text>
	<text transform="matrix(2.0186 0 0 1 333.3594 469.9748)" class="st0 st9">W</text>
	<text transform="matrix(3.4575 0 0 1 331.1016 462.7326)" class="st0 st9">P</text>
	<text transform="matrix(4.0415 0 0 1 330.9844 455.4904)" class="st0 st9">L</text>
	<text transform="matrix(3.0041 0 0 1 332.4844 447.8498)" class="st0 st7">G</text>
	<text transform="matrix(3.1559 0 0 1 331.4453 440.7717)" class="st0 st9">D</text>
	<text transform="matrix(1.4298 0 0 1 332.5547 432.9435)" class="st0 st20">C</text>
	<text transform="matrix(2.3855 0 0 1 348.6953 469.9748)" class="st0 st21">H</text>
	<text transform="matrix(1.2001 0 0 1 349.6094 459.9592)" class="st0 st22">S</text>
	<text transform="matrix(1.0385 0 0 1 349.7656 440.5217)" class="st0 st22">G</text>
	<text transform="matrix(1.2795 0 0 1 348.1875 421.7404)" class="st0 st23">F</text>
	<text transform="matrix(0.9775 0 0 1 374.1328 469.967)" class="st0 st24">I</text>
	<text transform="matrix(1.5295 0 0 1 367.8438 457.0529)" class="st0 st5">A</text>
	<text transform="matrix(0.2931 0 0 1 367.5703 444.1389)" class="st0 st6">V</text>
</g>
</svg>
