<?xml version="1.0" encoding="utf-8"?>
<!-- Generator: Adobe Illustrator 24.3.0, SVG Export Plug-In . SVG Version: 6.00 Build 0)  -->
<svg version="1.1" id="Layer_1" xmlns="http://www.w3.org/2000/svg" xmlns:xlink="http://www.w3.org/1999/xlink" x="0px" y="0px"
	 viewBox="0 0 595.28 841.89" style="enable-background:new 0 0 595.28 841.89;" xml:space="preserve">
<style type="text/css">
	.st0{font-family:'Helvetica-Narrow-Bold';}
	.st1{font-size:64.6365px;}
	.st2{font-size:64.6367px;}
	.st3{font-size:58.3748px;}
	.st4{font-size:153.9102px;}
	.st5{font-size:61.3873px;}
</style>
<g>
	<text transform="matrix(0.4497 0 0 1 213.7812 475.6432)" class="st0 st1">V</text>
	<text transform="matrix(0.4982 0 0 1 212 428.3464)" class="st0 st2">H</text>
	<text transform="matrix(0.4459 0 0 1 232.7188 472.2604)" class="st0 st3">Q</text>
	<text transform="matrix(0.6174 0 0 1 230.7031 428.3464)" class="st0 st2">L</text>
	<text transform="matrix(0.5282 0 0 1 250.0312 475.6432)" class="st0 st1">P</text>
	<text transform="matrix(0.4399 0 0 1 252.4766 428.3464)" class="st0 st2">A</text>
	<text transform="matrix(0.5282 0 0 1 269.2266 475.6432)" class="st0 st1">P</text>
	<text transform="matrix(0.4399 0 0 1 271.6719 428.3464)" class="st0 st2">A</text>
	<text transform="matrix(0.1691 0 0 1 290.3047 466.7136)" class="st0 st4">Q</text>
	<text transform="matrix(0.6174 0 0 1 307.4766 475.6432)" class="st0 st1">L</text>
	<text transform="matrix(0.4589 0 0 1 309.1641 427.1823)" class="st0 st5">G</text>
	<text transform="matrix(0.4837 0 0 1 329.2422 475.6432)" class="st0 st1">T</text>
	<text transform="matrix(0.4086 0 0 1 327.7578 428.3464)" class="st0 st2">M</text>
	<text transform="matrix(0.4459 0 0 1 347.8828 472.2604)" class="st0 st3">Q</text>
	<text transform="matrix(0.4399 0 0 1 348.4453 428.3464)" class="st0 st2">A</text>
	<text transform="matrix(0.4385 0 0 1 367.5234 475.6432)" class="st0 st1">Y</text>
	<text transform="matrix(0.4497 0 0 1 367.3359 428.3464)" class="st0 st2">V</text>
</g>
</svg>
