<?xml version="1.0" encoding="utf-8"?>
<!-- Generator: Adobe Illustrator 24.3.0, SVG Export Plug-In . SVG Version: 6.00 Build 0)  -->
<svg version="1.1" id="Layer_1" xmlns="http://www.w3.org/2000/svg" xmlns:xlink="http://www.w3.org/1999/xlink" x="0px" y="0px"
	 viewBox="0 0 595.28 841.89" style="enable-background:new 0 0 595.28 841.89;" xml:space="preserve">
<style type="text/css">
	.st0{font-family:'Helvetica-Narrow-Bold';}
	.st1{font-size:0.2061px;}
	.st2{font-size:0.849px;}
	.st3{font-size:1.4888px;}
	.st4{font-size:2.2487px;}
	.st5{font-size:0.8836px;}
	.st6{font-size:3.7278px;}
	.st7{font-size:136.2975px;}
	.st8{font-size:0.274px;}
	.st9{font-size:0.2381px;}
	.st10{font-size:10px;}
	.st11{font-size:0.2189px;}
	.st12{font-size:0.3374px;}
	.st13{font-size:3.0178px;}
	.st14{font-size:4.6754px;}
	.st15{font-size:5.5024px;}
	.st16{font-size:7.7065px;}
	.st17{font-size:14.3475px;}
	.st18{font-size:25.634px;}
</style>
<g>
	<text transform="matrix(1 0 0 1 209.2812 462.5422)" class="st0 st1">R</text>
	<text transform="matrix(47.0004 0 0 1 209 461.4484)" class="st0 st2">L</text>
	<text transform="matrix(12.2229 0 0 1 218.5 459.675)" class="st0 st3">I</text>
	<text transform="matrix(14.476 0 0 1 210.4922 457.6437)" class="st0 st4">S</text>
	<text transform="matrix(39.0013 0 0 1 228.2812 467.0734)" class="st0 st5">E</text>
	<text transform="matrix(7.627 0 0 1 230.7734 465.4875)" class="st0 st6">A</text>
	<text transform="matrix(0.2505 0 0 1 228.3203 461.9719)" class="st0 st7">P</text>
	<text transform="matrix(1 0 0 1 247.3828 462.3078)" class="st0 st8">L</text>
	<text transform="matrix(76.4146 0 0 1 314.4688 461.8078)" class="st0 st9">I</text>
	<text transform="matrix(1 0 0 1 333.6641 463.3703)" class="st0 st10">I</text>
	<text transform="matrix(1 0 0 1 325.6406 462.3)" class="st0 st11">S</text>
	<text transform="matrix(1 0 0 1 324.1406 461.1828)" class="st0 st12">L</text>
	<text transform="matrix(9.4214 0 0 1 365.125 467.9562)" class="st0 st13">A</text>
	<text transform="matrix(7.815 0 0 1 362.4688 464.7453)" class="st0 st14">F</text>
	<text transform="matrix(4.7996 0 0 1 363.625 460.3469)" class="st0 st15">M</text>
	<text transform="matrix(3.7717 0 0 1 364.8281 455.4875)" class="st0 st16">V</text>
	<text transform="matrix(1.2683 0 0 1 372.0469 448.9016)" class="st0 st17">I</text>
	<text transform="matrix(1.5567 0 0 1 362.5469 437.6125)" class="st0 st18">L</text>
</g>
</svg>
