<?xml version="1.0" encoding="utf-8"?>
<!-- Generator: Adobe Illustrator 24.3.0, SVG Export Plug-In . SVG Version: 6.00 Build 0)  -->
<svg version="1.1" id="Layer_1" xmlns="http://www.w3.org/2000/svg" xmlns:xlink="http://www.w3.org/1999/xlink" x="0px" y="0px"
	 viewBox="0 0 595.28 841.89" style="enable-background:new 0 0 595.28 841.89;" xml:space="preserve">
<style type="text/css">
	.st0{font-family:'Helvetica-Narrow-Bold';}
	.st1{font-size:15.3655px;}
	.st2{font-size:48.8843px;}
	.st3{font-size:15.3864px;}
	.st4{font-size:46.4273px;}
	.st5{font-size:12.3246px;}
	.st6{font-size:12.3247px;}
	.st7{font-size:24.7327px;}
	.st8{font-size:26.0396px;}
	.st9{font-size:12.3407px;}
	.st10{font-size:11.7046px;}
	.st11{font-size:10.1159px;}
	.st12{font-size:17.5742px;}
	.st13{font-size:36.5423px;}
	.st14{font-size:55.5104px;}
</style>
<g>
	<text transform="matrix(1.8917 0 0 1 212.1719 463.0163)" class="st0 st1">V</text>
	<text transform="matrix(1.7188 0 0 1 210.9688 451.196)" class="st0 st1">M</text>
	<text transform="matrix(2.2429 0 0 1 210 439.1335)" class="st0 st1">E</text>
	<text transform="matrix(0.6256 0 0 1 210.5703 427.0554)" class="st0 st2">K</text>
	<text transform="matrix(2.597 0 0 1 229.0938 463.0163)" class="st0 st1">L</text>
	<text transform="matrix(1.1827 0 0 1 238.5938 451.1882)" class="st0 st3">I</text>
	<text transform="matrix(1.8504 0 0 1 231.6641 439.1335)" class="st0 st1">A</text>
	<text transform="matrix(0.7011 0 0 1 230.5938 426.0944)" class="st0 st4">S</text>
	<text transform="matrix(2.2997 0 0 1 250.75 463.0163)" class="st0 st5">Y</text>
	<text transform="matrix(2.1428 0 0 1 249.3516 453.4069)" class="st0 st5">M</text>
	<text transform="matrix(2.4815 0 0 1 248.9609 443.5397)" class="st0 st6">K</text>
	<text transform="matrix(2.3069 0 0 1 250.8594 433.6882)" class="st0 st6">A</text>
	<text transform="matrix(1.3162 0 0 1 249.7891 423.3054)" class="st0 st7">S</text>
	<text transform="matrix(2.5283 0 0 1 267.7656 463.0163)" class="st0 st5">R</text>
	<text transform="matrix(2.7699 0 0 1 267.6094 453.4069)" class="st0 st6">P</text>
	<text transform="matrix(2.4815 0 0 1 268.1562 443.5397)" class="st0 st6">K</text>
	<text transform="matrix(2.6131 0 0 1 267.9609 433.6882)" class="st0 st6">H</text>
	<text transform="matrix(1.0919 0 0 1 270.0547 423.8366)" class="st0 st8">A</text>
	<text transform="matrix(2.6131 0 0 1 287.25 463.0163)" class="st0 st5">N</text>
	<text transform="matrix(2.1428 0 0 1 287.7422 453.4069)" class="st0 st6">M</text>
	<text transform="matrix(1.4745 0 0 1 296.1719 443.5554)" class="st0 st9">I</text>
	<text transform="matrix(2.4066 0 0 1 288.3516 433.4616)" class="st0 st10">G</text>
	<text transform="matrix(1.1163 0 0 1 288.9453 423.8366)" class="st0 st8">V</text>
	<text transform="matrix(2.3584 0 0 1 308.1406 463.0163)" class="st0 st5">V</text>
	<text transform="matrix(2.7811 0 0 1 307.3672 453.1647)" class="st0 st10">S</text>
	<text transform="matrix(2.1428 0 0 1 306.9453 443.5397)" class="st0 st6">M</text>
	<text transform="matrix(3.2378 0 0 1 305.8672 433.6882)" class="st0 st6">L</text>
	<text transform="matrix(1.311 0 0 1 305.9922 423.8366)" class="st0 st8">P</text>
	<text transform="matrix(1.9704 0 0 1 327.7109 463.0241)" class="st0 st11">W</text>
	<text transform="matrix(3.0906 0 0 1 327.6172 454.8991)" class="st0 st11">T</text>
	<text transform="matrix(3.3747 0 0 1 325.1875 446.5319)" class="st0 st11">P</text>
	<text transform="matrix(3.1836 0 0 1 325.6406 438.4069)" class="st0 st11">N</text>
	<text transform="matrix(2.6107 0 0 1 326.1328 430.0397)" class="st0 st11">M</text>
	<text transform="matrix(3.1836 0 0 1 325.5469 421.9147)" class="st0 st11">H</text>
	<text transform="matrix(2.5368 0 0 1 346.8125 463.0163)" class="st0 st5">T</text>
	<text transform="matrix(2.5283 0 0 1 344.5391 453.4069)" class="st0 st6">R</text>
	<text transform="matrix(2.6131 0 0 1 344.7344 443.5397)" class="st0 st6">H</text>
	<text transform="matrix(2.4066 0 0 1 345.9297 433.4616)" class="st0 st10">G</text>
	<text transform="matrix(1.3162 0 0 1 345.75 423.3054)" class="st0 st7">S</text>
	<text transform="matrix(2.2706 0 0 1 363.4453 463.0163)" class="st0 st12">L</text>
	<text transform="matrix(0.9999 0 0 1 363.3672 449.4616)" class="st0 st13">F</text>
	<text transform="matrix(0.3591 0 0 1 366.1016 422.3522)" class="st0 st14">W</text>
</g>
</svg>
