<?xml version="1.0" encoding="utf-8"?>
<!-- Generator: Adobe Illustrator 24.3.0, SVG Export Plug-In . SVG Version: 6.00 Build 0)  -->
<svg version="1.1" xmlns="http://www.w3.org/2000/svg" xmlns:xlink="http://www.w3.org/1999/xlink" x="0px" y="0px"
	 viewBox="0 0 274 146" style="enable-background:new 0 0 274 146;" xml:space="preserve">
<style type="text/css">
	.st0{font-family:'Helvetica';}
	.st1{font-size:1.0664px;}
	.st2{font-size:1.4466px;}
	.st3{font-size:1.5102px;}
	.st4{font-size:1.8261px;}
	.st5{font-size:8.2638px;}
	.st6{font-size:8.891px;}
	.st7{font-size:1.4954px;}
	.st8{font-size:2.8475px;}
	.st9{font-size:3.69px;}
	.st10{font-size:4.0681px;}
	.st11{font-size:146.9965px;}
</style>
<g id="Layer_2">
</g>
<g id="Layer_1">
	<g transform="matrix(1 0 0 1 316.9531 463.7551)">
		<text transform="matrix(27.2578 0 0 1 29.2656 121.9746)" class="st0 st1">V</text>
		<text transform="matrix(12.579 0 0 1 36.5078 120.123)" class="st0 st2">I</text>
		<text transform="matrix(26.4239 0 0 1 27 117.9668)" class="st0 st3">L</text>
		<text transform="matrix(14.462 0 0 1 28.0781 115.9512)" class="st0 st4">M</text>
		<text transform="matrix(3.9391 0 0 1 28.5078 113.5605)" class="st0 st5">S</text>
		<text transform="matrix(3.5165 0 0 1 29.5625 106.4434)" class="st0 st6">T</text>
		<text transform="matrix(19.0131 0 0 1 48.7812 120.0918)" class="st0 st7">A</text>
		<text transform="matrix(12.1028 0 0 1 46.3047 118.0996)" class="st0 st8">E</text>
		<text transform="matrix(8.8218 0 0 1 47.6992 114.8184)" class="st0 st9">S</text>
		<text transform="matrix(7.6597 0 0 1 46.7031 111.1621)" class="st0 st10">D</text>
		<text transform="matrix(0.1928 0 0 1 163.8203 123.0371)" class="st0 st11">Y</text>
	</g>
</g>
</svg>
