<?xml version="1.0" encoding="utf-8"?>
<!-- Generator: Adobe Illustrator 24.3.0, SVG Export Plug-In . SVG Version: 6.00 Build 0)  -->
<svg version="1.1" id="Layer_1" xmlns="http://www.w3.org/2000/svg" xmlns:xlink="http://www.w3.org/1999/xlink" x="0px" y="0px"
	 viewBox="0 0 595.28 841.89" style="enable-background:new 0 0 595.28 841.89;" xml:space="preserve">
<style type="text/css">
	.st0{font-family:'Helvetica-Narrow-Bold';}
	.st1{font-size:10px;}
	.st2{font-size:0.3719px;}
	.st3{font-size:0.7221px;}
	.st4{font-size:1.0759px;}
	.st5{font-size:0.5946px;}
	.st6{font-size:0.5677px;}
	.st7{font-size:0.5378px;}
	.st8{font-size:2.583px;}
	.st9{font-size:8.5483px;}
	.st10{font-size:74.1695px;}
	.st11{font-size:0.1998px;}
	.st12{font-size:0.5185px;}
	.st13{font-size:0.8372px;}
	.st14{font-size:0.0712px;}
	.st15{font-size:0.4146px;}
	.st16{font-size:1.4553px;}
	.st17{font-size:1.5325px;}
	.st18{font-size:0.1096px;}
	.st19{font-size:0.3676px;}
	.st20{font-size:0.6561px;}
	.st21{font-size:0.6928px;}
	.st22{font-size:0.3331px;}
	.st23{font-size:0.6995px;}
	.st24{font-size:0.6996px;}
	.st25{font-size:0.1309px;}
	.st26{font-size:0.4862px;}
	.st27{font-size:0.8932px;}
	.st28{font-size:1.2744px;}
	.st29{font-size:1.2745px;}
	.st30{font-size:1.1363px;}
	.st31{font-size:1.1364px;}
	.st32{font-size:2.2825px;}
	.st33{font-size:3.6664px;}
	.st34{font-size:8.7304px;}
	.st35{font-size:15.0539px;}
	.st36{font-size:21.3811px;}
</style>
<g>
	<text transform="matrix(1 0 0 1 209 457.2902)" class="st0 st1">F</text>
	<text transform="matrix(68.391 0 0 1 211.3672 456.2199)" class="st0 st2">A</text>
	<text transform="matrix(35.1097 0 0 1 211.2422 454.884)" class="st0 st3">Y</text>
	<text transform="matrix(33.1759 0 0 1 209.0469 453.5324)" class="st0 st4">L</text>
	<text transform="matrix(26.7776 0 0 1 209.4922 451.6652)" class="st0 st4">H</text>
	<text transform="matrix(47.0334 0 0 1 228.6172 463.2043)" class="st0 st5">T</text>
	<text transform="matrix(51.2936 0 0 1 227.6719 461.7668)" class="st0 st6">S</text>
	<text transform="matrix(43.3035 0 0 1 228.1172 460.3449)" class="st0 st7">Q</text>
	<text transform="matrix(39.7292 0 0 1 227.3047 458.9543)" class="st0 st5">M</text>
	<text transform="matrix(44.3871 0 0 1 227.8516 457.5324)" class="st0 st6">G</text>
	<text transform="matrix(45.5865 0 0 1 227.8984 456.1183)" class="st0 st6">C</text>
	<text transform="matrix(10.0663 0 0 1 228.3672 454.7121)" class="st0 st8">V</text>
	<text transform="matrix(13.819 0 0 1 226.3203 451.8762)" class="st0 st8">L</text>
	<text transform="matrix(2.975 0 0 1 228.6406 449.048)" class="st0 st9">A</text>
	<text transform="matrix(0.4117 0 0 1 226.4453 441.9699)" class="st0 st10">P</text>
	<text transform="matrix(1 0 0 1 245.9141 456.7121)" class="st0 st1">A</text>
	<text transform="matrix(1 0 0 1 261.3359 455.3449)" class="st0 st11">D</text>
	<text transform="matrix(63.034 0 0 1 260.8359 454.259)" class="st0 st12">F</text>
	<text transform="matrix(42.6351 0 0 1 260.875 452.7043)" class="st0 st13">L</text>
	<text transform="matrix(1 0 0 1 280.3516 457.9699)" class="st0 st14">Y</text>
	<text transform="matrix(1 0 0 1 280.1953 457.0715)" class="st0 st14">V</text>
	<text transform="matrix(1 0 0 1 280.4531 455.9387)" class="st0 st14">A</text>
	<text transform="matrix(60.7707 0 0 1 279.6641 455.0246)" class="st0 st15">G</text>
	<text transform="matrix(20.0087 0 0 1 279.5 453.5793)" class="st0 st16">S</text>
	<text transform="matrix(23.292 0 0 1 278.1562 451.5637)" class="st0 st17">L</text>
	<text transform="matrix(1 0 0 1 296.7734 456.2043)" class="st0 st18">S</text>
	<text transform="matrix(83.0796 0 0 1 295.5391 454.9933)" class="st0 st19">P</text>
	<text transform="matrix(44.3767 0 0 1 314.0469 454.9074)" class="st0 st20">S</text>
	<text transform="matrix(40.2306 0 0 1 313.1641 453.3605)" class="st0 st21">D</text>
	<text transform="matrix(1 0 0 1 338.3359 458.2277)" class="st0 st1">I</text>
	<text transform="matrix(87.4135 0 0 1 331.3203 457.4152)" class="st0 st22">S</text>
	<text transform="matrix(39.9804 0 0 1 332.2578 456.1183)" class="st0 st23">T</text>
	<text transform="matrix(43.6522 0 0 1 330.0938 454.5558)" class="st0 st24">P</text>
	<text transform="matrix(46.7205 0 0 1 329.9141 452.9933)" class="st0 st24">F</text>
	<text transform="matrix(44.0655 0 0 1 330.0703 451.673)" class="st0 st24">E</text>
	<text transform="matrix(1 0 0 1 347.3359 456.7902)" class="st0 st25">E</text>
	<text transform="matrix(59.8873 0 0 1 348.6016 455.548)" class="st0 st26">S</text>
	<text transform="matrix(39.9609 0 0 1 347.2422 454.259)" class="st0 st27">L</text>
	<text transform="matrix(23.9623 0 0 1 347.3672 452.673)" class="st0 st28">P</text>
	<text transform="matrix(19.9548 0 0 1 349.5547 450.7512)" class="st0 st29">A</text>
	<text transform="matrix(22.8821 0 0 1 366.5625 460.6262)" class="st0 st30">V</text>
	<text transform="matrix(24.5287 0 0 1 364.7891 458.673)" class="st0 st31">R</text>
	<text transform="matrix(12.7569 0 0 1 365.875 456.9152)" class="st0 st32">S</text>
	<text transform="matrix(6.4431 0 0 1 365.4922 454.1574)" class="st0 st33">M</text>
	<text transform="matrix(4.0885 0 0 1 364.5234 450.4933)" class="st0 st34">L</text>
	<text transform="matrix(2.1711 0 0 1 364.4609 443.3918)" class="st0 st35">F</text>
	<text transform="matrix(1.1858 0 0 1 366.7266 431.5324)" class="st0 st36">Y</text>
</g>
</svg>
