<?xml version="1.0" encoding="utf-8"?>
<!-- Generator: Adobe Illustrator 24.3.0, SVG Export Plug-In . SVG Version: 6.00 Build 0)  -->
<svg version="1.1" id="Layer_1" xmlns="http://www.w3.org/2000/svg" xmlns:xlink="http://www.w3.org/1999/xlink" x="0px" y="0px"
	 viewBox="0 0 595.28 841.89" style="enable-background:new 0 0 595.28 841.89;" xml:space="preserve">
<style type="text/css">
	.st0{font-family:'Helvetica-Narrow-Bold';}
	.st1{font-size:5.6591px;}
	.st2{font-size:5.659px;}
	.st3{font-size:5.3759px;}
	.st4{font-size:12.7083px;}
	.st5{font-size:12.7084px;}
	.st6{font-size:7.0117px;}
	.st7{font-size:6.6585px;}
	.st8{font-size:15.4137px;}
	.st9{font-size:21.5091px;}
	.st10{font-size:7.0203px;}
	.st11{font-size:23.8193px;}
	.st12{font-size:6.0302px;}
	.st13{font-size:6.036px;}
	.st14{font-size:19.8235px;}
	.st15{font-size:5.7243px;}
	.st16{font-size:20.8745px;}
	.st17{font-size:7.6223px;}
	.st18{font-size:7.2369px;}
	.st19{font-size:34.7125px;}
	.st20{font-size:12.7292px;}
	.st21{font-size:5.6676px;}
	.st22{font-size:9.5854px;}
	.st23{font-size:20.5611px;}
	.st24{font-size:20.5928px;}
	.st25{font-size:42.516px;}
</style>
<g>
	<text transform="matrix(5.091 0 0 1 210.5859 457.6867)" class="st0 st1">N</text>
	<text transform="matrix(6.3075 0 0 1 210.0625 452.843)" class="st0 st2">L</text>
	<text transform="matrix(4.8339 0 0 1 210.6719 447.757)" class="st0 st1">K</text>
	<text transform="matrix(5.091 0 0 1 210.5078 442.6789)" class="st0 st1">H</text>
	<text transform="matrix(4.687 0 0 1 211.5703 437.4914)" class="st0 st3">G</text>
	<text transform="matrix(1.995 0 0 1 212.2656 432.4992)" class="st0 st4">Y</text>
	<text transform="matrix(2.5719 0 0 1 210 422.3351)" class="st0 st5">F</text>
	<text transform="matrix(3.9885 0 0 1 229.6328 457.6867)" class="st0 st6">T</text>
	<text transform="matrix(4.373 0 0 1 228.6797 451.7258)" class="st0 st7">S</text>
	<text transform="matrix(3.3691 0 0 1 228.3125 445.7883)" class="st0 st6">M</text>
	<text transform="matrix(4.3964 0 0 1 227.4297 439.7258)" class="st0 st6">E</text>
	<text transform="matrix(2.3158 0 0 1 227.3438 433.6633)" class="st0 st8">L</text>
	<text transform="matrix(1.0827 0 0 1 229.1406 420.2883)" class="st0 st9">Q</text>
	<text transform="matrix(3.7083 0 0 1 246.6484 457.6867)" class="st0 st6">V</text>
	<text transform="matrix(4.3552 0 0 1 244.7266 451.8664)" class="st0 st6">P</text>
	<text transform="matrix(3.3691 0 0 1 245.5859 445.7883)" class="st0 st6">M</text>
	<text transform="matrix(2.3186 0 0 1 252.9766 439.7258)" class="st0 st10">I</text>
	<text transform="matrix(2.1204 0 0 1 244.5469 433.6633)" class="st0 st8">F</text>
	<text transform="matrix(1.4986 0 0 1 244.6094 421.5226)" class="st0 st11">L</text>
	<text transform="matrix(2.9565 0 0 1 264.2656 457.6945)" class="st0 st12">W</text>
	<text transform="matrix(5.0641 0 0 1 262.0078 452.5539)" class="st0 st12">P</text>
	<text transform="matrix(2.6967 0 0 1 270.25 447.1789)" class="st0 st13">I</text>
	<text transform="matrix(5.1121 0 0 1 261.9844 441.7961)" class="st0 st12">E</text>
	<text transform="matrix(4.6223 0 0 1 262.3438 436.4289)" class="st0 st12">D</text>
	<text transform="matrix(4.2174 0 0 1 264.1953 431.2805)" class="st0 st12">A</text>
	<text transform="matrix(1.2711 0 0 1 263.3984 425.5305)" class="st0 st14">G</text>
	<text transform="matrix(4.2044 0 0 1 281.3672 457.6945)" class="st0 st12">Y</text>
	<text transform="matrix(4.6223 0 0 1 279.4219 452.5539)" class="st0 st12">R</text>
	<text transform="matrix(5.9193 0 0 1 279.1562 447.1789)" class="st0 st12">L</text>
	<text transform="matrix(4.4017 0 0 1 280.6641 441.6945)" class="st0 st15">G</text>
	<text transform="matrix(5.4201 0 0 1 279.1016 436.4133)" class="st0 st12">F</text>
	<text transform="matrix(4.5207 0 0 1 280.7422 431.1711)" class="st0 st15">C</text>
	<text transform="matrix(1.2183 0 0 1 281.4688 425.9133)" class="st0 st16">A</text>
	<text transform="matrix(3.4112 0 0 1 298.4766 457.6945)" class="st0 st17">V</text>
	<text transform="matrix(3.669 0 0 1 298.7344 451.2336)" class="st0 st17">T</text>
	<text transform="matrix(4.0235 0 0 1 297.7812 444.6086)" class="st0 st18">S</text>
	<text transform="matrix(3.6569 0 0 1 296.6953 438.3039)" class="st0 st17">R</text>
	<text transform="matrix(4.288 0 0 1 296.375 431.8351)" class="st0 st17">F</text>
	<text transform="matrix(0.4689 0 0 1 304.7969 425.3664)" class="st0 st19">I</text>
	<text transform="matrix(4.5946 0 0 1 315.7422 457.6867)" class="st0 st1">V</text>
	<text transform="matrix(4.9419 0 0 1 316 452.843)" class="st0 st2">T</text>
	<text transform="matrix(5.4163 0 0 1 315.0547 447.6476)" class="st0 st3">S</text>
	<text transform="matrix(4.687 0 0 1 315.2109 442.5695)" class="st0 st3">G</text>
	<text transform="matrix(4.4939 0 0 1 316.0156 437.5851)" class="st0 st1">A</text>
	<text transform="matrix(2.8087 0 0 1 313.7109 432.4992)" class="st0 st4">L</text>
	<text transform="matrix(1.2787 0 0 1 322.0703 422.3351)" class="st0 st20">I</text>
	<text transform="matrix(3.1504 0 0 1 333.3594 457.6867)" class="st0 st1">W</text>
	<text transform="matrix(2.872 0 0 1 339.3438 452.843)" class="st0 st21">I</text>
	<text transform="matrix(4.687 0 0 1 332.4844 447.6555)" class="st0 st3">G</text>
	<text transform="matrix(5.4473 0 0 1 331.0703 442.6789)" class="st0 st1">E</text>
	<text transform="matrix(4.8137 0 0 1 332.5547 437.4914)" class="st0 st3">C</text>
	<text transform="matrix(2.4029 0 0 1 331.1016 432.4992)" class="st0 st5">P</text>
	<text transform="matrix(2.8087 0 0 1 330.9844 422.3351)" class="st0 st5">L</text>
	<text transform="matrix(5.4163 0 0 1 349.6016 457.5773)" class="st0 st3">S</text>
	<text transform="matrix(4.9255 0 0 1 348.5156 452.843)" class="st0 st2">R</text>
	<text transform="matrix(6.3075 0 0 1 348.2578 447.757)" class="st0 st1">L</text>
	<text transform="matrix(5.091 0 0 1 348.7031 442.6789)" class="st0 st1">H</text>
	<text transform="matrix(4.4939 0 0 1 350.5625 437.5851)" class="st0 st1">A</text>
	<text transform="matrix(2.2006 0 0 1 350.5469 432.4992)" class="st0 st4">T</text>
	<text transform="matrix(2.5718 0 0 1 348.1875 422.3351)" class="st0 st5">F</text>
	<text transform="matrix(2.6531 0 0 1 367.8438 457.6867)" class="st0 st22">A</text>
	<text transform="matrix(1.2646 0 0 1 367.5703 449.8508)" class="st0 st23">V</text>
	<text transform="matrix(0.7904 0 0 1 374.1328 434.1633)" class="st0 st24">I</text>
	<text transform="matrix(0.8396 0 0 1 365.5312 418.4758)" class="st0 st25">L</text>
</g>
</svg>
