<?xml version="1.0" encoding="utf-8"?>
<!-- Generator: Adobe Illustrator 24.3.0, SVG Export Plug-In . SVG Version: 6.00 Build 0)  -->
<svg version="1.1" id="Layer_1" xmlns="http://www.w3.org/2000/svg" xmlns:xlink="http://www.w3.org/1999/xlink" x="0px" y="0px"
	 viewBox="0 0 595.28 841.89" style="enable-background:new 0 0 595.28 841.89;" xml:space="preserve">
<style type="text/css">
	.st0{font-family:'Helvetica-Narrow-Bold';}
	.st1{font-size:0.2351px;}
	.st2{font-size:0.2149px;}
	.st3{font-size:0.2352px;}
	.st4{font-size:1.8643px;}
	.st5{font-size:1.7719px;}
	.st6{font-size:3.3213px;}
	.st7{font-size:5.1261px;}
	.st8{font-size:6.7551px;}
	.st9{font-size:10.0133px;}
	.st10{font-size:1.8473px;}
	.st11{font-size:1.8472px;}
	.st12{font-size:5.0884px;}
	.st13{font-size:11.5883px;}
	.st14{font-size:18.0529px;}
	.st15{font-size:47.2233px;}
	.st16{font-size:1.0978px;}
	.st17{font-size:1.2158px;}
	.st18{font-size:2.3903px;}
	.st19{font-size:2.5188px;}
	.st20{font-size:3.8218px;}
	.st21{font-size:5.1249px;}
	.st22{font-size:1.1671px;}
	.st23{font-size:2.3241px;}
	.st24{font-size:2.4494px;}
	.st25{font-size:4.7559px;}
	.st26{font-size:6.2889px;}
	.st27{font-size:1.3377px;}
	.st28{font-size:1.3376px;}
	.st29{font-size:4.0692px;}
	.st30{font-size:6.8124px;}
	.st31{font-size:23.1936px;}
	.st32{font-size:28.6567px;}
	.st33{font-size:0.8251px;}
	.st34{font-size:0.8274px;}
	.st35{font-size:1.8389px;}
	.st36{font-size:1.9347px;}
	.st37{font-size:3.0442px;}
	.st38{font-size:0.5301px;}
	.st39{font-size:0.557px;}
	.st40{font-size:0.5569px;}
	.st41{font-size:2.5115px;}
	.st42{font-size:5.7899px;}
	.st43{font-size:8.3641px;}
	.st44{font-size:18.1221px;}
	.st45{font-size:0.8551px;}
	.st46{font-size:0.9467px;}
	.st47{font-size:0.9457px;}
	.st48{font-size:3.2837px;}
	.st49{font-size:7.9614px;}
	.st50{font-size:26.6683px;}
	.st51{font-size:2.8273px;}
	.st52{font-size:7.0523px;}
	.st53{font-size:11.2903px;}
	.st54{font-size:91.4884px;}
</style>
<g>
	<text transform="matrix(1 0 0 1 213.3594 469.5441)" class="st0 st1">V</text>
	<text transform="matrix(1 0 0 1 213.1016 468.3957)" class="st0 st2">Q</text>
	<text transform="matrix(1 0 0 1 211.0781 467.2629)" class="st0 st1">L</text>
	<text transform="matrix(1 0 0 1 211.1562 466.1301)" class="st0 st3">E</text>
	<text transform="matrix(16.7704 0 0 1 213.6328 464.9816)" class="st0 st4">T</text>
	<text transform="matrix(15.8973 0 0 1 212.75 462.6691)" class="st0 st5">G</text>
	<text transform="matrix(16.7145 0 0 1 211.5859 460.1848)" class="st0 st4">D</text>
	<text transform="matrix(9.8009 0 0 1 212.5781 457.841)" class="st0 st6">S</text>
	<text transform="matrix(6.0788 0 0 1 211.3672 454.4894)" class="st0 st7">R</text>
	<text transform="matrix(5.4091 0 0 1 211 449.6848)" class="st0 st8">F</text>
	<text transform="matrix(2.8395 0 0 1 213.6484 443.9894)" class="st0 st9">A</text>
	<text transform="matrix(15.3432 0 0 1 232.7266 469.5363)" class="st0 st10">Y</text>
	<text transform="matrix(15.7353 0 0 1 232.5391 467.2941)" class="st0 st11">V</text>
	<text transform="matrix(7.1807 0 0 1 230.1953 465.0363)" class="st0 st12">F</text>
	<text transform="matrix(1.5703 0 0 1 239.7656 460.2863)" class="st0 st13">I</text>
	<text transform="matrix(2.2104 0 0 1 230.2734 451.0285)" class="st0 st14">L</text>
	<text transform="matrix(0.6599 0 0 1 230.5625 437.0285)" class="st0 st15">R</text>
	<text transform="matrix(23.7116 0 0 1 251.4688 465.8332)" class="st0 st16">Q</text>
	<text transform="matrix(26.4889 0 0 1 250.0469 464.0676)" class="st0 st17">N</text>
	<text transform="matrix(26.4889 0 0 1 249.9531 462.2473)" class="st0 st17">H</text>
	<text transform="matrix(13.6186 0 0 1 250.9688 460.1301)" class="st0 st18">S</text>
	<text transform="matrix(12.1418 0 0 1 250.1406 457.4582)" class="st0 st19">K</text>
	<text transform="matrix(8.1533 0 0 1 249.75 454.716)" class="st0 st20">R</text>
	<text transform="matrix(9.0175 0 0 1 249.5625 450.8254)" class="st0 st20">E</text>
	<text transform="matrix(5.5479 0 0 1 252.0391 447.1848)" class="st0 st21">A</text>
	<text transform="matrix(24.2857 0 0 1 271.125 464.0285)" class="st0 st22">Y</text>
	<text transform="matrix(27.595 0 0 1 269.2422 462.2707)" class="st0 st22">N</text>
	<text transform="matrix(29.5297 0 0 1 268.75 460.5129)" class="st0 st22">E</text>
	<text transform="matrix(14.0064 0 0 1 270.1562 458.4738)" class="st0 st23">S</text>
	<text transform="matrix(12.7218 0 0 1 269.1719 455.8879)" class="st0 st24">D</text>
	<text transform="matrix(5.9227 0 0 1 270.3359 452.9191)" class="st0 st25">G</text>
	<text transform="matrix(4.9548 0 0 1 268.9453 448.6223)" class="st0 st26">R</text>
	<text transform="matrix(21.1881 0 0 1 290.3203 469.5441)" class="st0 st27">Y</text>
	<text transform="matrix(21.73 0 0 1 290.125 467.7785)" class="st0 st28">V</text>
	<text transform="matrix(22.8629 0 0 1 288.5156 465.7785)" class="st0 st27">K</text>
	<text transform="matrix(27.316 0 0 1 287.7812 463.7785)" class="st0 st28">F</text>
	<text transform="matrix(6.9872 0 0 1 290.4297 461.7707)" class="st0 st29">A</text>
	<text transform="matrix(2.6711 0 0 1 297.3516 458.0051)" class="st0 st30">I</text>
	<text transform="matrix(1.7205 0 0 1 287.8438 451.9973)" class="st0 st31">L</text>
	<text transform="matrix(1.0874 0 0 1 288.1406 434.4504)" class="st0 st32">R</text>
	<text transform="matrix(37.0664 0 0 1 307.7031 465.6613)" class="st0 st33">K</text>
	<text transform="matrix(21.9917 0 0 1 316.5469 464.1457)" class="st0 st34">I</text>
	<text transform="matrix(17.7018 0 0 1 308.5547 462.3723)" class="st0 st35">S</text>
	<text transform="matrix(16.1064 0 0 1 307.3359 460.0285)" class="st0 st36">R</text>
	<text transform="matrix(16.6464 0 0 1 307.625 457.6379)" class="st0 st36">N</text>
	<text transform="matrix(20.626 0 0 1 307.0391 455.2629)" class="st0 st36">L</text>
	<text transform="matrix(9.5484 0 0 1 309.3125 452.8723)" class="st0 st37">V</text>
	<text transform="matrix(10.2704 0 0 1 309.6094 449.6223)" class="st0 st37">T</text>
	<text transform="matrix(61.4069 0 0 1 327.7188 469.5285)" class="st0 st38">S</text>
	<text transform="matrix(61.2938 0 0 1 326.3594 468.1769)" class="st0 st39">P</text>
	<text transform="matrix(57.8263 0 0 1 326.8281 466.8254)" class="st0 st40">N</text>
	<text transform="matrix(47.4168 0 0 1 327.3203 465.4504)" class="st0 st39">M</text>
	<text transform="matrix(61.876 0 0 1 326.3125 464.0988)" class="st0 st39">E</text>
	<text transform="matrix(51.0483 0 0 1 328.8281 462.7316)" class="st0 st39">A</text>
	<text transform="matrix(12.1775 0 0 1 326.9062 461.3723)" class="st0 st41">K</text>
	<text transform="matrix(12.407 0 0 1 326.75 458.4035)" class="st0 st41">D</text>
	<text transform="matrix(4.496 0 0 1 328.2578 455.3488)" class="st0 st42">Q</text>
	<text transform="matrix(4.7709 0 0 1 326.2344 449.9816)" class="st0 st43">L</text>
	<text transform="matrix(1.7195 0 0 1 326.5234 442.9348)" class="st0 st44">R</text>
	<text transform="matrix(30.4425 0 0 1 347.4375 469.4973)" class="st0 st45">Q</text>
	<text transform="matrix(34.0167 0 0 1 346.0234 467.8644)" class="st0 st46">N</text>
	<text transform="matrix(19.2413 0 0 1 354.9375 466.1848)" class="st0 st47">I</text>
	<text transform="matrix(8.8518 0 0 1 347.7109 464.5051)" class="st0 st48">V</text>
	<text transform="matrix(8.0426 0 0 1 346.5156 461.1457)" class="st0 st48">M</text>
	<text transform="matrix(9.3136 0 0 1 346.1094 457.7941)" class="st0 st48">K</text>
	<text transform="matrix(4.3288 0 0 1 345.5312 454.4348)" class="st0 st49">E</text>
	<text transform="matrix(3.9139 0 0 1 345.9375 447.7316)" class="st0 st49">D</text>
	<text transform="matrix(1.1684 0 0 1 345.7188 441.0129)" class="st0 st50">R</text>
	<text transform="matrix(11.058 0 0 1 367.1875 469.5363)" class="st0 st51">T</text>
	<text transform="matrix(12.9234 0 0 1 364.5547 466.6066)" class="st0 st51">F</text>
	<text transform="matrix(4.1216 0 0 1 366.9062 463.6535)" class="st0 st52">V</text>
	<text transform="matrix(1.6117 0 0 1 374.125 457.5363)" class="st0 st53">I</text>
	<text transform="matrix(0.4362 0 0 1 364.625 448.466)" class="st0 st54">L</text>
</g>
</svg>
