<?xml version="1.0" encoding="utf-8"?>
<!-- Generator: Adobe Illustrator 24.3.0, SVG Export Plug-In . SVG Version: 6.00 Build 0)  -->
<svg version="1.1" id="Layer_1" xmlns="http://www.w3.org/2000/svg" xmlns:xlink="http://www.w3.org/1999/xlink" x="0px" y="0px"
	 viewBox="0 0 595.28 841.89" style="enable-background:new 0 0 595.28 841.89;" xml:space="preserve">
<style type="text/css">
	.st0{font-family:'Helvetica-Narrow-Bold';}
	.st1{font-size:34.8762px;}
	.st2{font-size:33.121px;}
	.st3{font-size:34.8727px;}
	.st4{font-size:33.1209px;}
	.st5{font-size:43.7069px;}
	.st6{font-size:88.8078px;}
	.st7{font-size:34.9223px;}
	.st8{font-size:31.4973px;}
	.st9{font-size:170.4154px;}
</style>
<g>
	<text transform="matrix(0.8019 0 0 1 213.3594 471.5285)" class="st0 st1">T</text>
	<text transform="matrix(0.8791 0 0 1 212.4062 444.9191)" class="st0 st2">S</text>
	<text transform="matrix(0.9372 0 0 1 211 419.4582)" class="st0 st3">F</text>
	<text transform="matrix(0.7455 0 0 1 230.375 471.5285)" class="st0 st1">V</text>
	<text transform="matrix(0.7992 0 0 1 228.6016 445.6144)" class="st0 st1">R</text>
	<text transform="matrix(0.7844 0 0 1 228.9453 419.4582)" class="st0 st3">K</text>
	<text transform="matrix(0.7992 0 0 1 245.875 471.5285)" class="st0 st1">R</text>
	<text transform="matrix(0.8839 0 0 1 245.7031 445.6144)" class="st0 st1">E</text>
	<text transform="matrix(0.7293 0 0 1 247.9219 419.4582)" class="st0 st3">A</text>
	<text transform="matrix(1.0235 0 0 1 262.8906 471.5285)" class="st0 st1">L</text>
	<text transform="matrix(0.7608 0 0 1 264.3906 444.9894)" class="st0 st2">G</text>
	<text transform="matrix(0.7813 0 0 1 264.4688 418.8254)" class="st0 st4">C</text>
	<text transform="matrix(0.6773 0 0 1 281.1328 471.5285)" class="st0 st1">M</text>
	<text transform="matrix(1.0235 0 0 1 280.1641 445.6144)" class="st0 st1">L</text>
	<text transform="matrix(0.7844 0 0 1 280.7734 419.4582)" class="st0 st3">K</text>
	<text transform="matrix(0.6377 0 0 1 297.6953 471.5285)" class="st0 st5">R</text>
	<text transform="matrix(0.308 0 0 1 298.0469 439.1613)" class="st0 st6">K</text>
	<text transform="matrix(0.7455 0 0 1 316.75 471.5285)" class="st0 st1">V</text>
	<text transform="matrix(0.7992 0 0 1 314.9688 445.6144)" class="st0 st1">R</text>
	<text transform="matrix(0.8757 0 0 1 314.8281 419.4582)" class="st0 st3">P</text>
	<text transform="matrix(0.7455 0 0 1 334.0234 471.5285)" class="st0 st1">V</text>
	<text transform="matrix(0.4661 0 0 1 340.3438 445.6144)" class="st0 st7">I</text>
	<text transform="matrix(0.7608 0 0 1 333.4844 418.8254)" class="st0 st2">G</text>
	<text transform="matrix(0.7394 0 0 1 351.0625 469.7004)" class="st0 st8">Q</text>
	<text transform="matrix(0.4661 0 0 1 357.8594 445.6144)" class="st0 st7">I</text>
	<text transform="matrix(0.7993 0 0 1 349.7109 419.4582)" class="st0 st3">D</text>
	<text transform="matrix(0.2095 0 0 1 366.5312 471.5285)" class="st0 st9">L</text>
</g>
</svg>
